<svg width="224" height="367" viewBox="0 0 224 367" fill="none" xmlns="http://www.w3.org/2000/svg">
<g filter="url(#filter0_ddd_225_6209)">
<g clip-path="url(#clip0_225_6209)">
<rect x="12.582" y="6.19202" width="199.301" height="342" rx="8" fill="#3F3F45"/>
<rect x="24.582" y="31.192" width="55" height="18" rx="4" fill="#27272A"/>
<g clip-path="url(#clip1_225_6209)">
<path fill-rule="evenodd" clip-rule="evenodd" d="M185.883 30.192C180.358 30.192 175.883 34.667 175.883 40.192C175.883 45.717 180.358 50.192 185.883 50.192C191.408 50.192 195.883 45.717 195.883 40.192C195.883 34.667 191.408 30.192 185.883 30.192ZM187.133 46.442H184.633V43.942H187.133V46.442ZM189.545 38.292C189.37 38.692 189.108 39.092 188.77 39.5045L187.445 41.2295C187.295 41.417 187.145 41.592 187.095 41.7545C187.045 41.917 186.983 42.1295 186.983 42.4045V42.692H184.783V41.292C184.783 41.292 184.845 40.6545 185.045 40.4045L186.383 38.6045C186.658 38.2795 186.82 37.992 186.933 37.7545C187.045 37.517 187.083 37.2795 187.083 37.0295C187.083 36.6545 186.958 36.342 186.733 36.092C186.508 35.8545 186.183 35.742 185.783 35.742C185.37 35.742 185.045 35.867 184.808 36.1045C184.57 36.342 184.395 36.6795 184.308 37.117C184.27 37.2545 184.183 37.3045 184.058 37.292L181.933 36.9795C181.783 36.967 181.733 36.8795 181.758 36.742C181.908 35.717 182.333 34.9045 183.045 34.317C183.758 33.717 184.695 33.417 185.858 33.417C186.445 33.417 186.983 33.5045 187.47 33.692C187.958 33.8795 188.37 34.117 188.72 34.4295C189.07 34.742 189.333 35.117 189.533 35.542C189.72 35.9795 189.808 36.442 189.808 36.942C189.808 37.442 189.72 37.8795 189.545 38.292Z" fill="#27272A"/>
</g>
<rect width="199.301" height="192" transform="translate(12.582 68.192)" fill="#262629"/>
<g filter="url(#filter1_di_225_6209)">
<rect width="199.301" height="192" transform="translate(12.582 68.192)" fill="#27272A"/>
<g filter="url(#filter2_di_225_6209)">
<mask id="path-4-inside-1_225_6209" fill="white">
<path d="M20.582 82.192C20.582 78.8783 23.2683 76.192 26.582 76.192H197.883C201.197 76.192 203.883 78.8783 203.883 82.192V102.192C203.883 105.506 201.197 108.192 197.883 108.192H26.582C23.2683 108.192 20.582 105.506 20.582 102.192V82.192Z"/>
</mask>
<path d="M20.582 82.192C20.582 78.8783 23.2683 76.192 26.582 76.192H197.883C201.197 76.192 203.883 78.8783 203.883 82.192V102.192C203.883 105.506 201.197 108.192 197.883 108.192H26.582C23.2683 108.192 20.582 105.506 20.582 102.192V82.192Z" fill="#3F3F45" shape-rendering="crispEdges"/>
<rect x="26.582" y="82.192" width="20" height="20" rx="4" fill="#538369"/>
<rect x="56.582" y="86.692" width="40" height="11" rx="4" fill="#717179"/>
<rect x="106.582" y="86.692" width="12" height="11" rx="4" fill="#717179"/>
<rect x="128.582" y="86.692" width="32" height="11" rx="4" fill="#717179"/>
<path d="M19.582 82.192C19.582 78.326 22.716 75.192 26.582 75.192H197.883C201.749 75.192 204.883 78.326 204.883 82.192H202.883C202.883 79.4306 200.645 77.192 197.883 77.192H26.582C23.8206 77.192 21.582 79.4306 21.582 82.192H19.582ZM204.883 102.192C204.883 106.058 201.749 109.192 197.883 109.192H26.582C22.716 109.192 19.582 106.058 19.582 102.192H21.582C21.582 104.953 23.8206 107.192 26.582 107.192H197.883C200.645 107.192 202.883 104.953 202.883 102.192H204.883ZM26.582 109.192C22.716 109.192 19.582 106.058 19.582 102.192V82.192C19.582 78.326 22.716 75.192 26.582 75.192V77.192C23.8206 77.192 21.582 79.4306 21.582 82.192V102.192C21.582 104.953 23.8206 107.192 26.582 107.192V109.192ZM197.883 75.192C201.749 75.192 204.883 78.326 204.883 82.192V102.192C204.883 106.058 201.749 109.192 197.883 109.192V107.192C200.645 107.192 202.883 104.953 202.883 102.192V82.192C202.883 79.4306 200.645 77.192 197.883 77.192V75.192Z" fill="#27272A" mask="url(#path-4-inside-1_225_6209)"/>
</g>
<g filter="url(#filter3_di_225_6209)">
<mask id="path-10-inside-2_225_6209" fill="white">
<path d="M20.582 118.192C20.582 114.878 23.2683 112.192 26.582 112.192H197.883C201.197 112.192 203.883 114.878 203.883 118.192V138.192C203.883 141.506 201.197 144.192 197.883 144.192H26.582C23.2683 144.192 20.582 141.506 20.582 138.192V118.192Z"/>
</mask>
<path d="M20.582 118.192C20.582 114.878 23.2683 112.192 26.582 112.192H197.883C201.197 112.192 203.883 114.878 203.883 118.192V138.192C203.883 141.506 201.197 144.192 197.883 144.192H26.582C23.2683 144.192 20.582 141.506 20.582 138.192V118.192Z" fill="#3F3F45" shape-rendering="crispEdges"/>
<rect x="26.582" y="118.192" width="20" height="20" rx="4" fill="#538369"/>
<rect x="56.582" y="122.692" width="60" height="11" rx="4" fill="#717179"/>
<path d="M19.582 118.192C19.582 114.326 22.716 111.192 26.582 111.192H197.883C201.749 111.192 204.883 114.326 204.883 118.192H202.883C202.883 115.431 200.645 113.192 197.883 113.192H26.582C23.8206 113.192 21.582 115.431 21.582 118.192H19.582ZM204.883 138.192C204.883 142.058 201.749 145.192 197.883 145.192H26.582C22.716 145.192 19.582 142.058 19.582 138.192H21.582C21.582 140.953 23.8206 143.192 26.582 143.192H197.883C200.645 143.192 202.883 140.953 202.883 138.192H204.883ZM26.582 145.192C22.716 145.192 19.582 142.058 19.582 138.192V118.192C19.582 114.326 22.716 111.192 26.582 111.192V113.192C23.8206 113.192 21.582 115.431 21.582 118.192V138.192C21.582 140.953 23.8206 143.192 26.582 143.192V145.192ZM197.883 111.192C201.749 111.192 204.883 114.326 204.883 118.192V138.192C204.883 142.058 201.749 145.192 197.883 145.192V143.192C200.645 143.192 202.883 140.953 202.883 138.192V118.192C202.883 115.431 200.645 113.192 197.883 113.192V111.192Z" fill="#27272A" mask="url(#path-10-inside-2_225_6209)"/>
</g>
<path d="M24.582 164.192H48.7326" stroke="#3F3F45"/>
<rect x="56.7324" y="158.692" width="111" height="11" rx="4" fill="#3F3F45"/>
<path d="M175.732 164.192H199.883" stroke="#3F3F45"/>
<g filter="url(#filter4_di_225_6209)">
<mask id="path-17-inside-3_225_6209" fill="white">
<path d="M20.582 190.192C20.582 186.878 23.2683 184.192 26.582 184.192H197.883C201.197 184.192 203.883 186.878 203.883 190.192V210.192C203.883 213.506 201.197 216.192 197.883 216.192H26.582C23.2683 216.192 20.582 213.506 20.582 210.192V190.192Z"/>
</mask>
<path d="M20.582 190.192C20.582 186.878 23.2683 184.192 26.582 184.192H197.883C201.197 184.192 203.883 186.878 203.883 190.192V210.192C203.883 213.506 201.197 216.192 197.883 216.192H26.582C23.2683 216.192 20.582 213.506 20.582 210.192V190.192Z" fill="#3F3F45" shape-rendering="crispEdges"/>
<rect x="26.582" y="190.192" width="20" height="20" rx="4" fill="#3B5CA2"/>
<rect x="56.582" y="194.692" width="18" height="11" rx="4" fill="#717179"/>
<rect x="84.582" y="194.692" width="37" height="11" rx="4" fill="#717179"/>
<path d="M19.582 190.192C19.582 186.326 22.716 183.192 26.582 183.192H197.883C201.749 183.192 204.883 186.326 204.883 190.192H202.883C202.883 187.431 200.645 185.192 197.883 185.192H26.582C23.8206 185.192 21.582 187.431 21.582 190.192H19.582ZM204.883 210.192C204.883 214.058 201.749 217.192 197.883 217.192H26.582C22.716 217.192 19.582 214.058 19.582 210.192H21.582C21.582 212.953 23.8206 215.192 26.582 215.192H197.883C200.645 215.192 202.883 212.953 202.883 210.192H204.883ZM26.582 217.192C22.716 217.192 19.582 214.058 19.582 210.192V190.192C19.582 186.326 22.716 183.192 26.582 183.192V185.192C23.8206 185.192 21.582 187.431 21.582 190.192V210.192C21.582 212.953 23.8206 215.192 26.582 215.192V217.192ZM197.883 183.192C201.749 183.192 204.883 186.326 204.883 190.192V210.192C204.883 214.058 201.749 217.192 197.883 217.192V215.192C200.645 215.192 202.883 212.953 202.883 210.192V190.192C202.883 187.431 200.645 185.192 197.883 185.192V183.192Z" fill="#27272A" mask="url(#path-17-inside-3_225_6209)"/>
</g>
<g filter="url(#filter5_di_225_6209)">
<mask id="path-22-inside-4_225_6209" fill="white">
<path d="M20.582 226.192C20.582 222.878 23.2683 220.192 26.582 220.192H197.883C201.197 220.192 203.883 222.878 203.883 226.192V246.192C203.883 249.506 201.197 252.192 197.883 252.192H26.582C23.2683 252.192 20.582 249.506 20.582 246.192V226.192Z"/>
</mask>
<path d="M20.582 226.192C20.582 222.878 23.2683 220.192 26.582 220.192H197.883C201.197 220.192 203.883 222.878 203.883 226.192V246.192C203.883 249.506 201.197 252.192 197.883 252.192H26.582C23.2683 252.192 20.582 249.506 20.582 246.192V226.192Z" fill="#3F3F45" shape-rendering="crispEdges"/>
<rect x="26.582" y="226.192" width="20" height="20" rx="4" fill="#538369"/>
<rect x="56.582" y="230.692" width="37" height="11" rx="4" fill="#717179"/>
<rect x="103.582" y="230.692" width="78" height="11" rx="4" fill="#717179"/>
<path d="M19.582 226.192C19.582 222.326 22.716 219.192 26.582 219.192H197.883C201.749 219.192 204.883 222.326 204.883 226.192H202.883C202.883 223.431 200.645 221.192 197.883 221.192H26.582C23.8206 221.192 21.582 223.431 21.582 226.192H19.582ZM204.883 246.192C204.883 250.058 201.749 253.192 197.883 253.192H26.582C22.716 253.192 19.582 250.058 19.582 246.192H21.582C21.582 248.953 23.8206 251.192 26.582 251.192H197.883C200.645 251.192 202.883 248.953 202.883 246.192H204.883ZM26.582 253.192C22.716 253.192 19.582 250.058 19.582 246.192V226.192C19.582 222.326 22.716 219.192 26.582 219.192V221.192C23.8206 221.192 21.582 223.431 21.582 226.192V246.192C21.582 248.953 23.8206 251.192 26.582 251.192V253.192ZM197.883 219.192C201.749 219.192 204.883 222.326 204.883 226.192V246.192C204.883 250.058 201.749 253.192 197.883 253.192V251.192C200.645 251.192 202.883 248.953 202.883 246.192V226.192C202.883 223.431 200.645 221.192 197.883 221.192V219.192Z" fill="#27272A" mask="url(#path-22-inside-4_225_6209)"/>
</g>
</g>
<g filter="url(#filter6_d_225_6209)">
<path d="M20.582 276.192C20.582 272.878 23.2683 270.192 26.582 270.192H197.883C201.197 270.192 203.883 272.878 203.883 276.192V296.192C203.883 299.506 201.197 302.192 197.883 302.192H26.582C23.2683 302.192 20.582 299.506 20.582 296.192V276.192Z" fill="#27272A" shape-rendering="crispEdges"/>
<rect x="28.582" y="280.692" width="46" height="11" rx="4" fill="#717179"/>
<rect x="84.582" y="280.692" width="85" height="11" rx="4" fill="#717179"/>
</g>
<g filter="url(#filter7_d_225_6209)">
<path d="M20.582 314.192C20.582 310.878 23.2683 308.192 26.582 308.192H197.883C201.197 308.192 203.883 310.878 203.883 314.192V334.192C203.883 337.506 201.197 340.192 197.883 340.192H26.582C23.2683 340.192 20.582 337.506 20.582 334.192V314.192Z" fill="#27272A" shape-rendering="crispEdges"/>
<rect x="28.582" y="318.692" width="53" height="11" rx="4" fill="#717179"/>
</g>
</g>
</g>
<circle cx="212.5" cy="286.5" r="3" fill="#717179" stroke="#27272A"/>
<circle cx="212.5" cy="325.5" r="3" fill="#717179" stroke="#27272A"/>
<circle cx="12.166" cy="40.1766" r="3" fill="#717179" stroke="#27272A"/>
<defs>
<filter id="filter0_ddd_225_6209" x="0.582031" y="0.192017" width="223.301" height="366" filterUnits="userSpaceOnUse" color-interpolation-filters="sRGB">
<feFlood flood-opacity="0" result="BackgroundImageFix"/>
<feColorMatrix in="SourceAlpha" type="matrix" values="0 0 0 0 0 0 0 0 0 0 0 0 0 0 0 0 0 0 127 0" result="hardAlpha"/>
<feOffset dy="6"/>
<feGaussianBlur stdDeviation="6"/>
<feColorMatrix type="matrix" values="0 0 0 0 0.129412 0 0 0 0 0.145098 0 0 0 0 0.160784 0 0 0 0.08 0"/>
<feBlend mode="normal" in2="BackgroundImageFix" result="effect1_dropShadow_225_6209"/>
<feColorMatrix in="SourceAlpha" type="matrix" values="0 0 0 0 0 0 0 0 0 0 0 0 0 0 0 0 0 0 127 0" result="hardAlpha"/>
<feOffset dy="1"/>
<feGaussianBlur stdDeviation="1"/>
<feColorMatrix type="matrix" values="0 0 0 0 0.129412 0 0 0 0 0.145098 0 0 0 0 0.160784 0 0 0 0.12 0"/>
<feBlend mode="normal" in2="effect1_dropShadow_225_6209" result="effect2_dropShadow_225_6209"/>
<feColorMatrix in="SourceAlpha" type="matrix" values="0 0 0 0 0 0 0 0 0 0 0 0 0 0 0 0 0 0 127 0" result="hardAlpha"/>
<feOffset dy="1"/>
<feComposite in2="hardAlpha" operator="out"/>
<feColorMatrix type="matrix" values="0 0 0 0 0.152941 0 0 0 0 0.152941 0 0 0 0 0.164706 0 0 0 1 0"/>
<feBlend mode="normal" in2="effect2_dropShadow_225_6209" result="effect3_dropShadow_225_6209"/>
<feBlend mode="normal" in="SourceGraphic" in2="effect3_dropShadow_225_6209" result="shape"/>
</filter>
<filter id="filter1_di_225_6209" x="10.582" y="66.192" width="203.301" height="196" filterUnits="userSpaceOnUse" color-interpolation-filters="sRGB">
<feFlood flood-opacity="0" result="BackgroundImageFix"/>
<feColorMatrix in="SourceAlpha" type="matrix" values="0 0 0 0 0 0 0 0 0 0 0 0 0 0 0 0 0 0 127 0" result="hardAlpha"/>
<feOffset/>
<feGaussianBlur stdDeviation="1"/>
<feComposite in2="hardAlpha" operator="out"/>
<feColorMatrix type="matrix" values="0 0 0 0 0.0941176 0 0 0 0 0.0941176 0 0 0 0 0.105882 0 0 0 1 0"/>
<feBlend mode="normal" in2="BackgroundImageFix" result="effect1_dropShadow_225_6209"/>
<feBlend mode="normal" in="SourceGraphic" in2="effect1_dropShadow_225_6209" result="shape"/>
<feColorMatrix in="SourceAlpha" type="matrix" values="0 0 0 0 0 0 0 0 0 0 0 0 0 0 0 0 0 0 127 0" result="hardAlpha"/>
<feOffset dy="2"/>
<feGaussianBlur stdDeviation="1"/>
<feComposite in2="hardAlpha" operator="arithmetic" k2="-1" k3="1"/>
<feColorMatrix type="matrix" values="0 0 0 0 0.0941176 0 0 0 0 0.0941176 0 0 0 0 0.105882 0 0 0 1 0"/>
<feBlend mode="normal" in2="shape" result="effect2_innerShadow_225_6209"/>
</filter>
<filter id="filter2_di_225_6209" x="19.582" y="76.192" width="185.301" height="34" filterUnits="userSpaceOnUse" color-interpolation-filters="sRGB">
<feFlood flood-opacity="0" result="BackgroundImageFix"/>
<feColorMatrix in="SourceAlpha" type="matrix" values="0 0 0 0 0 0 0 0 0 0 0 0 0 0 0 0 0 0 127 0" result="hardAlpha"/>
<feOffset dy="1"/>
<feGaussianBlur stdDeviation="0.5"/>
<feComposite in2="hardAlpha" operator="out"/>
<feColorMatrix type="matrix" values="0 0 0 0 0.0941176 0 0 0 0 0.0941176 0 0 0 0 0.105882 0 0 0 1 0"/>
<feBlend mode="normal" in2="BackgroundImageFix" result="effect1_dropShadow_225_6209"/>
<feBlend mode="normal" in="SourceGraphic" in2="effect1_dropShadow_225_6209" result="shape"/>
<feColorMatrix in="SourceAlpha" type="matrix" values="0 0 0 0 0 0 0 0 0 0 0 0 0 0 0 0 0 0 127 0" result="hardAlpha"/>
<feOffset/>
<feGaussianBlur stdDeviation="0.5"/>
<feComposite in2="hardAlpha" operator="arithmetic" k2="-1" k3="1"/>
<feColorMatrix type="matrix" values="0 0 0 0 0 0 0 0 0 0 0 0 0 0 0 0 0 0 0.25 0"/>
<feBlend mode="normal" in2="shape" result="effect2_innerShadow_225_6209"/>
</filter>
<filter id="filter3_di_225_6209" x="19.582" y="112.192" width="185.301" height="34" filterUnits="userSpaceOnUse" color-interpolation-filters="sRGB">
<feFlood flood-opacity="0" result="BackgroundImageFix"/>
<feColorMatrix in="SourceAlpha" type="matrix" values="0 0 0 0 0 0 0 0 0 0 0 0 0 0 0 0 0 0 127 0" result="hardAlpha"/>
<feOffset dy="1"/>
<feGaussianBlur stdDeviation="0.5"/>
<feComposite in2="hardAlpha" operator="out"/>
<feColorMatrix type="matrix" values="0 0 0 0 0.0941176 0 0 0 0 0.0941176 0 0 0 0 0.105882 0 0 0 1 0"/>
<feBlend mode="normal" in2="BackgroundImageFix" result="effect1_dropShadow_225_6209"/>
<feBlend mode="normal" in="SourceGraphic" in2="effect1_dropShadow_225_6209" result="shape"/>
<feColorMatrix in="SourceAlpha" type="matrix" values="0 0 0 0 0 0 0 0 0 0 0 0 0 0 0 0 0 0 127 0" result="hardAlpha"/>
<feOffset/>
<feGaussianBlur stdDeviation="0.5"/>
<feComposite in2="hardAlpha" operator="arithmetic" k2="-1" k3="1"/>
<feColorMatrix type="matrix" values="0 0 0 0 0 0 0 0 0 0 0 0 0 0 0 0 0 0 0.25 0"/>
<feBlend mode="normal" in2="shape" result="effect2_innerShadow_225_6209"/>
</filter>
<filter id="filter4_di_225_6209" x="19.582" y="184.192" width="185.301" height="34" filterUnits="userSpaceOnUse" color-interpolation-filters="sRGB">
<feFlood flood-opacity="0" result="BackgroundImageFix"/>
<feColorMatrix in="SourceAlpha" type="matrix" values="0 0 0 0 0 0 0 0 0 0 0 0 0 0 0 0 0 0 127 0" result="hardAlpha"/>
<feOffset dy="1"/>
<feGaussianBlur stdDeviation="0.5"/>
<feComposite in2="hardAlpha" operator="out"/>
<feColorMatrix type="matrix" values="0 0 0 0 0.0941176 0 0 0 0 0.0941176 0 0 0 0 0.105882 0 0 0 1 0"/>
<feBlend mode="normal" in2="BackgroundImageFix" result="effect1_dropShadow_225_6209"/>
<feBlend mode="normal" in="SourceGraphic" in2="effect1_dropShadow_225_6209" result="shape"/>
<feColorMatrix in="SourceAlpha" type="matrix" values="0 0 0 0 0 0 0 0 0 0 0 0 0 0 0 0 0 0 127 0" result="hardAlpha"/>
<feOffset/>
<feGaussianBlur stdDeviation="0.5"/>
<feComposite in2="hardAlpha" operator="arithmetic" k2="-1" k3="1"/>
<feColorMatrix type="matrix" values="0 0 0 0 0 0 0 0 0 0 0 0 0 0 0 0 0 0 0.25 0"/>
<feBlend mode="normal" in2="shape" result="effect2_innerShadow_225_6209"/>
</filter>
<filter id="filter5_di_225_6209" x="19.582" y="220.192" width="185.301" height="34" filterUnits="userSpaceOnUse" color-interpolation-filters="sRGB">
<feFlood flood-opacity="0" result="BackgroundImageFix"/>
<feColorMatrix in="SourceAlpha" type="matrix" values="0 0 0 0 0 0 0 0 0 0 0 0 0 0 0 0 0 0 127 0" result="hardAlpha"/>
<feOffset dy="1"/>
<feGaussianBlur stdDeviation="0.5"/>
<feComposite in2="hardAlpha" operator="out"/>
<feColorMatrix type="matrix" values="0 0 0 0 0.0941176 0 0 0 0 0.0941176 0 0 0 0 0.105882 0 0 0 1 0"/>
<feBlend mode="normal" in2="BackgroundImageFix" result="effect1_dropShadow_225_6209"/>
<feBlend mode="normal" in="SourceGraphic" in2="effect1_dropShadow_225_6209" result="shape"/>
<feColorMatrix in="SourceAlpha" type="matrix" values="0 0 0 0 0 0 0 0 0 0 0 0 0 0 0 0 0 0 127 0" result="hardAlpha"/>
<feOffset/>
<feGaussianBlur stdDeviation="0.5"/>
<feComposite in2="hardAlpha" operator="arithmetic" k2="-1" k3="1"/>
<feColorMatrix type="matrix" values="0 0 0 0 0 0 0 0 0 0 0 0 0 0 0 0 0 0 0.25 0"/>
<feBlend mode="normal" in2="shape" result="effect2_innerShadow_225_6209"/>
</filter>
<filter id="filter6_d_225_6209" x="19.582" y="269.192" width="185.301" height="34" filterUnits="userSpaceOnUse" color-interpolation-filters="sRGB">
<feFlood flood-opacity="0" result="BackgroundImageFix"/>
<feColorMatrix in="SourceAlpha" type="matrix" values="0 0 0 0 0 0 0 0 0 0 0 0 0 0 0 0 0 0 127 0" result="hardAlpha"/>
<feOffset/>
<feGaussianBlur stdDeviation="0.5"/>
<feComposite in2="hardAlpha" operator="out"/>
<feColorMatrix type="matrix" values="0 0 0 0 0 0 0 0 0 0 0 0 0 0 0 0 0 0 0.35 0"/>
<feBlend mode="normal" in2="BackgroundImageFix" result="effect1_dropShadow_225_6209"/>
<feBlend mode="normal" in="SourceGraphic" in2="effect1_dropShadow_225_6209" result="shape"/>
</filter>
<filter id="filter7_d_225_6209" x="19.582" y="307.192" width="185.301" height="34" filterUnits="userSpaceOnUse" color-interpolation-filters="sRGB">
<feFlood flood-opacity="0" result="BackgroundImageFix"/>
<feColorMatrix in="SourceAlpha" type="matrix" values="0 0 0 0 0 0 0 0 0 0 0 0 0 0 0 0 0 0 127 0" result="hardAlpha"/>
<feOffset/>
<feGaussianBlur stdDeviation="0.5"/>
<feComposite in2="hardAlpha" operator="out"/>
<feColorMatrix type="matrix" values="0 0 0 0 0 0 0 0 0 0 0 0 0 0 0 0 0 0 0.35 0"/>
<feBlend mode="normal" in2="BackgroundImageFix" result="effect1_dropShadow_225_6209"/>
<feBlend mode="normal" in="SourceGraphic" in2="effect1_dropShadow_225_6209" result="shape"/>
</filter>
<clipPath id="clip0_225_6209">
<rect x="12.582" y="6.19202" width="199.301" height="342" rx="8" fill="white"/>
</clipPath>
<clipPath id="clip1_225_6209">
<rect width="20" height="20" fill="white" transform="translate(175.883 30.192)"/>
</clipPath>
</defs>
</svg>
