<svg data-v-54e72b3c="" id="Layer_1" data-name="Layer 1" xmlns="http://www.w3.org/2000/svg"
  xmlns:xlink="http://www.w3.org/1999/xlink" viewBox="0 0 575 416.04"
  class="mx-w-lg w-full drop-shadow-xl shadow-playful-blue">
  <defs data-v-54e72b3c="">
    <linearGradient data-v-54e72b3c="" id="linear-gradient" x1="163.44" y1="346.89" x2="171.15" y2="310.94"
      gradientUnits="userSpaceOnUse">
      <stop data-v-54e72b3c="" offset=".2" stop-color="#804a2d"></stop>
      <stop data-v-54e72b3c="" offset="1" stop-color="#5b3424"></stop>
    </linearGradient>
    <linearGradient data-v-54e72b3c="" id="linear-gradient-2" x1="145.77" y1="136.59" x2="149.23" y2="108.13"
      gradientTransform="matrix(-.99 .14 -.13 -1.11 312.01 214.58)" gradientUnits="userSpaceOnUse">
      <stop data-v-54e72b3c="" offset=".08" stop-color="#fbcac3"></stop>
      <stop data-v-54e72b3c="" offset=".26" stop-color="#f8b8b3"></stop>
      <stop data-v-54e72b3c="" offset=".63" stop-color="#f1898a"></stop>
      <stop data-v-54e72b3c="" offset="1" stop-color="#e85359"></stop>
    </linearGradient>
    <linearGradient data-v-54e72b3c="" id="linear-gradient-3" x1="627.74" y1="136.28" x2="564.03" y2="146.24"
      gradientTransform="matrix(-.96 -.3 -.3 .96 772.43 116.69)" gradientUnits="userSpaceOnUse">
      <stop data-v-54e72b3c="" offset=".59" stop-color="#fbcac3"></stop>
      <stop data-v-54e72b3c="" offset=".73" stop-color="#fbc8c1"></stop>
      <stop data-v-54e72b3c="" offset=".8" stop-color="#f9c0ba"></stop>
      <stop data-v-54e72b3c="" offset=".85" stop-color="#f7b3ae"></stop>
      <stop data-v-54e72b3c="" offset=".9" stop-color="#f4a09d"></stop>
      <stop data-v-54e72b3c="" offset=".94" stop-color="#f08788"></stop>
      <stop data-v-54e72b3c="" offset=".98" stop-color="#ec6a6d"></stop>
      <stop data-v-54e72b3c="" offset="1" stop-color="#e85359"></stop>
    </linearGradient>
    <linearGradient data-v-54e72b3c="" id="linear-gradient-4" x1="288.13" y1="277.95" x2="539.25" y2="294.12"
      xlink:href="#linear-gradient-3"></linearGradient>
    <linearGradient data-v-54e72b3c="" id="linear-gradient-5" x1="332.1" y1="325.48" x2="469.99" y2="340.69"
      gradientUnits="userSpaceOnUse">
      <stop data-v-54e72b3c="" offset="0" stop-color="#fff"></stop>
      <stop data-v-54e72b3c="" offset="1" stop-color="#f1f2f2"></stop>
    </linearGradient>
    <linearGradient data-v-54e72b3c="" id="linear-gradient-6" x1="414.54" y1="142.65" x2="422.39" y2="106.11"
      gradientTransform="rotate(-9.94 418.613 123.938)" gradientUnits="userSpaceOnUse">
      <stop data-v-54e72b3c="" offset=".42" stop-color="#f69682"></stop>
      <stop data-v-54e72b3c="" offset="1" stop-color="#e85359"></stop>
    </linearGradient>
    <linearGradient data-v-54e72b3c="" id="linear-gradient-7" x1="458" y1="78.35" x2="372.09" y2="91.78"
      gradientUnits="userSpaceOnUse">
      <stop data-v-54e72b3c="" offset=".59" stop-color="#f59682"></stop>
      <stop data-v-54e72b3c="" offset=".75" stop-color="#f59481"></stop>
      <stop data-v-54e72b3c="" offset=".83" stop-color="#f38c7c"></stop>
      <stop data-v-54e72b3c="" offset=".9" stop-color="#f07f74"></stop>
      <stop data-v-54e72b3c="" offset=".95" stop-color="#ed6c68"></stop>
      <stop data-v-54e72b3c="" offset="1" stop-color="#e85459"></stop>
      <stop data-v-54e72b3c="" offset="1" stop-color="#e85359"></stop>
    </linearGradient>
    <style data-v-54e72b3c="">
      .cls-1 {
        fill: #fff
      }

      .cls-5 {
        fill: #fff2eb
      }

      .cls-6 {
        fill: #35190d
      }

      .cls-8 {
        fill: #804a2d
      }

      .cls-9 {
        fill: #231f20
      }

      .cls-10 {
        fill: #f0efef
      }

      .cls-11 {
        fill: #5b3424
      }

      .cls-12 {
        fill: #ffdc2b
      }

      .cls-13,
      .cls-15 {
        fill: #fbcac3
      }

      .cls-14 {
        fill: #492c2a
      }

      .cls-15,
      .cls-20 {
        fill-rule: evenodd
      }

      .cls-21,
      .cls-37 {
        fill: none;
        stroke-miterlimit: 10
      }

      .cls-20 {
        fill: #a86645
      }

      .cls-21 {
        stroke: #fff
      }

      .cls-21,
      .cls-37 {
        stroke-linecap: round
      }

      .cls-21 {
        stroke-width: .25px
      }

      .cls-22 {
        fill: #0c123b
      }

      .cls-26 {
        fill: #f6aba7
      }

      .cls-27 {
        fill: #f89d5c
      }

      .cls-33 {
        fill: #f27c6d
      }

      .cls-34 {
        fill: #f69682
      }

      .cls-35 {
        fill: #7fa5ea
      }

      .cls-37 {
        stroke: #5d8ef4
      }
    </style>
  </defs>
  <rect data-v-54e72b3c="" x="45.09" y="73.26" width="484.82" height="298.33" rx="2.3" class="cls-1"></rect>
  <path data-v-54e72b3c=""
    d="M533.23 64.78H41.77a5.56 5.56 0 00-5.56 5.55v312.22h502.58V70.33a5.56 5.56 0 00-5.56-5.55zm-3.32 304.52a2.3 2.3 0 01-2.3 2.29H47.39a2.3 2.3 0 01-2.3-2.29V75.56a2.3 2.3 0 012.3-2.3h480.22a2.3 2.3 0 012.3 2.3z"
    fill="#1c213a"></path>
  <path data-v-54e72b3c="" id="pcBase"
    d="M8 382.2h559v13.42a10.06 10.06 0 01-10.06 10.06H18.06A10.06 10.06 0 018 395.62V382.2z" fill="#646af5"></path>
  <path data-v-54e72b3c="" id="laptopDivet"
    d="M207 382.2h161v3.1a5.83 5.83 0 01-5.83 5.83h-149.3a5.83 5.83 0 01-5.83-5.83v-3.1z" fill="#adb4f7"></path>
  <rect data-v-54e72b3c="" x="66.83" y="92.26" width="212.34" height="118.05" rx="3.24" class="cls-5"></rect>
  <rect data-v-54e72b3c="" x="295.83" y="92.26" width="212.34" height="118.05" rx="3.24" class="cls-5"></rect>
  <rect data-v-54e72b3c="" x="66.83" y="226.89" width="212.34" height="118.05" rx="3.24" class="cls-5"></rect>
  <path data-v-54e72b3c=""
    d="M508.17 231.69v108.44a4.81 4.81 0 01-4.81 4.81H300.64a4.81 4.81 0 01-4.81-4.81V231.69a4.81 4.81 0 014.81-4.8h202.72a4.81 4.81 0 014.81 4.8zM279.17 231.7v108.44a4.82 4.82 0 01-4.81 4.8H71.62a4.81 4.81 0 01-4.79-4.8V231.7a4.8 4.8 0 014.79-4.81h202.74a4.81 4.81 0 014.81 4.81z"
    class="cls-5"></path>
  <circle data-v-54e72b3c="" cx="147.77" cy="263.02" r="19.61" class="cls-6"></circle>
  <circle data-v-54e72b3c="" cx="135.87" cy="281.9" r="13.83" class="cls-6"></circle>
  <circle data-v-54e72b3c="" cx="143.42" cy="297.3" r="13.83" class="cls-6"></circle>
  <circle data-v-54e72b3c="" cx="189.64" cy="298.25" r="13.83" class="cls-6"></circle>
  <circle data-v-54e72b3c="" cx="161.26" cy="253.62" r="19.61" class="cls-6"></circle>
  <circle data-v-54e72b3c="" cx="183.5" cy="258.86" r="19.61" class="cls-6"></circle>
  <circle data-v-54e72b3c="" cx="173.93" cy="247.64" r="14.35" class="cls-6"></circle>
  <circle data-v-54e72b3c="" cx="191.28" cy="275.65" r="19.61" class="cls-6"></circle>
  <circle data-v-54e72b3c="" cx="198.45" cy="278.47" r="5.43" class="cls-6"></circle>
  <path data-v-54e72b3c="" fill="url(#linear-gradient)"
    d="M179.86 344.94h-24.79l-.03-4.93-.07-14.85-.07-13.04 24.78-.1.07 14.86.08 13.13.03 4.93z"></path>
  <path data-v-54e72b3c=""
    d="M197.25 304.55c2.41-11.6.44-24.13.44-24.13a29 29 0 00-32-25.66c-15.91 1.75-25.12 18.09-25.53 26.08s-.85 14.07 2 24.89 9.83 23.48 28.47 23.48c12.12 0 24.21-13.05 26.62-24.66z"
    class="cls-8"></path>
  <path data-v-54e72b3c=""
    d="M180.67 287.11c2.38-.22 2.61 2.21 2.81 4.36a2.3 2.3 0 01-2.3 2.79 2.16 2.16 0 01-2.34-1.94c-.1-1.03-.54-4.98 1.83-5.21zM159.14 286.36c2.38-.22 2.61 2.21 2.81 4.36a2.31 2.31 0 01-2.31 2.79 2.15 2.15 0 01-2.33-1.93c-.1-1.04-.55-4.99 1.83-5.22zM180.3 280.88c4.09.24 6.34 1.08 6.16 2.74s-3.79.23-5.82 0-5.35.4-5.2-1 1.48-1.94 4.86-1.74zM159.27 280.18c-4.19.17-6.37 1-5.9 2.63s4 .31 6 .13 5.6.48 5.21-.91-1.85-2.03-5.31-1.85z"
    class="cls-9"></path>
  <path data-v-54e72b3c=""
    d="M170.74 316.2c-3 .06-4.48-1.27-5.8-.33s-2 2.91 2.35 3.94 9.24.3 8.43-2.44c-.61-2.09-1.99-1.22-4.98-1.17z"
    class="cls-10"></path>
  <path data-v-54e72b3c=""
    d="M171.73 296.81c1.07.61 1.42 5.55 2.73 7.68s.94 5.29-3.37 4.55-3-2-1.17-1.58 4.7.51 2.72-3.46-2.06-7.84-.91-7.19z"
    class="cls-11"></path>
  <ellipse data-v-54e72b3c="" cx="140.06" cy="297.09" rx="5.91" ry="7.96" transform="rotate(-3.6 140.053 296.961)"
    class="cls-8"></ellipse>
  <path data-v-54e72b3c=""
    d="M142.92 294.06c-1.3 1-2.42-2.06-4.24-.81s-2 5.83-.53 7.26 2.72.75 2.74 1.68-1.2 1.36-3-.16-2.66-5.38-1.4-8c2.35-5.03 7.73-1.03 6.43.03z"
    class="cls-11"></path>
  <circle data-v-54e72b3c="" cx="153.31" cy="258.86" r="13.78" class="cls-6"></circle>
  <circle data-v-54e72b3c="" cx="136.73" cy="271.03" r="13.78" class="cls-6"></circle>
  <circle data-v-54e72b3c="" cx="173.93" cy="255.42" r="14.82" class="cls-6"></circle>
  <circle data-v-54e72b3c="" cx="195.95" cy="262.26" r="14.82" class="cls-6"></circle>
  <circle data-v-54e72b3c="" cx="187.82" cy="261.28" r="7.67" class="cls-6"></circle>
  <circle data-v-54e72b3c="" cx="143.42" cy="268.95" r="6.7" class="cls-6"></circle>
  <circle data-v-54e72b3c="" cx="139.77" cy="283.9" r="5.43" class="cls-6"></circle>
  <circle data-v-54e72b3c="" cx="194.51" cy="268.95" r="6.7" class="cls-6"></circle>
  <path data-v-54e72b3c=""
    d="M244.29 344.94H229c2.6-27 4.67-47.61 2.59-53.46-3-8.34-7.92-21.23 4.2-21.23s11.61 6.25 7.9 20.44c-1.91 7.46-.85 32.31.6 54.25zM107.68 344.94H92.43c2.6-27 4.66-47.61 2.59-53.46-3-8.34-7.92-21.23 4.2-21.23s11.61 6.25 7.9 20.44c-1.95 7.46-.89 32.31.56 54.25zM186.47 342.21l-3.15 2.73h-33.28l-2.27-3.39.55-1.51.01-.03h37.57l.02.03.55 2.17z"
    class="cls-8"></path>
  <path data-v-54e72b3c=""
    d="M152.91 344.94h-34.07a3 3 0 01.27-.73l2-3.73a3.27 3.27 0 012.9-1.73h21.69a3.24 3.24 0 012.62 1.29 2.75 2.75 0 01.19.28 14.67 14.67 0 004.4 4.62zM212.32 344.94h-31a14.48 14.48 0 004.44-4.64c.06-.08.12-.17.2-.26a3.2 3.2 0 012.61-1.29h18.52a3.27 3.27 0 012.86 1.67l2.05 3.78a4 4 0 01.32.74z"
    class="cls-12"></path>
  <rect data-v-54e72b3c="" x="66.74" y="92.25" width="212.34" height="118.05" rx="3.24" class="cls-5"></rect>
  <path data-v-54e72b3c="" d="M127.54 109.33l41.83 9.67s-.87 22.52-25 18.68-16.83-28.35-16.83-28.35z" class="cls-13">
  </path>
  <path data-v-54e72b3c="" d="M97.6 160.72c-.95.85-3.47.95-7.92-2-4.21-2.8 1.79-11.32 6.62-9.71s2.58 10.57 1.3 11.71z"
    class="cls-14"></path>
  <path data-v-54e72b3c=""
    d="M67.17 141.39s-5.94 5-7.42 9.65-1 9.16 6.18 13.86 52 29.45 54.7 35.39 3.21 9.16 6.68 9.16 14.6-4.21 13.36-5.94-9.9-5.2-12.37-8.42S91.23 161.24 90.48 158s4.46-6.93 7.68-8.66-25.54-13.83-30.99-7.95z"
    class="cls-13"></path>
  <path data-v-54e72b3c=""
    d="M206.31 160.48s8.8 16.86 15.9 34.18l34.65 6.2s-1-5.61 0-8.42 3.47-8.82 6.36-7.75 4.78 7.84 4.12 13.36-.33 10-8.08 10-52.19-3.15-52.52-3.18c-6.36-.56-17.36-33.45-17.36-33.45z"
    class="cls-15"></path>
  <path data-v-54e72b3c=""
    d="M63.87 142.52l36.9-31.85a9.89 9.89 0 016.49-2.41h19.86a1.35 1.35 0 011.35 1.41c-.28 5.47 0 25 17.7 26.22 17.28 1.21 20.92-12.43 21.65-16.92a1.35 1.35 0 011.6-1.12l16 3.26a1.4 1.4 0 01.74.43l25.49 42.67a.67.67 0 01-.79 1c-2.82-.89-8.49-1.66-14.33 3.57a14.74 14.74 0 00-4.75 10.46.68.68 0 01-1.28.28l-8.35-16.16a.54.54 0 00-1 .25l.21 45.35a1.34 1.34 0 01-1.36 1.34h-71.74a1.36 1.36 0 01-1.35-1.4l2.14-56.71a1.35 1.35 0 00-2.32-1l-9.13 9.52a.78.78 0 01-1.34-.65c.44-2.8.49-7.1-2.59-9.69-4.85-4.07-10.08.2-19.78-1-6.93-.83-9.45-3.67-10.33-5.22a1.35 1.35 0 01.31-1.63z"
    fill="#ff6f61" fill-rule="evenodd"></path>
  <rect data-v-54e72b3c="" x="278.84" y="177.26" width="1.81" height="14.89" rx=".61"
    transform="rotate(-8.15 279.584 184.627)" class="cls-1"></rect>
  <rect data-v-54e72b3c="" x="282.99" y="175.32" width="1.81" height="16.39" rx=".61"
    transform="rotate(-8.15 283.76 183.443)" class="cls-1"></rect>
  <path data-v-54e72b3c=""
    d="M203.26 194.93c3.36 23.14-10.79 42-30.38 35.6a22.06 22.06 0 00-2.9-1.09c-11.17-4-17.27-.88-27.16 10.25a31.5 31.5 0 01-9.54 7.48c-21.21 10.4-46-7.64-49.08-37-5.23-36 25.24-61.61 52.27-41.94 13.33 8.14 17.79 6.76 25.9 1.7a20.71 20.71 0 002.53-1.78c17.34-11.15 35.79 3.54 38.36 26.78z"
    fill="#f4a67a" fill-rule="evenodd"></path>
  <circle data-v-54e72b3c="" cx="156.65" cy="200.92" r="14.08" stroke="#fff2eb" fill="none" stroke-miterlimit="10">
  </circle>
  <path data-v-54e72b3c="" d="M167.06 205.34a11.33 11.33 0 11-1.37-11.22 11.31 11.31 0 011.37 11.22z" fill="#5d3f26"
    fill-rule="evenodd"></path>
  <path data-v-54e72b3c=""
    d="M276.45 188.9a.27.27 0 01-.21.34l-109.18 16.1a11.31 11.31 0 00-1.37-11.22l109.66-11.87a.3.3 0 01.3.26z"
    class="cls-20"></path>
  <path data-v-54e72b3c=""
    d="M286.07 188.3l-9.82.94c-2 0-1.48-.17-1.81-2.8l-.1-.71c-.33-2.63-.93-3 1-3.48l9.23-4.05a4.47 4.47 0 015.23 3.64l.26 1.8a4.09 4.09 0 01-3.99 4.66zM102.22 197.87a1.49 1.49 0 01-1.32 1.64h-.36a1.48 1.48 0 00-1.31 1.64l1.38 12.42a1.49 1.49 0 001.64 1.32l.37-.05a1.49 1.49 0 011.64 1.32 1.49 1.49 0 001.64 1.31h.37a1.48 1.48 0 001.31-1.64l-2-18.32a1.49 1.49 0 00-1.64-1.31h-.37a1.48 1.48 0 00-1.35 1.67z"
    class="cls-20"></path>
  <path data-v-54e72b3c=""
    d="M101.55 202.3l174.18-19.09M101.55 204.86l174.34-20.39M101.75 207.21l174.36-21.45M102.21 209.6l173.9-22.6M102.46 212.25l173.85-24.14"
    class="cls-21"></path>
  <path data-v-54e72b3c=""
    d="M65.69 164.9c7.17 4.7 52 29.45 54.69 35.39s3.22 9.16 6.68 9.16 14.6-4.21 13.37-5.94-9.9-5.2-12.38-8.42S90 159.94 89.26 156.72z"
    class="cls-13"></path>
  <path data-v-54e72b3c="" d="M256.86 200.86s-1-5.61 0-8.42 3.47-8.82 6.36-7.75 4.78 7.84 4.12 13.36-.33 10-8.08 10z"
    class="cls-15"></path>
  <circle data-v-54e72b3c="" cx="133.92" cy="87.62" r="16.02" class="cls-22"></circle>
  <ellipse data-v-54e72b3c="" cx="126.51" cy="65.13" rx="29.55" ry="17.73" class="cls-22"></ellipse>
  <ellipse data-v-54e72b3c="" cx="133.92" cy="46.76" rx="17.73" ry="29.55" transform="rotate(-37.18 133.926 46.766)"
    class="cls-22"></ellipse>
  <ellipse data-v-54e72b3c="" cx="158.65" cy="39.84" rx="17.73" ry="29.55" transform="rotate(-5.81 158.602 39.857)"
    class="cls-22"></ellipse>
  <ellipse data-v-54e72b3c="" cx="179.7" cy="43.77" rx="29.55" ry="17.73" transform="rotate(-69.26 179.692 43.775)"
    class="cls-22"></ellipse>
  <ellipse data-v-54e72b3c="" cx="184.55" cy="59.94" rx="29.55" ry="17.73" transform="rotate(-35.02 184.57 59.938)"
    class="cls-22"></ellipse>
  <circle data-v-54e72b3c="" cx="179.98" cy="63.42" r="16.02" class="cls-22"></circle>
  <path data-v-54e72b3c="" d="M184.94 63.06c2.58 1.78 4.56 5.82 1.63 11.14s-8.45-1.78-8.45-1.78 1.63-12.96 6.82-9.36z"
    class="cls-22"></path>
  <path data-v-54e72b3c="" transform="rotate(-172.76 150.26 100.638)" fill="url(#linear-gradient-2)"
    d="M141.07 85.3h18.38v30.67h-18.38z"></path>
  <path data-v-54e72b3c=""
    d="M182 88.94a57.23 57.23 0 002.66-17.71 21.49 21.49 0 00-21-22C151.73 49 143.38 60.13 142.3 66s-2 10.26-1 18.49 6.53 17.11 22.6 20.51c9.01 1.91 15.18-7.77 18.1-16.06z"
    fill="url(#linear-gradient-3)"></path>
  <path data-v-54e72b3c=""
    d="M176 75.22c1.76.18 1.58 2 1.42 3.58a1.71 1.71 0 01-2.08 1.7 1.6 1.6 0 01-1.42-1.74c.02-.76.26-3.71 2.08-3.54zM160.38 71.6c1.76.18 1.58 2 1.42 3.58a1.71 1.71 0 01-2.07 1.7 1.61 1.61 0 01-1.43-1.74c.08-.77.32-3.71 2.08-3.54z"
    class="cls-9"></path>
  <path data-v-54e72b3c=""
    d="M185.64 57.68c-1.86 3.53-10.95-2-21.15-1.75-14.36.39-14.32 10.56-21.27 18.07s-16.39-8-11.95-14.55S148.17 42.58 160 41.8c6.28-.42 33.94.2 25.64 15.88zM176.57 70.64c2.94.76 4.45 1.69 4.09 2.87s-2.8-.37-4.24-.82-3.95-.47-3.65-1.46 1.36-1.23 3.8-.59z"
    class="cls-22"></path>
  <path data-v-54e72b3c=""
    d="M161.36 67.12c-3.07-.47-4.77-.21-4.67 1.08s2.84.78 4.36 1 4 1.15 3.92.08-1.07-1.77-3.61-2.16z" class="cls-22">
  </path>
  <path data-v-54e72b3c=""
    d="M169.07 81.45c.72.54.5 4.21 1.26 5.9s.18 4-2.92 3-2-1.76-.71-1.28 3.4.83 2.34-2.28-.76-5.94.03-5.34z"
    fill="#f39796"></path>
  <ellipse data-v-54e72b3c="" cx="140.64" cy="77.91" rx="5.9" ry="4.38" transform="rotate(-86 140.762 77.579)"
    class="cls-13"></ellipse>
  <path data-v-54e72b3c=""
    d="M143 76c-1.06.64-1.58-1.74-3-1s-2 4.09-1.1 5.28 1.93.82 1.86 1.5-1 .89-2.21-.4a5.53 5.53 0 01-.25-6c2.23-3.51 5.8-.06 4.7.62z"
    class="cls-26"></path>
  <path data-v-54e72b3c=""
    d="M143.68 73.49c2.15 3.76-2.05 13.41-1.44 15.06a73.47 73.47 0 004.29 9.76 19.66 19.66 0 0014.55 10.35C171.29 110 179.58 95.2 181 91.47c0 0-3.08 4.08-15.59 1.15-11.79-2.77-18.26-12.08-18.67-15.14-.37-2.76-.37-5.88 2.22-11.72 1.26-2.82-6.39 2-6.39 2z"
    class="cls-22"></path>
  <path data-v-54e72b3c=""
    d="M165.61 95.84c-2.2-.33-3.12-1.49-4.2-1s-1.8 1.88 1.23 3.17 6.72 1.36 6.47-.75c-.19-1.56-1.3-1.09-3.5-1.42z"
    class="cls-10"></path>
  <path data-v-54e72b3c=""
    d="M359.46 226.89a2.13 2.13 0 010 .25c-.47 3.84-.91 6.29-.91 6.29a76.2 76.2 0 01-8.61 5c-8 3.95-19.65 8.09-27.47 3.18-3.42-2.11-6.09-5.94-7.4-12.24-.18-.84-.32-1.69-.47-2.52z"
    class="cls-27"></path>
  <path data-v-54e72b3c=""
    d="M508.17 231.68v108.45a4.81 4.81 0 01-4.81 4.81H320a207.46 207.46 0 01-4.7-37.47c-.86-24.2 3.24-48.61 7.18-65.82a323.44 323.44 0 013.72-14.76h177.16a4.8 4.8 0 014.81 4.79z"
    fill="url(#linear-gradient-4)"></path>
  <path data-v-54e72b3c=""
    d="M357.83 251.53c-14.95 0-15.54 10.12-14.07 11.36 1.27 1.07 8.38-3.31 15.14-3.31 8.19 0 11.73 5.92 14.32 3.77.71-.58-.43-11.82-15.39-11.82zM444.28 264.36c-14.54-2.95-17.13 6.85-15.94 8.36 1 1.29 8.8-1.59 15.38-.26 8 1.62 10.23 8.12 13.17 6.53.81-.44 1.94-11.67-12.61-14.63z"
    class="cls-9"></path>
  <path data-v-54e72b3c=""
    d="M508.17 231.68v43.53c-14-24.53-30.3-40.54-53.45-48.32h48.64a4.8 4.8 0 014.81 4.79zM368.69 227.17c-15.35-.73-24.05 1.51-24.05 7.79s14 2.35 21.67 2.35 19.81 3.64 19.81-1.59-4.74-7.94-17.43-8.55z"
    class="cls-27"></path>
  <path data-v-54e72b3c=""
    d="M447.38 232.89c15.54 2.3 23.34 6.13 20.93 12.18s-14.88-.44-22.47-1.93-21.08-.42-19.07-5.45 7.76-6.69 20.61-4.8z"
    class="cls-27"></path>
  <path data-v-54e72b3c=""
    d="M399.32 263.18c-4.32 1.57-8.74 19.61-14.92 26.64s-6.82 19 9.59 19 12.15-5.54 5.33-5.11-17.69-1.07-7.89-14.49 12.57-27.74 7.89-26.04z"
    class="cls-26"></path>
  <path data-v-54e72b3c=""
    d="M463 344.94H337.43c-8-10-1.77-20.76 7.11-27.08 14.41-10.28 30.61 4.26 63.33 3.68s47.75-10.13 54.46 12.71c1.16 3.94 1.53 7.5.67 10.69z"
    fill="url(#linear-gradient-5)"></path>
  <path data-v-54e72b3c=""
    d="M508.17 97.06v108.43a4.8 4.8 0 01-4.79 4.81H300.64a4.81 4.81 0 01-4.81-4.81V97.06a4.81 4.81 0 014.81-4.81h202.74a4.8 4.8 0 014.79 4.81z"
    class="cls-5"></path>
  <circle data-v-54e72b3c="" cx="443.04" cy="107.73" r="21.6" class="cls-22"></circle>
  <path data-v-54e72b3c="" d="M389.72 59.5c-4 1.27-8.18 5.68-6.53 13.7s11.59 1.08 11.59 1.08 3.07-17.34-5.06-14.78z"
    class="cls-22"></path>
  <path data-v-54e72b3c="" transform="matrix(.98 .17 -.17 .98 27.68 -70.4)" fill="#ed8f7f"
    d="M406.17 105.4h24.78v37.06h-24.78z"></path>
  <path data-v-54e72b3c="" transform="matrix(.98 .17 -.17 .98 27.68 -70.4)" fill="url(#linear-gradient-6)"
    d="M406.17 105.4h24.78v37.06h-24.78z"></path>
  <path data-v-54e72b3c=""
    d="M383.25 94c-.43-11.84 3.62-23.87 3.62-23.87a29 29 0 0135.83-19.89c15.4 4.4 21.74 22.05 20.8 30s-1.53 14-6.13 24.21-15.18 19.49-37.24 17.47c-12.37-1.14-16.46-16.06-16.88-27.92z"
    fill="url(#linear-gradient-7)"></path>
  <path data-v-54e72b3c=""
    d="M396.47 78.76c-2.34-.48-2.83 1.92-3.26 4a2.3 2.3 0 002 3 2.16 2.16 0 002.53-1.67c.26-.97 1.07-4.86-1.27-5.33zM418 80.29c-2.34-.47-2.82 1.92-3.25 4a2.31 2.31 0 002 3 2.15 2.15 0 002.53-1.68c.16-.96 1.02-4.84-1.28-5.32z"
    class="cls-9"></path>
  <path data-v-54e72b3c=""
    d="M389.44 62.74c1 5.29 7 8.3 20.75 8.3s20.69 6 26.66 18.47 24.28-3.75 21.17-14-12.37-28.59-38.46-34.39-31.11 16.33-30.12 21.62z"
    class="cls-22"></path>
  <path data-v-54e72b3c=""
    d="M397.5 72.6c-4.09-.19-6.42.4-6.42 2.08s3.75.63 5.79.63 5.28 1 5.28-.43-1.26-2.12-4.65-2.28zM418.49 74.13c4.14.61 6.22 1.63 5.58 3.24s-4-.11-6-.51-5.62-.11-5.09-1.45 2.08-1.79 5.51-1.28z"
    class="cls-22"></path>
  <path data-v-54e72b3c=""
    d="M401.67 108.18c3 .45 4.61-.68 5.79.43s1.57 3.15-2.85 3.6-9.2-.93-8-3.54c.85-1.99 2.1-.95 5.06-.49z"
    class="cls-10"></path>
  <path data-v-54e72b3c=""
    d="M402.86 89.51c-1.16.42-2.34 5.23-4 7.11s-1.82 5.06 2.55 5.06 3.24-1.48 1.43-1.37-4.72-.28-2.11-3.86 3.38-7.39 2.13-6.94z"
    class="cls-33"></path>
  <ellipse data-v-54e72b3c="" cx="440.88" cy="96.28" rx="7.96" ry="5.91" transform="rotate(-76.73 440.864 96.29)"
    class="cls-34"></ellipse>
  <path data-v-54e72b3c=""
    d="M438.57 92.8c1.11 1.24 2.73-1.62 4.32-.08s1 6.08-.7 7.24-2.81.29-3 1.2 1 1.55 3 .35 3.52-4.86 2.73-7.67c-1.49-5.3-7.46-2.27-6.35-1.04z"
    class="cls-33"></path>
  <path data-v-54e72b3c=""
    d="M372.18 199.61c-5.1 2.21-9.34-3.38-9.42-3.48.1-.18 9-15.8 12.12-10.08 4.31 7.78-2.7 13.56-2.7 13.56z"
    class="cls-14"></path>
  <path data-v-54e72b3c=""
    d="M328.58 180.22c3 4.41 12.6-8.49 21.26-15.92 7.48-6.41 21.3 17 25 23.55a2 2 0 01-.7 2.62c-5.58 3.37-24.23 14.64-32.39 19.45-9.65 5.69-12.13 5.45-16.33 5.45s-13.86-1.24-17.57-19.56c-3.52-17.34-12.36-57.78-13.29-62a1.87 1.87 0 00-.29-.68l-6.1-8.92a2 2 0 01-.11-2c.83-1.6 2.7-4.33 5.68-4.33 4.14 0 9.49 1 9.65 10a2 2 0 00.17.78c1.94 4.28 21.04 45.7 25.02 51.56z"
    class="cls-34"></path>
  <path data-v-54e72b3c=""
    d="M380.19 210.3v-16.63l-8 5.9c.31-.42 2.84-2.65 1.11-8.66a20.84 20.84 0 00-.74-2.18 9 9 0 00-1.88-2.94c-5-5.47-15.68-6.18-18.25-9.61-3-4-2.63-11.88-2.63-11.88l.34-.27c1.28-1 6.07-4.74 11.66-9.13l9.25-7.31c6-4.72 11.22-9 12.72-10.35 4-3.62 10.49-3.52 10.49-3.52a1 1 0 000 .23 1 1 0 010 .16 25.87 25.87 0 002.1 11.4c2.23 4.8 6.75 9.23 15.83 9.23 8.1 0 13.47-2.59 17-6a22.19 22.19 0 006.28-13.88c0-.43.06-.83.06-1.2 0 0 2.16.22 6.26.44s10.16.43 17.91.43c15.5 0 22.1 13 20.79 23.88s-6.28 30.37-6.28 30.37c-.77 3.19.53 12.47 2.17 21.57z"
    class="cls-35"></path>
  <path data-v-54e72b3c="" d="M473.19 186.19c-5.72 1-13.86-3-13.89-3s10.14-13.42 12.66-8.6 1.23 11.6 1.23 11.6z"
    class="cls-14"></path>
  <path data-v-54e72b3c="" d="M435.55 133.61c-.06 5.9-4.1 20.26-23.76 20.26-19.81 0-17.5-20.14-17.5-20.14z"
    class="cls-34"></path>
  <path data-v-54e72b3c="" d="M436 134.75c-.06 5.9-4.1 19.12-23.76 19.12s-17.49-19.31-17.49-19.31" stroke-width="2"
    stroke-linecap="round" stroke="#fff" fill="none" stroke-miterlimit="10"></path>
  <path data-v-54e72b3c="" d="M387.41 185.4s-.74-12.6-.74-26.34" class="cls-37"></path>
  <path data-v-54e72b3c=""
    d="M470.1 173.55c-.76 1.2-1.66 2.58-2.69 4.23-.49.79-1 1.64-1.54 2.57l-2.57 4.46a300.89 300.89 0 01-16.39 25.49q-2.73 3.75-5.79 7.66c-10.89 13.86-30.7 10.4-36.39 3.46-1.21-1.48-4-5.58-7.54-11.12-10.44-16.14-28-44.47-35.35-55.4-1.89-2.79-3.11-4.46-3.39-4.5-1.72-.25-11.63-5.12-9.4-16.79 1.6-8.39 7.92-7.22 9.91-3.26s2 7.92 4.69 10.4c.58.53 3.37 3.12 7.44 6.84s9.74 8.93 15.59 14.23c15.06 13.65 32.22 28.82 33.9 28.67 2.79-.23 7.1-10.72 10.69-16.72l.68-1.09A32.74 32.74 0 01434 170c6.86-8.06 25.68-25 33.32-13.66 6.55 9.66 6.2 11.8 2.78 17.21z"
    class="cls-34"></path>
  <path data-v-54e72b3c=""
    d="M473.19 186.19c1-6.68-5.35-11.41-19.7-7.82s-19.8-.91-22.21-4.6 30.25-27.7 30.25-27.7l16.34 16z" class="cls-35">
  </path>
  <path data-v-54e72b3c="" d="M447.25 144.83l-15.38 28.49" class="cls-37"></path>
  <path data-v-54e72b3c=""
    d="M307.17 100.79l-16-4.33a1.4 1.4 0 00-1.71 1l-6.67 24.67a9.68 9.68 0 005.53 11.43l-5.47 21.32c-.34 1.26-1.13 2.14-1.78 2l-5.17-1.4a1.42 1.42 0 00-1.54 1.19l-.12.44a.7.7 0 00.38.9l15.88 4.3a.7.7 0 00.77-.59l.12-.45a1.38 1.38 0 00-.73-1.79l-5.17-1.4c-.65-.18-.89-1.34-.55-2.6l6-21.17a9.69 9.69 0 0010.55-7.08l6.67-24.67a1.39 1.39 0 00-.99-1.77z"
    fill="#ebedff"></path>
  <path data-v-54e72b3c=""
    d="M302.22 118.82l-2.17 7.74a8.14 8.14 0 01-8.87 5.95 7.06 7.06 0 01-2.21-.6 8.14 8.14 0 01-4.66-9.61l1.25-4.64a1.42 1.42 0 011.62-.88 14.34 14.34 0 006.68.61 19.74 19.74 0 017.53 0 1.16 1.16 0 01.83 1.43z"
    fill="#f37369"></path>
</svg>