<svg width="42" height="39" viewBox="0 0 42 39" fill="none" xmlns="http://www.w3.org/2000/svg">
<path d="M28.5781 4.93587L31.5669 1.00581L31.7156 0.807663C32.6072 -0.100542 35.3484 1.15444 37.8418 3.59833C40.3187 6.05874 41.5737 8.79987 40.6655 9.70807L40.4674 9.85668L36.6529 12.8125" fill="white"/>
<path d="M28.5781 4.93587L31.5669 1.00581L31.7156 0.807663C32.6072 -0.100542 35.3484 1.15444 37.8418 3.59833C40.3187 6.05874 41.5737 8.79987 40.6655 9.70807L40.4674 9.85668L36.6529 12.8125" stroke="black" stroke-miterlimit="10" stroke-linecap="round"/>
<path d="M28.5782 4.93604L36.653 12.8292L33.9614 18.7077L22.8152 33.9821L14.146 20.9204L26.4976 7.06618L28.5782 4.93604Z" fill="white"/>
<path d="M17.6464 17.3699L13.3035 21.6797L9.2744 25.6758L2.40506 28.0537C1.33173 28.417 0.753794 29.5729 1.10056 30.6462C1.44733 31.7195 2.61973 32.314 3.69306 31.9507L14.542 28.7142L18.2904 25.3291" fill="white"/>
<path d="M17.6464 17.3699L13.3035 21.6797L9.2744 25.6758L2.40506 28.0537C1.33173 28.417 0.753794 29.5729 1.10056 30.6462C1.44733 31.7195 2.61973 32.314 3.69306 31.9507L14.542 28.7142L18.2904 25.3291" stroke="black" stroke-linecap="round" stroke-linejoin="round"/>
<path d="M21.8405 27.1126L18.637 30.5307L4.48557 35.7488C3.41223 36.0956 2.25633 35.5176 1.89304 34.4443C1.54627 33.3544 2.12421 32.2151 3.19754 31.8518L13.2869 27.5915L17.0683 23.7109" fill="white"/>
<path d="M21.8405 27.1126L18.637 30.5307L4.48557 35.7488C3.41223 36.0956 2.25633 35.5176 1.89304 34.4443C1.54627 33.3544 2.12421 32.2151 3.19754 31.8518L13.2869 27.5915L17.0683 23.7109" stroke="black" stroke-linecap="round" stroke-linejoin="round"/>
<path d="M20.569 26.1052L16.738 30.2169L7.73852 33.503C6.66519 33.8497 6.07074 35.0221 6.43402 36.0955C6.78079 37.1688 7.95321 37.7633 9.02655 37.4L21.3781 33.2057L27.3393 27.773" fill="white"/>
<path d="M20.569 26.1052L16.738 30.2169L7.73852 33.503C6.66519 33.8497 6.07074 35.0221 6.43402 36.0955C6.78079 37.1688 7.95321 37.7633 9.02655 37.4L21.3781 33.2057L27.3393 27.773" stroke="black" stroke-linecap="round" stroke-linejoin="round"/>
<path d="M24.5324 27.2941L19.9583 32.0333L13.3367 34.3451C12.2633 34.6918 11.6689 35.8642 12.0322 36.9376C12.3789 38.0109 13.5514 38.6054 14.6247 38.2421L23.2939 35.6C28.6771 31.1416 32.6402 25.94 34.3905 20.9862C36.1409 16.0323 36.6363 12.8289 36.6363 12.8289" fill="white"/>
<path d="M24.5324 27.2941L19.9583 32.0333L13.3367 34.3451C12.2633 34.6918 11.6689 35.8642 12.0322 36.9376C12.3789 38.0109 13.5514 38.6054 14.6247 38.2421L23.2939 35.6C28.6771 31.1416 32.6402 25.94 34.3905 20.9862C36.1409 16.0323 36.6363 12.8289 36.6363 12.8289" stroke="black" stroke-linecap="round" stroke-linejoin="round"/>
<path d="M28.5776 4.93604C20.2552 11.5907 18.769 7.23131 15.4004 11.3265C12.2299 15.1575 10.4795 16.3629 8.51452 17.3702C5.16242 19.0875 6.9293 22.7369 10.2484 21.4984C12.0318 20.8379 15.8297 18.8894 17.6296 17.3702" fill="white"/>
<path d="M28.5776 4.93604C20.2552 11.5907 18.769 7.23131 15.4004 11.3265C12.2299 15.1575 10.4795 16.3629 8.51452 17.3702C5.16242 19.0875 6.9293 22.7369 10.2484 21.4984C12.0318 20.8379 15.8297 18.8894 17.6296 17.3702" stroke="black" stroke-linecap="round" stroke-linejoin="round"/>
</svg>
