<svg width="45" height="43" viewBox="0 0 45 43" fill="none" xmlns="http://www.w3.org/2000/svg">
<path d="M31.0376 5.20895L33.8613 1.26239L34.0099 1.06422C34.9511 0.106475 37.8079 1.411 40.4169 3.98699C42.9929 6.56299 44.3304 9.4197 43.3727 10.3774L43.1745 10.5261L39.5087 13.3663" fill="white"/>
<path d="M31.0376 5.20895L33.8613 1.26239L34.0099 1.06422C34.9511 0.106475 37.8079 1.411 40.4169 3.98699C42.9929 6.56299 44.3304 9.4197 43.3727 10.3774L43.1745 10.5261L39.5087 13.3663" stroke="black" stroke-linecap="round" stroke-linejoin="round"/>
<path d="M31.0375 5.20923L39.4921 13.3665L35.8757 19.9221L24.3993 35.6588L14.0293 23.8357L28.1973 7.95034L31.0375 5.20923Z" fill="white"/>
<path d="M12.1797 30.2425L4.22054 32.5378C3.11418 32.9011 1.90873 32.3066 1.54544 31.1837C1.18216 30.0774 1.77664 28.872 2.89951 28.5087L8.74503 26.5766L13.4512 21.6889C22.5663 9.13913 24.0359 13.3499 31.0373 5.22559" fill="white"/>
<path d="M12.1797 30.2425L4.22054 32.5378C3.11418 32.9011 1.90873 32.3066 1.54544 31.1837C1.18216 30.0774 1.77664 28.872 2.89951 28.5087L8.74503 26.5766L13.4512 21.6889C22.5663 9.13913 24.0359 13.3499 31.0373 5.22559" stroke="black" stroke-linecap="round" stroke-linejoin="round"/>
<path d="M16.0274 25.0244L12.0808 29.2517L3.13087 32.5708C2.02451 32.934 1.41353 34.1395 1.77681 35.2458C2.14009 36.3522 3.34554 36.9632 4.4519 36.5999L16.8695 32.3231L19.7923 29.6645" fill="white"/>
<path d="M16.0274 25.0244L12.0808 29.2517L3.13087 32.5708C2.02451 32.934 1.41353 34.1395 1.77681 35.2458C2.14009 36.3522 3.34554 36.9632 4.4519 36.5999L16.8695 32.3231L19.7923 29.6645" stroke="black" stroke-linecap="round" stroke-linejoin="round"/>
<path d="M25.1755 31.1673L22.7811 33.7267L6.81321 39.7044C5.70685 40.0677 4.50142 39.4567 4.13814 38.3503C3.77486 37.2275 4.38582 36.0385 5.49218 35.6753L16.5393 31.448L20.651 27.2207" fill="white"/>
<path d="M25.1755 31.1673L22.7811 33.7267L6.81321 39.7044C5.70685 40.0677 4.50142 39.4567 4.13814 38.3503C3.77486 37.2275 4.38582 36.0385 5.49218 35.6753L16.5393 31.448L20.651 27.2207" stroke="black" stroke-linecap="round" stroke-linejoin="round"/>
<path d="M23.8704 29.3018L18.7844 34.7345L9.81798 37.7233C8.71162 38.1031 8.11715 39.292 8.46392 40.3983C8.8272 41.5047 10.0161 42.1157 11.139 41.7524L23.2594 37.8389L29.5508 30.9365" fill="white"/>
<path d="M23.8704 29.3018L18.7844 34.7345L9.81798 37.7233C8.71162 38.1031 8.11715 39.292 8.46392 40.3983C8.8272 41.5047 10.0161 42.1157 11.139 41.7524L23.2594 37.8389L29.5508 30.9365" stroke="black" stroke-linecap="round" stroke-linejoin="round"/>
<path d="M39.4924 13.3662C34.4725 23.1253 38.6337 24.1161 35.1991 28.3599C31.9791 32.3394 30.2122 33.9082 29.304 35.9888C27.7518 39.539 23.8878 37.9703 24.9446 34.4861C25.506 32.6202 27.8839 29.3837 29.337 27.4186" fill="white"/>
<path d="M39.4924 13.3662C34.4725 23.1253 38.6337 24.1161 35.1991 28.3599C31.9791 32.3394 30.2122 33.9082 29.304 35.9888C27.7518 39.539 23.8878 37.9703 24.9446 34.4861C25.506 32.6202 27.8839 29.3837 29.337 27.4186" stroke="black" stroke-linecap="round" stroke-linejoin="round"/>
</svg>
