<svg width="212" height="531" viewBox="0 0 212 531" fill="none" xmlns="http://www.w3.org/2000/svg">
<path d="M155.412 345.756C157.526 364.218 157.526 404.245 157.229 422.128C156.965 437.997 156.585 510.422 156.502 526.539C156.502 528.223 158.071 529.461 159.689 529.065C165.881 527.562 170.654 524.97 170.555 522.13C169.679 498.731 171.975 459.909 171.661 443.892C171.347 427.874 169.944 418.363 169.63 411.89C169.316 405.434 169.63 378.551 170.224 344.765C170.703 317.453 170.406 293.262 170.274 285.006C170.257 283.437 168.854 282.248 167.302 282.496C162.034 283.354 156.932 283.767 152.027 283.833C150.525 283.85 149.369 285.154 149.517 286.64C150.459 296.548 153.629 330.119 155.429 345.756H155.412Z" fill="black" stroke="black" stroke-miterlimit="10" stroke-linecap="round"/>
<path d="M91.3262 501.852C91.3262 501.852 90.9134 506.013 96.0984 508.837C99.3019 510.571 104.371 511.116 107.889 511C109.276 510.951 110.349 509.811 110.365 508.424C110.481 487.882 113.784 444.041 115.303 430.154C116.871 415.705 116.31 411.329 113.965 406.854C110.811 400.843 109.127 397.524 110.101 385.8C110.844 376.834 112.297 335.42 112.941 316.496C113.024 313.87 116.541 313.045 117.796 315.356L121.016 321.268C121.148 321.499 121.231 321.763 121.28 322.028L128.695 361.89C128.695 361.89 132.658 385.519 135.019 402.412C137.38 419.305 139.015 444.057 139.015 460.686C139.015 477.314 138.107 517.094 138.107 520.495C138.107 523.897 141.954 528.091 149.27 529.429C150.789 529.709 152.391 529.891 153.943 529.891C155.363 529.891 156.519 528.735 156.519 527.315C156.585 512.998 156.981 438.245 157.262 422.095C157.559 404.212 157.559 364.185 155.445 345.724C153.613 329.805 150.343 295.244 149.484 286.079C149.369 284.775 148.279 283.8 146.974 283.751C118.556 282.744 97.6341 270.26 89.1465 264.282C87.4126 263.06 85.0183 264.332 85.0843 266.462C85.877 297.126 92.2674 384.116 93.1921 402.032C94.1994 421.138 91.3592 501.852 91.3592 501.852H91.3262Z" fill="white" stroke="black" stroke-linecap="round" stroke-linejoin="round"/>
<path d="M115.286 430.169C113.569 443.825 110.547 486.61 110.365 507.515C110.365 509.282 112.066 510.537 113.75 509.992C121.478 507.466 121.214 501.406 121.214 501.406C122.139 489.087 123.559 470.444 125.078 446.335C126.581 422.243 125.194 410.007 125.161 403.468C125.128 395.08 128.249 365.901 128.645 362.252C128.678 362.004 128.662 361.757 128.612 361.509L121.28 322.01C121.231 321.746 121.132 321.482 121.016 321.251L117.796 315.339C116.541 313.027 113.04 313.853 112.941 316.479C112.297 335.419 110.844 376.816 110.101 385.783C109.127 397.49 111.984 402.114 113.965 406.837C115.947 411.559 116.607 419.832 115.303 430.136L115.286 430.169Z" fill="black" stroke="black" stroke-miterlimit="10" stroke-linecap="round"/>
<path d="M94.4144 273.231C101.284 279.308 115.947 285.253 129.207 286.805C142.467 288.357 120.042 150.376 144.382 123.047C152.903 114.642 126.02 86.4385 112.826 97.0562C99.6324 107.674 84.292 230.562 94.4144 273.215V273.231Z" fill="#636F93" stroke="black" stroke-linecap="round" stroke-linejoin="round"/>
<path d="M117.45 119.3C110.118 116.014 117.103 109.359 116.74 102.242V95.1084C115.898 94.9598 114.956 94.6791 113.9 94.2828C108.087 92.1196 108.83 90.6169 108.83 86.6704C108.83 81.7826 102.753 67.0531 102.274 62.0663C101.796 57.0794 102.423 56.1216 102.423 52.3402C102.423 48.5588 101.564 49.3018 101.564 45.5204C97.9811 44.5957 94.6125 42.1518 94.6125 42.1518C94.6125 42.1518 97.2216 42.4986 96.9739 36.3393C96.9739 36.3393 95.5868 36.2732 94.8272 37.1979C94.0676 38.1227 91.9209 26.7123 94.8272 22.3199C95.884 20.7016 97.6014 19.4302 99.3187 18.4394C103.298 10.2821 109.045 9.04359 112.76 9.25825C116.872 2.96687 121.826 2.71918 124.682 3.28062C131.221 -2.16861 137.282 3.85857 137.282 3.85857C150.822 -2.89518 158.104 8.08584 158.451 8.61425C159.871 9.14266 161.737 10.0013 163.009 11.2728C166.592 14.8726 168.194 24.1858 168.194 24.1858L166.988 26.1013C166.988 26.1013 169.151 26.2334 169.201 32.7395C169.25 39.2455 168.854 44.2819 168.854 44.2819L166.774 46.4451L166.377 50.177L165.783 49.467L162.084 58.2518L161.77 57.4427L158.996 65.9137L158.55 65.2367L157.213 69.3814L156.222 68.4567L152.143 77.7865" fill="white"/>
<path d="M117.45 119.3C110.118 116.014 117.103 109.359 116.74 102.242V95.1084C115.898 94.9598 114.956 94.6791 113.9 94.2828C108.087 92.1196 108.83 90.6169 108.83 86.6704C108.83 81.7826 102.753 67.0531 102.274 62.0663C101.796 57.0794 102.423 56.1216 102.423 52.3402C102.423 48.5588 101.564 49.3018 101.564 45.5204C97.9811 44.5957 94.6125 42.1518 94.6125 42.1518C94.6125 42.1518 97.2216 42.4986 96.9739 36.3393C96.9739 36.3393 95.5868 36.2732 94.8272 37.1979C94.0676 38.1227 91.9209 26.7123 94.8272 22.3199C95.884 20.7016 97.6014 19.4302 99.3187 18.4394C103.298 10.2821 109.045 9.04359 112.76 9.25825C116.872 2.96687 121.826 2.71918 124.682 3.28062C131.221 -2.16861 137.282 3.85857 137.282 3.85857C150.822 -2.89518 158.104 8.08584 158.451 8.61426C159.871 9.14267 161.737 10.0013 163.009 11.2728C166.592 14.8726 168.194 24.1858 168.194 24.1858L166.988 26.1013C166.988 26.1013 169.151 26.2334 169.201 32.7395C169.25 39.2455 168.854 44.2819 168.854 44.2819L166.774 46.4451L166.377 50.177L165.783 49.467L162.084 58.2518L161.77 57.4427L158.996 65.9137L158.55 65.2367L157.213 69.3814L156.222 68.4567L152.143 77.7865" stroke="black" stroke-linecap="round" stroke-linejoin="round"/>
<path d="M173.346 260.633L174.898 201.467L166.361 175.592L152.209 195.391L145.901 268.344L149.964 289.861L171.595 279.887L173.346 260.633Z" fill="black" stroke="black" stroke-miterlimit="10" stroke-linecap="round"/>
<path d="M154.669 102.323C154.669 102.323 160.944 110.134 168.87 117.366C172.965 122.469 179.19 127.274 184.475 137.281C189.792 147.321 211.39 207.543 204.406 239.297C197.421 271.051 159.491 303.235 159.491 303.235C153.166 299.486 154.24 295.969 153.909 293.888C153.827 293.36 153.959 292.815 154.289 292.369C155.94 290.206 161.026 283.287 166.36 274.04C172.717 263.026 179.471 248.693 181.436 235.103C183.517 220.605 176.003 204.356 173.609 198.279C171.215 192.203 164.775 180.759 164.775 180.759C164.775 180.759 144.53 203.514 151.366 289.347L159.111 285.616C159.111 285.616 150.359 292.072 135.861 292.072C128.314 292.072 115.467 288.604 115.467 286.953C115.467 283.271 114.047 257.857 113.915 240.75C113.767 223.659 113.453 204.835 115.302 182.295C117.185 159.359 126.102 123.707 129.801 121.561" fill="white"/>
<path d="M154.669 102.323C154.669 102.323 160.944 110.134 168.87 117.366C172.965 122.469 179.19 127.274 184.475 137.281C189.792 147.321 211.39 207.543 204.406 239.297C197.421 271.051 159.491 303.235 159.491 303.235C153.166 299.486 154.24 295.969 153.909 293.888C153.827 293.36 153.959 292.815 154.289 292.369C155.94 290.206 161.026 283.287 166.36 274.04C172.717 263.026 179.471 248.693 181.436 235.103C183.517 220.605 176.003 204.356 173.609 198.279C171.215 192.203 164.775 180.759 164.775 180.759C164.775 180.759 144.53 203.514 151.366 289.347L159.111 285.616C159.111 285.616 150.359 292.072 135.861 292.072C128.314 292.072 115.467 288.604 115.467 286.953C115.467 283.271 114.047 257.857 113.915 240.75C113.767 223.659 113.453 204.835 115.302 182.295C117.185 159.359 126.102 123.707 129.801 121.561" stroke="black" stroke-linecap="round" stroke-linejoin="round"/>
<path d="M98.823 268.955C98.823 273.133 98.8065 276.551 98.724 278.978C98.724 278.978 93.2912 275.461 89.3777 270.821C85.4807 266.181 85.1504 262.267 85.0679 260.137C84.9853 257.66 84.9523 254.225 84.9853 250.163C85.0679 252.293 85.5137 256.191 89.3777 260.798C93.1591 265.289 98.4928 268.74 98.823 268.955Z" fill="black" stroke="black" stroke-linecap="round" stroke-linejoin="round"/>
<path d="M117.499 95.3225C111.158 101.333 108.582 112.281 111.274 119.167C111.257 119.497 111.191 119.778 111.092 120.009C109.259 124.517 107.476 135.399 106.237 141.261C98.1955 178.795 98.856 240.966 98.8065 270.193C98.4597 269.962 92.7958 266.049 88.7832 260.963C84.6715 255.745 84.2257 251.336 84.1266 248.925V248.859C84.2257 236.458 84.688 219.02 85.0513 204.225C85.0513 204.225 84.2256 209.03 82.3432 212.266C78.7104 218.558 64.757 234.658 52.9504 241.544C47.914 244.466 37.2962 231.52 40.4997 227.937C50.1267 217.171 65.6817 194.928 69.2485 185.961C76.6297 167.434 74.1198 129.157 83.1028 111.389C86.3558 104.933 91.0785 93.407 103.81 91.1778C109.424 90.187 116.343 90.187 121.875 90.4347L117.482 95.2895L117.499 95.3225Z" fill="white" stroke="black" stroke-linecap="round" stroke-linejoin="round"/>
<path d="M133.352 92.978C133.352 92.978 116.558 97.2549 112.001 107.906C110.267 111.935 110.713 117.054 111.274 119.167C107.773 111.324 106.865 98.3942 117.367 90.6828L121.875 89.3452C127.424 89.5929 133.352 92.978 133.352 92.978Z" fill="black" stroke="black" stroke-linecap="round" stroke-linejoin="round"/>
<path d="M201.318 266.164C190.915 283.139 172.123 303.549 168.557 306.72C168.028 307.182 167.302 307.347 166.641 307.132C164.874 306.521 159.541 303.219 158.22 302.443C158.22 302.443 191.757 275.543 201.814 239.331C207.197 219.961 189.99 150.046 181.437 133.698C176.4 124.088 156.915 108.351 154.669 102.357C162.001 109.061 181.239 122.271 187.249 133.318C193.26 144.366 195.324 155.776 200.889 178.91C205.232 196.959 207.51 206.322 208.947 220.291C210.384 234.261 214.231 245.127 201.318 266.181V266.164Z" fill="black" stroke="black" stroke-miterlimit="10" stroke-linecap="round"/>
<path d="M92.1846 97.2388C99.5988 91.6079 113.321 87.7109 116.756 100.591L117.383 90.6667C117.383 90.6667 100.078 88.7512 92.1846 97.2388Z" fill="black" stroke="black" stroke-linecap="round" stroke-linejoin="round"/>
<path d="M89.675 146.941C89.675 146.941 84.9854 174.286 84.9854 204.24" stroke="black" stroke-linecap="round" stroke-linejoin="round"/>
<path d="M115.072 276.798L115.418 286.986C115.418 288.572 128.249 292.089 135.795 292.089C149.864 292.089 158.5 286.045 159.029 285.665H159.045C161.159 282.528 163.685 278.565 166.294 274.057C166.526 273.661 166.74 273.281 166.971 272.885C135.779 292.105 115.055 276.798 115.055 276.798H115.072Z" fill="black" stroke="black" stroke-linecap="round" stroke-linejoin="round"/>
<path d="M113.106 280.976C113.106 280.976 138.322 294.121 159.772 280.976" stroke="white" stroke-miterlimit="10" stroke-linecap="round"/>
<path d="M153.249 68.126C153.249 68.126 150.326 86.5213 152.44 98.9554C153.629 105.99 131.551 125.607 117.449 119.299C110.118 116.013 117.103 109.358 116.739 102.241V95.0914" fill="white"/>
<path d="M153.249 68.126C153.249 68.126 150.326 86.5213 152.44 98.9554C153.629 105.99 131.551 125.607 117.449 119.299C110.118 116.013 117.103 109.358 116.739 102.241V95.0914" stroke="black" stroke-miterlimit="10" stroke-linecap="round"/>
<path d="M101.548 45.5369C101.548 49.3018 102.406 48.5752 102.406 52.3567C102.406 56.1381 101.779 57.0793 102.258 62.0827C102.737 67.0861 108.83 81.799 108.83 86.6868C108.83 90.6169 108.087 92.1195 113.899 94.2827C119.134 96.2477 121.165 95.1083 125.624 93.4075C130.082 91.7067 136.109 88.3381 138.784 86.307C143.16 83.0044 143.16 80.3624 143.16 80.3624" fill="white"/>
<path d="M101.548 45.5369C101.548 49.3018 102.406 48.5752 102.406 52.3567C102.406 56.1381 101.779 57.0793 102.258 62.0827C102.737 67.0861 108.83 81.799 108.83 86.6868C108.83 90.6169 108.087 92.1195 113.899 94.2827C119.134 96.2477 121.165 95.1083 125.624 93.4075C130.082 91.7067 136.109 88.3381 138.784 86.307C143.16 83.0044 143.16 80.3624 143.16 80.3624" stroke="black" stroke-miterlimit="10" stroke-linecap="round"/>
<path d="M158.451 8.66349C158.451 8.66349 151.153 -3.02759 137.282 3.89128C137.282 3.89128 131.238 -2.1359 124.683 3.31333" stroke="black" stroke-linecap="round" stroke-linejoin="round"/>
<path d="M152.126 77.8362L156.189 68.5064L157.179 69.4477L158.517 65.3029L158.963 65.98L161.737 57.5089L162.034 58.318L165.733 49.5497L166.344 50.2598L166.74 46.5114L168.821 44.3317C168.821 44.3317 169.201 39.2952 169.168 32.7892C169.118 26.2831 166.955 26.151 166.955 26.151L168.16 24.2356C168.16 24.2356 166.559 14.9223 162.975 11.3225C160.961 9.30797 157.477 8.35023 156.552 8.10254" stroke="black" stroke-linecap="round" stroke-linejoin="round"/>
<path d="M105.313 15.979C105.313 15.979 97.7168 17.977 94.8106 22.3529C91.9043 26.7288 94.051 38.1557 94.8106 37.231C95.5702 36.3063 96.9573 36.3723 96.9573 36.3723C97.205 42.5316 94.5959 42.1848 94.5959 42.1848C94.5959 42.1848 102.671 48.0469 107.129 45.0581C117.169 38.3869 116.756 40.7482 116.756 40.7482C112.826 41.8546 111.621 44.0343 111.621 44.0343C115.584 43.638 123.625 50.8045 128.2 50.078C132.774 49.3349 139.56 42.7958 139.56 42.7958C139.56 42.7958 135.961 48.6248 142.219 48.3111C148.477 47.9974 145.373 60.7783 145.373 60.7783L147.767 58.2188L148.345 55.7914" stroke="black" stroke-linecap="round" stroke-linejoin="round"/>
<path d="M127.011 4.13807C127.011 4.13807 118.903 -0.386445 112.744 8.99284" stroke="black" stroke-linecap="round" stroke-linejoin="round"/>
<path d="M116.442 10.0506C116.442 10.0506 105.61 4.88204 99.3018 17.8611" stroke="black" stroke-linecap="round" stroke-linejoin="round"/>
<path d="M108.995 50.574C109.177 49.6162 108.88 48.4438 106.419 47.1558C104.735 46.2641 103.463 45.4385 102.208 45.5541C101.911 45.5871 101.977 46.6109 102.109 46.809C102.456 47.4035 101.713 48.1961 102.588 48.4603C104.025 48.9062 107.757 51.2015 108.186 51.6803C108.797 52.3739 108.83 51.5482 109.012 50.5905L108.995 50.574Z" fill="black"/>
<path d="M108.763 63.1887C108.351 67.3169 103.364 70.8672 103.446 75.9862C103.479 77.7695 105.164 78.7603 107.36 79.0245C109.44 79.2722 111.703 78.6282 112.512 77.8686C114.114 76.3659 112.627 74.5661 112.627 74.5661" fill="white"/>
<path d="M108.763 63.1887C108.351 67.3169 103.364 70.8672 103.446 75.9862C103.479 77.7695 105.164 78.7603 107.36 79.0245C109.44 79.2722 111.703 78.6282 112.512 77.8686C114.114 76.3659 112.627 74.5661 112.627 74.5661" stroke="black" stroke-miterlimit="10" stroke-linecap="round"/>
<path d="M147.767 56.0557C143.887 58.5161 124.517 69.2494 124.517 69.2494" stroke="black" stroke-linecap="round" stroke-linejoin="round"/>
<path d="M101.894 45.5369L92.3335 50.9696" stroke="black" stroke-linecap="round" stroke-linejoin="round"/>
<path d="M110.812 61.4053C111.175 65.4509 114.444 70.4213 118.127 72.5184C121.809 74.6155 124.501 73.0633 124.154 69.0342" stroke="black" stroke-linecap="round" stroke-linejoin="round"/>
<path d="M92.1846 50.7549C92.5479 54.8005 95.8174 59.7709 99.4998 61.868C103.182 63.9651 105.874 62.4129 105.527 58.3838V58.3508" stroke="black" stroke-linecap="round" stroke-linejoin="round"/>
<path d="M99.5002 61.8847C95.8178 59.7876 92.5483 54.8007 92.185 50.7716C91.8217 46.7425 94.6784 46.9241 98.3608 49.0212C102.027 51.1184 105.148 54.3549 105.511 58.3675V58.384C105.858 62.4296 103.166 63.9819 99.4837 61.8682L99.5002 61.8847Z" fill="white" stroke="black" stroke-miterlimit="10" stroke-linecap="round"/>
<path d="M105.527 58.3664C105.164 54.3538 102.043 51.1338 98.3772 49.0201C94.7114 46.9065 91.8382 46.7248 92.2014 50.754" stroke="#FF5039" stroke-linecap="round" stroke-linejoin="round"/>
<path d="M105.527 58.3838L105.99 57.5747L110.151 59.9526L110.811 61.4057" stroke="black" stroke-linecap="round" stroke-linejoin="round"/>
<path d="M110.811 61.4058C110.448 57.3767 113.305 57.5583 116.987 59.672C120.67 61.7856 123.791 65.0056 124.154 69.0348" stroke="#FF5039" stroke-linecap="round" stroke-linejoin="round"/>
<path d="M112.842 52.3398C113.189 51.2169 116.029 51.4646 120.339 53.3635C123.295 54.6681 125.739 56.8147 126.994 58.0367C127.275 58.3174 127.027 58.9118 126.647 58.8623C125.524 58.7302 123.856 58.4165 122.568 57.6899C120.438 56.4845 114.609 54.1231 113.602 54.1231C112.595 54.1231 112.842 52.3398 112.842 52.3398Z" fill="black"/>
<path d="M152.044 93.6211C152.044 93.6211 154.669 99.5822 154.669 102.323C154.669 105.758 150.277 113.271 129.768 121.594C129.24 115.088 135.036 110.613 139.89 107.607C144.464 104.784 152.292 100.408 152.027 93.6211H152.044Z" fill="black" stroke="black" stroke-linecap="round" stroke-linejoin="round"/>
<path d="M161.687 309.906C160.581 311.029 157.229 309.494 154.174 306.472C151.152 303.45 149.6 300.081 150.706 298.975C151.416 298.265 153.018 298.628 154.884 299.768C155.957 300.412 157.113 301.303 158.219 302.41C159.326 303.532 160.25 304.672 160.894 305.745C162.034 307.578 162.397 309.196 161.687 309.89V309.906Z" fill="white" stroke="black" stroke-miterlimit="10" stroke-linecap="round"/>
<path d="M166.707 306.027L166.443 306.225L161.687 309.924C162.397 309.214 162.034 307.612 160.894 305.779C160.25 304.706 159.326 303.566 158.219 302.443C157.113 301.337 155.957 300.445 154.884 299.801C153.018 298.662 151.416 298.299 150.706 299.009L154.372 294.237L154.57 293.972C155.792 292.734 159.507 294.435 162.876 297.77C166.228 301.106 167.945 304.821 166.707 306.06V306.027Z" fill="black" stroke="black" stroke-miterlimit="10" stroke-linecap="round"/>
<path d="M151.515 295.145C151.515 295.145 155.66 295.211 160.052 299.686C163.751 303.434 165.204 306.77 166.294 309.907" stroke="white" stroke-miterlimit="10" stroke-linecap="round"/>
<path d="M168.243 117.912C162.695 111.34 151.318 109.078 144.366 114.313L154.67 102.341L168.243 117.912Z" fill="black" stroke="black" stroke-linecap="round" stroke-linejoin="round"/>
<path d="M89.6744 146.941C88.5351 154.504 84.8857 179.834 84.9022 204.24C84.9022 204.24 84.0766 209.046 82.1941 212.282C78.5613 218.574 64.608 234.674 52.8013 241.559C51.9922 242.038 51.0179 242.088 49.9776 241.824L51.15 240.915L51.3812 240.734C52.2729 239.875 51.4803 237.58 49.6309 235.185C49.6309 235.185 82.7556 216.46 84.0766 191.443C85.0674 172.684 86.9663 161.868 87.6433 157.047C88.3204 152.225 89.6414 146.941 89.6414 146.941H89.6744Z" fill="black" stroke="black" stroke-linecap="round" stroke-linejoin="round"/>
<path d="M95.3554 271.927C95.3554 271.927 84.5725 264.628 81.4351 254.506" stroke="white" stroke-miterlimit="10" stroke-linecap="round"/>
<path d="M47.0227 244.251C46.0319 245.259 42.9936 243.872 40.2524 241.147C37.5278 238.406 36.1243 235.368 37.148 234.36C37.792 233.716 39.2287 234.047 40.913 235.087C41.8872 235.665 42.9275 236.49 43.9183 237.481C44.9091 238.488 45.7347 239.529 46.3292 240.503C47.353 242.171 47.6667 243.607 47.0392 244.251H47.0227Z" fill="white" stroke="black" stroke-linecap="round" stroke-linejoin="round"/>
<path d="M51.5635 240.751L51.3158 240.916L47.0059 244.235C47.6499 243.591 47.3197 242.154 46.2959 240.487C45.7179 239.512 44.8923 238.472 43.885 237.465C42.8942 236.474 41.8539 235.648 40.8797 235.07C39.2119 234.03 37.7587 233.7 37.1147 234.344L40.4338 230.051L40.599 229.819C41.7053 228.697 45.0574 230.249 48.0793 233.271C51.1011 236.292 52.6368 239.661 51.5304 240.751H51.5635Z" fill="black" stroke="black" stroke-miterlimit="10" stroke-linecap="round"/>
<path d="M37.627 230.662C37.627 230.662 41.4579 230.744 45.5366 234.889C48.9547 238.373 49.962 240.999 50.6391 243.839" stroke="white" stroke-miterlimit="10" stroke-linecap="round"/>
<path d="M155.132 60.5309C155.297 57.9054 155.941 55.3294 153.927 55.0982C151.912 54.867 150.211 55.7752 149.782 59.3585C149.683 60.5309 149.402 60.3658 148.808 60.5309C148.213 60.696 148.857 63.6023 148.676 64.1142C148.494 64.6261 147.421 65.7324 147.52 66.2939C147.619 66.8553 148.609 66.1948 149.468 65.4352C150.327 64.6756 150.822 66.4094 152.011 65.5673C153.2 64.7251 153.943 63.5032 151.813 61.1914" stroke="black" stroke-miterlimit="10" stroke-linecap="round"/>
<path d="M134.672 116.492C136.736 111.835 157.46 103.315 155.809 92.5815" stroke="white" stroke-miterlimit="10" stroke-linecap="round"/>
<path d="M109.821 110.531C109.738 108.302 109.953 106.039 110.597 103.86C110.679 103.579 110.96 103.43 111.241 103.497C111.521 103.579 111.67 103.86 111.604 104.141V104.174C110.844 106.188 110.481 108.335 110.399 110.514C110.399 110.68 110.266 110.795 110.101 110.795C109.953 110.795 109.837 110.663 109.821 110.514V110.531Z" fill="white"/>
<path d="M111.885 100.673L112.793 99.1869C112.991 98.8566 113.421 98.7575 113.751 98.9557C114.081 99.1538 114.18 99.5832 113.982 99.9134L113.949 99.9464L113.9 100.012L112.975 101.301L112.925 101.367C112.727 101.647 112.314 101.713 112.034 101.515C111.753 101.317 111.687 100.954 111.852 100.656L111.885 100.673Z" fill="white"/>
<path d="M149.65 69.7281C151.152 69.7116 152.837 68.8199 154.306 67.053C157.262 63.5358 158.319 57.8554 156.668 54.3877C155.016 50.92 149.98 50.5402 148.345 55.7748" stroke="black" stroke-miterlimit="10" stroke-linecap="round"/>
<path d="M142.038 313.209L144.861 309.262L145.01 309.064C145.951 308.106 148.808 309.411 151.417 311.987C153.993 314.563 155.33 317.42 154.373 318.377L154.175 318.526L150.509 321.366" fill="white"/>
<path d="M142.038 313.209L144.861 309.262L145.01 309.064C145.951 308.106 148.808 309.411 151.417 311.987C153.993 314.563 155.33 317.42 154.373 318.377L154.175 318.526L150.509 321.366" stroke="black" stroke-linecap="round" stroke-linejoin="round"/>
<path d="M142.037 313.209L150.492 321.367L146.876 327.922L135.399 343.659L125.029 331.836L139.197 315.95L142.037 313.209Z" fill="white"/>
<path d="M123.18 338.242L115.221 340.538C114.114 340.901 112.909 340.307 112.545 339.184C112.182 338.077 112.777 336.872 113.9 336.509L119.745 334.577L124.451 329.689C133.566 317.139 135.036 321.35 142.037 313.226" fill="white"/>
<path d="M123.18 338.242L115.221 340.538C114.114 340.901 112.909 340.307 112.545 339.184C112.182 338.077 112.777 336.872 113.9 336.509L119.745 334.577L124.451 329.689C133.566 317.139 135.036 321.35 142.037 313.226" stroke="black" stroke-linecap="round" stroke-linejoin="round"/>
<path d="M127.027 333.024L123.081 337.252L114.131 340.571C113.025 340.934 112.414 342.139 112.777 343.246C113.14 344.352 114.346 344.963 115.452 344.6L127.87 340.323L130.792 337.665" fill="white"/>
<path d="M127.027 333.024L123.081 337.252L114.131 340.571C113.025 340.934 112.414 342.139 112.777 343.246C113.14 344.352 114.346 344.963 115.452 344.6L127.87 340.323L130.792 337.665" stroke="black" stroke-linecap="round" stroke-linejoin="round"/>
<path d="M136.175 339.167L133.781 341.727L117.813 347.704C116.707 348.068 115.501 347.457 115.138 346.35C114.775 345.227 115.386 344.039 116.492 343.675L127.539 339.448L131.651 335.221" fill="white"/>
<path d="M136.175 339.167L133.781 341.727L117.813 347.704C116.707 348.068 115.501 347.457 115.138 346.35C114.775 345.227 115.386 344.039 116.492 343.675L127.539 339.448L131.651 335.221" stroke="black" stroke-linecap="round" stroke-linejoin="round"/>
<path d="M134.87 337.302L129.784 342.734L120.818 345.723C119.712 346.103 119.117 347.292 119.464 348.398C119.827 349.505 121.016 350.116 122.139 349.752L134.259 345.839L140.551 338.937" fill="white"/>
<path d="M134.87 337.302L129.784 342.734L120.818 345.723C119.712 346.103 119.117 347.292 119.464 348.398C119.827 349.505 121.016 350.116 122.139 349.752L134.259 345.839L140.551 338.937" stroke="black" stroke-linecap="round" stroke-linejoin="round"/>
<path d="M150.492 321.366C145.473 331.125 149.634 332.116 146.199 336.36C142.979 340.339 141.212 341.908 140.304 343.989C138.752 347.539 134.888 345.97 135.945 342.486C136.506 340.62 138.884 337.384 140.337 335.419" fill="white"/>
<path d="M150.492 321.366C145.473 331.125 149.634 332.116 146.199 336.36C142.979 340.339 141.212 341.908 140.304 343.989C138.752 347.539 134.888 345.97 135.945 342.486C136.506 340.62 138.884 337.384 140.337 335.419" stroke="black" stroke-linecap="round" stroke-linejoin="round"/>
<path d="M28.5781 245.936L31.5669 242.006L31.7156 241.808C32.6072 240.899 35.3484 242.154 37.8418 244.598C40.3187 247.059 41.5737 249.8 40.6655 250.708L40.4674 250.857L36.6529 253.812" fill="white"/>
<path d="M28.5781 245.936L31.5669 242.006L31.7156 241.808C32.6072 240.899 35.3484 242.154 37.8418 244.598C40.3187 247.059 41.5737 249.8 40.6655 250.708L40.4674 250.857L36.6529 253.812" stroke="black" stroke-miterlimit="10" stroke-linecap="round"/>
<path d="M28.5782 245.936L36.653 253.829L33.9614 259.708L22.8152 274.982L14.146 261.92L26.4976 248.066L28.5782 245.936Z" fill="white"/>
<path d="M17.6464 258.37L13.3035 262.68L9.2744 266.676L2.40506 269.054C1.33173 269.417 0.753794 270.573 1.10056 271.646C1.44733 272.72 2.61973 273.314 3.69306 272.951L14.542 269.714L18.2904 266.329" fill="white"/>
<path d="M17.6464 258.37L13.3035 262.68L9.2744 266.676L2.40506 269.054C1.33173 269.417 0.753794 270.573 1.10056 271.646C1.44733 272.72 2.61973 273.314 3.69306 272.951L14.542 269.714L18.2904 266.329" stroke="black" stroke-linecap="round" stroke-linejoin="round"/>
<path d="M21.8405 268.113L18.637 271.531L4.48557 276.749C3.41223 277.096 2.25633 276.518 1.89304 275.444C1.54627 274.354 2.12421 273.215 3.19754 272.852L13.2869 268.591L17.0683 264.711" fill="white"/>
<path d="M21.8405 268.113L18.637 271.531L4.48557 276.749C3.41223 277.096 2.25633 276.518 1.89304 275.444C1.54627 274.354 2.12421 273.215 3.19754 272.852L13.2869 268.591L17.0683 264.711" stroke="black" stroke-linecap="round" stroke-linejoin="round"/>
<path d="M20.569 267.105L16.738 271.217L7.73852 274.503C6.66519 274.85 6.07074 276.022 6.43402 277.095C6.78079 278.169 7.95321 278.763 9.02655 278.4L21.3781 274.206L27.3393 268.773" fill="white"/>
<path d="M20.569 267.105L16.738 271.217L7.73852 274.503C6.66519 274.85 6.07074 276.022 6.43402 277.095C6.78079 278.169 7.95321 278.763 9.02655 278.4L21.3781 274.206L27.3393 268.773" stroke="black" stroke-linecap="round" stroke-linejoin="round"/>
<path d="M24.5324 268.294L19.9583 273.033L13.3367 275.345C12.2633 275.692 11.6689 276.864 12.0322 277.938C12.3789 279.011 13.5514 279.605 14.6247 279.242L23.2939 276.6C28.6771 272.142 32.6402 266.94 34.3905 261.986C36.1409 257.032 36.6363 253.829 36.6363 253.829" fill="white"/>
<path d="M24.5324 268.294L19.9583 273.033L13.3367 275.345C12.2633 275.692 11.6689 276.864 12.0322 277.938C12.3789 279.011 13.5514 279.605 14.6247 279.242L23.2939 276.6C28.6771 272.142 32.6402 266.94 34.3905 261.986C36.1409 257.032 36.6363 253.829 36.6363 253.829" stroke="black" stroke-linecap="round" stroke-linejoin="round"/>
<path d="M28.5776 245.936C20.2552 252.591 18.769 248.231 15.4004 252.326C12.2299 256.157 10.4795 257.363 8.51452 258.37C5.16242 260.088 6.9293 263.737 10.2484 262.498C12.0318 261.838 15.8297 259.889 17.6296 258.37" fill="white"/>
<path d="M28.5776 245.936C20.2552 252.591 18.769 248.231 15.4004 252.326C12.2299 256.157 10.4795 257.363 8.51452 258.37C5.16242 260.088 6.9293 263.737 10.2484 262.498C12.0318 261.838 15.8297 259.889 17.6296 258.37" stroke="black" stroke-linecap="round" stroke-linejoin="round"/>
<path d="M37.626 230.662C37.626 230.662 41.4569 230.744 45.5356 234.889C48.9538 238.373 49.9611 240.999 50.6381 243.839" stroke="white" stroke-miterlimit="10" stroke-linecap="round"/>
</svg>
