<?xml version="1.0" encoding="UTF-8"?><svg id="Layer_2" xmlns="http://www.w3.org/2000/svg" viewBox="0 0 55 50">
  <defs>
    <style>
      .cls-1 {
        fill: #000;
      }
    </style>
  </defs>
  <g id="Layer_1-2">
    <path class="cls-1"
      d="M40.65,9.43l-5.45,5.61L26.92,0,13.24,25.12l-4.25-2.56L0,49.86l10.26-.02s.01-.01,.01-.01c0-.03,.93-1.29,1.28-1.84-.36,.08-.78,.17-1.08,.24,0-.05,.96-1.76,1.44-2.64-.36,.09-.65,.17-1.01,.26,.81-1.41,1.58-2.75,2.37-4.13,.09,.13,.13,.2,.18,.27,.52,.91,1.04,1.81,1.55,2.72,.2,.35,.38,.71,.57,1.07-.29-.05-.57-.1-.91-.16,.48,.89,.93,1.73,1.41,2.61-.18-.03-.5-.1-.66-.12l-.14-.02,.08,.12c.05,.1,.11,.21,.16,.31l.62,1.31h1.75c.1-.11,.2-.27,.36-.54,.34-.57,.69-1.13,1.04-1.69,.05-.07,.56-.72,.78-1.07-.62,.16-1.15,.3-1.76,.45,.8-1.46,1.56-2.87,2.37-4.34-.59,.16-1.1,.29-1.67,.44,1.3-2.27,2.57-4.47,3.89-6.77,1.31,2.28,2.59,4.49,3.91,6.77-.59-.15-1.09-.29-1.68-.44,.8,1.47,1.57,2.88,2.36,4.34-.6-.15-1.13-.29-1.76-.45,.2,.31,.36,.56,.51,.8l.06,.09s.04,.05,.06,.08h-.01l1.44,2.3h1.82c.06-.07,.61-1.05,.74-1.33,.04-.08,.08-.16,.15-.31l-.77,.15,1.41-2.68c-.34,.05-.63,.1-.91,.15,.03-.09,2.24-3.96,2.31-4.02,.78,1.36,1.55,2.69,2.36,4.09-.37-.09-.66-.17-1.02-.26,.48,.89,1.32,2.56,1.32,2.61-.3-.06-.59-.13-.95-.21,.4,.64,.76,1.22,1.13,1.8l18.74-.04L40.65,9.43Z" />
  </g>
</svg>