<svg width="190" height="207" viewBox="0 0 190 207" fill="none" xmlns="http://www.w3.org/2000/svg">
  <path
    d="M57.2102 23.4045L57.0165 23.7621L43.392 47.5242V47.5567L15.3034 96.5112L42.5848 90.8551L4.22943 157.72L31.4463 152.097L0 207H24.1497H38.7105L63.3768 163.994L46.8465 167.407L41.5194 168.48L50.3011 153.202L72.2877 114.877L50.3657 119.428L63.5382 96.5112L72.9334 80.1605V80.128L83.8459 61.0793L84.0397 60.7868L94.7585 42.0631L97.8902 47.5242V47.5567L116.616 80.128V80.1605L125.979 96.5112L139.216 119.428L117.294 114.877L139.248 153.202L147.998 168.48L142.703 167.407L126.205 163.994L150.839 207H165.4H189.485L158.006 152.097L185.223 157.72L146.9 90.8551L174.149 96.5112L146.093 47.5567V47.5242L132.468 23.7621L132.242 23.4045L118.844 0L106.801 20.9991L94.7585 0L82.7159 21.0316L70.6734 0L57.2102 23.4045Z"
    fill="white" fill-opacity="100" />
  <path d="M63.3765 163.994L38.7103 207H24.1494L46.8463 167.407L63.3765 163.994Z" fill="white" fill-opacity="100" />
  <path
    d="M161.169 157.72L139.247 153.202L117.293 114.877L139.215 119.428L125.978 96.5111L116.615 80.1605V80.128L97.889 47.5567V47.5242L94.7573 42.0631L84.0385 60.7867L83.8447 61.0793L72.9322 80.128V80.1605L63.537 96.5111L50.3645 119.428L72.2865 114.877L50.2999 153.202L28.3779 157.72L66.7656 90.855L39.4519 96.5111L67.5082 47.5567V47.5242L81.1327 23.7621L81.3587 23.4045L82.7147 21.0316L94.7573 0L106.8 20.9991L108.156 23.4045L108.382 23.7621L122.039 47.5242V47.5567L150.063 96.5111L122.717 90.855L161.169 157.72Z"
    fill="white" fill-opacity="100" />
  <path d="M165.402 207H150.841L126.207 163.994L142.705 167.407L165.402 207Z" fill="white" fill-opacity="100" />
  <g style="mix-blend-mode:multiply">
    <path
      d="M94.7585 42.0306V42.0631L84.0396 60.7868L83.8459 61.0793L72.9334 80.128V80.1605L63.5382 96.5112L50.3657 119.428L72.2876 114.877L50.3011 153.202L41.5194 168.48L46.8465 167.407L63.3768 163.994L38.7105 207H0L31.4463 152.097L4.22942 157.72L42.5848 90.8551L15.3034 96.5112L43.392 47.5567V47.5242L57.0165 23.7621L57.2102 23.4045L70.6411 0H70.6734L82.7159 21.0316L84.0719 23.4045L84.2656 23.7621L94.7262 42.0306H94.7585Z"
      fill="white" fill-opacity="100" />
  </g>
  <g style="mix-blend-mode:multiply">
    <path
      d="M189.485 207H150.839L126.206 163.994L142.703 167.407L147.998 168.48L139.249 153.202L117.295 114.877L139.217 119.428L125.98 96.5112L116.617 80.1605V80.128L97.891 47.5567V47.5242L94.7592 42.0631L84.0404 60.7868L83.8467 61.0793L91.5952 47.5567V47.5242L94.727 42.0306L105.22 23.7621L105.446 23.4045L106.802 20.9991L118.844 0L132.243 23.4045L132.469 23.7621L146.093 47.5242V47.5567L174.15 96.5112L146.901 90.8551L185.224 157.72L158.007 152.097L189.485 207Z"
      fill="white" fill-opacity="100" />
  </g>
</svg>