<svg width="621" height="132" viewBox="0 0 621 132" fill="none" xmlns="http://www.w3.org/2000/svg">
  <g filter="url(#filter0_d_475_9062)">
    <path
      d="M31.848 34.984H24.232L21.736 49H10.216L18.344 2.92H37.864C42.6853 2.92 46.12 4.02933 48.168 6.248C49.6613 7.95466 50.408 10.1307 50.408 12.776C50.408 13.672 50.3227 14.6107 50.152 15.592L48.872 22.824C48.232 26.3653 46.3547 29.288 43.24 31.592C40.1253 33.8533 36.328 34.984 31.848 34.984ZM33.832 12.904H28.072L25.96 25H31.656C35.1547 25 37.1813 23.4427 37.736 20.328L38.184 17.704C38.2693 17.32 38.312 16.808 38.312 16.168C38.312 15.528 37.992 14.824 37.352 14.056C36.712 13.288 35.5387 12.904 33.832 12.904ZM82.7725 45.672C79.4018 48.488 74.6232 49.896 68.4365 49.896C62.2498 49.896 57.9618 48.4667 55.5725 45.608C53.8658 43.6453 53.0125 40.936 53.0125 37.48C53.0125 35.944 53.1832 34.2587 53.5245 32.424L58.7085 2.92H70.2285L65.0445 32.168C64.8738 33.2347 64.7885 34.344 64.7885 35.496C64.7885 38.4827 66.5805 39.976 70.1645 39.976C72.2978 39.976 74.0045 39.4213 75.2845 38.312C76.5645 37.2027 77.4605 35.1547 77.9725 32.168L83.1565 2.92H94.6765L89.4925 32.424C88.4258 38.3973 86.1858 42.8133 82.7725 45.672ZM121.967 2.92C126.831 2.92 130.287 3.98667 132.335 6.12C133.871 7.74133 134.639 9.78933 134.639 12.264C134.639 13.1173 134.553 14.0133 134.383 14.952L133.487 19.944C132.975 22.7173 132.079 24.9573 130.799 26.664C129.561 28.3707 128.175 29.5867 126.639 30.312L132.463 49H119.535L114.159 31.784H110.191L107.567 49H95.2785L103.407 2.92H121.967ZM117.935 12.904H113.135L111.471 24.04H115.951C118.212 24.04 119.833 23.5067 120.815 22.44C121.796 21.3307 122.287 19.88 122.287 18.088C122.287 14.632 120.836 12.904 117.935 12.904ZM158.911 34.984H151.295L148.799 49H137.279L145.407 2.92H164.927C169.748 2.92 173.183 4.02933 175.231 6.248C176.724 7.95466 177.471 10.1307 177.471 12.776C177.471 13.672 177.385 14.6107 177.215 15.592L175.935 22.824C175.295 26.3653 173.417 29.288 170.303 31.592C167.188 33.8533 163.391 34.984 158.911 34.984ZM160.895 12.904H155.135L153.023 25H158.719C162.217 25 164.244 23.4427 164.799 20.328L165.247 17.704C165.332 17.32 165.375 16.808 165.375 16.168C165.375 15.528 165.055 14.824 164.415 14.056C163.775 13.288 162.601 12.904 160.895 12.904ZM202.987 2.472C213.27 2.472 218.411 6.67466 218.411 15.08C218.411 16.488 218.262 18.0027 217.963 19.624L215.723 32.424C214.699 38.3547 212.48 42.7493 209.067 45.608C205.654 48.4667 200.854 49.896 194.667 49.896C188.48 49.896 184.171 48.4667 181.739 45.608C180.075 43.6453 179.243 40.936 179.243 37.48C179.243 35.944 179.414 34.2587 179.755 32.424L181.995 19.624C184 8.18933 190.998 2.472 202.987 2.472ZM196.395 39.976C198.528 39.976 200.235 39.4213 201.515 38.312C202.795 37.2027 203.691 35.1547 204.203 32.168L206.379 19.88C206.507 19.0267 206.571 18.2587 206.571 17.576C206.571 14.12 204.822 12.392 201.323 12.392C196.928 12.4773 194.304 14.9733 193.451 19.88L191.275 32.168C191.104 33.2347 191.019 34.344 191.019 35.496C191.019 38.4827 192.811 39.976 196.395 39.976ZM232.815 35.88C232.815 38.824 234.927 40.296 239.151 40.296C243.418 40.296 245.551 38.9733 245.551 36.328C245.551 34.92 244.826 33.768 243.375 32.872C241.924 31.976 240.154 31.2293 238.063 30.632C236.015 30.0347 233.946 29.352 231.855 28.584C229.807 27.7733 228.058 26.536 226.607 24.872C225.156 23.1653 224.431 21.0533 224.431 18.536C224.431 7.82666 231.322 2.472 245.103 2.472C250.138 2.472 253.935 3.432 256.495 5.352C259.098 7.22933 260.399 9.85333 260.399 13.224C260.399 14.4613 260.228 15.656 259.887 16.808C259.588 17.9173 259.268 18.7067 258.927 19.176L258.415 19.944H247.087C248.026 18.9627 248.495 17.7253 248.495 16.232C248.495 13.4587 246.682 12.072 243.055 12.072C238.49 12.072 236.207 13.5227 236.207 16.424C236.207 17.8747 236.932 19.0267 238.383 19.88C239.834 20.7333 241.583 21.416 243.631 21.928C245.722 22.3973 247.812 22.9947 249.903 23.72C251.994 24.4453 253.764 25.6613 255.215 27.368C256.666 29.032 257.391 31.208 257.391 33.896C257.391 39.3147 255.77 43.3467 252.527 45.992C249.284 48.5947 244.292 49.896 237.551 49.896C230.81 49.896 226.202 48.7013 223.727 46.312C221.892 44.52 220.975 42.0453 220.975 38.888C220.975 37.6933 221.103 36.392 221.359 34.984L221.551 33.96H233.071L232.943 34.728C232.858 35.1547 232.815 35.5387 232.815 35.88ZM294.219 49H262.091L270.219 2.92H302.347L300.555 12.904H279.947L278.475 21.544H295.499L293.707 31.528H276.683L275.403 39.016H296.011L294.219 49ZM333.143 32.104H316.119L313.175 49H301.591L309.719 2.92H341.847L340.055 12.904H319.447L317.847 22.12H334.871L333.143 32.104ZM371.835 45.672C368.464 48.488 363.686 49.896 357.499 49.896C351.312 49.896 347.024 48.4667 344.635 45.608C342.928 43.6453 342.075 40.936 342.075 37.48C342.075 35.944 342.246 34.2587 342.587 32.424L347.771 2.92H359.291L354.107 32.168C353.936 33.2347 353.851 34.344 353.851 35.496C353.851 38.4827 355.643 39.976 359.227 39.976C361.36 39.976 363.067 39.4213 364.347 38.312C365.627 37.2027 366.523 35.1547 367.035 32.168L372.219 2.92H383.739L378.555 32.424C377.488 38.3973 375.248 42.8133 371.835 45.672ZM413.525 49H384.341L392.469 2.92H403.989L397.653 39.016H415.317L413.525 49ZM36.264 66.92C41.8533 66.92 45.8427 68.328 48.232 71.144C49.9813 73.2773 50.856 75.944 50.856 79.144C50.856 80.296 50.7493 81.512 50.536 82.792L48.04 97.064C47.1867 101.885 45.096 105.747 41.768 108.648C38.44 111.549 34.1307 113 28.84 113H10.216L18.344 66.92H36.264ZM32.232 76.904H28.072L23.528 103.016H29.608C31.6133 103.016 33.1707 102.483 34.28 101.416C35.432 100.307 36.2213 98.5147 36.648 96.04L38.504 85.544C38.6747 84.6053 38.76 83.752 38.76 82.984C38.76 78.9307 36.584 76.904 32.232 76.904ZM85.1565 113H53.0285L61.1565 66.92H93.2845L91.4925 76.904H70.8845L69.4125 85.544H86.4365L84.6445 95.528H67.6205L66.3405 103.016H86.9485L85.1565 113ZM104.753 99.88C104.753 102.824 106.865 104.296 111.089 104.296C115.355 104.296 117.489 102.973 117.489 100.328C117.489 98.92 116.763 97.768 115.313 96.872C113.862 95.976 112.091 95.2293 110.001 94.632C107.953 94.0347 105.883 93.352 103.793 92.584C101.745 91.7733 99.9952 90.536 98.5445 88.872C97.0938 87.1653 96.3685 85.0533 96.3685 82.536C96.3685 71.8267 103.259 66.472 117.041 66.472C122.075 66.472 125.873 67.432 128.433 69.352C131.035 71.2293 132.337 73.8533 132.337 77.224C132.337 78.4613 132.166 79.656 131.825 80.808C131.526 81.9173 131.206 82.7067 130.865 83.176L130.353 83.944H119.025C119.963 82.9627 120.433 81.7253 120.433 80.232C120.433 77.4587 118.619 76.072 114.993 76.072C110.427 76.072 108.145 77.5227 108.145 80.424C108.145 81.8747 108.87 83.0267 110.321 83.88C111.771 84.7333 113.521 85.416 115.569 85.928C117.659 86.3973 119.75 86.9947 121.841 87.72C123.931 88.4453 125.702 89.6613 127.153 91.368C128.603 93.032 129.329 95.208 129.329 97.896C129.329 103.315 127.707 107.347 124.465 109.992C121.222 112.595 116.23 113.896 109.489 113.896C102.747 113.896 98.1392 112.701 95.6645 110.312C93.8298 108.52 92.9125 106.045 92.9125 102.888C92.9125 101.693 93.0405 100.392 93.2965 98.984L93.4885 97.96H105.009L104.881 98.728C104.795 99.1547 104.753 99.5387 104.753 99.88ZM153.677 66.92L145.613 113H134.029L142.157 66.92H153.677ZM170.718 113.896C164.659 113.896 160.478 112.488 158.174 109.672C156.595 107.709 155.806 105.021 155.806 101.608C155.806 100.029 155.976 98.3013 156.318 96.424L158.558 83.624C160.563 72.1893 167.56 66.472 179.55 66.472C184.499 66.472 188.254 67.5387 190.814 69.672C193.374 71.7627 194.654 74.6427 194.654 78.312C194.654 79.8053 194.44 81.32 194.014 82.856C193.63 84.392 193.246 85.544 192.862 86.312L192.222 87.464H180.894C182.003 85.928 182.558 84.1573 182.558 82.152C182.558 78.312 180.958 76.392 177.758 76.392C173.448 76.392 170.867 78.888 170.014 83.88L167.838 96.168C167.624 97.32 167.518 98.4507 167.518 99.56C167.518 102.504 169.246 103.976 172.702 103.976C176.2 103.976 178.44 102.227 179.422 98.728H174.174L175.454 91.624H192.414L191.39 97.128L191.069 98.984C189.278 108.925 182.494 113.896 170.718 113.896ZM239.864 66.92L231.8 113H220.216L212.152 87.784L207.8 113H196.216L204.344 66.92H216.248L224.184 90.472L228.344 66.92H239.864ZM268.44 99.88C268.44 102.824 270.552 104.296 274.776 104.296C279.043 104.296 281.176 102.973 281.176 100.328C281.176 98.92 280.451 97.768 279 96.872C277.549 95.976 275.779 95.2293 273.688 94.632C271.64 94.0347 269.571 93.352 267.48 92.584C265.432 91.7733 263.683 90.536 262.232 88.872C260.781 87.1653 260.056 85.0533 260.056 82.536C260.056 71.8267 266.947 66.472 280.728 66.472C285.763 66.472 289.56 67.432 292.12 69.352C294.723 71.2293 296.024 73.8533 296.024 77.224C296.024 78.4613 295.853 79.656 295.512 80.808C295.213 81.9173 294.893 82.7067 294.552 83.176L294.04 83.944H282.712C283.651 82.9627 284.12 81.7253 284.12 80.232C284.12 77.4587 282.307 76.072 278.68 76.072C274.115 76.072 271.832 77.5227 271.832 80.424C271.832 81.8747 272.557 83.0267 274.008 83.88C275.459 84.7333 277.208 85.416 279.256 85.928C281.347 86.3973 283.437 86.9947 285.528 87.72C287.619 88.4453 289.389 89.6613 290.84 91.368C292.291 93.032 293.016 95.208 293.016 97.896C293.016 103.315 291.395 107.347 288.152 109.992C284.909 112.595 279.917 113.896 273.176 113.896C266.435 113.896 261.827 112.701 259.352 110.312C257.517 108.52 256.6 106.045 256.6 102.888C256.6 101.693 256.728 100.392 256.984 98.984L257.176 97.96H268.696L268.568 98.728C268.483 99.1547 268.44 99.5387 268.44 99.88ZM322.612 66.472C332.895 66.472 338.036 70.6747 338.036 79.08C338.036 80.488 337.887 82.0027 337.588 83.624L335.348 96.424C334.324 102.355 332.105 106.749 328.692 109.608C325.279 112.467 320.479 113.896 314.292 113.896C308.105 113.896 303.796 112.467 301.364 109.608C299.7 107.645 298.868 104.936 298.868 101.48C298.868 99.944 299.039 98.2587 299.38 96.424L301.62 83.624C303.625 72.1893 310.623 66.472 322.612 66.472ZM316.02 103.976C318.153 103.976 319.86 103.421 321.14 102.312C322.42 101.203 323.316 99.1547 323.828 96.168L326.004 83.88C326.132 83.0267 326.196 82.2587 326.196 81.576C326.196 78.12 324.447 76.392 320.948 76.392C316.553 76.4773 313.929 78.9733 313.076 83.88L310.9 96.168C310.729 97.2347 310.644 98.344 310.644 99.496C310.644 102.483 312.436 103.976 316.02 103.976ZM369.4 113H340.216L348.344 66.92H359.864L353.528 103.016H371.192L369.4 113ZM405.835 109.672C402.464 112.488 397.686 113.896 391.499 113.896C385.312 113.896 381.024 112.467 378.635 109.608C376.928 107.645 376.075 104.936 376.075 101.48C376.075 99.944 376.246 98.2587 376.587 96.424L381.771 66.92H393.291L388.107 96.168C387.936 97.2347 387.851 98.344 387.851 99.496C387.851 102.483 389.643 103.976 393.227 103.976C395.36 103.976 397.067 103.421 398.347 102.312C399.627 101.203 400.523 99.1547 401.035 96.168L406.219 66.92H417.739L412.555 96.424C411.488 102.397 409.248 106.813 405.835 109.672ZM463.973 76.904H448.229L441.893 113H430.309L436.645 76.904H420.837L422.629 66.92H465.765L463.973 76.904ZM482.552 66.92L474.488 113H462.904L471.032 66.92H482.552ZM508.425 66.472C518.707 66.472 523.849 70.6747 523.849 79.08C523.849 80.488 523.699 82.0027 523.401 83.624L521.161 96.424C520.137 102.355 517.918 106.749 514.505 109.608C511.091 112.467 506.291 113.896 500.105 113.896C493.918 113.896 489.609 112.467 487.177 109.608C485.513 107.645 484.681 104.936 484.681 101.48C484.681 99.944 484.851 98.2587 485.193 96.424L487.433 83.624C489.438 72.1893 496.435 66.472 508.425 66.472ZM501.833 103.976C503.966 103.976 505.673 103.421 506.953 102.312C508.233 101.203 509.129 99.1547 509.641 96.168L511.817 83.88C511.945 83.0267 512.009 82.2587 512.009 81.576C512.009 78.12 510.259 76.392 506.761 76.392C502.366 76.4773 499.742 78.9733 498.889 83.88L496.713 96.168C496.542 97.2347 496.457 98.344 496.457 99.496C496.457 102.483 498.249 103.976 501.833 103.976ZM569.677 66.92L561.613 113H550.029L541.965 87.784L537.613 113H526.029L534.157 66.92H546.061L553.997 90.472L558.157 66.92H569.677ZM582.878 99.88C582.878 102.824 584.99 104.296 589.214 104.296C593.48 104.296 595.614 102.973 595.614 100.328C595.614 98.92 594.888 97.768 593.438 96.872C591.987 95.976 590.216 95.2293 588.126 94.632C586.078 94.0347 584.008 93.352 581.918 92.584C579.87 91.7733 578.12 90.536 576.67 88.872C575.219 87.1653 574.494 85.0533 574.494 82.536C574.494 71.8267 581.384 66.472 595.166 66.472C600.2 66.472 603.998 67.432 606.558 69.352C609.16 71.2293 610.462 73.8533 610.462 77.224C610.462 78.4613 610.291 79.656 609.95 80.808C609.651 81.9173 609.331 82.7067 608.99 83.176L608.478 83.944H597.15C598.088 82.9627 598.558 81.7253 598.558 80.232C598.558 77.4587 596.744 76.072 593.118 76.072C588.552 76.072 586.27 77.5227 586.27 80.424C586.27 81.8747 586.995 83.0267 588.446 83.88C589.896 84.7333 591.646 85.416 593.694 85.928C595.784 86.3973 597.875 86.9947 599.966 87.72C602.056 88.4453 603.827 89.6613 605.278 91.368C606.728 93.032 607.454 95.208 607.454 97.896C607.454 103.315 605.832 107.347 602.59 109.992C599.347 112.595 594.355 113.896 587.614 113.896C580.872 113.896 576.264 112.701 573.79 110.312C571.955 108.52 571.038 106.045 571.038 102.888C571.038 101.693 571.166 100.392 571.422 98.984L571.614 97.96H583.134L583.006 98.728C582.92 99.1547 582.878 99.5387 582.878 99.88Z"
      fill="url(#paint0_linear_475_9062)" />
    <path
      d="M24.232 34.984V33.984C23.7473 33.984 23.3325 34.3315 23.2475 34.8087L24.232 34.984ZM21.736 49V50C22.2207 50 22.6355 49.6525 22.7205 49.1753L21.736 49ZM10.216 49L9.2312 48.8263C9.17985 49.1174 9.25993 49.4163 9.44994 49.6428C9.63994 49.8692 9.9204 50 10.216 50V49ZM18.344 2.92V1.92C17.8587 1.92 17.4435 2.2684 17.3592 2.74629L18.344 2.92ZM48.168 6.248L48.9206 5.58949C48.9147 5.58282 48.9088 5.57623 48.9028 5.56972L48.168 6.248ZM50.152 15.592L51.1367 15.7663L51.1372 15.7633L50.152 15.592ZM48.872 22.824L49.8561 23.0018L49.8567 22.9983L48.872 22.824ZM43.24 31.592L43.8275 32.4012L43.8347 32.3959L43.24 31.592ZM28.072 12.904V11.904C27.5861 11.904 27.1705 12.2533 27.0869 12.732L28.072 12.904ZM25.96 25L24.9749 24.828C24.9241 25.1189 25.0045 25.4174 25.1945 25.6434C25.3845 25.8695 25.6647 26 25.96 26V25ZM37.736 20.328L38.7205 20.5033L38.7217 20.4963L37.736 20.328ZM38.184 17.704L37.2078 17.4871C37.2042 17.5032 37.201 17.5194 37.1983 17.5357L38.184 17.704ZM37.352 14.056L36.5838 14.6962L37.352 14.056ZM31.848 33.984H24.232V35.984H31.848V33.984ZM23.2475 34.8087L20.7515 48.8247L22.7205 49.1753L25.2165 35.1593L23.2475 34.8087ZM21.736 48H10.216V50H21.736V48ZM11.2008 49.1737L19.3288 3.09371L17.3592 2.74629L9.2312 48.8263L11.2008 49.1737ZM18.344 3.92H37.864V1.92H18.344V3.92ZM37.864 3.92C42.5687 3.92 45.662 5.0075 47.4332 6.92628L48.9028 5.56972C46.578 3.05117 42.802 1.92 37.864 1.92V3.92ZM47.4154 6.9065C48.7232 8.40113 49.408 10.3302 49.408 12.776H51.408C51.408 9.93113 50.5994 7.5082 48.9206 5.58949L47.4154 6.9065ZM49.408 12.776C49.408 13.6086 49.3287 14.4897 49.1668 15.4207L51.1372 15.7633C51.3166 14.7316 51.408 13.7354 51.408 12.776H49.408ZM49.1673 15.4177L47.8873 22.6497L49.8567 22.9983L51.1367 15.7663L49.1673 15.4177ZM47.8879 22.6462C47.2969 25.9166 45.5723 28.6228 42.6453 30.7881L43.8347 32.3959C47.137 29.9532 49.1671 26.8141 49.8561 23.0018L47.8879 22.6462ZM42.6525 30.7828C39.7355 32.9006 36.1527 33.984 31.848 33.984V35.984C36.5033 35.984 40.5152 34.806 43.8275 32.4012L42.6525 30.7828ZM33.832 11.904H28.072V13.904H33.832V11.904ZM27.0869 12.732L24.9749 24.828L26.9451 25.172L29.0571 13.076L27.0869 12.732ZM25.96 26H31.656V24H25.96V26ZM31.656 26C33.5455 26 35.1668 25.5797 36.4093 24.6249C37.6645 23.6604 38.4103 22.2451 38.7205 20.5033L36.7515 20.1527C36.507 21.5256 35.9622 22.4462 35.1907 23.0391C34.4065 23.6416 33.2652 24 31.656 24V26ZM38.7217 20.4963L39.1697 17.8723L37.1983 17.5357L36.7503 20.1597L38.7217 20.4963ZM39.1602 17.9209C39.2681 17.4355 39.312 16.8416 39.312 16.168H37.312C37.312 16.7744 37.2706 17.2045 37.2078 17.4871L39.1602 17.9209ZM39.312 16.168C39.312 15.1941 38.8302 14.2678 38.1202 13.4158L36.5838 14.6962C37.1538 15.3802 37.312 15.8619 37.312 16.168H39.312ZM38.1202 13.4158C37.1907 12.3003 35.6334 11.904 33.832 11.904V13.904C35.444 13.904 36.2333 14.2757 36.5838 14.6962L38.1202 13.4158ZM82.7725 45.672L83.4136 46.4394L83.4146 46.4386L82.7725 45.672ZM55.5725 45.608L56.3398 44.9667C56.3356 44.9617 56.3314 44.9567 56.3271 44.9518L55.5725 45.608ZM53.5245 32.424L54.5077 32.6069L54.5094 32.5971L53.5245 32.424ZM58.7085 2.92V1.92C58.223 1.92 57.8076 2.26875 57.7236 2.74694L58.7085 2.92ZM70.2285 2.92L71.2132 3.09452C71.2648 2.80331 71.1848 2.50419 70.9948 2.27755C70.8048 2.05091 70.5243 1.92 70.2285 1.92V2.92ZM65.0445 32.168L64.0598 31.9935C64.0589 31.999 64.0579 32.0045 64.0571 32.01L65.0445 32.168ZM75.2845 38.312L74.6296 37.5563L75.2845 38.312ZM77.9725 32.168L76.9878 31.9935L76.9869 31.999L77.9725 32.168ZM83.1565 2.92V1.92C82.6715 1.92 82.2565 2.26796 82.1719 2.74548L83.1565 2.92ZM94.6765 2.92L95.6614 3.09305C95.7125 2.80202 95.6324 2.50328 95.4424 2.27698C95.2523 2.05068 94.972 1.92 94.6765 1.92V2.92ZM89.4925 32.424L90.4769 32.5998L90.4774 32.5971L89.4925 32.424ZM82.1314 44.9046C79.0017 47.5192 74.4833 48.896 68.4365 48.896V50.896C74.763 50.896 79.8019 49.4568 83.4136 46.4394L82.1314 44.9046ZM68.4365 48.896C62.3554 48.896 58.4438 47.4839 56.3398 44.9667L54.8052 46.2493C57.4799 49.4494 62.1442 50.896 68.4365 50.896V48.896ZM56.3271 44.9518C54.8245 43.2238 54.0125 40.7752 54.0125 37.48H52.0125C52.0125 41.0968 52.9072 44.0669 54.8179 46.2642L56.3271 44.9518ZM54.0125 37.48C54.0125 36.0168 54.1752 34.3936 54.5076 32.6069L52.5414 32.2411C52.1911 34.1237 52.0125 35.8712 52.0125 37.48H54.0125ZM54.5094 32.5971L59.6934 3.09305L57.7236 2.74694L52.5396 32.2509L54.5094 32.5971ZM58.7085 3.92H70.2285V1.92H58.7085V3.92ZM69.2438 2.74548L64.0598 31.9935L66.0292 32.3425L71.2132 3.09452L69.2438 2.74548ZM64.0571 32.01C63.8775 33.1322 63.7885 34.2946 63.7885 35.496H65.7885C65.7885 34.3934 65.8702 33.3371 66.0319 32.326L64.0571 32.01ZM63.7885 35.496C63.7885 37.1963 64.3073 38.6367 65.4923 39.6242C66.6424 40.5826 68.2583 40.976 70.1645 40.976V38.976C68.4867 38.976 67.4146 38.6227 66.7727 38.0878C66.1657 37.582 65.7885 36.7824 65.7885 35.496H63.7885ZM70.1645 40.976C72.474 40.976 74.4342 40.3722 75.9394 39.0677L74.6296 37.5563C73.5748 38.4705 72.1216 38.976 70.1645 38.976V40.976ZM75.9394 39.0677C77.4867 37.7267 78.4345 35.3912 78.9581 32.337L76.9869 31.999C76.4865 34.9181 75.6423 36.6786 74.6296 37.5563L75.9394 39.0677ZM78.9572 32.3425L84.1412 3.09452L82.1719 2.74548L76.9878 31.9935L78.9572 32.3425ZM83.1565 3.92H94.6765V1.92H83.1565V3.92ZM93.6916 2.74694L88.5076 32.2509L90.4774 32.5971L95.6614 3.09305L93.6916 2.74694ZM88.5081 32.2482C87.4677 38.0743 85.3079 42.2442 82.1304 44.9054L83.4146 46.4386C87.0637 43.3825 89.384 38.7204 90.4769 32.5998L88.5081 32.2482ZM132.335 6.12L133.06 5.43224L133.056 5.42747L132.335 6.12ZM134.383 14.952L133.399 14.7731L133.398 14.7753L134.383 14.952ZM133.487 19.944L134.47 20.1255L134.471 20.1207L133.487 19.944ZM130.799 26.664L129.998 26.064C129.995 26.0683 129.992 26.0727 129.989 26.077L130.799 26.664ZM126.639 30.312L126.211 29.4077C125.761 29.6207 125.535 30.1334 125.684 30.6095L126.639 30.312ZM132.463 49V50C132.78 50 133.08 49.8488 133.268 49.5927C133.456 49.3365 133.512 49.0061 133.417 48.7025L132.463 49ZM119.535 49L118.58 49.2981C118.71 49.7156 119.097 50 119.535 50V49ZM114.159 31.784L115.113 31.4859C114.983 31.0683 114.596 30.784 114.159 30.784V31.784ZM110.19 31.784V30.784C109.696 30.784 109.276 31.1449 109.202 31.6333L110.19 31.784ZM107.566 49V50C108.061 50 108.481 49.6391 108.555 49.1507L107.566 49ZM95.2785 49L94.2937 48.8263C94.2424 49.1174 94.3224 49.4163 94.5124 49.6428C94.7024 49.8692 94.9829 50 95.2785 50V49ZM103.407 2.92V1.92C102.921 1.92 102.506 2.2684 102.422 2.74629L103.407 2.92ZM113.134 12.904V11.904C112.639 11.904 112.219 12.2664 112.145 12.7562L113.134 12.904ZM111.471 24.04L110.481 23.8922C110.438 24.18 110.523 24.4723 110.713 24.6928C110.903 24.9132 111.179 25.04 111.471 25.04V24.04ZM120.814 22.44L121.55 23.1171C121.555 23.1123 121.559 23.1074 121.563 23.1026L120.814 22.44ZM121.966 3.92C126.726 3.92 129.845 4.97055 131.613 6.81253L133.056 5.42747C130.728 3.00278 126.935 1.92 121.966 1.92V3.92ZM131.609 6.80774C132.949 8.2226 133.639 10.0151 133.639 12.264H135.639C135.639 9.56352 134.792 7.26006 133.06 5.43225L131.609 6.80774ZM133.639 12.264C133.639 13.0508 133.56 13.8867 133.399 14.7731L135.366 15.1309C135.547 14.14 135.639 13.1839 135.639 12.264H133.639ZM133.398 14.7753L132.502 19.7673L134.471 20.1207L135.367 15.1287L133.398 14.7753ZM132.503 19.7625C132.01 22.4308 131.161 24.514 129.998 26.064L131.599 27.264C132.996 25.4007 133.939 23.0038 134.47 20.1255L132.503 19.7625ZM129.989 26.077C128.827 27.6798 127.563 28.7696 126.211 29.4077L127.066 31.2162C128.786 30.4037 130.295 29.0615 131.608 27.251L129.989 26.077ZM125.684 30.6095L131.508 49.2975L133.417 48.7025L127.593 30.0145L125.684 30.6095ZM132.463 48H119.535V50H132.463V48ZM120.489 48.7019L115.113 31.4859L113.204 32.0821L118.58 49.2981L120.489 48.7019ZM114.159 30.784H110.19V32.784H114.159V30.784ZM109.202 31.6333L106.578 48.8493L108.555 49.1507L111.179 31.9347L109.202 31.6333ZM107.566 48H95.2785V50H107.566V48ZM96.2633 49.1737L104.391 3.09371L102.422 2.74629L94.2937 48.8263L96.2633 49.1737ZM103.407 3.92H121.966V1.92H103.407V3.92ZM117.935 11.904H113.134V13.904H117.935V11.904ZM112.145 12.7562L110.481 23.8922L112.46 24.1878L114.124 13.0518L112.145 12.7562ZM111.471 25.04H115.951V23.04H111.471V25.04ZM115.951 25.04C118.337 25.04 120.296 24.4808 121.55 23.1171L120.079 21.7629C119.371 22.5325 118.087 23.04 115.951 23.04V25.04ZM121.563 23.1026C122.739 21.7738 123.286 20.0704 123.286 18.088H121.286C121.286 19.6896 120.853 20.8875 120.066 21.7774L121.563 23.1026ZM123.286 18.088C123.286 16.2444 122.903 14.6753 121.964 13.557C120.997 12.4052 119.59 11.904 117.935 11.904V13.904C119.181 13.904 119.949 14.2668 120.433 14.843C120.944 15.4527 121.286 16.4756 121.286 18.088H123.286ZM151.294 34.984V33.984C150.81 33.984 150.395 34.3315 150.31 34.8087L151.294 34.984ZM148.799 49V50C149.283 50 149.698 49.6525 149.783 49.1753L148.799 49ZM137.279 49L136.294 48.8263C136.242 49.1174 136.322 49.4163 136.512 49.6428C136.702 49.8692 136.983 50 137.279 50V49ZM145.406 2.92V1.92C144.921 1.92 144.506 2.2684 144.422 2.74629L145.406 2.92ZM175.23 6.248L175.983 5.58949C175.977 5.58282 175.971 5.57623 175.965 5.56972L175.23 6.248ZM177.215 15.592L178.199 15.7663L178.2 15.7633L177.215 15.592ZM175.935 22.824L176.919 23.0018L176.919 22.9983L175.935 22.824ZM170.303 31.592L170.89 32.4012L170.897 32.3959L170.303 31.592ZM155.135 12.904V11.904C154.649 11.904 154.233 12.2533 154.149 12.732L155.135 12.904ZM153.023 25L152.037 24.828C151.987 25.1189 152.067 25.4174 152.257 25.6434C152.447 25.8695 152.727 26 153.023 26V25ZM164.799 20.328L165.783 20.5033L165.784 20.4963L164.799 20.328ZM165.247 17.704L164.27 17.4871C164.267 17.5032 164.264 17.5194 164.261 17.5357L165.247 17.704ZM164.415 14.056L163.646 14.6962L164.415 14.056ZM158.911 33.984H151.294V35.984H158.911V33.984ZM150.31 34.8087L147.814 48.8247L149.783 49.1753L152.279 35.1593L150.31 34.8087ZM148.799 48H137.279V50H148.799V48ZM138.263 49.1737L146.391 3.09371L144.422 2.74629L136.294 48.8263L138.263 49.1737ZM145.406 3.92H164.926V1.92H145.406V3.92ZM164.926 3.92C169.631 3.92 172.725 5.0075 174.496 6.92628L175.965 5.56972C173.64 3.05117 169.865 1.92 164.926 1.92V3.92ZM174.478 6.9065C175.786 8.40113 176.471 10.3302 176.471 12.776H178.471C178.471 9.93113 177.662 7.5082 175.983 5.58949L174.478 6.9065ZM176.471 12.776C176.471 13.6086 176.391 14.4897 176.229 15.4207L178.2 15.7633C178.379 14.7316 178.471 13.7354 178.471 12.776H176.471ZM176.23 15.4177L174.95 22.6497L176.919 22.9983L178.199 15.7663L176.23 15.4177ZM174.95 22.6462C174.359 25.9166 172.635 28.6228 169.708 30.7881L170.897 32.3959C174.199 29.9532 176.23 26.8141 176.919 23.0018L174.95 22.6462ZM169.715 30.7828C166.798 32.9006 163.215 33.984 158.911 33.984V35.984C163.566 35.984 167.578 34.806 170.89 32.4012L169.715 30.7828ZM160.895 11.904H155.135V13.904H160.895V11.904ZM154.149 12.732L152.037 24.828L154.008 25.172L156.12 13.076L154.149 12.732ZM153.023 26H158.719V24H153.023V26ZM158.719 26C160.608 26 162.229 25.5797 163.472 24.6249C164.727 23.6604 165.473 22.2451 165.783 20.5033L163.814 20.1527C163.57 21.5256 163.025 22.4462 162.253 23.0391C161.469 23.6416 160.328 24 158.719 24V26ZM165.784 20.4963L166.232 17.8723L164.261 17.5357L163.813 20.1597L165.784 20.4963ZM166.223 17.9209C166.331 17.4355 166.374 16.8416 166.374 16.168H164.374C164.374 16.7744 164.333 17.2045 164.27 17.4871L166.223 17.9209ZM166.374 16.168C166.374 15.1941 165.893 14.2678 165.183 13.4158L163.646 14.6962C164.216 15.3802 164.374 15.8619 164.374 16.168H166.374ZM165.183 13.4158C164.253 12.3003 162.696 11.904 160.895 11.904V13.904C162.506 13.904 163.296 14.2757 163.646 14.6962L165.183 13.4158ZM217.963 19.624L216.98 19.4428L216.978 19.4516L217.963 19.624ZM215.723 32.424L214.738 32.2516L214.738 32.2539L215.723 32.424ZM209.067 45.608L209.709 46.3746L209.067 45.608ZM181.739 45.608L180.976 46.2547L180.977 46.256L181.739 45.608ZM179.755 32.424L180.738 32.6069L180.74 32.5964L179.755 32.424ZM181.995 19.624L181.01 19.4513L181.01 19.4516L181.995 19.624ZM201.515 38.312L200.86 37.5563L201.515 38.312ZM204.203 32.168L203.218 31.9936L203.217 31.999L204.203 32.168ZM206.379 19.88L207.364 20.0544C207.365 20.0457 207.367 20.037 207.368 20.0283L206.379 19.88ZM201.323 12.392V11.392C201.317 11.392 201.31 11.3921 201.304 11.3922L201.323 12.392ZM193.451 19.88L194.436 20.0544L194.436 20.0513L193.451 19.88ZM191.275 32.168L190.29 31.9936C190.289 31.9991 190.288 32.0045 190.288 32.01L191.275 32.168ZM202.987 3.472C208.018 3.472 211.605 4.50412 213.922 6.39824C216.201 8.26083 217.411 11.0907 217.411 15.08H219.411C219.411 10.664 218.051 7.18983 215.188 4.84975C212.364 2.54121 208.239 1.472 202.987 1.472V3.472ZM217.411 15.08C217.411 16.418 217.269 17.8714 216.98 19.4428L218.946 19.8052C219.254 18.1339 219.411 16.558 219.411 15.08H217.411ZM216.978 19.4516L214.738 32.2516L216.708 32.5964L218.948 19.7964L216.978 19.4516ZM214.738 32.2539C213.74 38.0336 211.602 42.1808 208.425 44.8414L209.709 46.3746C213.359 43.3179 215.658 38.6757 216.708 32.5941L214.738 32.2539ZM208.425 44.8414C205.251 47.4998 200.71 48.896 194.667 48.896V50.896C200.998 50.896 206.057 49.4335 209.709 46.3746L208.425 44.8414ZM194.667 48.896C188.588 48.896 184.649 47.4849 182.501 44.96L180.977 46.256C183.693 49.4484 188.372 50.896 194.667 50.896V48.896ZM182.502 44.9613C181.037 43.2332 180.243 40.7809 180.243 37.48H178.243C178.243 41.0911 179.113 44.0575 180.976 46.2547L182.502 44.9613ZM180.243 37.48C180.243 36.0168 180.406 34.3936 180.738 32.6069L178.772 32.2411C178.422 34.1237 178.243 35.8712 178.243 37.48H180.243ZM180.74 32.5964L182.98 19.7964L181.01 19.4516L178.77 32.2516L180.74 32.5964ZM182.98 19.7967C183.953 14.2468 186.115 10.2022 189.38 7.53438C192.649 4.86328 197.147 3.472 202.987 3.472V1.472C196.838 1.472 191.843 2.93938 188.114 5.98562C184.382 9.03517 182.042 13.5665 181.01 19.4513L182.98 19.7967ZM196.395 40.976C198.705 40.976 200.665 40.3722 202.17 39.0677L200.86 37.5563C199.805 38.4705 198.352 38.976 196.395 38.976V40.976ZM202.17 39.0677C203.717 37.7267 204.665 35.3912 205.189 32.337L203.217 31.999C202.717 34.9181 201.873 36.6786 200.86 37.5563L202.17 39.0677ZM205.188 32.3424L207.364 20.0544L205.394 19.7056L203.218 31.9936L205.188 32.3424ZM207.368 20.0283C207.501 19.1381 207.571 18.3193 207.571 17.576H205.571C205.571 18.1981 205.513 18.9153 205.39 19.7317L207.368 20.0283ZM207.571 17.576C207.571 15.6907 207.093 14.0938 205.962 12.9766C204.833 11.8616 203.223 11.392 201.323 11.392V13.392C202.921 13.392 203.936 13.7864 204.556 14.3994C205.175 15.0102 205.571 16.0053 205.571 17.576H207.571ZM201.304 11.3922C198.913 11.4386 196.9 12.1481 195.37 13.6034C193.853 15.0458 192.916 17.1217 192.466 19.7087L194.436 20.0513C194.84 17.7316 195.641 16.1062 196.748 15.0526C197.842 14.0119 199.339 13.4307 201.342 13.3918L201.304 11.3922ZM192.466 19.7056L190.29 31.9936L192.26 32.3424L194.436 20.0544L192.466 19.7056ZM190.288 32.01C190.108 33.1322 190.019 34.2946 190.019 35.496H192.019C192.019 34.3934 192.101 33.3371 192.262 32.326L190.288 32.01ZM190.019 35.496C190.019 37.1963 190.538 38.6367 191.723 39.6242C192.873 40.5826 194.489 40.976 196.395 40.976V38.976C194.717 38.976 193.645 38.6227 193.003 38.0878C192.396 37.582 192.019 36.7824 192.019 35.496H190.019ZM243.375 32.872L243.9 32.0212L243.375 32.872ZM238.063 30.632L237.783 31.592L237.788 31.5935L238.063 30.632ZM231.855 28.584L231.487 29.5138C231.495 29.5169 231.502 29.5198 231.51 29.5227L231.855 28.584ZM226.607 24.872L225.845 25.5197L225.853 25.5291L226.607 24.872ZM256.495 5.352L255.895 6.152C255.9 6.15572 255.905 6.1594 255.91 6.16303L256.495 5.352ZM259.887 16.808L258.928 16.5239C258.926 16.5319 258.924 16.54 258.921 16.548L259.887 16.808ZM258.927 19.176L258.118 18.5878C258.11 18.5988 258.102 18.61 258.095 18.6213L258.927 19.176ZM258.415 19.944V20.944C258.749 20.944 259.062 20.7769 259.247 20.4987L258.415 19.944ZM247.087 19.944L246.364 19.2528C246.088 19.5421 246.01 19.9687 246.167 20.3369C246.325 20.7051 246.687 20.944 247.087 20.944V19.944ZM238.383 19.88L237.876 20.7419L238.383 19.88ZM243.631 21.928L243.388 22.8981C243.396 22.9001 243.404 22.902 243.412 22.9037L243.631 21.928ZM249.903 23.72L249.575 24.6648V24.6648L249.903 23.72ZM255.215 27.368L254.453 28.0157L254.461 28.0251L255.215 27.368ZM252.527 45.992L253.153 46.7719L253.159 46.7669L252.527 45.992ZM223.727 46.312L223.028 47.0274L223.032 47.0314L223.727 46.312ZM221.359 34.984L220.376 34.7997L220.375 34.8051L221.359 34.984ZM221.551 33.96V32.96C221.07 32.96 220.657 33.3027 220.568 33.7757L221.551 33.96ZM233.071 33.96L234.057 34.1244C234.106 33.8344 234.024 33.5379 233.834 33.3136C233.644 33.0893 233.365 32.96 233.071 32.96V33.96ZM232.943 34.728L233.924 34.9241C233.926 34.9136 233.928 34.903 233.929 34.8924L232.943 34.728ZM231.815 35.88C231.815 37.6247 232.461 39.0604 233.827 40.0124C235.128 40.9187 236.954 41.296 239.151 41.296V39.296C237.124 39.296 235.782 38.9373 234.971 38.3716C234.225 37.8516 233.815 37.0793 233.815 35.88H231.815ZM239.151 41.296C241.355 41.296 243.177 40.9602 244.478 40.1539C245.857 39.2986 246.551 37.9742 246.551 36.328H244.551C244.551 37.3272 244.178 37.9867 243.424 38.4541C242.591 38.9705 241.213 39.296 239.151 39.296V41.296ZM246.551 36.328C246.551 34.4961 245.574 33.0547 243.9 32.0212L242.85 33.7228C244.078 34.4813 244.551 35.3439 244.551 36.328H246.551ZM243.9 32.0212C242.354 31.0658 240.494 30.2865 238.338 29.6705L237.788 31.5935C239.814 32.1722 241.495 32.8862 242.85 33.7228L243.9 32.0212ZM238.343 29.672C236.318 29.0813 234.27 28.4058 232.2 27.6453L231.51 29.5227C233.621 30.2982 235.712 30.988 237.783 31.592L238.343 29.672ZM232.223 27.6542C230.324 26.9024 228.707 25.7588 227.361 24.2149L225.853 25.5291C227.409 27.3132 229.29 28.6442 231.487 29.5138L232.223 27.6542ZM227.369 24.2244C226.091 22.721 225.431 20.8474 225.431 18.536H223.431C223.431 21.2593 224.222 23.6097 225.845 25.5196L227.369 24.2244ZM225.431 18.536C225.431 13.4123 227.067 9.7224 230.213 7.27761C233.407 4.79559 238.314 3.472 245.103 3.472V1.472C238.11 1.472 232.682 2.82573 228.985 5.69838C225.241 8.60826 223.431 12.9504 223.431 18.536H225.431ZM245.103 3.472C250.037 3.472 253.582 4.41733 255.895 6.152L257.095 4.552C254.288 2.44667 250.238 1.472 245.103 1.472V3.472ZM255.91 6.16303C258.237 7.84152 259.399 10.1556 259.399 13.224H261.399C261.399 9.55107 259.958 6.61715 257.08 4.54097L255.91 6.16303ZM259.399 13.224C259.399 14.368 259.241 15.4669 258.928 16.5239L260.846 17.0921C261.215 15.8451 261.399 14.5546 261.399 13.224H259.399ZM258.921 16.548C258.63 17.6318 258.347 18.273 258.118 18.5878L259.736 19.7642C260.189 19.1403 260.547 18.2028 260.853 17.068L258.921 16.548ZM258.095 18.6213L257.583 19.3893L259.247 20.4987L259.759 19.7307L258.095 18.6213ZM258.415 18.944H247.087V20.944H258.415V18.944ZM247.81 20.6352C248.945 19.4485 249.495 17.9548 249.495 16.232H247.495C247.495 17.4958 247.107 18.4768 246.364 19.2528L247.81 20.6352ZM249.495 16.232C249.495 14.6085 248.95 13.2413 247.742 12.3176C246.585 11.4327 244.968 11.072 243.055 11.072V13.072C244.769 13.072 245.871 13.4046 246.528 13.9064C247.133 14.3693 247.495 15.0821 247.495 16.232H249.495ZM243.055 11.072C240.699 11.072 238.76 11.4406 237.383 12.316C235.928 13.2403 235.207 14.6611 235.207 16.424H237.207C237.207 15.2856 237.627 14.5304 238.455 14.004C239.36 13.4288 240.846 13.072 243.055 13.072V11.072ZM235.207 16.424C235.207 18.2917 236.178 19.7432 237.876 20.7419L238.89 19.0181C237.687 18.3102 237.207 17.4576 237.207 16.424H235.207ZM237.876 20.7419C239.427 21.6543 241.27 22.3685 243.388 22.8981L243.874 20.9579C241.896 20.4635 240.24 19.8124 238.89 19.0181L237.876 20.7419ZM243.412 22.9037C245.465 23.3645 247.519 23.9514 249.575 24.6648L250.231 22.7752C248.106 22.0379 245.979 21.4301 243.85 20.9523L243.412 22.9037ZM249.575 24.6648C251.495 25.3308 253.117 26.4432 254.453 28.0156L255.977 26.7204C254.412 24.8794 252.492 23.5598 250.231 22.7752L249.575 24.6648ZM254.461 28.0251C255.72 29.4695 256.391 31.3947 256.391 33.896H258.391C258.391 31.0213 257.611 28.5945 255.969 26.7109L254.461 28.0251ZM256.391 33.896C256.391 39.1099 254.84 42.8149 251.895 45.2171L253.159 46.7669C256.7 43.8785 258.391 39.5195 258.391 33.896H256.391ZM251.901 45.2121C248.917 47.6075 244.196 48.896 237.551 48.896V50.896C244.389 50.896 249.652 49.5818 253.153 46.7719L251.901 45.2121ZM237.551 48.896C230.852 48.896 226.597 47.6931 224.422 45.5926L223.032 47.0314C225.806 49.7095 230.767 50.896 237.551 50.896V48.896ZM224.426 45.5966C222.826 44.0346 221.975 41.8424 221.975 38.888H219.975C219.975 42.2483 220.958 45.0054 223.028 47.0274L224.426 45.5966ZM221.975 38.888C221.975 37.7637 222.096 36.523 222.343 35.1629L220.375 34.8051C220.11 36.261 219.975 37.623 219.975 38.888H221.975ZM222.342 35.1683L222.534 34.1443L220.568 33.7757L220.376 34.7997L222.342 35.1683ZM221.551 34.96H233.071V32.96H221.551V34.96ZM232.085 33.7956L231.957 34.5636L233.929 34.8924L234.057 34.1244L232.085 33.7956ZM231.962 34.5319C231.868 35.0065 231.815 35.4578 231.815 35.88H233.815C233.815 35.6196 233.848 35.3029 233.924 34.9241L231.962 34.5319ZM294.219 49V50C294.703 50 295.118 49.6532 295.203 49.1767L294.219 49ZM262.091 49L261.106 48.8263C261.055 49.1174 261.135 49.4163 261.325 49.6428C261.515 49.8692 261.795 50 262.091 50V49ZM270.219 2.92V1.92C269.734 1.92 269.319 2.2684 269.234 2.74629L270.219 2.92ZM302.347 2.92L303.331 3.09666C303.384 2.80519 303.304 2.50552 303.114 2.27838C302.924 2.05125 302.643 1.92 302.347 1.92V2.92ZM300.555 12.904V13.904C301.039 13.904 301.454 13.5572 301.539 13.0807L300.555 12.904ZM279.947 12.904V11.904C279.46 11.904 279.043 12.2555 278.961 12.736L279.947 12.904ZM278.475 21.544L277.489 21.376C277.44 21.6664 277.521 21.9639 277.711 22.189C277.901 22.4141 278.18 22.544 278.475 22.544V21.544ZM295.499 21.544L296.483 21.7207C296.536 21.4292 296.456 21.1295 296.266 20.9024C296.076 20.6752 295.795 20.544 295.499 20.544V21.544ZM293.707 31.528V32.528C294.191 32.528 294.606 32.1812 294.691 31.7047L293.707 31.528ZM276.683 31.528V30.528C276.196 30.528 275.779 30.8792 275.697 31.3595L276.683 31.528ZM275.403 39.016L274.417 38.8475C274.368 39.138 274.449 39.4355 274.639 39.6608C274.829 39.886 275.108 40.016 275.403 40.016V39.016ZM296.011 39.016L296.995 39.1927C297.048 38.9012 296.968 38.6015 296.778 38.3744C296.588 38.1472 296.307 38.016 296.011 38.016V39.016ZM294.219 48H262.091V50H294.219V48ZM263.076 49.1737L271.204 3.09371L269.234 2.74629L261.106 48.8263L263.076 49.1737ZM270.219 3.92H302.347V1.92H270.219V3.92ZM301.363 2.74333L299.571 12.7273L301.539 13.0807L303.331 3.09666L301.363 2.74333ZM300.555 11.904H279.947V13.904H300.555V11.904ZM278.961 12.736L277.489 21.376L279.461 21.7119L280.933 13.0719L278.961 12.736ZM278.475 22.544H295.499V20.544H278.475V22.544ZM294.515 21.3673L292.723 31.3513L294.691 31.7047L296.483 21.7207L294.515 21.3673ZM293.707 30.528H276.683V32.528H293.707V30.528ZM275.697 31.3595L274.417 38.8475L276.389 39.1845L277.669 31.6965L275.697 31.3595ZM275.403 40.016H296.011V38.016H275.403V40.016ZM295.027 38.8393L293.235 48.8233L295.203 49.1767L296.995 39.1927L295.027 38.8393ZM333.143 32.104V33.104C333.629 33.104 334.045 32.7539 334.128 32.2745L333.143 32.104ZM316.119 32.104V31.104C315.633 31.104 315.217 31.4535 315.134 31.9323L316.119 32.104ZM313.175 49V50C313.661 50 314.077 49.6505 314.16 49.1717L313.175 49ZM301.591 49L300.606 48.8263C300.555 49.1174 300.635 49.4163 300.825 49.6428C301.015 49.8692 301.295 50 301.591 50V49ZM309.719 2.92V1.92C309.234 1.92 308.819 2.2684 308.734 2.74629L309.719 2.92ZM341.847 2.92L342.831 3.09666C342.884 2.80519 342.804 2.50552 342.614 2.27838C342.424 2.05125 342.143 1.92 341.847 1.92V2.92ZM340.055 12.904V13.904C340.539 13.904 340.954 13.5572 341.039 13.0807L340.055 12.904ZM319.447 12.904V11.904C318.961 11.904 318.545 12.2538 318.462 12.7329L319.447 12.904ZM317.847 22.12L316.862 21.9489C316.811 22.2397 316.892 22.538 317.082 22.7638C317.272 22.9896 317.552 23.12 317.847 23.12V22.12ZM334.871 22.12L335.856 22.2905C335.907 21.9998 335.826 21.7017 335.636 21.476C335.446 21.2503 335.166 21.12 334.871 21.12V22.12ZM333.143 31.104H316.119V33.104H333.143V31.104ZM315.134 31.9323L312.19 48.8283L314.16 49.1717L317.104 32.2757L315.134 31.9323ZM313.175 48H301.591V50H313.175V48ZM302.576 49.1737L310.704 3.09371L308.734 2.74629L300.606 48.8263L302.576 49.1737ZM309.719 3.92H341.847V1.92H309.719V3.92ZM340.863 2.74333L339.071 12.7273L341.039 13.0807L342.831 3.09666L340.863 2.74333ZM340.055 11.904H319.447V13.904H340.055V11.904ZM318.462 12.7329L316.862 21.9489L318.832 22.2911L320.432 13.0751L318.462 12.7329ZM317.847 23.12H334.871V21.12H317.847V23.12ZM333.886 21.9495L332.158 31.9335L334.128 32.2745L335.856 22.2905L333.886 21.9495ZM371.835 45.672L372.476 46.4394L372.477 46.4386L371.835 45.672ZM344.635 45.608L345.402 44.9667C345.398 44.9617 345.394 44.9567 345.39 44.9518L344.635 45.608ZM342.587 32.424L343.57 32.6069L343.572 32.5971L342.587 32.424ZM347.771 2.92V1.92C347.285 1.92 346.87 2.26875 346.786 2.74694L347.771 2.92ZM359.291 2.92L360.276 3.09452C360.327 2.80331 360.247 2.50419 360.057 2.27755C359.867 2.05091 359.587 1.92 359.291 1.92V2.92ZM354.107 32.168L353.122 31.9935C353.121 31.999 353.12 32.0045 353.12 32.01L354.107 32.168ZM364.347 38.312L363.692 37.5563L364.347 38.312ZM367.035 32.168L366.05 31.9935L366.049 31.999L367.035 32.168ZM372.219 2.92V1.92C371.734 1.92 371.319 2.26796 371.234 2.74548L372.219 2.92ZM383.739 2.92L384.724 3.09305C384.775 2.80202 384.695 2.50328 384.505 2.27698C384.315 2.05068 384.034 1.92 383.739 1.92V2.92ZM378.555 32.424L379.539 32.5998L379.54 32.5971L378.555 32.424ZM371.194 44.9046C368.064 47.5192 363.546 48.896 357.499 48.896V50.896C363.826 50.896 368.864 49.4568 372.476 46.4394L371.194 44.9046ZM357.499 48.896C351.418 48.896 347.506 47.4839 345.402 44.9667L343.868 46.2493C346.542 49.4494 351.207 50.896 357.499 50.896V48.896ZM345.39 44.9518C343.887 43.2238 343.075 40.7752 343.075 37.48H341.075C341.075 41.0968 341.97 44.0669 343.88 46.2642L345.39 44.9518ZM343.075 37.48C343.075 36.0168 343.238 34.3936 343.57 32.6069L341.604 32.2411C341.254 34.1237 341.075 35.8712 341.075 37.48H343.075ZM343.572 32.5971L348.756 3.09305L346.786 2.74694L341.602 32.2509L343.572 32.5971ZM347.771 3.92H359.291V1.92H347.771V3.92ZM358.306 2.74548L353.122 31.9935L355.092 32.3425L360.276 3.09452L358.306 2.74548ZM353.12 32.01C352.94 33.1322 352.851 34.2946 352.851 35.496H354.851C354.851 34.3934 354.933 33.3371 355.094 32.326L353.12 32.01ZM352.851 35.496C352.851 37.1963 353.37 38.6367 354.555 39.6242C355.705 40.5826 357.321 40.976 359.227 40.976V38.976C357.549 38.976 356.477 38.6227 355.835 38.0878C355.228 37.582 354.851 36.7824 354.851 35.496H352.851ZM359.227 40.976C361.537 40.976 363.497 40.3722 365.002 39.0677L363.692 37.5563C362.637 38.4705 361.184 38.976 359.227 38.976V40.976ZM365.002 39.0677C366.549 37.7267 367.497 35.3912 368.021 32.337L366.049 31.999C365.549 34.9181 364.705 36.6786 363.692 37.5563L365.002 39.0677ZM368.02 32.3425L373.204 3.09452L371.234 2.74548L366.05 31.9935L368.02 32.3425ZM372.219 3.92H383.739V1.92H372.219V3.92ZM382.754 2.74694L377.57 32.2509L379.54 32.5971L384.724 3.09305L382.754 2.74694ZM377.571 32.2482C376.53 38.0743 374.37 42.2442 371.193 44.9054L372.477 46.4386C376.126 43.3825 378.446 38.7204 379.539 32.5998L377.571 32.2482ZM413.525 49V50C414.009 50 414.424 49.6532 414.509 49.1767L413.525 49ZM384.341 49L383.356 48.8263C383.305 49.1174 383.385 49.4163 383.575 49.6428C383.765 49.8692 384.045 50 384.341 50V49ZM392.469 2.92V1.92C391.984 1.92 391.569 2.2684 391.484 2.74629L392.469 2.92ZM403.989 2.92L404.974 3.09289C405.025 2.80188 404.945 2.50318 404.755 2.27692C404.565 2.05065 404.284 1.92 403.989 1.92V2.92ZM397.653 39.016L396.668 38.8431C396.617 39.1341 396.697 39.4328 396.887 39.6591C397.077 39.8853 397.358 40.016 397.653 40.016V39.016ZM415.317 39.016L416.301 39.1927C416.354 38.9012 416.274 38.6015 416.084 38.3744C415.894 38.1472 415.613 38.016 415.317 38.016V39.016ZM413.525 48H384.341V50H413.525V48ZM385.326 49.1737L393.454 3.09371L391.484 2.74629L383.356 48.8263L385.326 49.1737ZM392.469 3.92H403.989V1.92H392.469V3.92ZM403.004 2.74711L396.668 38.8431L398.638 39.1889L404.974 3.09289L403.004 2.74711ZM397.653 40.016H415.317V38.016H397.653V40.016ZM414.333 38.8393L412.541 48.8233L414.509 49.1767L416.301 39.1927L414.333 38.8393ZM48.232 71.144L49.0053 70.5099C49.0017 70.5056 48.9981 70.5013 48.9945 70.497L48.232 71.144ZM50.536 82.792L51.5211 82.9643L51.5224 82.9564L50.536 82.792ZM48.04 97.064L49.0247 97.2383L49.0251 97.2363L48.04 97.064ZM41.768 108.648L41.1109 107.894L41.768 108.648ZM10.216 113L9.2312 112.826C9.17985 113.117 9.25993 113.416 9.44994 113.643C9.63994 113.869 9.9204 114 10.216 114V113ZM18.344 66.92V65.92C17.8587 65.92 17.4435 66.2684 17.3592 66.7463L18.344 66.92ZM28.072 76.904V75.904C27.5859 75.904 27.1702 76.2536 27.0868 76.7326L28.072 76.904ZM23.528 103.016L22.5428 102.845C22.4922 103.135 22.5727 103.434 22.7627 103.66C22.9527 103.886 23.2328 104.016 23.528 104.016V103.016ZM34.28 101.416L34.9731 102.137L34.9736 102.136L34.28 101.416ZM36.648 96.04L35.6633 95.8659L35.6625 95.8701L36.648 96.04ZM38.504 85.544L37.5201 85.3651L37.5193 85.3699L38.504 85.544ZM36.264 67.92C41.7121 67.92 45.3505 69.2936 47.4695 71.791L48.9945 70.497C46.3348 67.3624 41.9946 65.92 36.264 65.92V67.92ZM47.4587 71.7781C49.0386 73.7047 49.856 76.1364 49.856 79.144H51.856C51.856 75.7516 50.9241 72.8499 49.0053 70.5099L47.4587 71.7781ZM49.856 79.144C49.856 80.2345 49.755 81.3952 49.5496 82.6276L51.5224 82.9564C51.7437 81.6288 51.856 80.3575 51.856 79.144H49.856ZM49.551 82.6197L47.055 96.8917L49.0251 97.2363L51.5211 82.9643L49.551 82.6197ZM47.0553 96.8897C46.2372 101.512 44.2478 105.159 41.1109 107.894L42.4251 109.402C45.9442 106.334 48.1362 102.258 49.0247 97.2383L47.0553 96.8897ZM41.1109 107.894C37.9996 110.607 33.9393 112 28.84 112V114C34.322 114 38.8804 112.492 42.4251 109.402L41.1109 107.894ZM28.84 112H10.216V114H28.84V112ZM11.2008 113.174L19.3288 67.0937L17.3592 66.7463L9.2312 112.826L11.2008 113.174ZM18.344 67.92H36.264V65.92H18.344V67.92ZM32.232 75.904H28.072V77.904H32.232V75.904ZM27.0868 76.7326L22.5428 102.845L24.5132 103.187L29.0572 77.0754L27.0868 76.7326ZM23.528 104.016H29.608V102.016H23.528V104.016ZM29.608 104.016C31.7907 104.016 33.6263 103.432 34.9731 102.137L33.5869 100.695C32.7151 101.533 31.436 102.016 29.608 102.016V104.016ZM34.9736 102.136C36.3442 100.816 37.1898 98.783 37.6335 96.2099L35.6625 95.8701C35.2529 98.2463 34.5198 99.7968 33.5864 100.696L34.9736 102.136ZM37.6327 96.2141L39.4887 85.7181L37.5193 85.3699L35.6633 95.8659L37.6327 96.2141ZM39.4879 85.7229C39.6668 84.7387 39.76 83.8243 39.76 82.984H37.76C37.76 83.6797 37.6825 84.4719 37.5201 85.3651L39.4879 85.7229ZM39.76 82.984C39.76 80.7842 39.1662 78.9558 37.8096 77.6922C36.4663 76.4412 34.5452 75.904 32.232 75.904V77.904C34.2708 77.904 35.6137 78.3802 36.4465 79.1558C37.2658 79.9189 37.76 81.1304 37.76 82.984H39.76ZM85.1565 113V114C85.6406 114 86.0552 113.653 86.1408 113.177L85.1565 113ZM53.0285 113L52.0437 112.826C51.9924 113.117 52.0724 113.416 52.2624 113.643C52.4524 113.869 52.7329 114 53.0285 114V113ZM61.1565 66.92V65.92C60.6712 65.92 60.256 66.2684 60.1717 66.7463L61.1565 66.92ZM93.2845 66.92L94.2688 67.0967C94.3211 66.8052 94.2415 66.5055 94.0515 66.2784C93.8615 66.0512 93.5806 65.92 93.2845 65.92V66.92ZM91.4925 76.904V77.904C91.9766 77.904 92.3912 77.5572 92.4768 77.0807L91.4925 76.904ZM70.8845 76.904V75.904C70.397 75.904 69.9806 76.2555 69.8987 76.736L70.8845 76.904ZM69.4125 85.544L68.4267 85.376C68.3772 85.6664 68.4583 85.9639 68.6483 86.189C68.8383 86.4141 69.1179 86.544 69.4125 86.544V85.544ZM86.4365 85.544L87.4208 85.7207C87.4731 85.4292 87.3935 85.1295 87.2035 84.9024C87.0135 84.6752 86.7326 84.544 86.4365 84.544V85.544ZM84.6445 95.528V96.528C85.1286 96.528 85.5432 96.1812 85.6288 95.7047L84.6445 95.528ZM67.6205 95.528V94.528C67.1332 94.528 66.7169 94.8792 66.6348 95.3595L67.6205 95.528ZM66.3405 103.016L65.3548 102.848C65.3051 103.138 65.3861 103.436 65.5761 103.661C65.7661 103.886 66.0458 104.016 66.3405 104.016V103.016ZM86.9485 103.016L87.9328 103.193C87.9851 102.901 87.9055 102.602 87.7155 102.374C87.5255 102.147 87.2446 102.016 86.9485 102.016V103.016ZM85.1565 112H53.0285V114H85.1565V112ZM54.0133 113.174L62.1413 67.0937L60.1717 66.7463L52.0437 112.826L54.0133 113.174ZM61.1565 67.92H93.2845V65.92H61.1565V67.92ZM92.3002 66.7433L90.5082 76.7273L92.4768 77.0807L94.2688 67.0967L92.3002 66.7433ZM91.4925 75.904H70.8845V77.904H91.4925V75.904ZM69.8987 76.736L68.4267 85.376L70.3983 85.712L71.8703 77.072L69.8987 76.736ZM69.4125 86.544H86.4365V84.544H69.4125V86.544ZM85.4522 85.3673L83.6602 95.3513L85.6288 95.7047L87.4208 85.7207L85.4522 85.3673ZM84.6445 94.528H67.6205V96.528H84.6445V94.528ZM66.6348 95.3595L65.3548 102.848L67.3262 103.184L68.6062 95.6965L66.6348 95.3595ZM66.3405 104.016H86.9485V102.016H66.3405V104.016ZM85.9642 102.839L84.1722 112.823L86.1408 113.177L87.9328 103.193L85.9642 102.839ZM115.312 96.872L115.838 96.0212L115.312 96.872ZM110.001 94.632L109.72 95.592L109.726 95.5935L110.001 94.632ZM103.793 92.584L103.424 93.5138C103.432 93.5169 103.44 93.5198 103.448 93.5227L103.793 92.584ZM98.5445 88.872L97.7825 89.5197L97.7907 89.5291L98.5445 88.872ZM128.433 69.352L127.833 70.152C127.837 70.1557 127.842 70.1594 127.847 70.163L128.433 69.352ZM131.825 80.808L130.866 80.5239C130.863 80.5319 130.861 80.54 130.859 80.548L131.825 80.808ZM130.865 83.176L130.056 82.5878C130.048 82.5988 130.04 82.61 130.032 82.6213L130.865 83.176ZM130.353 83.944V84.944C130.687 84.944 130.999 84.7769 131.185 84.4987L130.353 83.944ZM119.025 83.944L118.302 83.2528C118.025 83.5421 117.948 83.9687 118.105 84.3369C118.262 84.7051 118.624 84.944 119.025 84.944V83.944ZM110.321 83.88L109.813 84.7419L110.321 83.88ZM115.568 85.928L115.326 86.8981C115.334 86.9001 115.342 86.902 115.349 86.9037L115.568 85.928ZM121.84 87.72L121.513 88.6648L121.84 87.72ZM127.152 91.368L126.391 92.0157L126.399 92.0251L127.152 91.368ZM124.465 109.992L125.09 110.772L125.097 110.767L124.465 109.992ZM95.6645 110.312L94.9658 111.027L94.9699 111.031L95.6645 110.312ZM93.2965 98.984L92.3136 98.7997L92.3126 98.8051L93.2965 98.984ZM93.4885 97.96V96.96C93.0073 96.96 92.5943 97.3027 92.5056 97.7757L93.4885 97.96ZM105.008 97.96L105.995 98.1244C106.043 97.8344 105.962 97.5379 105.772 97.3136C105.582 97.0893 105.302 96.96 105.008 96.96V97.96ZM104.881 98.728L105.861 98.9241C105.863 98.9136 105.865 98.903 105.867 98.8924L104.881 98.728ZM103.753 99.88C103.753 101.625 104.399 103.06 105.765 104.012C107.065 104.919 108.891 105.296 111.089 105.296V103.296C109.062 103.296 107.72 102.937 106.908 102.372C106.162 101.852 105.753 101.079 105.753 99.88H103.753ZM111.089 105.296C113.293 105.296 115.115 104.96 116.415 104.154C117.795 103.299 118.489 101.974 118.489 100.328H116.489C116.489 101.327 116.115 101.987 115.362 102.454C114.529 102.97 113.151 103.296 111.089 103.296V105.296ZM118.489 100.328C118.489 98.4961 117.511 97.0547 115.838 96.0212L114.787 97.7228C116.015 98.4813 116.489 99.3439 116.489 100.328H118.489ZM115.838 96.0212C114.291 95.0658 112.431 94.2865 110.275 93.6705L109.726 95.5935C111.751 96.1722 113.432 96.8862 114.787 97.7228L115.838 96.0212ZM110.281 93.672C108.255 93.0813 106.208 92.4058 104.137 91.6453L103.448 93.5227C105.559 94.2982 107.65 94.988 109.721 95.592L110.281 93.672ZM104.161 91.6542C102.261 90.9024 100.644 89.7588 99.2983 88.2149L97.7907 89.5291C99.3461 91.3132 101.228 92.6442 103.424 93.5138L104.161 91.6542ZM99.3064 88.2243C98.0286 86.721 97.3685 84.8474 97.3685 82.536H95.3685C95.3685 85.2593 96.1591 87.6097 97.7826 89.5196L99.3064 88.2243ZM97.3685 82.536C97.3685 77.4123 99.004 73.7224 102.15 71.2776C105.344 68.7956 110.252 67.472 117.04 67.472V65.472C110.048 65.472 104.62 66.8257 100.923 69.6984C97.1783 72.6083 95.3685 76.9504 95.3685 82.536H97.3685ZM117.04 67.472C121.974 67.472 125.52 68.4173 127.833 70.152L129.033 68.552C126.225 66.4467 122.176 65.472 117.04 65.472V67.472ZM127.847 70.163C130.174 71.8415 131.337 74.1556 131.337 77.224H133.337C133.337 73.5511 131.896 70.6171 129.018 68.541L127.847 70.163ZM131.337 77.224C131.337 78.368 131.179 79.4669 130.866 80.5239L132.783 81.0921C133.153 79.8451 133.337 78.5546 133.337 77.224H131.337ZM130.859 80.548C130.567 81.6318 130.285 82.273 130.056 82.5878L131.673 83.7642C132.127 83.1403 132.485 82.2028 132.79 81.068L130.859 80.548ZM130.032 82.6213L129.52 83.3893L131.185 84.4987L131.697 83.7307L130.032 82.6213ZM130.353 82.944H119.025V84.944H130.353V82.944ZM119.747 84.6352C120.882 83.4485 121.433 81.9548 121.433 80.232H119.433C119.433 81.4958 119.044 82.4768 118.302 83.2528L119.747 84.6352ZM121.433 80.232C121.433 78.6085 120.888 77.2413 119.68 76.3176C118.523 75.4327 116.905 75.072 114.993 75.072V77.072C116.707 77.072 117.809 77.4046 118.465 77.9064C119.07 78.3693 119.433 79.0821 119.433 80.232H121.433ZM114.993 75.072C112.636 75.072 110.698 75.4406 109.32 76.316C107.866 77.2403 107.145 78.661 107.145 80.424H109.145C109.145 79.2856 109.565 78.5304 110.393 78.004C111.298 77.4288 112.784 77.072 114.993 77.072V75.072ZM107.145 80.424C107.145 82.2917 108.116 83.7431 109.813 84.7419L110.828 83.0181C109.624 82.3102 109.145 81.4576 109.145 80.424H107.145ZM109.813 84.7419C111.365 85.6543 113.208 86.3685 115.326 86.8981L115.811 84.9579C113.833 84.4635 112.178 83.8124 110.828 83.0181L109.813 84.7419ZM115.349 86.9037C117.402 87.3645 119.457 87.9514 121.513 88.6648L122.168 86.7752C120.043 86.0379 117.916 85.4301 115.788 84.9523L115.349 86.9037ZM121.513 88.6648C123.433 89.3308 125.054 90.4432 126.391 92.0156L127.914 90.7204C126.35 88.8794 124.43 87.5598 122.168 86.7752L121.513 88.6648ZM126.399 92.0251C127.658 93.4695 128.329 95.3947 128.329 97.896H130.329C130.329 95.0213 129.548 92.5945 127.906 90.7109L126.399 92.0251ZM128.329 97.896C128.329 103.11 126.777 106.815 123.832 109.217L125.097 110.767C128.637 107.878 130.329 103.519 130.329 97.896H128.329ZM123.839 109.212C120.854 111.608 116.134 112.896 109.489 112.896V114.896C116.326 114.896 121.59 113.582 125.09 110.772L123.839 109.212ZM109.489 112.896C102.789 112.896 98.5347 111.693 96.3591 109.593L94.9699 111.031C97.7437 113.71 102.705 114.896 109.489 114.896V112.896ZM96.3632 109.597C94.764 108.035 93.9125 105.842 93.9125 102.888H91.9125C91.9125 106.248 92.8957 109.005 94.9658 111.027L96.3632 109.597ZM93.9125 102.888C93.9125 101.764 94.0331 100.523 94.2804 99.1629L92.3126 98.8051C92.0479 100.261 91.9125 101.623 91.9125 102.888H93.9125ZM94.2794 99.1683L94.4714 98.1443L92.5056 97.7757L92.3136 98.7997L94.2794 99.1683ZM93.4885 98.96H105.008V96.96H93.4885V98.96ZM104.022 97.7956L103.894 98.5636L105.867 98.8924L105.995 98.1244L104.022 97.7956ZM103.9 98.5319C103.805 99.0065 103.753 99.4578 103.753 99.88H105.753C105.753 99.6196 105.785 99.3029 105.861 98.9241L103.9 98.5319ZM153.676 66.92L154.662 67.0924C154.712 66.8014 154.632 66.5029 154.442 66.2767C154.252 66.0506 153.972 65.92 153.676 65.92V66.92ZM145.613 113V114C146.098 114 146.514 113.651 146.598 113.172L145.613 113ZM134.029 113L133.044 112.826C132.992 113.117 133.072 113.416 133.262 113.643C133.452 113.869 133.733 114 134.029 114V113ZM142.156 66.92V65.92C141.671 65.92 141.256 66.2684 141.172 66.7463L142.156 66.92ZM152.691 66.7476L144.627 112.828L146.598 113.172L154.662 67.0924L152.691 66.7476ZM145.613 112H134.029V114H145.613V112ZM135.013 113.174L143.141 67.0937L141.172 66.7463L133.044 112.826L135.013 113.174ZM142.156 67.92H153.676V65.92H142.156V67.92ZM158.173 109.672L157.394 110.299L157.4 110.305L158.173 109.672ZM156.318 96.424L157.301 96.6029L157.303 96.5964L156.318 96.424ZM158.557 83.624L157.573 83.4513L157.572 83.4516L158.557 83.624ZM190.814 69.672L190.173 70.4403L190.181 70.4465L190.814 69.672ZM194.014 82.856L193.05 82.5884C193.048 82.5967 193.045 82.6051 193.043 82.6135L194.014 82.856ZM192.862 86.312L193.736 86.7976C193.743 86.785 193.749 86.7722 193.756 86.7592L192.862 86.312ZM192.221 87.464V88.464C192.585 88.464 192.919 88.2671 193.096 87.9496L192.221 87.464ZM180.893 87.464L180.083 86.8785C179.863 87.1829 179.832 87.5849 180.003 87.9193C180.174 88.2536 180.518 88.464 180.893 88.464V87.464ZM170.014 83.88L170.998 84.0544L170.999 84.0485L170.014 83.88ZM167.837 96.168L168.821 96.3501L168.822 96.3424L167.837 96.168ZM179.422 98.728L180.384 98.9981C180.469 98.6968 180.407 98.3733 180.218 98.1239C180.029 97.8745 179.734 97.728 179.422 97.728V98.728ZM174.173 98.728L173.189 98.5507C173.137 98.8422 173.216 99.1421 173.406 99.3694C173.596 99.5966 173.877 99.728 174.173 99.728V98.728ZM175.454 91.624V90.624C174.97 90.624 174.555 90.9705 174.469 91.4467L175.454 91.624ZM192.413 91.624L193.397 91.8069C193.451 91.5147 193.373 91.2134 193.183 90.9848C192.993 90.7562 192.711 90.624 192.413 90.624V91.624ZM191.389 97.128L190.406 96.9451L190.404 96.9581L191.389 97.128ZM191.07 98.984L192.054 99.1614L192.055 99.1539L191.07 98.984ZM170.717 112.896C164.764 112.896 160.965 111.505 158.947 109.039L157.4 110.305C159.99 113.471 164.554 114.896 170.717 114.896V112.896ZM158.953 109.045C157.56 107.314 156.805 104.874 156.805 101.608H154.805C154.805 105.169 155.629 108.104 157.394 110.299L158.953 109.045ZM156.805 101.608C156.805 100.1 156.969 98.4329 157.301 96.6029L155.334 96.2451C154.984 98.1697 154.805 99.9585 154.805 101.608H156.805ZM157.303 96.5964L159.543 83.7964L157.572 83.4516L155.332 96.2516L157.303 96.5964ZM159.542 83.7967C160.516 78.2468 162.677 74.2022 165.942 71.5344C169.211 68.8633 173.71 67.472 179.549 67.472V65.472C173.4 65.472 168.405 66.9394 164.677 69.9856C160.944 73.0352 158.605 77.5665 157.573 83.4513L159.542 83.7967ZM179.549 67.472C184.375 67.472 187.862 68.5144 190.173 70.4402L191.454 68.9038C188.645 66.5629 184.623 65.472 179.549 65.472V67.472ZM190.181 70.4465C192.481 72.3248 193.654 74.9054 193.654 78.312H195.654C195.654 74.3799 194.266 71.2006 191.446 68.8975L190.181 70.4465ZM193.654 78.312C193.654 79.709 193.454 81.1336 193.05 82.5884L194.977 83.1236C195.426 81.5064 195.654 79.9017 195.654 78.312H193.654ZM193.043 82.6135C192.665 84.1273 192.302 85.1953 191.967 85.8648L193.756 86.7592C194.189 85.8927 194.594 84.6567 194.984 83.0985L193.043 82.6135ZM191.987 85.8264L191.347 86.9784L193.096 87.9496L193.736 86.7976L191.987 85.8264ZM192.221 86.464H180.893V88.464H192.221V86.464ZM181.704 88.0495C182.944 86.3328 183.557 84.3545 183.557 82.152H181.557C181.557 83.9602 181.062 85.5232 180.083 86.8785L181.704 88.0495ZM183.557 82.152C183.557 80.1178 183.137 78.4059 182.126 77.1918C181.085 75.9428 179.564 75.392 177.758 75.392V77.392C179.151 77.392 180.03 77.8012 180.589 78.4722C181.178 79.1781 181.557 80.3462 181.557 82.152H183.557ZM177.758 75.392C175.399 75.392 173.408 76.0817 171.894 77.5451C170.399 78.9907 169.476 81.0893 169.028 83.7115L170.999 84.0485C171.404 81.6787 172.198 80.0333 173.285 78.9829C174.353 77.9503 175.807 77.392 177.758 77.392V75.392ZM169.029 83.7056L166.853 95.9936L168.822 96.3424L170.998 84.0544L169.029 83.7056ZM166.854 95.9859C166.63 97.1946 166.518 98.3863 166.518 99.56H168.518C168.518 98.5151 168.618 97.4454 168.821 96.3501L166.854 95.9859ZM166.518 99.56C166.518 101.232 167.016 102.654 168.165 103.633C169.284 104.586 170.855 104.976 172.702 104.976V102.976C171.092 102.976 170.071 102.63 169.462 102.111C168.883 101.618 168.518 100.832 168.518 99.56H166.518ZM172.702 104.976C174.621 104.976 176.288 104.493 177.621 103.452C178.951 102.414 179.852 100.895 180.384 98.9981L178.459 98.4579C178.009 100.059 177.3 101.165 176.39 101.876C175.483 102.584 174.281 102.976 172.702 102.976V104.976ZM179.422 97.728H174.173V99.728H179.422V97.728ZM175.158 98.9053L176.438 91.8013L174.469 91.4467L173.189 98.5507L175.158 98.9053ZM175.454 92.624H192.413V90.624H175.454V92.624ZM191.43 91.4411L190.406 96.9451L192.373 97.3109L193.397 91.8069L191.43 91.4411ZM190.404 96.9581L190.084 98.8141L192.055 99.1539L192.375 97.2979L190.404 96.9581ZM190.085 98.8066C189.225 103.579 187.191 107.057 184.046 109.361C180.882 111.68 176.476 112.896 170.717 112.896V114.896C176.735 114.896 181.609 113.627 185.229 110.975C188.868 108.308 191.122 104.331 192.054 99.1614L190.085 98.8066ZM239.864 66.92L240.849 67.0924C240.9 66.8014 240.82 66.5029 240.63 66.2767C240.44 66.0506 240.159 65.92 239.864 65.92V66.92ZM231.8 113V114C232.286 114 232.701 113.651 232.785 113.172L231.8 113ZM220.216 113L219.264 113.305C219.396 113.719 219.781 114 220.216 114V113ZM212.152 87.784L213.104 87.4794C212.964 87.0406 212.542 86.7545 212.083 86.7864C211.623 86.8183 211.245 87.16 211.167 87.6139L212.152 87.784ZM207.8 113V114C208.287 114 208.703 113.65 208.785 113.17L207.8 113ZM196.216 113L195.231 112.826C195.18 113.117 195.26 113.416 195.45 113.643C195.64 113.869 195.92 114 196.216 114V113ZM204.344 66.92V65.92C203.859 65.92 203.443 66.2684 203.359 66.7463L204.344 66.92ZM216.248 66.92L217.196 66.6007C217.059 66.1939 216.677 65.92 216.248 65.92V66.92ZM224.184 90.472L223.236 90.7913C223.382 91.2244 223.803 91.5035 224.259 91.4692C224.715 91.4349 225.089 91.096 225.169 90.6459L224.184 90.472ZM228.344 66.92V65.92C227.859 65.92 227.444 66.2683 227.359 66.7461L228.344 66.92ZM238.879 66.7476L230.815 112.828L232.785 113.172L240.849 67.0924L238.879 66.7476ZM231.8 112H220.216V114H231.8V112ZM221.168 112.695L213.104 87.4794L211.2 88.0886L219.264 113.305L221.168 112.695ZM211.167 87.6139L206.815 112.83L208.785 113.17L213.137 87.9541L211.167 87.6139ZM207.8 112H196.216V114H207.8V112ZM197.201 113.174L205.329 67.0937L203.359 66.7463L195.231 112.826L197.201 113.174ZM204.344 67.92H216.248V65.92H204.344V67.92ZM215.3 67.2393L223.236 90.7913L225.132 90.1527L217.196 66.6007L215.3 67.2393ZM225.169 90.6459L229.329 67.0939L227.359 66.7461L223.199 90.2981L225.169 90.6459ZM228.344 67.92H239.864V65.92H228.344V67.92ZM279 96.872L279.525 96.0212L279 96.872ZM273.688 94.632L273.408 95.592L273.413 95.5935L273.688 94.632ZM267.48 92.584L267.112 93.5138C267.12 93.5169 267.127 93.5198 267.135 93.5227L267.48 92.584ZM262.232 88.872L261.47 89.5197L261.478 89.5291L262.232 88.872ZM292.12 69.352L291.52 70.152C291.525 70.1557 291.53 70.1594 291.535 70.163L292.12 69.352ZM295.512 80.808L294.553 80.5239C294.551 80.5319 294.549 80.54 294.546 80.548L295.512 80.808ZM294.552 83.176L293.743 82.5878C293.735 82.5988 293.728 82.61 293.72 82.6213L294.552 83.176ZM294.04 83.944V84.944C294.374 84.944 294.687 84.7769 294.872 84.4987L294.04 83.944ZM282.712 83.944L281.989 83.2528C281.713 83.5421 281.635 83.9687 281.792 84.3369C281.95 84.7051 282.312 84.944 282.712 84.944V83.944ZM274.008 83.88L273.501 84.7419L274.008 83.88ZM279.256 85.928L279.013 86.8981C279.021 86.9001 279.029 86.902 279.037 86.9037L279.256 85.928ZM285.528 87.72L285.2 88.6648L285.528 87.72ZM290.84 91.368L290.078 92.0157L290.086 92.0251L290.84 91.368ZM288.152 109.992L288.778 110.772L288.784 110.767L288.152 109.992ZM259.352 110.312L258.653 111.027L258.657 111.031L259.352 110.312ZM256.984 98.984L256.001 98.7997L256 98.8051L256.984 98.984ZM257.176 97.96V96.96C256.695 96.96 256.282 97.3027 256.193 97.7757L257.176 97.96ZM268.696 97.96L269.682 98.1244C269.731 97.8344 269.649 97.5379 269.459 97.3136C269.269 97.0893 268.99 96.96 268.696 96.96V97.96ZM268.568 98.728L269.549 98.9241C269.551 98.9136 269.553 98.903 269.554 98.8924L268.568 98.728ZM267.44 99.88C267.44 101.625 268.086 103.06 269.452 104.012C270.753 104.919 272.579 105.296 274.776 105.296V103.296C272.749 103.296 271.407 102.937 270.596 102.372C269.85 101.852 269.44 101.079 269.44 99.88H267.44ZM274.776 105.296C276.98 105.296 278.802 104.96 280.103 104.154C281.482 103.299 282.176 101.974 282.176 100.328H280.176C280.176 101.327 279.803 101.987 279.049 102.454C278.216 102.97 276.838 103.296 274.776 103.296V105.296ZM282.176 100.328C282.176 98.4961 281.199 97.0547 279.525 96.0212L278.475 97.7228C279.703 98.4813 280.176 99.3439 280.176 100.328H282.176ZM279.525 96.0212C277.979 95.0658 276.119 94.2865 273.963 93.6705L273.413 95.5935C275.439 96.1722 277.12 96.8862 278.475 97.7228L279.525 96.0212ZM273.968 93.672C271.943 93.0813 269.895 92.4058 267.825 91.6453L267.135 93.5227C269.246 94.2982 271.337 94.988 273.408 95.592L273.968 93.672ZM267.848 91.6542C265.949 90.9024 264.332 89.7588 262.986 88.2149L261.478 89.5291C263.034 91.3132 264.915 92.6442 267.112 93.5138L267.848 91.6542ZM262.994 88.2243C261.716 86.721 261.056 84.8474 261.056 82.536H259.056C259.056 85.2593 259.847 87.6097 261.47 89.5196L262.994 88.2243ZM261.056 82.536C261.056 77.4123 262.692 73.7224 265.838 71.2776C269.032 68.7956 273.939 67.472 280.728 67.472V65.472C273.735 65.472 268.307 66.8257 264.61 69.6984C260.866 72.6083 259.056 76.9504 259.056 82.536H261.056ZM280.728 67.472C285.662 67.472 289.207 68.4173 291.52 70.152L292.72 68.552C289.913 66.4467 285.863 65.472 280.728 65.472V67.472ZM291.535 70.163C293.862 71.8415 295.024 74.1556 295.024 77.224H297.024C297.024 73.5511 295.583 70.6171 292.705 68.541L291.535 70.163ZM295.024 77.224C295.024 78.368 294.866 79.4669 294.553 80.5239L296.471 81.0921C296.84 79.8451 297.024 78.5546 297.024 77.224H295.024ZM294.546 80.548C294.255 81.6318 293.972 82.273 293.743 82.5878L295.361 83.7642C295.814 83.1403 296.172 82.2028 296.478 81.068L294.546 80.548ZM293.72 82.6213L293.208 83.3893L294.872 84.4987L295.384 83.7307L293.72 82.6213ZM294.04 82.944H282.712V84.944H294.04V82.944ZM283.435 84.6352C284.57 83.4485 285.12 81.9548 285.12 80.232H283.12C283.12 81.4958 282.732 82.4768 281.989 83.2528L283.435 84.6352ZM285.12 80.232C285.12 78.6085 284.575 77.2413 283.367 76.3176C282.21 75.4327 280.593 75.072 278.68 75.072V77.072C280.394 77.072 281.496 77.4046 282.153 77.9064C282.758 78.3693 283.12 79.0821 283.12 80.232H285.12ZM278.68 75.072C276.324 75.072 274.385 75.4406 273.008 76.316C271.553 77.2403 270.832 78.661 270.832 80.424H272.832C272.832 79.2856 273.252 78.5304 274.08 78.004C274.985 77.4288 276.471 77.072 278.68 77.072V75.072ZM270.832 80.424C270.832 82.2917 271.803 83.7431 273.501 84.7419L274.515 83.0181C273.312 82.3102 272.832 81.4576 272.832 80.424H270.832ZM273.501 84.7419C275.052 85.6543 276.895 86.3685 279.013 86.8981L279.499 84.9579C277.521 84.4635 275.865 83.8124 274.515 83.0181L273.501 84.7419ZM279.037 86.9037C281.09 87.3645 283.144 87.9514 285.2 88.6648L285.856 86.7752C283.731 86.0379 281.604 85.4301 279.475 84.9523L279.037 86.9037ZM285.2 88.6648C287.12 89.3308 288.742 90.4432 290.078 92.0156L291.602 90.7204C290.037 88.8794 288.117 87.5598 285.856 86.7752L285.2 88.6648ZM290.086 92.0251C291.345 93.4695 292.016 95.3947 292.016 97.896H294.016C294.016 95.0213 293.236 92.5945 291.594 90.7109L290.086 92.0251ZM292.016 97.896C292.016 103.11 290.465 106.815 287.52 109.217L288.784 110.767C292.325 107.878 294.016 103.519 294.016 97.896H292.016ZM287.526 109.212C284.542 111.608 279.821 112.896 273.176 112.896V114.896C280.014 114.896 285.277 113.582 288.778 110.772L287.526 109.212ZM273.176 112.896C266.477 112.896 262.222 111.693 260.047 109.593L258.657 111.031C261.431 113.71 266.392 114.896 273.176 114.896V112.896ZM260.051 109.597C258.451 108.035 257.6 105.842 257.6 102.888H255.6C255.6 106.248 256.583 109.005 258.653 111.027L260.051 109.597ZM257.6 102.888C257.6 101.764 257.721 100.523 257.968 99.1629L256 98.8051C255.735 100.261 255.6 101.623 255.6 102.888H257.6ZM257.967 99.1683L258.159 98.1443L256.193 97.7757L256.001 98.7997L257.967 99.1683ZM257.176 98.96H268.696V96.96H257.176V98.96ZM267.71 97.7956L267.582 98.5636L269.554 98.8924L269.682 98.1244L267.71 97.7956ZM267.587 98.5319C267.492 99.0065 267.44 99.4578 267.44 99.88H269.44C269.44 99.6196 269.473 99.3029 269.549 98.9241L267.587 98.5319ZM337.588 83.624L336.605 83.4428L336.603 83.4516L337.588 83.624ZM335.348 96.424L334.363 96.2516L334.363 96.2539L335.348 96.424ZM328.692 109.608L329.334 110.375L328.692 109.608ZM301.364 109.608L300.601 110.255L300.602 110.256L301.364 109.608ZM299.38 96.424L300.363 96.6069L300.365 96.5964L299.38 96.424ZM301.62 83.624L300.635 83.4513L300.635 83.4516L301.62 83.624ZM321.14 102.312L320.485 101.556L321.14 102.312ZM323.828 96.168L322.843 95.9936L322.842 95.999L323.828 96.168ZM326.004 83.88L326.989 84.0544C326.99 84.0457 326.992 84.037 326.993 84.0283L326.004 83.88ZM320.948 76.392V75.392C320.942 75.392 320.935 75.3921 320.929 75.3922L320.948 76.392ZM313.076 83.88L314.061 84.0544L314.061 84.0513L313.076 83.88ZM310.9 96.168L309.915 95.9936C309.914 95.9991 309.913 96.0045 309.913 96.01L310.9 96.168ZM322.612 67.472C327.643 67.472 331.23 68.5041 333.547 70.3982C335.826 72.2608 337.036 75.0907 337.036 79.08H339.036C339.036 74.664 337.676 71.1898 334.813 68.8498C331.989 66.5412 327.864 65.472 322.612 65.472V67.472ZM337.036 79.08C337.036 80.418 336.894 81.8714 336.605 83.4428L338.571 83.8052C338.879 82.1339 339.036 80.558 339.036 79.08H337.036ZM336.603 83.4516L334.363 96.2516L336.333 96.5964L338.573 83.7964L336.603 83.4516ZM334.363 96.2539C333.365 102.034 331.227 106.181 328.05 108.841L329.334 110.375C332.984 107.318 335.283 102.676 336.333 96.5941L334.363 96.2539ZM328.05 108.841C324.876 111.5 320.335 112.896 314.292 112.896V114.896C320.623 114.896 325.682 113.434 329.334 110.375L328.05 108.841ZM314.292 112.896C308.213 112.896 304.274 111.485 302.126 108.96L300.602 110.256C303.318 113.448 307.997 114.896 314.292 114.896V112.896ZM302.127 108.961C300.662 107.233 299.868 104.781 299.868 101.48H297.868C297.868 105.091 298.738 108.057 300.601 110.255L302.127 108.961ZM299.868 101.48C299.868 100.017 300.031 98.3936 300.363 96.6069L298.397 96.2411C298.047 98.1237 297.868 99.8712 297.868 101.48H299.868ZM300.365 96.5964L302.605 83.7964L300.635 83.4516L298.395 96.2516L300.365 96.5964ZM302.605 83.7967C303.578 78.2468 305.74 74.2022 309.005 71.5344C312.274 68.8633 316.772 67.472 322.612 67.472V65.472C316.462 65.472 311.467 66.9394 307.739 69.9856C304.007 73.0352 301.667 77.5665 300.635 83.4513L302.605 83.7967ZM316.02 104.976C318.33 104.976 320.29 104.372 321.795 103.068L320.485 101.556C319.43 102.47 317.977 102.976 316.02 102.976V104.976ZM321.795 103.068C323.342 101.727 324.29 99.3913 324.814 96.337L322.842 95.999C322.342 98.9181 321.498 100.679 320.485 101.556L321.795 103.068ZM324.813 96.3424L326.989 84.0544L325.019 83.7056L322.843 95.9936L324.813 96.3424ZM326.993 84.0283C327.126 83.1381 327.196 82.3193 327.196 81.576H325.196C325.196 82.1981 325.138 82.9153 325.015 83.7317L326.993 84.0283ZM327.196 81.576C327.196 79.6907 326.718 78.0938 325.587 76.9766C324.458 75.8616 322.848 75.392 320.948 75.392V77.392C322.546 77.392 323.561 77.7864 324.181 78.3994C324.8 79.0102 325.196 80.0053 325.196 81.576H327.196ZM320.929 75.3922C318.538 75.4386 316.525 76.1481 314.995 77.6034C313.478 79.0458 312.541 81.1217 312.091 83.7087L314.061 84.0513C314.465 81.7316 315.266 80.1062 316.373 79.0526C317.467 78.0119 318.964 77.4307 320.967 77.3918L320.929 75.3922ZM312.091 83.7056L309.915 95.9936L311.885 96.3424L314.061 84.0544L312.091 83.7056ZM309.913 96.01C309.733 97.1322 309.644 98.2946 309.644 99.496H311.644C311.644 98.3934 311.726 97.3371 311.887 96.326L309.913 96.01ZM309.644 99.496C309.644 101.196 310.163 102.637 311.348 103.624C312.498 104.583 314.114 104.976 316.02 104.976V102.976C314.342 102.976 313.27 102.623 312.628 102.088C312.021 101.582 311.644 100.782 311.644 99.496H309.644ZM369.4 113V114C369.884 114 370.299 113.653 370.384 113.177L369.4 113ZM340.216 113L339.231 112.826C339.18 113.117 339.26 113.416 339.45 113.643C339.64 113.869 339.92 114 340.216 114V113ZM348.344 66.92V65.92C347.859 65.92 347.444 66.2684 347.359 66.7463L348.344 66.92ZM359.864 66.92L360.849 67.0929C360.9 66.8019 360.82 66.5032 360.63 66.2769C360.44 66.0507 360.159 65.92 359.864 65.92V66.92ZM353.528 103.016L352.543 102.843C352.492 103.134 352.572 103.433 352.762 103.659C352.952 103.885 353.233 104.016 353.528 104.016V103.016ZM371.192 103.016L372.176 103.193C372.229 102.901 372.149 102.602 371.959 102.374C371.769 102.147 371.488 102.016 371.192 102.016V103.016ZM369.4 112H340.216V114H369.4V112ZM341.201 113.174L349.329 67.0937L347.359 66.7463L339.231 112.826L341.201 113.174ZM348.344 67.92H359.864V65.92H348.344V67.92ZM358.879 66.7471L352.543 102.843L354.513 103.189L360.849 67.0929L358.879 66.7471ZM353.528 104.016H371.192V102.016H353.528V104.016ZM370.208 102.839L368.416 112.823L370.384 113.177L372.176 103.193L370.208 102.839ZM405.835 109.672L406.476 110.439L406.477 110.439L405.835 109.672ZM378.635 109.608L379.402 108.967C379.398 108.962 379.394 108.957 379.39 108.952L378.635 109.608ZM376.587 96.424L377.57 96.6069L377.572 96.5971L376.587 96.424ZM381.771 66.92V65.92C381.285 65.92 380.87 66.2687 380.786 66.7469L381.771 66.92ZM393.291 66.92L394.276 67.0945C394.327 66.8033 394.247 66.5042 394.057 66.2775C393.867 66.0509 393.587 65.92 393.291 65.92V66.92ZM388.107 96.168L387.122 95.9935C387.121 95.999 387.12 96.0045 387.12 96.01L388.107 96.168ZM398.347 102.312L397.692 101.556L398.347 102.312ZM401.035 96.168L400.05 95.9935L400.049 95.999L401.035 96.168ZM406.219 66.92V65.92C405.734 65.92 405.319 66.268 405.234 66.7455L406.219 66.92ZM417.739 66.92L418.724 67.0931C418.775 66.802 418.695 66.5033 418.505 66.277C418.315 66.0507 418.034 65.92 417.739 65.92V66.92ZM412.555 96.424L413.539 96.5998L413.54 96.5971L412.555 96.424ZM405.194 108.905C402.064 111.519 397.546 112.896 391.499 112.896V114.896C397.826 114.896 402.864 113.457 406.476 110.439L405.194 108.905ZM391.499 112.896C385.418 112.896 381.506 111.484 379.402 108.967L377.868 110.249C380.542 113.449 385.207 114.896 391.499 114.896V112.896ZM379.39 108.952C377.887 107.224 377.075 104.775 377.075 101.48H375.075C375.075 105.097 375.97 108.067 377.88 110.264L379.39 108.952ZM377.075 101.48C377.075 100.017 377.238 98.3936 377.57 96.6069L375.604 96.2411C375.254 98.1237 375.075 99.8712 375.075 101.48H377.075ZM377.572 96.5971L382.756 67.0931L380.786 66.7469L375.602 96.2509L377.572 96.5971ZM381.771 67.92H393.291V65.92H381.771V67.92ZM392.306 66.7455L387.122 95.9935L389.092 96.3425L394.276 67.0945L392.306 66.7455ZM387.12 96.01C386.94 97.1322 386.851 98.2946 386.851 99.496H388.851C388.851 98.3934 388.933 97.3371 389.094 96.326L387.12 96.01ZM386.851 99.496C386.851 101.196 387.37 102.637 388.555 103.624C389.705 104.583 391.321 104.976 393.227 104.976V102.976C391.549 102.976 390.477 102.623 389.835 102.088C389.228 101.582 388.851 100.782 388.851 99.496H386.851ZM393.227 104.976C395.537 104.976 397.497 104.372 399.002 103.068L397.692 101.556C396.637 102.47 395.184 102.976 393.227 102.976V104.976ZM399.002 103.068C400.549 101.727 401.497 99.3913 402.021 96.337L400.049 95.999C399.549 98.9181 398.705 100.679 397.692 101.556L399.002 103.068ZM402.02 96.3425L407.204 67.0945L405.234 66.7455L400.05 95.9935L402.02 96.3425ZM406.219 67.92H417.739V65.92H406.219V67.92ZM416.754 66.7469L411.57 96.2509L413.54 96.5971L418.724 67.0931L416.754 66.7469ZM411.571 96.2482C410.53 102.074 408.37 106.244 405.193 108.905L406.477 110.439C410.126 107.382 412.446 102.72 413.539 96.5998L411.571 96.2482ZM463.973 76.904V77.904C464.457 77.904 464.872 77.5572 464.957 77.0807L463.973 76.904ZM448.229 76.904V75.904C447.743 75.904 447.328 76.2528 447.244 76.7311L448.229 76.904ZM441.893 113V114C442.379 114 442.794 113.651 442.878 113.173L441.893 113ZM430.309 113L429.324 112.827C429.273 113.118 429.353 113.417 429.543 113.643C429.733 113.869 430.014 114 430.309 114V113ZM436.645 76.904L437.63 77.0769C437.681 76.7859 437.601 76.4872 437.411 76.2609C437.221 76.0347 436.94 75.904 436.645 75.904V76.904ZM420.837 76.904L419.853 76.7273C419.8 77.0188 419.88 77.3185 420.07 77.5456C420.26 77.7728 420.541 77.904 420.837 77.904V76.904ZM422.629 66.92V65.92C422.145 65.92 421.73 66.2668 421.645 66.7433L422.629 66.92ZM465.765 66.92L466.749 67.0967C466.802 66.8052 466.722 66.5055 466.532 66.2784C466.342 66.0512 466.061 65.92 465.765 65.92V66.92ZM463.973 75.904H448.229V77.904H463.973V75.904ZM447.244 76.7311L440.908 112.827L442.878 113.173L449.214 77.0769L447.244 76.7311ZM441.893 112H430.309V114H441.893V112ZM431.294 113.173L437.63 77.0769L435.66 76.7311L429.324 112.827L431.294 113.173ZM436.645 75.904H420.837V77.904H436.645V75.904ZM421.821 77.0807L423.613 67.0967L421.645 66.7433L419.853 76.7273L421.821 77.0807ZM422.629 67.92H465.765V65.92H422.629V67.92ZM464.781 66.7433L462.989 76.7273L464.957 77.0807L466.749 67.0967L464.781 66.7433ZM482.552 66.92L483.537 67.0924C483.587 66.8014 483.507 66.5029 483.317 66.2767C483.127 66.0506 482.847 65.92 482.552 65.92V66.92ZM474.487 113V114C474.973 114 475.389 113.651 475.473 113.172L474.487 113ZM462.904 113L461.919 112.826C461.867 113.117 461.947 113.416 462.137 113.643C462.327 113.869 462.608 114 462.904 114V113ZM471.031 66.92V65.92C470.546 65.92 470.131 66.2684 470.047 66.7463L471.031 66.92ZM481.566 66.7476L473.502 112.828L475.473 113.172L483.537 67.0924L481.566 66.7476ZM474.487 112H462.904V114H474.487V112ZM463.888 113.174L472.016 67.0937L470.047 66.7463L461.919 112.826L463.888 113.174ZM471.031 67.92H482.552V65.92H471.031V67.92ZM523.401 83.624L522.417 83.4428L522.415 83.4516L523.401 83.624ZM521.161 96.424L520.175 96.2516L520.175 96.2539L521.161 96.424ZM514.505 109.608L515.147 110.375L514.505 109.608ZM487.177 109.608L486.414 110.255L486.415 110.256L487.177 109.608ZM485.193 96.424L486.176 96.6069L486.178 96.5964L485.193 96.424ZM487.432 83.624L486.448 83.4513L486.447 83.4516L487.432 83.624ZM506.953 102.312L506.298 101.556L506.953 102.312ZM509.641 96.168L508.656 95.9936L508.655 95.999L509.641 96.168ZM511.816 83.88L512.801 84.0544C512.803 84.0457 512.804 84.037 512.805 84.0283L511.816 83.88ZM506.76 76.392V75.392C506.754 75.392 506.748 75.3921 506.741 75.3922L506.76 76.392ZM498.888 83.88L499.873 84.0544L499.874 84.0513L498.888 83.88ZM496.712 96.168L495.728 95.9936C495.727 95.9991 495.726 96.0045 495.725 96.01L496.712 96.168ZM508.424 67.472C513.455 67.472 517.042 68.5041 519.36 70.3982C521.638 72.2608 522.849 75.0907 522.849 79.08H524.849C524.849 74.664 523.488 71.1898 520.625 68.8498C517.801 66.5412 513.677 65.472 508.424 65.472V67.472ZM522.849 79.08C522.849 80.418 522.707 81.8714 522.417 83.4428L524.384 83.8052C524.692 82.1339 524.849 80.558 524.849 79.08H522.849ZM522.415 83.4516L520.175 96.2516L522.146 96.5964L524.386 83.7964L522.415 83.4516ZM520.175 96.2539C519.177 102.034 517.039 106.181 513.862 108.841L515.147 110.375C518.796 107.318 521.096 102.676 522.146 96.5941L520.175 96.2539ZM513.862 108.841C510.688 111.5 506.147 112.896 500.104 112.896V114.896C506.435 114.896 511.494 113.434 515.147 110.375L513.862 108.841ZM500.104 112.896C494.026 112.896 490.086 111.485 487.938 108.96L486.415 110.256C489.131 113.448 493.81 114.896 500.104 114.896V112.896ZM487.939 108.961C486.474 107.233 485.681 104.781 485.681 101.48H483.681C483.681 105.091 484.551 108.057 486.414 110.255L487.939 108.961ZM485.681 101.48C485.681 100.017 485.843 98.3936 486.176 96.6069L484.209 96.2411C483.859 98.1237 483.681 99.8712 483.681 101.48H485.681ZM486.178 96.5964L488.418 83.7964L486.447 83.4516L484.207 96.2516L486.178 96.5964ZM488.417 83.7967C489.391 78.2468 491.552 74.2022 494.817 71.5344C498.086 68.8633 502.585 67.472 508.424 67.472V65.472C502.275 65.472 497.28 66.9394 493.552 69.9856C489.819 73.0352 487.48 77.5665 486.448 83.4513L488.417 83.7967ZM501.832 104.976C504.142 104.976 506.102 104.372 507.607 103.068L506.298 101.556C505.243 102.47 503.79 102.976 501.832 102.976V104.976ZM507.607 103.068C509.155 101.727 510.103 99.3913 510.626 96.337L508.655 95.999C508.154 98.9181 507.31 100.679 506.298 101.556L507.607 103.068ZM510.625 96.3424L512.801 84.0544L510.832 83.7056L508.656 95.9936L510.625 96.3424ZM512.805 84.0283C512.939 83.1381 513.009 82.3193 513.009 81.576H511.009C511.009 82.1981 510.95 82.9153 510.828 83.7317L512.805 84.0283ZM513.009 81.576C513.009 79.6907 512.53 78.0938 511.399 76.9766C510.271 75.8616 508.661 75.392 506.76 75.392V77.392C508.359 77.392 509.373 77.7864 509.994 78.3994C510.612 79.0102 511.009 80.0053 511.009 81.576H513.009ZM506.741 75.3922C504.35 75.4386 502.337 76.1481 500.807 77.6034C499.291 79.0458 498.353 81.1217 497.903 83.7087L499.874 84.0513C500.277 81.7316 501.078 80.1062 502.186 79.0526C503.28 78.0119 504.776 77.4307 506.78 77.3918L506.741 75.3922ZM497.904 83.7056L495.728 95.9936L497.697 96.3424L499.873 84.0544L497.904 83.7056ZM495.725 96.01C495.546 97.1322 495.457 98.2946 495.457 99.496H497.457C497.457 98.3934 497.538 97.3371 497.7 96.326L495.725 96.01ZM495.457 99.496C495.457 101.196 495.975 102.637 497.16 103.624C498.31 104.583 499.926 104.976 501.832 104.976V102.976C500.155 102.976 499.083 102.623 498.441 102.088C497.834 101.582 497.457 100.782 497.457 99.496H495.457ZM569.677 66.92L570.662 67.0924C570.712 66.8014 570.632 66.5029 570.442 66.2767C570.252 66.0506 569.972 65.92 569.677 65.92V66.92ZM561.612 113V114C562.098 114 562.514 113.651 562.598 113.172L561.612 113ZM550.029 113L549.076 113.305C549.208 113.719 549.594 114 550.029 114V113ZM541.964 87.784L542.917 87.4794C542.777 87.0406 542.355 86.7545 541.895 86.7864C541.436 86.8183 541.057 87.16 540.979 87.6139L541.964 87.784ZM537.612 113V114C538.099 114 538.515 113.65 538.598 113.17L537.612 113ZM526.029 113L525.044 112.826C524.992 113.117 525.072 113.416 525.262 113.643C525.452 113.869 525.733 114 526.029 114V113ZM534.156 66.92V65.92C533.671 65.92 533.256 66.2684 533.172 66.7463L534.156 66.92ZM546.06 66.92L547.008 66.6007C546.871 66.1939 546.49 65.92 546.06 65.92V66.92ZM553.997 90.472L553.049 90.7913C553.195 91.2244 553.616 91.5035 554.072 91.4692C554.527 91.4349 554.902 91.096 554.981 90.6459L553.997 90.472ZM558.156 66.92V65.92C557.671 65.92 557.256 66.2683 557.172 66.7461L558.156 66.92ZM568.691 66.7476L560.628 112.828L562.598 113.172L570.662 67.0924L568.691 66.7476ZM561.612 112H550.029V114H561.612V112ZM550.981 112.695L542.917 87.4794L541.012 88.0886L549.076 113.305L550.981 112.695ZM540.979 87.6139L536.627 112.83L538.598 113.17L542.95 87.9541L540.979 87.6139ZM537.612 112H526.029V114H537.612V112ZM527.013 113.174L535.141 67.0937L533.172 66.7463L525.044 112.826L527.013 113.174ZM534.156 67.92H546.06V65.92H534.156V67.92ZM545.113 67.2393L553.049 90.7913L554.944 90.1527L547.008 66.6007L545.113 67.2393ZM554.981 90.6459L559.141 67.0939L557.172 66.7461L553.012 90.2981L554.981 90.6459ZM558.156 67.92H569.677V65.92H558.156V67.92ZM593.438 96.872L593.963 96.0212L593.438 96.872ZM588.125 94.632L587.846 95.592L587.851 95.5935L588.125 94.632ZM581.917 92.584L581.549 93.5138C581.557 93.5169 581.565 93.5198 581.573 93.5227L581.917 92.584ZM576.669 88.872L575.907 89.5197L575.916 89.5291L576.669 88.872ZM606.557 69.352L605.958 70.152C605.962 70.1557 605.967 70.1594 605.972 70.163L606.557 69.352ZM609.95 80.808L608.991 80.5239C608.988 80.5319 608.986 80.54 608.984 80.548L609.95 80.808ZM608.99 83.176L608.181 82.5878C608.173 82.5988 608.165 82.61 608.157 82.6213L608.99 83.176ZM608.477 83.944V84.944C608.812 84.944 609.124 84.7769 609.31 84.4987L608.477 83.944ZM597.149 83.944L596.427 83.2528C596.15 83.5421 596.073 83.9687 596.23 84.3369C596.387 84.7051 596.749 84.944 597.149 84.944V83.944ZM588.445 83.88L587.938 84.7419L588.445 83.88ZM593.693 85.928L593.451 86.8981C593.459 86.9001 593.467 86.902 593.474 86.9037L593.693 85.928ZM599.966 87.72L599.638 88.6648L599.966 87.72ZM605.278 91.368L604.516 92.0157L604.524 92.0251L605.278 91.368ZM602.589 109.992L603.215 110.772L603.222 110.767L602.589 109.992ZM573.789 110.312L573.091 111.027L573.095 111.031L573.789 110.312ZM571.422 98.984L570.439 98.7997L570.438 98.8051L571.422 98.984ZM571.614 97.96V96.96C571.132 96.96 570.719 97.3027 570.631 97.7757L571.614 97.96ZM583.133 97.96L584.12 98.1244C584.168 97.8344 584.087 97.5379 583.897 97.3136C583.707 97.0893 583.427 96.96 583.133 96.96V97.96ZM583.005 98.728L583.986 98.9241C583.988 98.9136 583.99 98.903 583.992 98.8924L583.005 98.728ZM581.878 99.88C581.878 101.625 582.524 103.06 583.89 104.012C585.19 104.919 587.016 105.296 589.214 105.296V103.296C587.187 103.296 585.845 102.937 585.033 102.372C584.287 101.852 583.878 101.079 583.878 99.88H581.878ZM589.214 105.296C591.418 105.296 593.24 104.96 594.54 104.154C595.92 103.299 596.614 101.974 596.614 100.328H594.614C594.614 101.327 594.24 101.987 593.487 102.454C592.654 102.97 591.276 103.296 589.214 103.296V105.296ZM596.614 100.328C596.614 98.4961 595.636 97.0547 593.963 96.0212L592.912 97.7228C594.14 98.4813 594.614 99.3439 594.614 100.328H596.614ZM593.963 96.0212C592.416 95.0658 590.556 94.2865 588.4 93.6705L587.851 95.5935C589.876 96.1722 591.557 96.8862 592.912 97.7228L593.963 96.0212ZM588.406 93.672C586.38 93.0813 584.333 92.4058 582.262 91.6453L581.573 93.5227C583.684 94.2982 585.775 94.988 587.846 95.592L588.406 93.672ZM582.286 91.6542C580.386 90.9024 578.769 89.7588 577.423 88.2149L575.916 89.5291C577.471 91.3132 579.353 92.6442 581.549 93.5138L582.286 91.6542ZM577.431 88.2243C576.154 86.721 575.494 84.8474 575.494 82.536H573.494C573.494 85.2593 574.284 87.6097 575.908 89.5196L577.431 88.2243ZM575.494 82.536C575.494 77.4123 577.129 73.7224 580.275 71.2776C583.469 68.7956 588.377 67.472 595.166 67.472V65.472C588.173 65.472 582.745 66.8257 579.048 69.6984C575.303 72.6083 573.494 76.9504 573.494 82.536H575.494ZM595.166 67.472C600.099 67.472 603.645 68.4173 605.958 70.152L607.158 68.552C604.35 66.4467 600.301 65.472 595.166 65.472V67.472ZM605.972 70.163C608.299 71.8415 609.461 74.1556 609.461 77.224H611.461C611.461 73.5511 610.021 70.6171 607.143 68.541L605.972 70.163ZM609.461 77.224C609.461 78.368 609.304 79.4669 608.991 80.5239L610.908 81.0921C611.278 79.8451 611.461 78.5546 611.461 77.224H609.461ZM608.984 80.548C608.692 81.6318 608.41 82.273 608.181 82.5878L609.798 83.7642C610.252 83.1403 610.61 82.2028 610.915 81.068L608.984 80.548ZM608.157 82.6213L607.645 83.3893L609.31 84.4987L609.822 83.7307L608.157 82.6213ZM608.477 82.944H597.149V84.944H608.477V82.944ZM597.872 84.6352C599.007 83.4485 599.557 81.9548 599.557 80.232H597.557C597.557 81.4958 597.169 82.4768 596.427 83.2528L597.872 84.6352ZM599.557 80.232C599.557 78.6085 599.013 77.2413 597.805 76.3176C596.648 75.4327 595.03 75.072 593.117 75.072V77.072C594.832 77.072 595.934 77.4046 596.59 77.9064C597.195 78.3693 597.557 79.0821 597.557 80.232H599.557ZM593.117 75.072C590.761 75.072 588.823 75.4406 587.445 76.316C585.991 77.2403 585.27 78.661 585.27 80.424H587.27C587.27 79.2856 587.69 78.5304 588.518 78.004C589.423 77.4288 590.909 77.072 593.117 77.072V75.072ZM585.27 80.424C585.27 82.2917 586.241 83.7431 587.938 84.7419L588.953 83.0181C587.749 82.3102 587.27 81.4576 587.27 80.424H585.27ZM587.938 84.7419C589.49 85.6543 591.333 86.3685 593.451 86.8981L593.936 84.9579C591.958 84.4635 590.303 83.8124 588.953 83.0181L587.938 84.7419ZM593.474 86.9037C595.527 87.3645 597.582 87.9514 599.638 88.6648L600.293 86.7752C598.168 86.0379 596.041 85.4301 593.913 84.9523L593.474 86.9037ZM599.638 88.6648C601.558 89.3308 603.179 90.4432 604.516 92.0156L606.039 90.7204C604.475 88.8794 602.555 87.5598 600.293 86.7752L599.638 88.6648ZM604.524 92.0251C605.783 93.4695 606.453 95.3947 606.453 97.896H608.453C608.453 95.0213 607.673 92.5945 606.031 90.7109L604.524 92.0251ZM606.453 97.896C606.453 103.11 604.902 106.815 601.957 109.217L603.222 110.767C606.762 107.878 608.453 103.519 608.453 97.896H606.453ZM601.964 109.212C598.979 111.608 594.258 112.896 587.614 112.896V114.896C594.451 114.896 599.715 113.582 603.215 110.772L601.964 109.212ZM587.614 112.896C580.914 112.896 576.66 111.693 574.484 109.593L573.095 111.031C575.869 113.71 580.83 114.896 587.614 114.896V112.896ZM574.488 109.597C572.889 108.035 572.037 105.842 572.037 102.888H570.037C570.037 106.248 571.021 109.005 573.091 111.027L574.488 109.597ZM572.037 102.888C572.037 101.764 572.158 100.523 572.405 99.1629L570.438 98.8051C570.173 100.261 570.037 101.623 570.037 102.888H572.037ZM572.404 99.1683L572.596 98.1443L570.631 97.7757L570.439 98.7997L572.404 99.1683ZM571.614 98.96H583.133V96.96H571.614V98.96ZM582.147 97.7956L582.019 98.5636L583.992 98.8924L584.12 98.1244L582.147 97.7956ZM582.025 98.5319C581.93 99.0065 581.878 99.4578 581.878 99.88H583.878C583.878 99.6196 583.91 99.3029 583.986 98.9241L582.025 98.5319Z"
      fill="#3730A3" />
  </g>
  <defs>
    <filter id="filter0_d_475_9062" x="0.216003" y="0.472046" width="620.245" height="131.424"
      filterUnits="userSpaceOnUse" color-interpolation-filters="sRGB">
      <feFlood flood-opacity="0" result="BackgroundImageFix" />
      <feColorMatrix in="SourceAlpha" type="matrix" values="0 0 0 0 0 0 0 0 0 0 0 0 0 0 0 0 0 0 127 0"
        result="hardAlpha" />
      <feOffset dy="8" />
      <feGaussianBlur stdDeviation="5" />
      <feComposite in2="hardAlpha" operator="out" />
      <feColorMatrix type="matrix" values="0 0 0 0 0.352941 0 0 0 0 0.203922 0 0 0 0 0.882353 0 0 0 0.22 0" />
      <feBlend mode="normal" in2="BackgroundImageFix" result="effect1_dropShadow_475_9062" />
      <feBlend mode="normal" in="SourceGraphic" in2="effect1_dropShadow_475_9062" result="shape" />
    </filter>
    <linearGradient id="paint0_linear_475_9062" x1="139" y1="159" x2="507.5" y2="-27.5" gradientUnits="userSpaceOnUse">
      <stop stop-color="#5526DB" />
      <stop offset="0.878371" stop-color="#717FFD" />
    </linearGradient>
  </defs>
</svg>