<svg width="224" height="401" viewBox="0 0 224 401" fill="none" xmlns="http://www.w3.org/2000/svg">
<g filter="url(#filter0_ddd_225_6166)">
<g clip-path="url(#clip0_225_6166)">
<rect x="12.4492" y="6.67676" width="199.301" height="376" rx="8" fill="#3F3F45"/>
<rect opacity="0.7" x="24.4492" y="31.6768" width="55" height="18" rx="4" fill="#27272A"/>
<g clip-path="url(#clip1_225_6166)">
<path fill-rule="evenodd" clip-rule="evenodd" d="M185.75 30.6768C180.225 30.6768 175.75 35.1518 175.75 40.6768C175.75 46.2018 180.225 50.6768 185.75 50.6768C191.275 50.6768 195.75 46.2018 195.75 40.6768C195.75 35.1518 191.275 30.6768 185.75 30.6768ZM187 46.9268H184.5V44.4268H187V46.9268ZM189.413 38.7768C189.238 39.1768 188.975 39.5768 188.638 39.9893L187.312 41.7143C187.163 41.9018 187.013 42.0768 186.963 42.2393C186.913 42.4018 186.85 42.6143 186.85 42.8893V43.1768H184.65V41.7768C184.65 41.7768 184.712 41.1393 184.912 40.8893L186.25 39.0893C186.525 38.7643 186.688 38.4768 186.8 38.2393C186.913 38.0018 186.95 37.7643 186.95 37.5143C186.95 37.1393 186.825 36.8268 186.6 36.5768C186.375 36.3393 186.05 36.2268 185.65 36.2268C185.238 36.2268 184.912 36.3518 184.675 36.5893C184.437 36.8268 184.262 37.1643 184.175 37.6018C184.137 37.7393 184.05 37.7893 183.925 37.7768L181.8 37.4643C181.65 37.4518 181.6 37.3643 181.625 37.2268C181.775 36.2018 182.2 35.3893 182.913 34.8018C183.625 34.2018 184.563 33.9018 185.725 33.9018C186.313 33.9018 186.85 33.9893 187.338 34.1768C187.825 34.3643 188.238 34.6018 188.588 34.9143C188.938 35.2268 189.2 35.6018 189.4 36.0268C189.588 36.4643 189.675 36.9268 189.675 37.4268C189.675 37.9268 189.588 38.3643 189.413 38.7768Z" fill="#27272A"/>
</g>
<rect width="199.301" height="264" transform="translate(12.4492 68.6768)" fill="#262629"/>
<g filter="url(#filter1_di_225_6166)">
<rect width="199.301" height="264" transform="translate(12.4492 68.6768)" fill="#27272A"/>
<g filter="url(#filter2_di_225_6166)">
<mask id="path-4-inside-1_225_6166" fill="white">
<path d="M20.4492 82.6768C20.4492 79.363 23.1355 76.6768 26.4492 76.6768H197.75C201.064 76.6768 203.75 79.363 203.75 82.6768V102.677C203.75 105.99 201.064 108.677 197.75 108.677H26.4492C23.1355 108.677 20.4492 105.99 20.4492 102.677V82.6768Z"/>
</mask>
<path d="M20.4492 82.6768C20.4492 79.363 23.1355 76.6768 26.4492 76.6768H197.75C201.064 76.6768 203.75 79.363 203.75 82.6768V102.677C203.75 105.99 201.064 108.677 197.75 108.677H26.4492C23.1355 108.677 20.4492 105.99 20.4492 102.677V82.6768Z" fill="#3F3F45" shape-rendering="crispEdges"/>
<rect x="26.4492" y="82.6768" width="20" height="20" rx="4" fill="#538369"/>
<rect x="56.4492" y="87.1768" width="40" height="11" rx="4" fill="#717179"/>
<rect x="106.449" y="87.1768" width="12" height="11" rx="4" fill="#717179"/>
<rect x="128.449" y="87.1768" width="32" height="11" rx="4" fill="#717179"/>
<path d="M19.4492 82.6768C19.4492 78.8108 22.5832 75.6768 26.4492 75.6768H197.75C201.616 75.6768 204.75 78.8108 204.75 82.6768H202.75C202.75 79.9153 200.512 77.6768 197.75 77.6768H26.4492C23.6878 77.6768 21.4492 79.9153 21.4492 82.6768H19.4492ZM204.75 102.677C204.75 106.543 201.616 109.677 197.75 109.677H26.4492C22.5832 109.677 19.4492 106.543 19.4492 102.677H21.4492C21.4492 105.438 23.6878 107.677 26.4492 107.677H197.75C200.512 107.677 202.75 105.438 202.75 102.677H204.75ZM26.4492 109.677C22.5832 109.677 19.4492 106.543 19.4492 102.677V82.6768C19.4492 78.8108 22.5832 75.6768 26.4492 75.6768V77.6768C23.6878 77.6768 21.4492 79.9153 21.4492 82.6768V102.677C21.4492 105.438 23.6878 107.677 26.4492 107.677V109.677ZM197.75 75.6768C201.616 75.6768 204.75 78.8108 204.75 82.6768V102.677C204.75 106.543 201.616 109.677 197.75 109.677V107.677C200.512 107.677 202.75 105.438 202.75 102.677V82.6768C202.75 79.9153 200.512 77.6768 197.75 77.6768V75.6768Z" fill="#27272A" mask="url(#path-4-inside-1_225_6166)"/>
</g>
<g filter="url(#filter3_di_225_6166)">
<mask id="path-10-inside-2_225_6166" fill="white">
<path d="M20.4492 118.677C20.4492 115.363 23.1355 112.677 26.4492 112.677H197.75C201.064 112.677 203.75 115.363 203.75 118.677V138.677C203.75 141.99 201.064 144.677 197.75 144.677H26.4492C23.1355 144.677 20.4492 141.99 20.4492 138.677V118.677Z"/>
</mask>
<path d="M20.4492 118.677C20.4492 115.363 23.1355 112.677 26.4492 112.677H197.75C201.064 112.677 203.75 115.363 203.75 118.677V138.677C203.75 141.99 201.064 144.677 197.75 144.677H26.4492C23.1355 144.677 20.4492 141.99 20.4492 138.677V118.677Z" fill="#3F3F45" shape-rendering="crispEdges"/>
<rect x="26.4492" y="118.677" width="20" height="20" rx="4" fill="#538369"/>
<rect x="56.4492" y="123.177" width="60" height="11" rx="4" fill="#717179"/>
<path d="M19.4492 118.677C19.4492 114.811 22.5832 111.677 26.4492 111.677H197.75C201.616 111.677 204.75 114.811 204.75 118.677H202.75C202.75 115.915 200.512 113.677 197.75 113.677H26.4492C23.6878 113.677 21.4492 115.915 21.4492 118.677H19.4492ZM204.75 138.677C204.75 142.543 201.616 145.677 197.75 145.677H26.4492C22.5832 145.677 19.4492 142.543 19.4492 138.677H21.4492C21.4492 141.438 23.6878 143.677 26.4492 143.677H197.75C200.512 143.677 202.75 141.438 202.75 138.677H204.75ZM26.4492 145.677C22.5832 145.677 19.4492 142.543 19.4492 138.677V118.677C19.4492 114.811 22.5832 111.677 26.4492 111.677V113.677C23.6878 113.677 21.4492 115.915 21.4492 118.677V138.677C21.4492 141.438 23.6878 143.677 26.4492 143.677V145.677ZM197.75 111.677C201.616 111.677 204.75 114.811 204.75 118.677V138.677C204.75 142.543 201.616 145.677 197.75 145.677V143.677C200.512 143.677 202.75 141.438 202.75 138.677V118.677C202.75 115.915 200.512 113.677 197.75 113.677V111.677Z" fill="#27272A" mask="url(#path-10-inside-2_225_6166)"/>
</g>
<g filter="url(#filter4_di_225_6166)">
<mask id="path-14-inside-3_225_6166" fill="white">
<path d="M20.4492 154.677C20.4492 151.363 23.1355 148.677 26.4492 148.677H197.75C201.064 148.677 203.75 151.363 203.75 154.677V174.677C203.75 177.99 201.064 180.677 197.75 180.677H26.4492C23.1355 180.677 20.4492 177.99 20.4492 174.677V154.677Z"/>
</mask>
<path d="M20.4492 154.677C20.4492 151.363 23.1355 148.677 26.4492 148.677H197.75C201.064 148.677 203.75 151.363 203.75 154.677V174.677C203.75 177.99 201.064 180.677 197.75 180.677H26.4492C23.1355 180.677 20.4492 177.99 20.4492 174.677V154.677Z" fill="#3F3F45" shape-rendering="crispEdges"/>
<rect x="26.4492" y="154.677" width="20" height="20" rx="4" fill="#8D7AEB"/>
<rect x="56.4492" y="159.177" width="60" height="11" rx="4" fill="#717179"/>
<path d="M19.4492 154.677C19.4492 150.811 22.5832 147.677 26.4492 147.677H197.75C201.616 147.677 204.75 150.811 204.75 154.677H202.75C202.75 151.915 200.512 149.677 197.75 149.677H26.4492C23.6878 149.677 21.4492 151.915 21.4492 154.677H19.4492ZM204.75 174.677C204.75 178.543 201.616 181.677 197.75 181.677H26.4492C22.5832 181.677 19.4492 178.543 19.4492 174.677H21.4492C21.4492 177.438 23.6878 179.677 26.4492 179.677H197.75C200.512 179.677 202.75 177.438 202.75 174.677H204.75ZM26.4492 181.677C22.5832 181.677 19.4492 178.543 19.4492 174.677V154.677C19.4492 150.811 22.5832 147.677 26.4492 147.677V149.677C23.6878 149.677 21.4492 151.915 21.4492 154.677V174.677C21.4492 177.438 23.6878 179.677 26.4492 179.677V181.677ZM197.75 147.677C201.616 147.677 204.75 150.811 204.75 154.677V174.677C204.75 178.543 201.616 181.677 197.75 181.677V179.677C200.512 179.677 202.75 177.438 202.75 174.677V154.677C202.75 151.915 200.512 149.677 197.75 149.677V147.677Z" fill="#27272A" mask="url(#path-14-inside-3_225_6166)"/>
</g>
<path d="M24.4492 200.677H48.5998" stroke="#3F3F45"/>
<rect x="56.5996" y="195.177" width="111" height="11" rx="4" fill="#3F3F45"/>
<path d="M175.6 200.677H199.75" stroke="#3F3F45"/>
<g filter="url(#filter5_di_225_6166)">
<mask id="path-21-inside-4_225_6166" fill="white">
<path d="M20.4492 226.677C20.4492 223.363 23.1355 220.677 26.4492 220.677H197.75C201.064 220.677 203.75 223.363 203.75 226.677V246.677C203.75 249.99 201.064 252.677 197.75 252.677H26.4492C23.1355 252.677 20.4492 249.99 20.4492 246.677V226.677Z"/>
</mask>
<path d="M20.4492 226.677C20.4492 223.363 23.1355 220.677 26.4492 220.677H197.75C201.064 220.677 203.75 223.363 203.75 226.677V246.677C203.75 249.99 201.064 252.677 197.75 252.677H26.4492C23.1355 252.677 20.4492 249.99 20.4492 246.677V226.677Z" fill="#3F3F45" shape-rendering="crispEdges"/>
<rect x="26.4492" y="226.677" width="20" height="20" rx="4" fill="#3B5CA2"/>
<rect x="56.4492" y="231.177" width="18" height="11" rx="4" fill="#717179"/>
<rect x="84.4492" y="231.177" width="37" height="11" rx="4" fill="#717179"/>
<path d="M19.4492 226.677C19.4492 222.811 22.5832 219.677 26.4492 219.677H197.75C201.616 219.677 204.75 222.811 204.75 226.677H202.75C202.75 223.915 200.512 221.677 197.75 221.677H26.4492C23.6878 221.677 21.4492 223.915 21.4492 226.677H19.4492ZM204.75 246.677C204.75 250.543 201.616 253.677 197.75 253.677H26.4492C22.5832 253.677 19.4492 250.543 19.4492 246.677H21.4492C21.4492 249.438 23.6878 251.677 26.4492 251.677H197.75C200.512 251.677 202.75 249.438 202.75 246.677H204.75ZM26.4492 253.677C22.5832 253.677 19.4492 250.543 19.4492 246.677V226.677C19.4492 222.811 22.5832 219.677 26.4492 219.677V221.677C23.6878 221.677 21.4492 223.915 21.4492 226.677V246.677C21.4492 249.438 23.6878 251.677 26.4492 251.677V253.677ZM197.75 219.677C201.616 219.677 204.75 222.811 204.75 226.677V246.677C204.75 250.543 201.616 253.677 197.75 253.677V251.677C200.512 251.677 202.75 249.438 202.75 246.677V226.677C202.75 223.915 200.512 221.677 197.75 221.677V219.677Z" fill="#27272A" mask="url(#path-21-inside-4_225_6166)"/>
</g>
<g filter="url(#filter6_di_225_6166)">
<mask id="path-26-inside-5_225_6166" fill="white">
<path d="M20.4492 262.677C20.4492 259.363 23.1355 256.677 26.4492 256.677H197.75C201.064 256.677 203.75 259.363 203.75 262.677V282.677C203.75 285.99 201.064 288.677 197.75 288.677H26.4492C23.1355 288.677 20.4492 285.99 20.4492 282.677V262.677Z"/>
</mask>
<path d="M20.4492 262.677C20.4492 259.363 23.1355 256.677 26.4492 256.677H197.75C201.064 256.677 203.75 259.363 203.75 262.677V282.677C203.75 285.99 201.064 288.677 197.75 288.677H26.4492C23.1355 288.677 20.4492 285.99 20.4492 282.677V262.677Z" fill="#3F3F45" shape-rendering="crispEdges"/>
<rect x="26.4492" y="262.677" width="20" height="20" rx="4" fill="#E6A159"/>
<rect x="56.4492" y="267.177" width="18" height="11" rx="4" fill="#717179"/>
<rect x="84.4492" y="267.177" width="37" height="11" rx="4" fill="#717179"/>
<path d="M19.4492 262.677C19.4492 258.811 22.5832 255.677 26.4492 255.677H197.75C201.616 255.677 204.75 258.811 204.75 262.677H202.75C202.75 259.915 200.512 257.677 197.75 257.677H26.4492C23.6878 257.677 21.4492 259.915 21.4492 262.677H19.4492ZM204.75 282.677C204.75 286.543 201.616 289.677 197.75 289.677H26.4492C22.5832 289.677 19.4492 286.543 19.4492 282.677H21.4492C21.4492 285.438 23.6878 287.677 26.4492 287.677H197.75C200.512 287.677 202.75 285.438 202.75 282.677H204.75ZM26.4492 289.677C22.5832 289.677 19.4492 286.543 19.4492 282.677V262.677C19.4492 258.811 22.5832 255.677 26.4492 255.677V257.677C23.6878 257.677 21.4492 259.915 21.4492 262.677V282.677C21.4492 285.438 23.6878 287.677 26.4492 287.677V289.677ZM197.75 255.677C201.616 255.677 204.75 258.811 204.75 262.677V282.677C204.75 286.543 201.616 289.677 197.75 289.677V287.677C200.512 287.677 202.75 285.438 202.75 282.677V262.677C202.75 259.915 200.512 257.677 197.75 257.677V255.677Z" fill="#27272A" mask="url(#path-26-inside-5_225_6166)"/>
</g>
<g filter="url(#filter7_di_225_6166)">
<mask id="path-31-inside-6_225_6166" fill="white">
<path d="M20.4492 298.677C20.4492 295.363 23.1355 292.677 26.4492 292.677H197.75C201.064 292.677 203.75 295.363 203.75 298.677V318.677C203.75 321.99 201.064 324.677 197.75 324.677H26.4492C23.1355 324.677 20.4492 321.99 20.4492 318.677V298.677Z"/>
</mask>
<path d="M20.4492 298.677C20.4492 295.363 23.1355 292.677 26.4492 292.677H197.75C201.064 292.677 203.75 295.363 203.75 298.677V318.677C203.75 321.99 201.064 324.677 197.75 324.677H26.4492C23.1355 324.677 20.4492 321.99 20.4492 318.677V298.677Z" fill="#3F3F45" shape-rendering="crispEdges"/>
<rect x="26.4492" y="298.677" width="20" height="20" rx="4" fill="#538369"/>
<rect x="56.4492" y="303.177" width="37" height="11" rx="4" fill="#717179"/>
<rect x="103.449" y="303.177" width="78" height="11" rx="4" fill="#717179"/>
<path d="M19.4492 298.677C19.4492 294.811 22.5832 291.677 26.4492 291.677H197.75C201.616 291.677 204.75 294.811 204.75 298.677H202.75C202.75 295.915 200.512 293.677 197.75 293.677H26.4492C23.6878 293.677 21.4492 295.915 21.4492 298.677H19.4492ZM204.75 318.677C204.75 322.543 201.616 325.677 197.75 325.677H26.4492C22.5832 325.677 19.4492 322.543 19.4492 318.677H21.4492C21.4492 321.438 23.6878 323.677 26.4492 323.677H197.75C200.512 323.677 202.75 321.438 202.75 318.677H204.75ZM26.4492 325.677C22.5832 325.677 19.4492 322.543 19.4492 318.677V298.677C19.4492 294.811 22.5832 291.677 26.4492 291.677V293.677C23.6878 293.677 21.4492 295.915 21.4492 298.677V318.677C21.4492 321.438 23.6878 323.677 26.4492 323.677V325.677ZM197.75 291.677C201.616 291.677 204.75 294.811 204.75 298.677V318.677C204.75 322.543 201.616 325.677 197.75 325.677V323.677C200.512 323.677 202.75 321.438 202.75 318.677V298.677C202.75 295.915 200.512 293.677 197.75 293.677V291.677Z" fill="#27272A" mask="url(#path-31-inside-6_225_6166)"/>
</g>
</g>
<g filter="url(#filter8_d_225_6166)">
<path d="M20.4492 348.677C20.4492 345.363 23.1355 342.677 26.4492 342.677H197.75C201.064 342.677 203.75 345.363 203.75 348.677V368.677C203.75 371.99 201.064 374.677 197.75 374.677H26.4492C23.1355 374.677 20.4492 371.99 20.4492 368.677V348.677Z" fill="#27272A" shape-rendering="crispEdges"/>
<rect x="28.4492" y="353.177" width="53" height="11" rx="4" fill="#717179"/>
</g>
</g>
</g>
<circle cx="212.166" cy="357.177" r="3" fill="#717179" stroke="#27272A"/>
<circle cx="11.5" cy="41.5" r="3" fill="#717179" stroke="#27272A"/>
<defs>
<filter id="filter0_ddd_225_6166" x="0.449219" y="0.676758" width="223.301" height="400" filterUnits="userSpaceOnUse" color-interpolation-filters="sRGB">
<feFlood flood-opacity="0" result="BackgroundImageFix"/>
<feColorMatrix in="SourceAlpha" type="matrix" values="0 0 0 0 0 0 0 0 0 0 0 0 0 0 0 0 0 0 127 0" result="hardAlpha"/>
<feOffset dy="6"/>
<feGaussianBlur stdDeviation="6"/>
<feColorMatrix type="matrix" values="0 0 0 0 0.129412 0 0 0 0 0.145098 0 0 0 0 0.160784 0 0 0 0.08 0"/>
<feBlend mode="normal" in2="BackgroundImageFix" result="effect1_dropShadow_225_6166"/>
<feColorMatrix in="SourceAlpha" type="matrix" values="0 0 0 0 0 0 0 0 0 0 0 0 0 0 0 0 0 0 127 0" result="hardAlpha"/>
<feOffset dy="1"/>
<feGaussianBlur stdDeviation="1"/>
<feColorMatrix type="matrix" values="0 0 0 0 0.129412 0 0 0 0 0.145098 0 0 0 0 0.160784 0 0 0 0.12 0"/>
<feBlend mode="normal" in2="effect1_dropShadow_225_6166" result="effect2_dropShadow_225_6166"/>
<feColorMatrix in="SourceAlpha" type="matrix" values="0 0 0 0 0 0 0 0 0 0 0 0 0 0 0 0 0 0 127 0" result="hardAlpha"/>
<feOffset dy="1"/>
<feComposite in2="hardAlpha" operator="out"/>
<feColorMatrix type="matrix" values="0 0 0 0 0.152941 0 0 0 0 0.152941 0 0 0 0 0.164706 0 0 0 1 0"/>
<feBlend mode="normal" in2="effect2_dropShadow_225_6166" result="effect3_dropShadow_225_6166"/>
<feBlend mode="normal" in="SourceGraphic" in2="effect3_dropShadow_225_6166" result="shape"/>
</filter>
<filter id="filter1_di_225_6166" x="10.4492" y="66.6768" width="203.301" height="268" filterUnits="userSpaceOnUse" color-interpolation-filters="sRGB">
<feFlood flood-opacity="0" result="BackgroundImageFix"/>
<feColorMatrix in="SourceAlpha" type="matrix" values="0 0 0 0 0 0 0 0 0 0 0 0 0 0 0 0 0 0 127 0" result="hardAlpha"/>
<feOffset/>
<feGaussianBlur stdDeviation="1"/>
<feComposite in2="hardAlpha" operator="out"/>
<feColorMatrix type="matrix" values="0 0 0 0 0 0 0 0 0 0 0 0 0 0 0 0 0 0 0.25 0"/>
<feBlend mode="normal" in2="BackgroundImageFix" result="effect1_dropShadow_225_6166"/>
<feBlend mode="normal" in="SourceGraphic" in2="effect1_dropShadow_225_6166" result="shape"/>
<feColorMatrix in="SourceAlpha" type="matrix" values="0 0 0 0 0 0 0 0 0 0 0 0 0 0 0 0 0 0 127 0" result="hardAlpha"/>
<feOffset dy="2"/>
<feGaussianBlur stdDeviation="1"/>
<feComposite in2="hardAlpha" operator="arithmetic" k2="-1" k3="1"/>
<feColorMatrix type="matrix" values="0 0 0 0 0.0941176 0 0 0 0 0.0941176 0 0 0 0 0.105882 0 0 0 1 0"/>
<feBlend mode="normal" in2="shape" result="effect2_innerShadow_225_6166"/>
</filter>
<filter id="filter2_di_225_6166" x="19.4492" y="76.6768" width="185.301" height="34" filterUnits="userSpaceOnUse" color-interpolation-filters="sRGB">
<feFlood flood-opacity="0" result="BackgroundImageFix"/>
<feColorMatrix in="SourceAlpha" type="matrix" values="0 0 0 0 0 0 0 0 0 0 0 0 0 0 0 0 0 0 127 0" result="hardAlpha"/>
<feOffset dy="1"/>
<feGaussianBlur stdDeviation="0.5"/>
<feComposite in2="hardAlpha" operator="out"/>
<feColorMatrix type="matrix" values="0 0 0 0 0.0941176 0 0 0 0 0.0941176 0 0 0 0 0.105882 0 0 0 1 0"/>
<feBlend mode="normal" in2="BackgroundImageFix" result="effect1_dropShadow_225_6166"/>
<feBlend mode="normal" in="SourceGraphic" in2="effect1_dropShadow_225_6166" result="shape"/>
<feColorMatrix in="SourceAlpha" type="matrix" values="0 0 0 0 0 0 0 0 0 0 0 0 0 0 0 0 0 0 127 0" result="hardAlpha"/>
<feOffset/>
<feGaussianBlur stdDeviation="0.5"/>
<feComposite in2="hardAlpha" operator="arithmetic" k2="-1" k3="1"/>
<feColorMatrix type="matrix" values="0 0 0 0 0 0 0 0 0 0 0 0 0 0 0 0 0 0 0.25 0"/>
<feBlend mode="normal" in2="shape" result="effect2_innerShadow_225_6166"/>
</filter>
<filter id="filter3_di_225_6166" x="19.4492" y="112.677" width="185.301" height="34" filterUnits="userSpaceOnUse" color-interpolation-filters="sRGB">
<feFlood flood-opacity="0" result="BackgroundImageFix"/>
<feColorMatrix in="SourceAlpha" type="matrix" values="0 0 0 0 0 0 0 0 0 0 0 0 0 0 0 0 0 0 127 0" result="hardAlpha"/>
<feOffset dy="1"/>
<feGaussianBlur stdDeviation="0.5"/>
<feComposite in2="hardAlpha" operator="out"/>
<feColorMatrix type="matrix" values="0 0 0 0 0.0941176 0 0 0 0 0.0941176 0 0 0 0 0.105882 0 0 0 1 0"/>
<feBlend mode="normal" in2="BackgroundImageFix" result="effect1_dropShadow_225_6166"/>
<feBlend mode="normal" in="SourceGraphic" in2="effect1_dropShadow_225_6166" result="shape"/>
<feColorMatrix in="SourceAlpha" type="matrix" values="0 0 0 0 0 0 0 0 0 0 0 0 0 0 0 0 0 0 127 0" result="hardAlpha"/>
<feOffset/>
<feGaussianBlur stdDeviation="0.5"/>
<feComposite in2="hardAlpha" operator="arithmetic" k2="-1" k3="1"/>
<feColorMatrix type="matrix" values="0 0 0 0 0 0 0 0 0 0 0 0 0 0 0 0 0 0 0.25 0"/>
<feBlend mode="normal" in2="shape" result="effect2_innerShadow_225_6166"/>
</filter>
<filter id="filter4_di_225_6166" x="19.4492" y="148.677" width="185.301" height="34" filterUnits="userSpaceOnUse" color-interpolation-filters="sRGB">
<feFlood flood-opacity="0" result="BackgroundImageFix"/>
<feColorMatrix in="SourceAlpha" type="matrix" values="0 0 0 0 0 0 0 0 0 0 0 0 0 0 0 0 0 0 127 0" result="hardAlpha"/>
<feOffset dy="1"/>
<feGaussianBlur stdDeviation="0.5"/>
<feComposite in2="hardAlpha" operator="out"/>
<feColorMatrix type="matrix" values="0 0 0 0 0.0941176 0 0 0 0 0.0941176 0 0 0 0 0.105882 0 0 0 1 0"/>
<feBlend mode="normal" in2="BackgroundImageFix" result="effect1_dropShadow_225_6166"/>
<feBlend mode="normal" in="SourceGraphic" in2="effect1_dropShadow_225_6166" result="shape"/>
<feColorMatrix in="SourceAlpha" type="matrix" values="0 0 0 0 0 0 0 0 0 0 0 0 0 0 0 0 0 0 127 0" result="hardAlpha"/>
<feOffset/>
<feGaussianBlur stdDeviation="0.5"/>
<feComposite in2="hardAlpha" operator="arithmetic" k2="-1" k3="1"/>
<feColorMatrix type="matrix" values="0 0 0 0 0 0 0 0 0 0 0 0 0 0 0 0 0 0 0.25 0"/>
<feBlend mode="normal" in2="shape" result="effect2_innerShadow_225_6166"/>
</filter>
<filter id="filter5_di_225_6166" x="19.4492" y="220.677" width="185.301" height="34" filterUnits="userSpaceOnUse" color-interpolation-filters="sRGB">
<feFlood flood-opacity="0" result="BackgroundImageFix"/>
<feColorMatrix in="SourceAlpha" type="matrix" values="0 0 0 0 0 0 0 0 0 0 0 0 0 0 0 0 0 0 127 0" result="hardAlpha"/>
<feOffset dy="1"/>
<feGaussianBlur stdDeviation="0.5"/>
<feComposite in2="hardAlpha" operator="out"/>
<feColorMatrix type="matrix" values="0 0 0 0 0.0941176 0 0 0 0 0.0941176 0 0 0 0 0.105882 0 0 0 1 0"/>
<feBlend mode="normal" in2="BackgroundImageFix" result="effect1_dropShadow_225_6166"/>
<feBlend mode="normal" in="SourceGraphic" in2="effect1_dropShadow_225_6166" result="shape"/>
<feColorMatrix in="SourceAlpha" type="matrix" values="0 0 0 0 0 0 0 0 0 0 0 0 0 0 0 0 0 0 127 0" result="hardAlpha"/>
<feOffset/>
<feGaussianBlur stdDeviation="0.5"/>
<feComposite in2="hardAlpha" operator="arithmetic" k2="-1" k3="1"/>
<feColorMatrix type="matrix" values="0 0 0 0 0 0 0 0 0 0 0 0 0 0 0 0 0 0 0.25 0"/>
<feBlend mode="normal" in2="shape" result="effect2_innerShadow_225_6166"/>
</filter>
<filter id="filter6_di_225_6166" x="19.4492" y="256.677" width="185.301" height="34" filterUnits="userSpaceOnUse" color-interpolation-filters="sRGB">
<feFlood flood-opacity="0" result="BackgroundImageFix"/>
<feColorMatrix in="SourceAlpha" type="matrix" values="0 0 0 0 0 0 0 0 0 0 0 0 0 0 0 0 0 0 127 0" result="hardAlpha"/>
<feOffset dy="1"/>
<feGaussianBlur stdDeviation="0.5"/>
<feComposite in2="hardAlpha" operator="out"/>
<feColorMatrix type="matrix" values="0 0 0 0 0.0941176 0 0 0 0 0.0941176 0 0 0 0 0.105882 0 0 0 1 0"/>
<feBlend mode="normal" in2="BackgroundImageFix" result="effect1_dropShadow_225_6166"/>
<feBlend mode="normal" in="SourceGraphic" in2="effect1_dropShadow_225_6166" result="shape"/>
<feColorMatrix in="SourceAlpha" type="matrix" values="0 0 0 0 0 0 0 0 0 0 0 0 0 0 0 0 0 0 127 0" result="hardAlpha"/>
<feOffset/>
<feGaussianBlur stdDeviation="0.5"/>
<feComposite in2="hardAlpha" operator="arithmetic" k2="-1" k3="1"/>
<feColorMatrix type="matrix" values="0 0 0 0 0 0 0 0 0 0 0 0 0 0 0 0 0 0 0.25 0"/>
<feBlend mode="normal" in2="shape" result="effect2_innerShadow_225_6166"/>
</filter>
<filter id="filter7_di_225_6166" x="19.4492" y="292.677" width="185.301" height="34" filterUnits="userSpaceOnUse" color-interpolation-filters="sRGB">
<feFlood flood-opacity="0" result="BackgroundImageFix"/>
<feColorMatrix in="SourceAlpha" type="matrix" values="0 0 0 0 0 0 0 0 0 0 0 0 0 0 0 0 0 0 127 0" result="hardAlpha"/>
<feOffset dy="1"/>
<feGaussianBlur stdDeviation="0.5"/>
<feComposite in2="hardAlpha" operator="out"/>
<feColorMatrix type="matrix" values="0 0 0 0 0.0941176 0 0 0 0 0.0941176 0 0 0 0 0.105882 0 0 0 1 0"/>
<feBlend mode="normal" in2="BackgroundImageFix" result="effect1_dropShadow_225_6166"/>
<feBlend mode="normal" in="SourceGraphic" in2="effect1_dropShadow_225_6166" result="shape"/>
<feColorMatrix in="SourceAlpha" type="matrix" values="0 0 0 0 0 0 0 0 0 0 0 0 0 0 0 0 0 0 127 0" result="hardAlpha"/>
<feOffset/>
<feGaussianBlur stdDeviation="0.5"/>
<feComposite in2="hardAlpha" operator="arithmetic" k2="-1" k3="1"/>
<feColorMatrix type="matrix" values="0 0 0 0 0 0 0 0 0 0 0 0 0 0 0 0 0 0 0.25 0"/>
<feBlend mode="normal" in2="shape" result="effect2_innerShadow_225_6166"/>
</filter>
<filter id="filter8_d_225_6166" x="19.4492" y="341.677" width="185.301" height="34" filterUnits="userSpaceOnUse" color-interpolation-filters="sRGB">
<feFlood flood-opacity="0" result="BackgroundImageFix"/>
<feColorMatrix in="SourceAlpha" type="matrix" values="0 0 0 0 0 0 0 0 0 0 0 0 0 0 0 0 0 0 127 0" result="hardAlpha"/>
<feOffset/>
<feGaussianBlur stdDeviation="0.5"/>
<feComposite in2="hardAlpha" operator="out"/>
<feColorMatrix type="matrix" values="0 0 0 0 0 0 0 0 0 0 0 0 0 0 0 0 0 0 0.35 0"/>
<feBlend mode="normal" in2="BackgroundImageFix" result="effect1_dropShadow_225_6166"/>
<feBlend mode="normal" in="SourceGraphic" in2="effect1_dropShadow_225_6166" result="shape"/>
</filter>
<clipPath id="clip0_225_6166">
<rect x="12.4492" y="6.67676" width="199.301" height="376" rx="8" fill="white"/>
</clipPath>
<clipPath id="clip1_225_6166">
<rect width="20" height="20" fill="white" transform="translate(175.75 30.6768)"/>
</clipPath>
</defs>
</svg>
