<?xml version="1.0" encoding="UTF-8"?><svg id="Layer_2" xmlns="http://www.w3.org/2000/svg" viewBox="0 0 160.37 49.86">
  <defs>
    <style>
      .cls-1 {
        fill: #231f20;
      }
    </style>
  </defs>
  <g id="Layer_1-2">
    <path class="cls-1"
      d="M40.65,9.43l-5.45,5.61L26.92,0,13.24,25.12l-4.25-2.56L0,49.86l10.26-.02s.01-.01,.01-.01c0-.03,.93-1.29,1.28-1.84-.36,.08-.78,.17-1.08,.24,0-.05,.96-1.76,1.44-2.64-.36,.09-.65,.17-1.01,.26,.81-1.41,1.58-2.75,2.37-4.13,.09,.13,.13,.2,.18,.27,.52,.91,1.04,1.81,1.55,2.72,.2,.35,.38,.71,.57,1.07-.29-.05-.57-.1-.91-.16,.48,.89,.93,1.73,1.41,2.61-.18-.03-.5-.1-.66-.12l-.14-.02,.08,.12c.05,.1,.11,.21,.16,.31l.62,1.31h1.75c.1-.11,.2-.27,.36-.54,.34-.57,.69-1.13,1.04-1.69,.05-.07,.56-.72,.78-1.07-.62,.16-1.15,.3-1.76,.45,.8-1.46,1.56-2.87,2.37-4.34-.59,.16-1.1,.29-1.67,.44,1.3-2.27,2.57-4.47,3.89-6.77,1.31,2.28,2.59,4.49,3.91,6.77-.59-.15-1.09-.29-1.68-.44,.8,1.47,1.57,2.88,2.36,4.34-.6-.15-1.13-.29-1.76-.45,.2,.31,.36,.56,.51,.8l.06,.09s.04,.05,.06,.08h-.01l1.44,2.3h1.82c.06-.07,.61-1.05,.74-1.33,.04-.08,.08-.16,.15-.31l-.77,.15,1.41-2.68c-.34,.05-.63,.1-.91,.15,.03-.09,2.24-3.96,2.31-4.02,.78,1.36,1.55,2.69,2.36,4.09-.37-.09-.66-.17-1.02-.26,.48,.89,1.32,2.56,1.32,2.61-.3-.06-.59-.13-.95-.21,.4,.64,.76,1.22,1.13,1.8l18.74-.04L40.65,9.43Z" />
    <g>
      <path class="cls-1"
        d="M61.55,25.1V9.57h4.98c1.11,0,1.93,.06,2.48,.19,1.76,.4,3.23,1.76,3.23,3.86,0,1.32-.63,2.5-1.81,3.15,1.7,.59,2.56,1.83,2.56,3.61,0,1.49-.63,2.86-1.81,3.67-1.22,.86-2.02,1.05-4.47,1.05h-5.17Zm5.38-9.64c.99,0,1.51-.42,1.51-1.24s-.5-1.18-1.49-1.18h-1.6v2.41h1.57Zm.46,6.15c1.11,0,1.81-.48,1.81-1.49,0-.9-.61-1.34-1.78-1.34h-2.06v2.83h2.04Z" />
      <path class="cls-1" d="M75.13,25.1V9.57h3.97v15.54h-3.97Z" />
      <path class="cls-1"
        d="M97.79,17.15c0,4.18-3.07,8.27-8.29,8.27-4.6,0-8.25-3.59-8.25-8.15s3.8-8,8.31-8c3.51,0,6.89,2.37,7.77,5.5h-4.45c-.73-1.28-1.93-2.02-3.42-2.02-2.5,0-4.24,2.02-4.24,4.51s1.64,4.66,4.26,4.66c1.85,0,3.23-.9,3.72-2.5h-4.64v-3.17h9.24v.88Z" />
      <path class="cls-1" d="M108.9,25.1v-6.22h-5.08v6.22h-3.97V9.57h3.97v5.84h5.08v-5.84h3.97v15.54h-3.97Z" />
      <path class="cls-1"
        d="M115.01,17.69c0-4.81,3.46-8.42,8.19-8.42s8.21,3.51,8.21,7.96-3.57,8.17-8.02,8.17-8.38-3.11-8.38-7.71Zm12.43-.34c0-2.44-1.74-4.6-4.24-4.6s-4.22,2.08-4.22,4.54,1.74,4.62,4.28,4.62,4.18-2.08,4.18-4.56Z" />
      <path class="cls-1"
        d="M140.99,25.1l-3.59-5.02h-.04v5.02h-3.8V9.57h5.08c1.62,0,2.86,.21,3.67,.57,1.68,.76,2.86,2.58,2.86,4.79,0,2.46-1.47,4.47-3.86,4.89l4.22,5.29h-4.54Zm-2.16-7.73c1.57,0,2.54-.73,2.54-2.23,0-1.34-1.01-2.1-2.5-2.1h-1.51v4.33h1.47Z" />
      <path class="cls-1" d="M156.92,25.1l-5.96-9.49,.1,9.49h-3.8V9.57h3.42l6.05,9.83-.17-9.83h3.8v15.54h-3.44Z" />
      <path class="cls-1"
        d="M61.34,49.1v-15.54h5.29c1.93,0,3.46,.34,4.56,.94,2.2,1.26,3.59,3.65,3.59,6.82,0,5.12-3.02,7.77-7.87,7.77h-5.56Zm5.75-3.49c2.29,0,3.72-1.43,3.72-4.26s-1.41-4.3-3.7-4.3h-1.81v8.57h1.78Z" />
      <path class="cls-1" d="M77.13,49.1v-15.54h8.63v3.48h-4.83v2.42h4.68v3.49h-4.68v2.67h4.83v3.49h-8.63Z" />
      <path class="cls-1"
        d="M94.3,38.1c-.17-1.11-.63-1.51-1.41-1.51-.73,0-1.36,.52-1.36,1.22,0,.92,.84,1.34,2.54,2.08,3.42,1.47,4.28,2.71,4.28,4.75,0,3-2.06,4.77-5.42,4.77s-5.61-1.76-5.61-5.1v-.34h3.95c.02,1.28,.65,2.12,1.64,2.12,.82,0,1.49-.65,1.49-1.49,0-1.24-1.72-1.78-3.13-2.35-2.54-1.03-3.7-2.37-3.7-4.39,0-2.65,2.56-4.58,5.42-4.58,1.03,0,1.93,.23,2.75,.65,1.66,.86,2.46,2.1,2.48,4.18h-3.93Z" />
      <path class="cls-1" d="M100.25,49.1v-15.54h3.97v15.54h-3.97Z" />
      <path class="cls-1"
        d="M122.9,41.15c0,4.18-3.07,8.27-8.29,8.27-4.6,0-8.25-3.59-8.25-8.15s3.8-8,8.31-8c3.51,0,6.89,2.37,7.77,5.5h-4.45c-.73-1.28-1.93-2.02-3.42-2.02-2.5,0-4.24,2.02-4.24,4.51s1.64,4.66,4.26,4.66c1.85,0,3.23-.9,3.72-2.5h-4.64v-3.17h9.24v.88Z" />
      <path class="cls-1" d="M134.62,49.1l-5.96-9.49,.1,9.49h-3.8v-15.54h3.42l6.05,9.83-.17-9.83h3.8v15.54h-3.44Z" />
    </g>
  </g>
</svg>