<svg width="53" height="50" viewBox="0 0 53 50" fill="none" xmlns="http://www.w3.org/2000/svg">
<g clip-path="url(#clip0_1302_945)">
<path d="M19.69 29.1702L0.369995 48.0302L12.72 24.9502L19.69 29.1702Z" fill="black"/>
<path d="M12.3 24.6899L0.52002 46.6799L8.52002 22.4199L12.3 24.6899Z" fill="black"/>
<path d="M34.28 14.48L26.24 22.57L20.11 28.75L12.96 24.51L26.31 0L34.28 14.48Z" fill="black"/>
<path d="M52.84 48.5402L20.55 29.0202L34.53 14.9302L52.84 48.5402Z" fill="black"/>
<path d="M52.37 46.6299L34.9 14.5599L39.93 9.37988L52.37 46.6299Z" fill="black"/>
<path d="M52.6 48.9796L34.89 49.0196L34.16 47.8496L34.65 47.9596L34.74 47.8696C34.89 47.7396 34.95 47.6896 33.75 45.4596L34.8 45.7296L32 40.8696L31.77 41.0396C31.62 41.1596 29.39 45.1396 29.37 45.1696L29.22 45.5797L30.06 45.4396L28.65 48.1196L29.44 47.9796C29.28 48.2796 28.98 48.8196 28.85 49.0396H27.31L26.33 47.4697H26.36L25.67 46.4096L27.37 46.8396L25.01 42.5096L26.7 42.9596L22.28 35.2896L17.87 42.9496L19.56 42.5096L17.2 46.8396L18.85 46.4196C18.78 46.5196 18.7 46.6196 18.64 46.7096C18.55 46.8296 18.48 46.9196 18.46 46.9496C18.11 47.5096 17.76 48.0796 17.42 48.6396C17.31 48.8196 17.23 48.9596 17.16 49.0496H15.72L15.13 47.8997C15.13 47.8997 15.22 47.9196 15.26 47.9296L15.94 48.0597L14.52 45.4396L15.42 45.5896L15.01 44.8196C14.88 44.5596 14.75 44.3097 14.61 44.0597C14.24 43.4097 13.87 42.7696 13.5 42.1196L13.05 41.3496C13.05 41.3496 12.99 41.2496 12.95 41.1896L12.65 40.7197L9.78 45.7197L10.81 45.4596C10.65 45.7396 10.48 46.0496 10.32 46.3396C9.80667 47.2663 9.59333 47.7797 9.68 47.8797L9.78 47.9796L10.38 47.8496C10.17 48.1496 9.93 48.4896 9.74 48.7496C9.64 48.8996 9.56 48.9996 9.52 49.0696L0 49.0896L20.13 29.4396L20.19 29.3896L33.96 37.7096L52.6 48.9796V48.9796Z" fill="black"/>
</g>
<defs>
<clipPath id="clip0_1302_945">
<rect width="52.84" height="49.09" fill="white"/>
</clipPath>
</defs>
</svg>
