<svg width="16" height="18" viewBox="0 0 16 18" fill="none" xmlns="http://www.w3.org/2000/svg">
<path fill-rule="evenodd" clip-rule="evenodd" d="M13.1957 10.9467L15.5545 12.2949C15.8279 12.4466 16.016 12.75 15.9989 13.0702V15.7499C15.9989 16.0702 15.8279 16.3567 15.5545 16.5252L13.1957 17.8736C12.9222 18.0421 12.5804 18.0421 12.2897 17.8736L9.93089 16.5252C9.65749 16.3736 9.4694 16.0702 9.48656 15.7499V13.2219L3.98258 10.0871L5.05951 11.6714L3.70918 12.4466C3.43569 12.6152 3.09384 12.6152 2.80322 12.4466L0.444411 11.0983C0.170923 10.9467 0 10.6601 0 10.3399V7.64326C0 7.32302 0.170923 7.03652 0.444411 6.86798L2.80322 5.5197C3.07668 5.35107 3.41852 5.35107 3.70918 5.5197L4.88859 6.19384L5.93119 6.78367L9.48656 4.76125V2.25C9.48656 1.92977 9.65749 1.64326 9.93089 1.47472L12.2897 0.126401C12.5632 -0.0421337 12.905 -0.0421337 13.1957 0.126401L15.5545 1.47472C15.8279 1.62641 16.016 1.92977 15.9989 2.25V4.92979C15.9989 5.25003 15.8279 5.53653 15.5545 5.70506L13.1957 7.05334C12.9222 7.22188 12.5804 7.22188 12.2897 7.05334L11.1103 6.3792L11.0419 6.34546L12.2897 4.54214L10.0847 5.8062L6.52947 7.82862V10.205L10.0847 12.2275L11.1275 11.6376L12.3069 10.9635C12.5632 10.7781 12.9222 10.7949 13.1957 10.9467Z" fill="black"/>
</svg>
