<svg width="81" height="18" viewBox="0 0 81 18" fill="none" xmlns="http://www.w3.org/2000/svg">
<path fill-rule="evenodd" clip-rule="evenodd" d="M34.7727 0.00346448C34.333 -0.0139463 33.9038 0.141147 33.5751 0.436172C33.2464 0.731197 33.0438 1.1432 33.01 1.58564C33.1334 5.54405 33.2597 9.50246 33.389 13.4609C33.4357 13.8893 33.6457 14.2827 33.9746 14.558C34.3035 14.8333 34.7255 14.9689 35.1517 14.9364C35.5759 14.9461 35.987 14.7877 36.2968 14.4953C36.6065 14.2028 36.7903 13.7995 36.8086 13.372L36.5354 1.49676C36.4887 1.06689 36.2793 0.671757 35.951 0.393608C35.6227 0.115459 35.2006 -0.0242837 34.7727 0.00346448ZM25.0777 6.20789C25.7543 5.58097 26.6205 5.20211 27.5367 5.13236C28.2038 5.0706 28.8762 5.15206 29.5097 5.37138C30.1433 5.5907 30.7235 5.9429 31.2123 6.40478C31.7011 6.86667 32.0873 7.42775 32.3455 8.05108C32.6037 8.6744 32.7281 9.34583 32.7103 10.0211C32.7668 10.6734 32.6921 11.3305 32.4907 11.9529C32.2892 12.5754 31.9652 13.1504 31.538 13.6434C31.1109 14.1365 30.5894 14.5375 30.0048 14.8223C29.4202 15.1071 28.7846 15.2699 28.1361 15.301C27.1741 15.3587 26.2272 15.0404 25.492 14.4121C25.3647 14.7089 25.1596 14.9651 24.8987 15.153C24.6378 15.341 24.331 15.4536 24.0113 15.4787C23.5888 15.5319 23.1625 15.4154 22.8244 15.1543C22.4864 14.8932 22.2637 14.5085 22.2045 14.0832C21.8872 10.113 21.5611 6.15456 21.2262 2.208C21.2308 1.76318 21.4093 1.33817 21.7229 1.02528C22.0364 0.712397 22.4597 0.536908 22.9008 0.536933C23.3339 0.479678 23.7722 0.592653 24.125 0.85245C24.4778 1.11225 24.7179 1.49896 24.7957 1.93245C24.8838 3.35463 24.9808 4.78571 25.0777 6.20789ZM29.0784 10.891C29.1516 10.6438 29.1728 10.3838 29.1408 10.1278C29.1454 9.86834 29.096 9.61081 28.9958 9.37179C28.8957 9.13277 28.747 8.91756 28.5593 8.74003C28.3716 8.5625 28.1492 8.42659 27.9063 8.34105C27.6634 8.25551 27.4054 8.22224 27.1489 8.24339C26.633 8.28657 26.154 8.53064 25.8135 8.92387C25.4729 9.3171 25.2976 9.8286 25.3245 10.35C25.367 10.8663 25.6031 11.3467 25.9847 11.6936C26.3662 12.0404 26.8645 12.2274 27.3781 12.2166C27.6338 12.2075 27.8848 12.1448 28.1152 12.0325C28.3456 11.9201 28.5502 11.7606 28.716 11.5641C28.8819 11.3675 29.0053 11.1383 29.0784 10.891ZM10.6146 14.4208C9.55697 13.5853 8.48171 12.7498 7.39764 11.932L9.08985 9.78986C9.20468 9.62351 9.28362 9.43471 9.32157 9.23567C9.35953 9.03663 9.35565 8.83177 9.31019 8.63433C9.25931 8.42795 9.16747 8.23412 9.04023 8.06454C8.91298 7.89495 8.75296 7.75315 8.56985 7.6477C8.19908 7.45121 7.77106 7.39428 7.36246 7.48712C6.95387 7.57996 6.5914 7.8165 6.34001 8.15435L4.94746 9.9943C4.66543 8.14546 4.37164 6.30255 4.0661 4.46556C3.95566 4.03923 3.68519 3.6729 3.31184 3.444C2.9385 3.21511 2.49154 3.14157 2.06542 3.23893C1.63538 3.28386 1.23871 3.49309 0.95681 3.82368C0.67491 4.15426 0.529162 4.58112 0.549478 5.01666C1.21931 8.94544 1.89502 12.8564 2.5766 16.7497C2.68123 17.1622 2.93887 17.5186 3.29638 17.7451C3.65389 17.9717 4.08399 18.0513 4.49797 17.9674C4.91916 17.9182 5.30447 17.7045 5.57135 17.3722C5.83824 17.0399 5.96546 16.6154 5.92577 16.1897L5.6878 14.5364C6.66611 15.2919 7.63561 16.0564 8.58747 16.8208C8.91996 17.0617 9.32523 17.1784 9.73372 17.1508C10.1422 17.1232 10.5284 16.9531 10.8261 16.6697C10.9688 16.5313 11.0804 16.3637 11.1534 16.1782C11.2264 15.9927 11.259 15.7935 11.2492 15.5941C11.2335 15.364 11.1687 15.14 11.0592 14.9375C10.9497 14.735 10.798 14.5587 10.6146 14.4208ZM19.0051 5.85211C18.6734 5.87559 18.355 5.9932 18.0868 6.19138C17.8186 6.38955 17.6114 6.66021 17.4891 6.97208C16.6963 6.38686 15.7169 6.11778 14.7393 6.21654C14.0805 6.27242 13.4406 6.46689 12.8608 6.78741C12.2811 7.10793 11.7744 7.54739 11.3733 8.07748C10.9722 8.60757 10.6857 9.21652 10.5323 9.86508C10.3788 10.5137 10.3618 11.1875 10.4823 11.8431C10.5347 12.4961 10.7171 13.1318 11.0187 13.7121C11.3204 14.2923 11.735 14.8053 12.2377 15.2202C12.7405 15.6351 13.3211 15.9435 13.9447 16.1269C14.5684 16.3102 15.2224 16.3648 15.8674 16.2874C16.8103 16.1707 17.6753 15.7012 18.2912 14.9719C18.4663 15.2431 18.7116 15.4609 19.0005 15.6019C19.2894 15.7429 19.6109 15.8016 19.9305 15.7718C20.3576 15.7533 20.7601 15.5655 21.0506 15.2493C21.3411 14.933 21.496 14.5139 21.4817 14.083C21.2819 11.7897 21.0851 9.49645 20.8912 7.20318C20.8157 6.77331 20.5756 6.39063 20.2227 6.13782C19.8698 5.88502 19.4324 5.78239 19.0051 5.85211ZM15.6207 9.2298C16.1419 9.17204 16.6646 9.32548 17.0737 9.65637C17.4828 9.98726 17.7448 10.4685 17.802 10.9942C17.8593 11.5199 17.7072 12.047 17.3791 12.4596C17.051 12.8721 16.5738 13.1364 16.0525 13.1941C15.7989 13.225 15.5417 13.2026 15.297 13.1283C15.0524 13.054 14.8257 12.9295 14.6311 12.7625C14.4366 12.5955 14.2784 12.3897 14.1666 12.158C14.0547 11.9264 13.9917 11.6738 13.9813 11.4164C13.9336 11.1627 13.939 10.9017 13.9974 10.6502C14.0557 10.3987 14.1656 10.1624 14.3201 9.95638C14.4745 9.75037 14.6701 9.57929 14.8941 9.45414C15.1181 9.329 15.3656 9.25258 15.6207 9.2298ZM37.1789 9.85208C37.1789 6.9366 39.3735 4.80333 42.467 4.80333C45.5782 4.82999 47.7552 7.03438 47.6142 9.94985C47.5254 11.2925 46.9307 12.5501 45.9521 13.4648C44.9735 14.3795 43.685 14.8822 42.3508 14.8697C41.0165 14.8572 39.7376 14.3305 38.776 13.3976C37.8144 12.4647 37.243 11.1962 37.1789 9.85208ZM41.1589 11.1269C41.4895 11.4603 41.9379 11.6476 42.4054 11.6476C42.8729 11.6476 43.3212 11.4603 43.6518 11.1269C43.9824 10.7935 44.1681 10.3413 44.1681 9.86985C44.1681 9.39837 43.9824 8.9462 43.6518 8.61281C43.3212 8.27942 42.8729 8.09213 42.4054 8.09213C41.9379 8.09213 41.4895 8.27942 41.1589 8.61281C40.8284 8.9462 40.6426 9.39837 40.6426 9.86985C40.6426 10.3413 40.8284 10.7935 41.1589 11.1269ZM53.7395 5.19455C53.0606 5.11125 52.372 5.17218 51.7179 5.37342C51.0638 5.57466 50.4586 5.91175 49.9415 6.36301C49.4243 6.81427 49.0065 7.36971 48.7149 7.9936C48.4234 8.61749 48.2645 9.29601 48.2486 9.98553C48.2454 11.3387 48.7583 12.6413 49.6811 13.6236C50.6039 14.6059 51.866 15.1927 53.206 15.2623C54.5459 15.332 55.8611 14.8793 56.8792 13.9979C57.8974 13.1166 58.5404 11.8741 58.6751 10.5277C58.9219 7.64782 56.8507 5.33677 53.7395 5.19455ZM53.3517 12.0299C53.1185 12.0164 52.8903 11.9562 52.6803 11.853C52.4704 11.7497 52.2828 11.6054 52.1287 11.4284C51.9745 11.2514 51.8567 11.0453 51.7822 10.822C51.7078 10.5987 51.678 10.3627 51.6948 10.1277C51.7216 9.65627 51.9331 9.21486 52.2827 8.90064C52.6323 8.58642 53.0913 8.42513 53.5588 8.45224C54.0263 8.47935 54.464 8.69265 54.7756 9.0452C55.0871 9.39776 55.2471 9.8607 55.2202 10.3322C55.1907 10.8024 54.9774 11.2416 54.627 11.5532C54.2767 11.8649 53.818 12.0236 53.3517 11.9944V12.0299ZM69.5966 6.95829C70.1054 6.76818 70.6517 6.70291 71.1905 6.76786C73.7464 7.11452 74.9715 8.96336 74.5573 11.7899L73.9492 15.8165C73.86 16.2352 73.6116 16.6019 73.2573 16.8379C72.903 17.0739 72.471 17.1604 72.0542 17.0787C71.6287 17.0315 71.2378 16.8201 70.9634 16.4887C70.689 16.1573 70.5525 15.7316 70.5824 15.301C70.7586 14.0566 70.9261 12.8121 71.0935 11.5677C71.1446 11.3911 71.1578 11.2055 71.1323 11.0233C71.1068 10.8411 71.0432 10.6665 70.9457 10.511C70.8482 10.3555 70.719 10.2227 70.5667 10.1213C70.4144 10.02 70.2425 9.95253 70.0624 9.92333C69.0312 9.78111 68.7139 10.59 68.6257 11.2833C68.4828 12.3888 68.347 13.5014 68.2118 14.6083L68.1674 14.9721C68.092 15.3973 67.8538 15.7755 67.5042 16.025C67.1545 16.2744 66.7216 16.3752 66.299 16.3054C65.8782 16.2693 65.487 16.0725 65.2053 15.7553C64.9236 15.4382 64.7725 15.0245 64.783 14.5988L65.1973 10.8033C65.2397 10.6298 65.2454 10.4493 65.214 10.2735C65.1825 10.0976 65.1147 9.93048 65.0149 9.78286C64.9151 9.63524 64.7856 9.5105 64.6348 9.41678C64.484 9.32305 64.3152 9.26244 64.1396 9.2389C63.5756 9.17668 62.8088 9.3989 62.6942 10.6344C62.634 11.2838 62.5713 11.9331 62.5088 12.5812L62.5086 12.5835C62.4522 13.1677 62.3959 13.7509 62.3416 14.3321C62.2763 14.756 62.0484 15.137 61.7072 15.393C61.3659 15.6491 60.9386 15.7597 60.5172 15.7009C60.0964 15.6781 59.7004 15.4927 59.4116 15.1832C59.1227 14.8736 58.9632 14.4638 58.966 14.0388L59.5213 7.15007C59.597 6.72025 59.8348 6.33669 60.1848 6.07983C60.5348 5.82297 60.9698 5.71276 61.3986 5.77233C61.7225 5.78958 62.0354 5.89662 62.3029 6.08167C62.5703 6.26673 62.782 6.52263 62.9145 6.82119C63.2405 6.53846 63.621 6.32692 64.0321 6.19994C64.4432 6.07296 64.876 6.03329 65.303 6.08344C65.9077 6.09244 66.4995 6.26136 67.0192 6.57333C67.5389 6.8853 67.9682 7.32937 68.2644 7.86117C68.6311 7.45788 69.0878 7.1484 69.5966 6.95829ZM79.8631 4.41229C79.534 3.96879 79.0479 3.67043 78.5061 3.57936C77.9643 3.48829 77.4085 3.61153 76.9546 3.92342C76.7896 4.03192 76.6503 4.1758 76.5467 4.34481C76.4431 4.51381 76.3777 4.70378 76.3553 4.90117L75.562 12.1365C75.5368 12.5092 75.6544 12.8775 75.8906 13.1653C76.1267 13.4531 76.4634 13.6385 76.8312 13.6831C77.1942 13.7643 77.5743 13.7004 77.8915 13.5048C78.2087 13.3092 78.4384 12.9971 78.5322 12.6343C79.0434 10.264 79.5605 7.89368 80.0834 5.52337C80.1286 5.33313 80.1324 5.13525 80.0943 4.94341C80.0563 4.75158 79.9774 4.57036 79.8631 4.41229ZM75.9891 13.9001C76.2509 13.8532 76.5195 13.861 76.7782 13.9232C77.0384 13.9546 77.2895 14.0387 77.5167 14.1703C77.7439 14.3019 77.9424 14.4783 78.1004 14.6891C78.2584 14.8999 78.3726 15.1407 78.4362 15.397C78.4998 15.6533 78.5114 15.92 78.4704 16.1809C78.4229 16.4403 78.3248 16.6876 78.1817 16.9084C78.0386 17.1292 77.8534 17.3192 77.637 17.4672C77.4205 17.6152 77.177 17.7184 76.9206 17.7707C76.6643 17.8231 76.4002 17.8235 76.1436 17.772C75.8789 17.7464 75.6222 17.6662 75.3896 17.5363C75.1569 17.4064 74.9532 17.2297 74.7912 17.017C74.6291 16.8044 74.5122 16.5604 74.4476 16.3002C74.383 16.04 74.3722 15.7692 74.4158 15.5047C74.4595 15.2401 74.5566 14.9874 74.7012 14.7623C74.8457 14.5372 75.0347 14.3445 75.2562 14.1962C75.4778 14.0478 75.7273 13.9471 75.9891 13.9001Z" fill="black"/>
</svg>
