<svg width="698" height="447" viewBox="0 0 698 447" fill="none" xmlns="http://www.w3.org/2000/svg">
<g clip-path="url(#clip0_84_6)">
<path d="M257.15 77.96C278.678 77.96 296.13 60.5081 296.13 38.98C296.13 17.4519 278.678 0 257.15 0C235.622 0 218.17 17.4519 218.17 38.98C218.17 60.5081 235.622 77.96 257.15 77.96Z" fill="url(#paint0_radial_84_6)"/>
<path opacity="0.9" d="M406.72 248.3C395.1 248.3 394.42 260.6 406.72 260.6H686.86C704.63 260.6 698.48 248.3 686.86 248.3H650.29C638.21 248.3 631.15 234.89 637.77 224.79C641.7 218.79 644.61 211.61 645.17 203.21C646.99 175.88 616.42 145.31 581.29 156.13C574.03 158.37 566.26 155.08 562.97 148.22C556.09 133.89 540.69 113.7 508.51 113.7C467.98 113.7 452.27 138.51 448.9 161.01C447.82 168.23 441.61 173.64 434.32 173.81C424.44 174.03 410.66 177.61 397.37 192.06C386.89 203.45 391.33 247.97 419.35 247.97L406.71 248.31L406.72 248.3Z" fill="url(#paint1_linear_84_6)"/>
<path d="M136.01 377.18L231.41 192.43C231.81 191.66 233.02 191.45 233.77 192.02L278.06 226.05C278.74 226.57 279.83 226.45 280.32 225.79L375.93 104.6C376.5 103.83 377.84 103.82 378.43 104.58L464.35 224.17C464.72 224.64 465.43 224.85 466.07 224.67L495.17 216.36C495.82 216.18 496.53 216.38 496.9 216.86L618.62 377.01C619.23 377.82 618.53 378.86 617.37 378.86H137.37C136.32 378.86 135.6 377.97 136.02 377.18H136.01Z" fill="url(#paint2_linear_84_6)"/>
<path d="M560.21 396.11L494.04 269.1L379.57 218.93L264.92 295.42L199.1 392.75L560.21 396.11Z" fill="url(#paint3_linear_84_6)"/>
<path d="M299.88 396.82L367.69 326.73C368.15 326.25 368.76 325.93 369.41 325.8L521.27 297.11C522.09 296.95 522.94 297.12 523.64 297.58L621.13 369.89C622.04 370.49 622.59 371.5 622.59 372.59L635.43 399.06C635.43 400.85 633.98 402.29 632.2 402.29H302.21C299.36 402.29 297.9 398.86 299.89 396.81L299.88 396.82Z" fill="url(#paint4_linear_84_6)"/>
<path d="M121.419 385.11L185.539 309.65C185.949 309.17 186.449 308.77 187.019 308.48L219.549 291.74C221.639 290.66 224.199 291.24 225.619 293.11L311.469 405.95C313.899 409.14 311.619 413.73 307.609 413.73H117.849C114.509 413.73 112.169 410.43 113.279 407.28L120.539 386.64C120.739 386.08 121.029 385.56 121.419 385.11V385.11Z" fill="url(#paint5_linear_84_6)"/>
<path d="M97.94 444.82C100.59 440.6 103.65 435.42 105.87 431.91C108.24 428.91 111.07 424.81 113.05 421.54L102.55 424.19C106.16 417.55 112.89 405.17 116.09 399.29C116.09 399.29 108.27 401.34 106.68 401.76C113.03 390.7 118.96 380.36 124.82 370.16C130.37 379.81 137.39 392.01 143 401.77L133.57 399.27C137.93 407.32 142.69 416.05 147.11 424.2C144.67 423.58 139.14 422.18 136.58 421.54C140.51 427.58 147.38 438.61 151.2 444.79L97.93 444.83L97.94 444.82Z" fill="url(#paint6_linear_84_6)"/>
<path d="M146.14 439.13C148.79 434.91 151.85 429.73 154.07 426.22C156.44 423.22 159.27 419.12 161.25 415.85L150.75 418.5C154.36 411.86 161.09 399.48 164.29 393.6C164.29 393.6 156.47 395.65 154.88 396.07C161.23 385.01 167.16 374.67 173.02 364.47C178.57 374.12 185.59 386.32 191.2 396.08L181.77 393.58C186.13 401.63 190.89 410.36 195.31 418.51C192.87 417.89 187.34 416.49 184.78 415.85C188.71 421.89 195.58 432.92 199.4 439.1L146.13 439.14L146.14 439.13Z" fill="url(#paint7_linear_84_6)"/>
<path d="M194.33 436.28C196.98 432.06 200.04 426.88 202.26 423.37C204.63 420.37 207.46 416.27 209.44 413L198.94 415.65C202.55 409.01 209.28 396.63 212.48 390.75C212.48 390.75 204.66 392.8 203.07 393.22C209.42 382.16 215.35 371.82 221.21 361.62C226.76 371.27 233.78 383.47 239.39 393.23L229.96 390.73C234.32 398.78 239.08 407.51 243.5 415.66C241.06 415.04 235.53 413.64 232.97 413C236.9 419.04 243.77 430.07 247.59 436.25L194.32 436.29L194.33 436.28Z" fill="url(#paint8_linear_84_6)"/>
<path d="M242.53 434.86C245.18 430.64 248.24 425.46 250.46 421.95C252.83 418.95 255.66 414.85 257.64 411.58L247.14 414.23C250.75 407.59 257.48 395.21 260.68 389.33C260.68 389.33 252.86 391.38 251.27 391.8C257.62 380.74 263.55 370.4 269.41 360.2C274.96 369.85 281.98 382.05 287.59 391.81L278.16 389.31C282.52 397.36 287.28 406.09 291.7 414.24C289.26 413.62 283.73 412.22 281.17 411.58C285.1 417.62 291.97 428.65 295.79 434.83L242.52 434.87L242.53 434.86Z" fill="url(#paint9_linear_84_6)"/>
<path d="M290.73 433.43C293.38 429.21 296.44 424.03 298.66 420.52C301.03 417.52 303.86 413.42 305.84 410.15L295.34 412.8C298.95 406.16 305.68 393.78 308.88 387.9C308.88 387.9 301.06 389.95 299.47 390.37C305.82 379.31 311.75 368.97 317.61 358.77C323.16 368.42 330.18 380.62 335.79 390.38L326.36 387.88C330.72 395.93 335.48 404.66 339.9 412.81C337.46 412.19 331.93 410.79 329.37 410.15C333.3 416.19 340.17 427.22 343.99 433.4L290.72 433.44L290.73 433.43Z" fill="url(#paint10_linear_84_6)"/>
<path d="M338.92 433.43C341.57 429.21 344.63 424.03 346.85 420.52C349.22 417.52 352.05 413.42 354.03 410.15L343.53 412.8C347.14 406.16 353.87 393.78 357.07 387.9C357.07 387.9 349.25 389.95 347.66 390.37C354.01 379.31 359.94 368.97 365.8 358.77C371.35 368.42 378.37 380.62 383.98 390.38L374.55 387.88C378.91 395.93 383.67 404.66 388.09 412.81C385.65 412.19 380.12 410.79 377.56 410.15C381.49 416.19 388.36 427.22 392.18 433.4L338.91 433.44L338.92 433.43Z" fill="url(#paint11_linear_84_6)"/>
<path d="M387.12 433.43C389.77 429.21 392.83 424.03 395.05 420.52C397.42 417.52 400.25 413.42 402.23 410.15L391.73 412.8C395.34 406.16 402.07 393.78 405.27 387.9C405.27 387.9 397.45 389.95 395.86 390.37C402.21 379.31 408.14 368.97 414 358.77C419.55 368.42 426.57 380.62 432.18 390.38L422.75 387.88C427.11 395.93 431.87 404.66 436.29 412.81C433.85 412.19 428.32 410.79 425.76 410.15C429.69 416.19 436.56 427.22 440.38 433.4L387.11 433.44L387.12 433.43Z" fill="url(#paint12_linear_84_6)"/>
<path d="M435.32 434.86C437.97 430.64 441.03 425.46 443.25 421.95C445.62 418.95 448.45 414.85 450.43 411.58L439.93 414.23C443.54 407.59 450.27 395.21 453.47 389.33C453.47 389.33 445.65 391.38 444.06 391.8C450.41 380.74 456.34 370.4 462.2 360.2C467.75 369.85 474.77 382.05 480.38 391.81L470.95 389.31C475.31 397.36 480.07 406.09 484.49 414.24C482.05 413.62 476.52 412.22 473.96 411.58C477.89 417.62 484.76 428.65 488.58 434.83L435.31 434.87L435.32 434.86Z" fill="url(#paint13_linear_84_6)"/>
<path d="M483.51 436.28C486.16 432.06 489.22 426.88 491.44 423.37C493.81 420.37 496.64 416.27 498.62 413L488.12 415.65C491.73 409.01 498.46 396.63 501.66 390.75C501.66 390.75 493.84 392.8 492.25 393.22C498.6 382.16 504.53 371.82 510.39 361.62C515.94 371.27 522.96 383.47 528.57 393.23L519.14 390.73C523.5 398.78 528.26 407.51 532.68 415.66C530.24 415.04 524.71 413.64 522.15 413C526.08 419.04 532.95 430.07 536.77 436.25L483.5 436.29L483.51 436.28Z" fill="url(#paint14_linear_84_6)"/>
<path d="M531.71 439.13C534.36 434.91 537.42 429.73 539.64 426.22C542.01 423.22 544.84 419.12 546.82 415.85L536.32 418.5C539.93 411.86 546.66 399.48 549.86 393.6C549.86 393.6 542.04 395.65 540.45 396.07C546.8 385.01 552.73 374.67 558.59 364.47C564.14 374.12 571.16 386.32 576.77 396.08L567.34 393.58C571.7 401.63 576.46 410.36 580.88 418.51C578.44 417.89 572.91 416.49 570.35 415.85C574.28 421.89 581.15 432.92 584.97 439.1L531.7 439.14L531.71 439.13Z" fill="url(#paint15_linear_84_6)"/>
<path d="M579.9 444.82C582.55 440.6 585.61 435.42 587.83 431.91C590.2 428.91 593.03 424.81 595.01 421.54L584.51 424.19C588.12 417.55 594.85 405.17 598.05 399.29C598.05 399.29 590.23 401.34 588.64 401.76C594.99 390.7 600.92 380.36 606.78 370.16C612.33 379.81 619.35 392.01 624.96 401.77L615.53 399.27C619.89 407.32 624.65 416.05 629.07 424.2C626.63 423.58 621.1 422.18 618.54 421.54C622.47 427.58 629.34 438.61 633.16 444.79L579.89 444.83L579.9 444.82Z" fill="url(#paint16_linear_84_6)"/>
<path d="M73.27 446.24C75.92 442.02 78.98 436.84 81.2 433.33C83.57 430.33 86.4 426.23 88.38 422.96L77.88 425.61C81.49 418.97 88.22 406.59 91.42 400.71C91.42 400.71 83.6 402.76 82.01 403.18C88.36 392.12 94.29 381.78 100.15 371.58C105.7 381.23 112.72 393.43 118.33 403.19L108.9 400.69C113.26 408.74 118.02 417.47 122.44 425.62C120 425 114.47 423.6 111.91 422.96C115.84 429 122.71 440.03 126.53 446.21L73.26 446.25L73.27 446.24Z" fill="url(#paint17_linear_84_6)"/>
<path d="M121.57 440.55C124.22 436.33 127.28 431.15 129.5 427.64C131.87 424.64 134.7 420.54 136.68 417.27L126.18 419.92C129.79 413.28 136.52 400.9 139.72 395.02C139.72 395.02 131.9 397.07 130.31 397.49C136.66 386.43 142.59 376.09 148.45 365.89C154 375.54 161.02 387.74 166.63 397.5L157.2 395C161.56 403.05 166.32 411.78 170.74 419.93C168.3 419.31 162.77 417.91 160.21 417.27C164.14 423.31 171.01 434.34 174.83 440.52L121.56 440.56L121.57 440.55Z" fill="url(#paint18_linear_84_6)"/>
<path d="M169.87 437.7C172.52 433.48 175.58 428.3 177.8 424.79C180.17 421.79 183 417.69 184.98 414.42L174.48 417.07C178.09 410.43 184.82 398.05 188.02 392.17C188.02 392.17 180.2 394.22 178.61 394.64C184.96 383.58 190.89 373.24 196.75 363.04C202.3 372.69 209.32 384.89 214.93 394.65L205.5 392.15C209.86 400.2 214.62 408.93 219.04 417.08C216.6 416.46 211.07 415.06 208.51 414.42C212.44 420.46 219.31 431.49 223.13 437.67L169.86 437.71L169.87 437.7Z" fill="url(#paint19_linear_84_6)"/>
<path d="M218.17 434.86C220.82 430.64 223.88 425.46 226.1 421.95C228.47 418.95 231.3 414.85 233.28 411.58L222.78 414.23C226.39 407.59 233.12 395.21 236.32 389.33C236.32 389.33 228.5 391.38 226.91 391.8C233.26 380.74 239.19 370.4 245.05 360.2C250.6 369.85 257.62 382.05 263.23 391.81L253.8 389.31C258.16 397.36 262.92 406.09 267.34 414.24C264.9 413.62 259.37 412.22 256.81 411.58C260.74 417.62 267.61 428.65 271.43 434.83L218.16 434.87L218.17 434.86Z" fill="url(#paint20_linear_84_6)"/>
<path d="M266.47 434.86C269.12 430.64 272.18 425.46 274.4 421.95C276.77 418.95 279.6 414.85 281.58 411.58L271.08 414.23C274.69 407.59 281.42 395.21 284.62 389.33C284.62 389.33 276.8 391.38 275.21 391.8C281.56 380.74 287.49 370.4 293.35 360.2C298.9 369.85 305.92 382.05 311.53 391.81L302.1 389.31C306.46 397.36 311.22 406.09 315.64 414.24C313.2 413.62 307.67 412.22 305.11 411.58C309.04 417.62 315.91 428.65 319.73 434.83L266.46 434.87L266.47 434.86Z" fill="url(#paint21_linear_84_6)"/>
<path d="M314.77 434.86C317.42 430.64 320.48 425.46 322.7 421.95C325.07 418.95 327.9 414.85 329.88 411.58L319.38 414.23C322.99 407.59 329.72 395.21 332.92 389.33C332.92 389.33 325.1 391.38 323.51 391.8C329.86 380.74 335.79 370.4 341.65 360.2C347.2 369.85 354.22 382.05 359.83 391.81L350.4 389.31C354.76 397.36 359.52 406.09 363.94 414.24C361.5 413.62 355.97 412.22 353.41 411.58C357.34 417.62 364.21 428.65 368.03 434.83L314.76 434.87L314.77 434.86Z" fill="url(#paint22_linear_84_6)"/>
<path d="M363.07 434.86C365.72 430.64 368.78 425.46 371 421.95C373.37 418.95 376.2 414.85 378.18 411.58L367.68 414.23C371.29 407.59 378.02 395.21 381.22 389.33C381.22 389.33 373.4 391.38 371.81 391.8C378.16 380.74 384.09 370.4 389.95 360.2C395.5 369.85 402.52 382.05 408.13 391.81L398.7 389.31C403.06 397.36 407.82 406.09 412.24 414.24C409.8 413.62 404.27 412.22 401.71 411.58C405.64 417.62 412.51 428.65 416.33 434.83L363.06 434.87L363.07 434.86Z" fill="url(#paint23_linear_84_6)"/>
<path d="M411.37 434.86C414.02 430.64 417.08 425.46 419.3 421.95C421.67 418.95 424.5 414.85 426.48 411.58L415.98 414.23C419.59 407.59 426.32 395.21 429.52 389.33C429.52 389.33 421.7 391.38 420.11 391.8C426.46 380.74 432.39 370.4 438.25 360.2C443.8 369.85 450.82 382.05 456.43 391.81L447 389.31C451.36 397.36 456.12 406.09 460.54 414.24C458.1 413.62 452.57 412.22 450.01 411.58C453.94 417.62 460.81 428.65 464.63 434.83L411.36 434.87L411.37 434.86Z" fill="url(#paint24_linear_84_6)"/>
<path d="M459.67 434.86C462.32 430.64 465.38 425.46 467.6 421.95C469.97 418.95 472.8 414.85 474.78 411.58L464.28 414.23C467.89 407.59 474.62 395.21 477.82 389.33C477.82 389.33 470 391.38 468.41 391.8C474.76 380.74 480.69 370.4 486.55 360.2C492.1 369.85 499.12 382.05 504.73 391.81L495.3 389.31C499.66 397.36 504.42 406.09 508.84 414.24C506.4 413.62 500.87 412.22 498.31 411.58C502.24 417.62 509.11 428.65 512.93 434.83L459.66 434.87L459.67 434.86Z" fill="url(#paint25_linear_84_6)"/>
<path d="M507.97 437.7C510.62 433.48 513.68 428.3 515.9 424.79C518.27 421.79 521.1 417.69 523.08 414.42L512.58 417.07C516.19 410.43 522.92 398.05 526.12 392.17C526.12 392.17 518.3 394.22 516.71 394.64C523.06 383.58 528.99 373.24 534.85 363.04C540.4 372.69 547.42 384.89 553.03 394.65L543.6 392.15C547.96 400.2 552.72 408.93 557.14 417.08C554.7 416.46 549.17 415.06 546.61 414.42C550.54 420.46 557.41 431.49 561.23 437.67L507.96 437.71L507.97 437.7Z" fill="url(#paint26_linear_84_6)"/>
<path d="M556.27 440.55C558.92 436.33 561.98 431.15 564.2 427.64C566.57 424.64 569.4 420.54 571.38 417.27L560.88 419.92C564.49 413.28 571.22 400.9 574.42 395.02C574.42 395.02 566.6 397.07 565.01 397.49C571.36 386.43 577.29 376.09 583.15 365.89C588.7 375.54 595.72 387.74 601.33 397.5L591.9 395C596.26 403.05 601.02 411.78 605.44 419.93C603 419.31 597.47 417.91 594.91 417.27C598.84 423.31 605.71 434.34 609.53 440.52L556.26 440.56L556.27 440.55Z" fill="url(#paint27_linear_84_6)"/>
<path d="M615.01 449.66C617.66 445.44 620.72 440.26 622.94 436.75C625.31 433.75 628.14 429.65 630.12 426.38L619.62 429.03C623.23 422.39 629.96 410.01 633.16 404.13C633.16 404.13 625.34 406.18 623.75 406.6C630.1 395.54 636.03 385.2 641.89 375C647.44 384.65 654.46 396.85 660.07 406.61L650.64 404.11C655 412.16 659.76 420.89 664.18 429.04C661.74 428.42 656.21 427.02 653.65 426.38C657.58 432.42 664.45 443.45 668.27 449.63L615 449.67L615.01 449.66Z" fill="url(#paint28_linear_84_6)"/>
<path d="M85.01 458.04C87.66 453.82 90.72 448.64 92.94 445.13C95.31 442.13 98.14 438.03 100.12 434.76L89.62 437.41C93.23 430.77 99.96 418.39 103.16 412.51C103.16 412.51 95.34 414.56 93.75 414.98C100.1 403.92 106.03 393.58 111.89 383.38C117.44 393.03 124.46 405.23 130.07 414.99L120.64 412.49C125 420.54 129.76 429.27 134.18 437.42C131.74 436.8 126.21 435.4 123.65 434.76C127.58 440.8 134.45 451.83 138.27 458.01L85 458.05L85.01 458.04Z" fill="url(#paint29_linear_84_6)"/>
<path d="M133.31 452.35C135.96 448.13 139.02 442.95 141.24 439.44C143.61 436.44 146.44 432.34 148.42 429.07L137.92 431.72C141.53 425.08 148.26 412.7 151.46 406.82C151.46 406.82 143.64 408.87 142.05 409.29C148.4 398.23 154.33 387.89 160.19 377.69C165.74 387.34 172.76 399.54 178.37 409.3L168.94 406.8C173.3 414.85 178.06 423.58 182.48 431.73C180.04 431.11 174.51 429.71 171.95 429.07C175.88 435.11 182.75 446.14 186.57 452.32L133.3 452.36L133.31 452.35Z" fill="url(#paint30_linear_84_6)"/>
<path d="M181.61 449.5C184.26 445.28 187.32 440.1 189.54 436.59C191.91 433.59 194.74 429.49 196.72 426.22L186.22 428.87C189.83 422.23 196.56 409.85 199.76 403.97C199.76 403.97 191.94 406.02 190.35 406.44C196.7 395.38 202.63 385.04 208.49 374.84C214.04 384.49 221.06 396.69 226.67 406.45L217.24 403.95C221.6 412 226.36 420.73 230.78 428.88C228.34 428.26 222.81 426.86 220.25 426.22C224.18 432.26 231.05 443.29 234.87 449.47L181.6 449.51L181.61 449.5Z" fill="url(#paint31_linear_84_6)"/>
<path d="M229.91 446.66C232.56 442.44 235.62 437.26 237.84 433.75C240.21 430.75 243.04 426.65 245.02 423.38L234.52 426.03C238.13 419.39 244.86 407.01 248.06 401.13C248.06 401.13 240.24 403.18 238.65 403.6C245 392.54 250.93 382.2 256.79 372C262.34 381.65 269.36 393.85 274.97 403.61L265.54 401.11C269.9 409.16 274.66 417.89 279.08 426.04C276.64 425.42 271.11 424.02 268.55 423.38C272.48 429.42 279.35 440.45 283.17 446.63L229.9 446.67L229.91 446.66Z" fill="url(#paint32_linear_84_6)"/>
<path d="M278.21 446.66C280.86 442.44 283.92 437.26 286.14 433.75C288.51 430.75 291.34 426.65 293.32 423.38L282.82 426.03C286.43 419.39 293.16 407.01 296.36 401.13C296.36 401.13 288.54 403.18 286.95 403.6C293.3 392.54 299.23 382.2 305.09 372C310.64 381.65 317.66 393.85 323.27 403.61L313.84 401.11C318.2 409.16 322.96 417.89 327.38 426.04C324.94 425.42 319.41 424.02 316.85 423.38C320.78 429.42 327.65 440.45 331.47 446.63L278.2 446.67L278.21 446.66Z" fill="url(#paint33_linear_84_6)"/>
<path d="M326.51 446.66C329.16 442.44 332.22 437.26 334.44 433.75C336.81 430.75 339.64 426.65 341.62 423.38L331.12 426.03C334.73 419.39 341.46 407.01 344.66 401.13C344.66 401.13 336.84 403.18 335.25 403.6C341.6 392.54 347.53 382.2 353.39 372C358.94 381.65 365.96 393.85 371.57 403.61L362.14 401.11C366.5 409.16 371.26 417.89 375.68 426.04C373.24 425.42 367.71 424.02 365.15 423.38C369.08 429.42 375.95 440.45 379.77 446.63L326.5 446.67L326.51 446.66Z" fill="url(#paint34_linear_84_6)"/>
<path d="M374.81 446.66C377.46 442.44 380.52 437.26 382.74 433.75C385.11 430.75 387.94 426.65 389.92 423.38L379.42 426.03C383.03 419.39 389.76 407.01 392.96 401.13C392.96 401.13 385.14 403.18 383.55 403.6C389.9 392.54 395.83 382.2 401.69 372C407.24 381.65 414.26 393.85 419.87 403.61L410.44 401.11C414.8 409.16 419.56 417.89 423.98 426.04C421.54 425.42 416.01 424.02 413.45 423.38C417.38 429.42 424.25 440.45 428.07 446.63L374.8 446.67L374.81 446.66Z" fill="url(#paint35_linear_84_6)"/>
<path d="M423.11 446.66C425.76 442.44 428.82 437.26 431.04 433.75C433.41 430.75 436.24 426.65 438.22 423.38L427.72 426.03C431.33 419.39 438.06 407.01 441.26 401.13C441.26 401.13 433.44 403.18 431.85 403.6C438.2 392.54 444.13 382.2 449.99 372C455.54 381.65 462.56 393.85 468.17 403.61L458.74 401.11C463.1 409.16 467.86 417.89 472.28 426.04C469.84 425.42 464.31 424.02 461.75 423.38C465.68 429.42 472.55 440.45 476.37 446.63L423.1 446.67L423.11 446.66Z" fill="url(#paint36_linear_84_6)"/>
<path d="M471.41 446.66C474.06 442.44 477.12 437.26 479.34 433.75C481.71 430.75 484.54 426.65 486.52 423.38L476.02 426.03C479.63 419.39 486.36 407.01 489.56 401.13C489.56 401.13 481.74 403.18 480.15 403.6C486.5 392.54 492.43 382.2 498.29 372C503.84 381.65 510.86 393.85 516.47 403.61L507.04 401.11C511.4 409.16 516.16 417.89 520.58 426.04C518.14 425.42 512.61 424.02 510.05 423.38C513.98 429.42 520.85 440.45 524.67 446.63L471.4 446.67L471.41 446.66Z" fill="url(#paint37_linear_84_6)"/>
<path d="M519.71 449.5C522.36 445.28 525.42 440.1 527.64 436.59C530.01 433.59 532.84 429.49 534.82 426.22L524.32 428.87C527.93 422.23 534.66 409.85 537.86 403.97C537.86 403.97 530.04 406.02 528.45 406.44C534.8 395.38 540.73 385.04 546.59 374.84C552.14 384.49 559.16 396.69 564.77 406.45L555.34 403.95C559.7 412 564.46 420.73 568.88 428.88C566.44 428.26 560.91 426.86 558.35 426.22C562.28 432.26 569.15 443.29 572.97 449.47L519.7 449.51L519.71 449.5Z" fill="url(#paint38_linear_84_6)"/>
<path d="M568.01 452.35C570.66 448.13 573.72 442.95 575.94 439.44C578.31 436.44 581.14 432.34 583.12 429.07L572.62 431.72C576.23 425.08 582.96 412.7 586.16 406.82C586.16 406.82 578.34 408.87 576.75 409.29C583.1 398.23 589.03 387.89 594.89 377.69C600.44 387.34 607.46 399.54 613.07 409.3L603.64 406.8C608 414.85 612.76 423.58 617.18 431.73C614.74 431.11 609.21 429.71 606.65 429.07C610.58 435.11 617.45 446.14 621.27 452.32L568 452.36L568.01 452.35Z" fill="url(#paint39_linear_84_6)"/>
<path d="M600.01 453.66C602.66 449.44 605.72 444.26 607.94 440.75C610.31 437.75 613.14 433.65 615.12 430.38L604.62 433.03C608.23 426.39 614.96 414.01 618.16 408.13C618.16 408.13 610.34 410.18 608.75 410.6C615.1 399.54 621.03 389.2 626.89 379C632.44 388.65 639.46 400.85 645.07 410.61L635.64 408.11C640 416.16 644.76 424.89 649.18 433.04C646.74 432.42 641.21 431.02 638.65 430.38C642.58 436.42 649.45 447.45 653.27 453.63L600 453.67L600.01 453.66Z" fill="url(#paint40_linear_84_6)"/>
<path d="M100.01 465.04C102.66 460.82 105.72 455.64 107.94 452.13C110.31 449.13 113.14 445.03 115.12 441.76L104.62 444.41C108.23 437.77 114.96 425.39 118.16 419.51C118.16 419.51 110.34 421.56 108.75 421.98C115.1 410.92 121.03 400.58 126.89 390.38C132.44 400.03 139.46 412.23 145.07 421.99L135.64 419.49C140 427.54 144.76 436.27 149.18 444.42C146.74 443.8 141.21 442.4 138.65 441.76C142.58 447.8 149.45 458.83 153.27 465.01L100 465.05L100.01 465.04Z" fill="url(#paint41_linear_84_6)"/>
<path d="M52.01 458.66C54.66 454.44 57.72 449.26 59.94 445.75C62.31 442.75 65.14 438.65 67.12 435.38L56.62 438.03C60.23 431.39 66.96 419.01 70.16 413.13C70.16 413.13 62.34 415.18 60.75 415.6C67.1 404.54 73.03 394.2 78.89 384C84.44 393.65 91.46 405.85 97.07 415.61L87.64 413.11C92 421.16 96.76 429.89 101.18 438.04C98.74 437.42 93.21 436.02 90.65 435.38C94.58 441.42 101.45 452.45 105.27 458.63L52 458.67L52.01 458.66Z" fill="url(#paint42_linear_84_6)"/>
<path d="M72.01 467.66C74.66 463.44 77.72 458.26 79.94 454.75C82.31 451.75 85.14 447.65 87.12 444.38L76.62 447.03C80.23 440.39 86.96 428.01 90.16 422.13C90.16 422.13 82.34 424.18 80.75 424.6C87.1 413.54 93.03 403.2 98.89 393C104.44 402.65 111.46 414.85 117.07 424.61L107.64 422.11C112 430.16 116.76 438.89 121.18 447.04C118.74 446.42 113.21 445.02 110.65 444.38C114.58 450.42 121.45 461.45 125.27 467.63L72 467.67L72.01 467.66Z" fill="url(#paint43_linear_84_6)"/>
<path d="M148.31 459.35C150.96 455.13 154.02 449.95 156.24 446.44C158.61 443.44 161.44 439.34 163.42 436.07L152.92 438.72C156.53 432.08 163.26 419.7 166.46 413.82C166.46 413.82 158.64 415.87 157.05 416.29C163.4 405.23 169.33 394.89 175.19 384.69C180.74 394.34 187.76 406.54 193.37 416.3L183.94 413.8C188.3 421.85 193.06 430.58 197.48 438.73C195.04 438.11 189.51 436.71 186.95 436.07C190.88 442.11 197.75 453.14 201.57 459.32L148.3 459.36L148.31 459.35Z" fill="url(#paint44_linear_84_6)"/>
<path d="M196.61 456.5C199.26 452.28 202.32 447.1 204.54 443.59C206.91 440.59 209.74 436.49 211.72 433.22L201.22 435.87C204.83 429.23 211.56 416.85 214.76 410.97C214.76 410.97 206.94 413.02 205.35 413.44C211.7 402.38 217.63 392.04 223.49 381.84C229.04 391.49 236.06 403.69 241.67 413.45L232.24 410.95C236.6 419 241.36 427.73 245.78 435.88C243.34 435.26 237.81 433.86 235.25 433.22C239.18 439.26 246.05 450.29 249.87 456.47L196.6 456.51L196.61 456.5Z" fill="url(#paint45_linear_84_6)"/>
<path d="M244.91 453.66C247.56 449.44 250.62 444.26 252.84 440.75C255.21 437.75 258.04 433.65 260.02 430.38L249.52 433.03C253.13 426.39 259.86 414.01 263.06 408.13C263.06 408.13 255.24 410.18 253.65 410.6C260 399.54 265.93 389.2 271.79 379C277.34 388.65 284.36 400.85 289.97 410.61L280.54 408.11C284.9 416.16 289.66 424.89 294.08 433.04C291.64 432.42 286.11 431.02 283.55 430.38C287.48 436.42 294.35 447.45 298.17 453.63L244.9 453.67L244.91 453.66Z" fill="url(#paint46_linear_84_6)"/>
<path d="M293.21 453.66C295.86 449.44 298.92 444.26 301.14 440.75C303.51 437.75 306.34 433.65 308.32 430.38L297.82 433.03C301.43 426.39 308.16 414.01 311.36 408.13C311.36 408.13 303.54 410.18 301.95 410.6C308.3 399.54 314.23 389.2 320.09 379C325.64 388.65 332.66 400.85 338.27 410.61L328.84 408.11C333.2 416.16 337.96 424.89 342.38 433.04C339.94 432.42 334.41 431.02 331.85 430.38C335.78 436.42 342.65 447.45 346.47 453.63L293.2 453.67L293.21 453.66Z" fill="url(#paint47_linear_84_6)"/>
<path d="M341.51 453.66C344.16 449.44 347.22 444.26 349.44 440.75C351.81 437.75 354.64 433.65 356.62 430.38L346.12 433.03C349.73 426.39 356.46 414.01 359.66 408.13C359.66 408.13 351.84 410.18 350.25 410.6C356.6 399.54 362.53 389.2 368.39 379C373.94 388.65 380.96 400.85 386.57 410.61L377.14 408.11C381.5 416.16 386.26 424.89 390.68 433.04C388.24 432.42 382.71 431.02 380.15 430.38C384.08 436.42 390.95 447.45 394.77 453.63L341.5 453.67L341.51 453.66Z" fill="url(#paint48_linear_84_6)"/>
<path d="M389.81 453.66C392.46 449.44 395.52 444.26 397.74 440.75C400.11 437.75 402.94 433.65 404.92 430.38L394.42 433.03C398.03 426.39 404.76 414.01 407.96 408.13C407.96 408.13 400.14 410.18 398.55 410.6C404.9 399.54 410.83 389.2 416.69 379C422.24 388.65 429.26 400.85 434.87 410.61L425.44 408.11C429.8 416.16 434.56 424.89 438.98 433.04C436.54 432.42 431.01 431.02 428.45 430.38C432.38 436.42 439.25 447.45 443.07 453.63L389.8 453.67L389.81 453.66Z" fill="url(#paint49_linear_84_6)"/>
<path d="M438.11 453.66C440.76 449.44 443.82 444.26 446.04 440.75C448.41 437.75 451.24 433.65 453.22 430.38L442.72 433.03C446.33 426.39 453.06 414.01 456.26 408.13C456.26 408.13 448.44 410.18 446.85 410.6C453.2 399.54 459.13 389.2 464.99 379C470.54 388.65 477.56 400.85 483.17 410.61L473.74 408.11C478.1 416.16 482.86 424.89 487.28 433.04C484.84 432.42 479.31 431.02 476.75 430.38C480.68 436.42 487.55 447.45 491.37 453.63L438.1 453.67L438.11 453.66Z" fill="url(#paint50_linear_84_6)"/>
<path d="M486.41 453.66C489.06 449.44 492.12 444.26 494.34 440.75C496.71 437.75 499.54 433.65 501.52 430.38L491.02 433.03C494.63 426.39 501.36 414.01 504.56 408.13C504.56 408.13 496.74 410.18 495.15 410.6C501.5 399.54 507.43 389.2 513.29 379C518.84 388.65 525.86 400.85 531.47 410.61L522.04 408.11C526.4 416.16 531.16 424.89 535.58 433.04C533.14 432.42 527.61 431.02 525.05 430.38C528.98 436.42 535.85 447.45 539.67 453.63L486.4 453.67L486.41 453.66Z" fill="url(#paint51_linear_84_6)"/>
<path d="M534.71 456.5C537.36 452.28 540.42 447.1 542.64 443.59C545.01 440.59 547.84 436.49 549.82 433.22L539.32 435.87C542.93 429.23 549.66 416.85 552.86 410.97C552.86 410.97 545.04 413.02 543.45 413.44C549.8 402.38 555.73 392.04 561.59 381.84C567.14 391.49 574.16 403.69 579.77 413.45L570.34 410.95C574.7 419 579.46 427.73 583.88 435.88C581.44 435.26 575.91 433.86 573.35 433.22C577.28 439.26 584.15 450.29 587.97 456.47L534.7 456.51L534.71 456.5Z" fill="url(#paint52_linear_84_6)"/>
<path d="M583.01 459.35C585.66 455.13 588.72 449.95 590.94 446.44C593.31 443.44 596.14 439.34 598.12 436.07L587.62 438.72C591.23 432.08 597.96 419.7 601.16 413.82C601.16 413.82 593.34 415.87 591.75 416.29C598.1 405.23 604.03 394.89 609.89 384.69C615.44 394.34 622.46 406.54 628.07 416.3L618.64 413.8C623 421.85 627.76 430.58 632.18 438.73C629.74 438.11 624.21 436.71 621.65 436.07C625.58 442.11 632.45 453.14 636.27 459.32L583 459.36L583.01 459.35Z" fill="url(#paint53_linear_84_6)"/>
<path d="M626.01 456.66C628.66 452.44 631.72 447.26 633.94 443.75C636.31 440.75 639.14 436.65 641.12 433.38L630.62 436.03C634.23 429.39 640.96 417.01 644.16 411.13C644.16 411.13 636.34 413.18 634.75 413.6C641.1 402.54 647.03 392.2 652.89 382C658.44 391.65 665.46 403.85 671.07 413.61L661.64 411.11C666 419.16 670.76 427.89 675.18 436.04C672.74 435.42 667.21 434.02 664.65 433.38C668.58 439.42 675.45 450.45 679.27 456.63L626 456.67L626.01 456.66Z" fill="url(#paint54_linear_84_6)"/>
<path d="M119.01 476.04C121.66 471.82 124.72 466.64 126.94 463.13C129.31 460.13 132.14 456.03 134.12 452.76L123.62 455.41C127.23 448.77 133.96 436.39 137.16 430.51C137.16 430.51 129.34 432.56 127.75 432.98C134.1 421.92 140.03 411.58 145.89 401.38C151.44 411.03 158.46 423.23 164.07 432.99L154.64 430.49C159 438.54 163.76 447.27 168.18 455.42C165.74 454.8 160.21 453.4 157.65 452.76C161.58 458.8 168.45 469.83 172.27 476.01L119 476.05L119.01 476.04Z" fill="url(#paint55_linear_84_6)"/>
<path d="M58.01 483.66C60.66 479.44 63.72 474.26 65.94 470.75C68.31 467.75 71.14 463.65 73.12 460.38L62.62 463.03C66.23 456.39 72.96 444.01 76.16 438.13C76.16 438.13 68.34 440.18 66.75 440.6C73.1 429.54 79.03 419.2 84.89 409C90.44 418.65 97.46 430.85 103.07 440.61L93.64 438.11C98 446.16 102.76 454.89 107.18 463.04C104.74 462.42 99.21 461.02 96.65 460.38C100.58 466.42 107.45 477.45 111.27 483.63L58 483.67L58.01 483.66Z" fill="url(#paint56_linear_84_6)"/>
<path d="M95.01 487.04C97.66 482.82 100.72 477.64 102.94 474.13C105.31 471.13 108.14 467.03 110.12 463.76L99.62 466.41C103.23 459.77 109.96 447.39 113.16 441.51C113.16 441.51 105.34 443.56 103.75 443.98C110.1 432.92 116.03 422.58 121.89 412.38C127.44 422.03 134.46 434.23 140.07 443.99L130.64 441.49C135 449.54 139.76 458.27 144.18 466.42C141.74 465.8 136.21 464.4 133.65 463.76C137.58 469.8 144.45 480.83 148.27 487.01L95 487.05L95.01 487.04Z" fill="url(#paint57_linear_84_6)"/>
<path d="M167.31 470.35C169.96 466.13 173.02 460.95 175.24 457.44C177.61 454.44 180.44 450.34 182.42 447.07L171.92 449.72C175.53 443.08 182.26 430.7 185.46 424.82C185.46 424.82 177.64 426.87 176.05 427.29C182.4 416.23 188.33 405.89 194.19 395.69C199.74 405.34 206.76 417.54 212.37 427.3L202.94 424.8C207.3 432.85 212.06 441.58 216.48 449.73C214.04 449.11 208.51 447.71 205.95 447.07C209.88 453.11 216.75 464.14 220.57 470.32L167.3 470.36L167.31 470.35Z" fill="url(#paint58_linear_84_6)"/>
<path d="M143.31 481.35C145.96 477.13 149.02 471.95 151.24 468.44C153.61 465.44 156.44 461.34 158.42 458.07L147.92 460.72C151.53 454.08 158.26 441.7 161.46 435.82C161.46 435.82 153.64 437.87 152.05 438.29C158.4 427.23 164.33 416.89 170.19 406.69C175.74 416.34 182.76 428.54 188.37 438.3L178.94 435.8C183.3 443.85 188.06 452.58 192.48 460.73C190.04 460.11 184.51 458.71 181.95 458.07C185.88 464.11 192.75 475.14 196.57 481.32L143.3 481.36L143.31 481.35Z" fill="url(#paint59_linear_84_6)"/>
<path d="M215.61 467.5C218.26 463.28 221.32 458.1 223.54 454.59C225.91 451.59 228.74 447.49 230.72 444.22L220.22 446.87C223.83 440.23 230.56 427.85 233.76 421.97C233.76 421.97 225.94 424.02 224.35 424.44C230.7 413.38 236.63 403.04 242.49 392.84C248.04 402.49 255.06 414.69 260.67 424.45L251.24 421.95C255.6 430 260.36 438.73 264.78 446.88C262.34 446.26 256.81 444.86 254.25 444.22C258.18 450.26 265.05 461.29 268.87 467.47L215.6 467.51L215.61 467.5Z" fill="url(#paint60_linear_84_6)"/>
<path d="M191.61 478.5C194.26 474.28 197.32 469.1 199.54 465.59C201.91 462.59 204.74 458.49 206.72 455.22L196.22 457.87C199.83 451.23 206.56 438.85 209.76 432.97C209.76 432.97 201.94 435.02 200.35 435.44C206.7 424.38 212.63 414.04 218.49 403.84C224.04 413.49 231.06 425.69 236.67 435.45L227.24 432.95C231.6 441 236.36 449.73 240.78 457.88C238.34 457.26 232.81 455.86 230.25 455.22C234.18 461.26 241.05 472.29 244.87 478.47L191.6 478.51L191.61 478.5Z" fill="url(#paint61_linear_84_6)"/>
<path d="M263.91 464.66C266.56 460.44 269.62 455.26 271.84 451.75C274.21 448.75 277.04 444.65 279.02 441.38L268.52 444.03C272.13 437.39 278.86 425.01 282.06 419.13C282.06 419.13 274.24 421.18 272.65 421.6C279 410.54 284.93 400.2 290.79 390C296.34 399.65 303.36 411.85 308.97 421.61L299.54 419.11C303.9 427.16 308.66 435.89 313.08 444.04C310.64 443.42 305.11 442.02 302.55 441.38C306.48 447.42 313.35 458.45 317.17 464.63L263.9 464.67L263.91 464.66Z" fill="url(#paint62_linear_84_6)"/>
<path d="M239.91 475.66C242.56 471.44 245.62 466.26 247.84 462.75C250.21 459.75 253.04 455.65 255.02 452.38L244.52 455.03C248.13 448.39 254.86 436.01 258.06 430.13C258.06 430.13 250.24 432.18 248.65 432.6C255 421.54 260.93 411.2 266.79 401C272.34 410.65 279.36 422.85 284.97 432.61L275.54 430.11C279.9 438.16 284.66 446.89 289.08 455.04C286.64 454.42 281.11 453.02 278.55 452.38C282.48 458.42 289.35 469.45 293.17 475.63L239.9 475.67L239.91 475.66Z" fill="url(#paint63_linear_84_6)"/>
<path d="M312.21 464.66C314.86 460.44 317.92 455.26 320.14 451.75C322.51 448.75 325.34 444.65 327.32 441.38L316.82 444.03C320.43 437.39 327.16 425.01 330.36 419.13C330.36 419.13 322.54 421.18 320.95 421.6C327.3 410.54 333.23 400.2 339.09 390C344.64 399.65 351.66 411.85 357.27 421.61L347.84 419.11C352.2 427.16 356.96 435.89 361.38 444.04C358.94 443.42 353.41 442.02 350.85 441.38C354.78 447.42 361.65 458.45 365.47 464.63L312.2 464.67L312.21 464.66Z" fill="url(#paint64_linear_84_6)"/>
<path d="M288.21 475.66C290.86 471.44 293.92 466.26 296.14 462.75C298.51 459.75 301.34 455.65 303.32 452.38L292.82 455.03C296.43 448.39 303.16 436.01 306.36 430.13C306.36 430.13 298.54 432.18 296.95 432.6C303.3 421.54 309.23 411.2 315.09 401C320.64 410.65 327.66 422.85 333.27 432.61L323.84 430.11C328.2 438.16 332.96 446.89 337.38 455.04C334.94 454.42 329.41 453.02 326.85 452.38C330.78 458.42 337.65 469.45 341.47 475.63L288.2 475.67L288.21 475.66Z" fill="url(#paint65_linear_84_6)"/>
<path d="M360.51 464.66C363.16 460.44 366.22 455.26 368.44 451.75C370.81 448.75 373.64 444.65 375.62 441.38L365.12 444.03C368.73 437.39 375.46 425.01 378.66 419.13C378.66 419.13 370.84 421.18 369.25 421.6C375.6 410.54 381.53 400.2 387.39 390C392.94 399.65 399.96 411.85 405.57 421.61L396.14 419.11C400.5 427.16 405.26 435.89 409.68 444.04C407.24 443.42 401.71 442.02 399.15 441.38C403.08 447.42 409.95 458.45 413.77 464.63L360.5 464.67L360.51 464.66Z" fill="url(#paint66_linear_84_6)"/>
<path d="M336.51 475.66C339.16 471.44 342.22 466.26 344.44 462.75C346.81 459.75 349.64 455.65 351.62 452.38L341.12 455.03C344.73 448.39 351.46 436.01 354.66 430.13C354.66 430.13 346.84 432.18 345.25 432.6C351.6 421.54 357.53 411.2 363.39 401C368.94 410.65 375.96 422.85 381.57 432.61L372.14 430.11C376.5 438.16 381.26 446.89 385.68 455.04C383.24 454.42 377.71 453.02 375.15 452.38C379.08 458.42 385.95 469.45 389.77 475.63L336.5 475.67L336.51 475.66Z" fill="url(#paint67_linear_84_6)"/>
<path d="M408.81 464.66C411.46 460.44 414.52 455.26 416.74 451.75C419.11 448.75 421.94 444.65 423.92 441.38L413.42 444.03C417.03 437.39 423.76 425.01 426.96 419.13C426.96 419.13 419.14 421.18 417.55 421.6C423.9 410.54 429.83 400.2 435.69 390C441.24 399.65 448.26 411.85 453.87 421.61L444.44 419.11C448.8 427.16 453.56 435.89 457.98 444.04C455.54 443.42 450.01 442.02 447.45 441.38C451.38 447.42 458.25 458.45 462.07 464.63L408.8 464.67L408.81 464.66Z" fill="url(#paint68_linear_84_6)"/>
<path d="M384.81 475.66C387.46 471.44 390.52 466.26 392.74 462.75C395.11 459.75 397.94 455.65 399.92 452.38L389.42 455.03C393.03 448.39 399.76 436.01 402.96 430.13C402.96 430.13 395.14 432.18 393.55 432.6C399.9 421.54 405.83 411.2 411.69 401C417.24 410.65 424.26 422.85 429.87 432.61L420.44 430.11C424.8 438.16 429.56 446.89 433.98 455.04C431.54 454.42 426.01 453.02 423.45 452.38C427.38 458.42 434.25 469.45 438.07 475.63L384.8 475.67L384.81 475.66Z" fill="url(#paint69_linear_84_6)"/>
<path d="M457.11 464.66C459.76 460.44 462.82 455.26 465.04 451.75C467.41 448.75 470.24 444.65 472.22 441.38L461.72 444.03C465.33 437.39 472.06 425.01 475.26 419.13C475.26 419.13 467.44 421.18 465.85 421.6C472.2 410.54 478.13 400.2 483.99 390C489.54 399.65 496.56 411.85 502.17 421.61L492.74 419.11C497.1 427.16 501.86 435.89 506.28 444.04C503.84 443.42 498.31 442.02 495.75 441.38C499.68 447.42 506.55 458.45 510.37 464.63L457.1 464.67L457.11 464.66Z" fill="url(#paint70_linear_84_6)"/>
<path d="M433.11 475.66C435.76 471.44 438.82 466.26 441.04 462.75C443.41 459.75 446.24 455.65 448.22 452.38L437.72 455.03C441.33 448.39 448.06 436.01 451.26 430.13C451.26 430.13 443.44 432.18 441.85 432.6C448.2 421.54 454.13 411.2 459.99 401C465.54 410.65 472.56 422.85 478.17 432.61L468.74 430.11C473.1 438.16 477.86 446.89 482.28 455.04C479.84 454.42 474.31 453.02 471.75 452.38C475.68 458.42 482.55 469.45 486.37 475.63L433.1 475.67L433.11 475.66Z" fill="url(#paint71_linear_84_6)"/>
<path d="M505.41 464.66C508.06 460.44 511.12 455.26 513.34 451.75C515.71 448.75 518.54 444.65 520.52 441.38L510.02 444.03C513.63 437.39 520.36 425.01 523.56 419.13C523.56 419.13 515.74 421.18 514.15 421.6C520.5 410.54 526.43 400.2 532.29 390C537.84 399.65 544.86 411.85 550.47 421.61L541.04 419.11C545.4 427.16 550.16 435.89 554.58 444.04C552.14 443.42 546.61 442.02 544.05 441.38C547.98 447.42 554.85 458.45 558.67 464.63L505.4 464.67L505.41 464.66Z" fill="url(#paint72_linear_84_6)"/>
<path d="M481.41 475.66C484.06 471.44 487.12 466.26 489.34 462.75C491.71 459.75 494.54 455.65 496.52 452.38L486.02 455.03C489.63 448.39 496.36 436.01 499.56 430.13C499.56 430.13 491.74 432.18 490.15 432.6C496.5 421.54 502.43 411.2 508.29 401C513.84 410.65 520.86 422.85 526.47 432.61L517.04 430.11C521.4 438.16 526.16 446.89 530.58 455.04C528.14 454.42 522.61 453.02 520.05 452.38C523.98 458.42 530.85 469.45 534.67 475.63L481.4 475.67L481.41 475.66Z" fill="url(#paint73_linear_84_6)"/>
<path d="M553.71 467.5C556.36 463.28 559.42 458.1 561.64 454.59C564.01 451.59 566.84 447.49 568.82 444.22L558.32 446.87C561.93 440.23 568.66 427.85 571.86 421.97C571.86 421.97 564.04 424.02 562.45 424.44C568.8 413.38 574.73 403.04 580.59 392.84C586.14 402.49 593.16 414.69 598.77 424.45L589.34 421.95C593.7 430 598.46 438.73 602.88 446.88C600.44 446.26 594.91 444.86 592.35 444.22C596.28 450.26 603.15 461.29 606.97 467.47L553.7 467.51L553.71 467.5Z" fill="url(#paint74_linear_84_6)"/>
<path d="M529.71 478.5C532.36 474.28 535.42 469.1 537.64 465.59C540.01 462.59 542.84 458.49 544.82 455.22L534.32 457.87C537.93 451.23 544.66 438.85 547.86 432.97C547.86 432.97 540.04 435.02 538.45 435.44C544.8 424.38 550.73 414.04 556.59 403.84C562.14 413.49 569.16 425.69 574.77 435.45L565.34 432.95C569.7 441 574.46 449.73 578.88 457.88C576.44 457.26 570.91 455.86 568.35 455.22C572.28 461.26 579.15 472.29 582.97 478.47L529.7 478.51L529.71 478.5Z" fill="url(#paint75_linear_84_6)"/>
<path d="M602.01 470.35C604.66 466.13 607.72 460.95 609.94 457.44C612.31 454.44 615.14 450.34 617.12 447.07L606.62 449.72C610.23 443.08 616.96 430.7 620.16 424.82C620.16 424.82 612.34 426.87 610.75 427.29C617.1 416.23 623.03 405.89 628.89 395.69C634.44 405.34 641.46 417.54 647.07 427.3L637.64 424.8C642 432.85 646.76 441.58 651.18 449.73C648.74 449.11 643.21 447.71 640.65 447.07C644.58 453.11 651.45 464.14 655.27 470.32L602 470.36L602.01 470.35Z" fill="url(#paint76_linear_84_6)"/>
<path d="M578.01 481.35C580.66 477.13 583.72 471.95 585.94 468.44C588.31 465.44 591.14 461.34 593.12 458.07L582.62 460.72C586.23 454.08 592.96 441.7 596.16 435.82C596.16 435.82 588.34 437.87 586.75 438.29C593.1 427.23 599.03 416.89 604.89 406.69C610.44 416.34 617.46 428.54 623.07 438.3L613.64 435.8C618 443.85 622.76 452.58 627.18 460.73C624.74 460.11 619.21 458.71 616.65 458.07C620.58 464.11 627.45 475.14 631.27 481.32L578 481.36L578.01 481.35Z" fill="url(#paint77_linear_84_6)"/>
<path d="M626.01 482.66C628.66 478.44 631.72 473.26 633.94 469.75C636.31 466.75 639.14 462.65 641.12 459.38L630.62 462.03C634.23 455.39 640.96 443.01 644.16 437.13C644.16 437.13 636.34 439.18 634.75 439.6C641.1 428.54 647.03 418.2 652.89 408C658.44 417.65 665.46 429.85 671.07 439.61L661.64 437.11C666 445.16 670.76 453.89 675.18 462.04C672.74 461.42 667.21 460.02 664.65 459.38C668.58 465.42 675.45 476.45 679.27 482.63L626 482.67L626.01 482.66Z" fill="url(#paint78_linear_84_6)"/>
<path d="M251.23 284.3C261.25 284.3 261.84 294.91 251.23 294.91H9.60001C-5.71999 294.91 -0.419987 284.3 9.60001 284.3H41.14C51.56 284.3 57.65 272.73 51.94 264.02C48.55 258.85 46.04 252.65 45.56 245.4C43.99 221.83 70.36 195.46 100.65 204.79C106.92 206.72 113.61 203.88 116.45 197.97C122.38 185.61 135.66 168.19 163.42 168.19C198.37 168.19 211.93 189.59 214.84 208.99C215.77 215.22 221.12 219.89 227.42 220.03C235.94 220.22 247.82 223.31 259.29 235.77C268.33 245.59 264.5 284 240.33 284L251.23 284.29V284.3Z" fill="url(#paint79_linear_84_6)"/>
</g>
<defs>
<radialGradient id="paint0_radial_84_6" cx="0" cy="0" r="1" gradientUnits="userSpaceOnUse" gradientTransform="translate(257.15 39.12) scale(34.63 34.63)">
<stop stop-color="#FFF6D5"/>
<stop offset="0.541667" stop-color="#FFE7A7"/>
<stop offset="1" stop-color="#FFDA7D"/>
</radialGradient>
<linearGradient id="paint1_linear_84_6" x1="392.19" y1="187.15" x2="698" y2="187.15" gradientUnits="userSpaceOnUse">
<stop stop-color="white" stop-opacity="0"/>
<stop offset="0.05" stop-color="white" stop-opacity="0.18"/>
<stop offset="0.1" stop-color="white" stop-opacity="0.35"/>
<stop offset="0.16" stop-color="white" stop-opacity="0.51"/>
<stop offset="0.22" stop-color="white" stop-opacity="0.64"/>
<stop offset="0.28" stop-color="white" stop-opacity="0.75"/>
<stop offset="0.36" stop-color="white" stop-opacity="0.84"/>
<stop offset="0.44" stop-color="white" stop-opacity="0.91"/>
<stop offset="0.55" stop-color="white" stop-opacity="0.96"/>
<stop offset="0.68" stop-color="white" stop-opacity="0.99"/>
<stop offset="1" stop-color="white"/>
</linearGradient>
<linearGradient id="paint2_linear_84_6" x1="382.68" y1="411.28" x2="313.65" y2="-25.2001" gradientUnits="userSpaceOnUse">
<stop stop-color="#108381"/>
<stop offset="0.26" stop-color="#10B981"/>
<stop offset="0.57" stop-color="#FDFF9A"/>
<stop offset="0.65" stop-color="#F8EEA2"/>
<stop offset="0.76" stop-color="#F5E0AB"/>
<stop offset="0.85" stop-color="#F4DBAE"/>
</linearGradient>
<linearGradient id="paint3_linear_84_6" x1="395.57" y1="459.55" x2="295.82" y2="51.3799" gradientUnits="userSpaceOnUse">
<stop stop-color="#108381"/>
<stop offset="0.25" stop-color="#10B981"/>
<stop offset="0.28" stop-color="#1ABC82"/>
<stop offset="0.32" stop-color="#38C485"/>
<stop offset="0.38" stop-color="#67D28A"/>
<stop offset="0.45" stop-color="#A9E691"/>
<stop offset="0.53" stop-color="#FDFF9A"/>
<stop offset="0.93" stop-color="#F4DBAE"/>
</linearGradient>
<linearGradient id="paint4_linear_84_6" x1="486.49" y1="500.52" x2="402.29" y2="58.1598" gradientUnits="userSpaceOnUse">
<stop offset="0.18" stop-color="#108381"/>
<stop offset="0.3" stop-color="#10B981"/>
<stop offset="0.31" stop-color="#15BA81"/>
<stop offset="0.33" stop-color="#23BE83"/>
<stop offset="0.35" stop-color="#3BC585"/>
<stop offset="0.37" stop-color="#5DCF89"/>
<stop offset="0.39" stop-color="#89DC8D"/>
<stop offset="0.41" stop-color="#BEEC93"/>
<stop offset="0.43" stop-color="#FDFF9A"/>
<stop offset="0.53" stop-color="#FCFB9B"/>
<stop offset="0.6" stop-color="#F9F1A1"/>
<stop offset="0.68" stop-color="#F5DFAB"/>
<stop offset="0.69" stop-color="#F4DBAE"/>
</linearGradient>
<linearGradient id="paint5_linear_84_6" x1="212.889" y1="488.3" x2="212.309" y2="178.43" gradientUnits="userSpaceOnUse">
<stop offset="0.21" stop-color="#108381"/>
<stop offset="0.41" stop-color="#10B981"/>
<stop offset="0.59" stop-color="#FDFF9A"/>
<stop offset="0.71" stop-color="#F8ECA4"/>
<stop offset="0.85" stop-color="#F5DFAB"/>
<stop offset="0.97" stop-color="#F4DBAE"/>
</linearGradient>
<linearGradient id="paint6_linear_84_6" x1="125.53" y1="535.97" x2="121.6" y2="162.36" gradientUnits="userSpaceOnUse">
<stop stop-color="#108381"/>
<stop offset="0.23" stop-color="#10B981"/>
<stop offset="0.26" stop-color="#15BA81"/>
<stop offset="0.28" stop-color="#23BE83"/>
<stop offset="0.31" stop-color="#3BC585"/>
<stop offset="0.34" stop-color="#5DCF89"/>
<stop offset="0.37" stop-color="#89DC8D"/>
<stop offset="0.4" stop-color="#BEEC93"/>
<stop offset="0.43" stop-color="#FDFF9A"/>
<stop offset="0.53" stop-color="#FCFB9B"/>
<stop offset="0.6" stop-color="#F9F1A1"/>
<stop offset="0.68" stop-color="#F5DFAB"/>
<stop offset="0.69" stop-color="#F4DBAE"/>
</linearGradient>
<linearGradient id="paint7_linear_84_6" x1="173.73" y1="529.76" x2="169.79" y2="156.15" gradientUnits="userSpaceOnUse">
<stop stop-color="#108381"/>
<stop offset="0.23" stop-color="#10B981"/>
<stop offset="0.26" stop-color="#15BA81"/>
<stop offset="0.28" stop-color="#23BE83"/>
<stop offset="0.31" stop-color="#3BC585"/>
<stop offset="0.34" stop-color="#5DCF89"/>
<stop offset="0.37" stop-color="#89DC8D"/>
<stop offset="0.4" stop-color="#BEEC93"/>
<stop offset="0.43" stop-color="#FDFF9A"/>
<stop offset="0.53" stop-color="#FCFB9B"/>
<stop offset="0.6" stop-color="#F9F1A1"/>
<stop offset="0.68" stop-color="#F5DFAB"/>
<stop offset="0.69" stop-color="#F4DBAE"/>
</linearGradient>
<linearGradient id="paint8_linear_84_6" x1="221.92" y1="526.4" x2="217.98" y2="152.78" gradientUnits="userSpaceOnUse">
<stop stop-color="#108381"/>
<stop offset="0.23" stop-color="#10B981"/>
<stop offset="0.26" stop-color="#15BA81"/>
<stop offset="0.28" stop-color="#23BE83"/>
<stop offset="0.31" stop-color="#3BC585"/>
<stop offset="0.34" stop-color="#5DCF89"/>
<stop offset="0.37" stop-color="#89DC8D"/>
<stop offset="0.4" stop-color="#BEEC93"/>
<stop offset="0.43" stop-color="#FDFF9A"/>
<stop offset="0.53" stop-color="#FCFB9B"/>
<stop offset="0.6" stop-color="#F9F1A1"/>
<stop offset="0.68" stop-color="#F5DFAB"/>
<stop offset="0.69" stop-color="#F4DBAE"/>
</linearGradient>
<linearGradient id="paint9_linear_84_6" x1="270.11" y1="524.45" x2="266.17" y2="150.84" gradientUnits="userSpaceOnUse">
<stop stop-color="#108381"/>
<stop offset="0.23" stop-color="#10B981"/>
<stop offset="0.26" stop-color="#15BA81"/>
<stop offset="0.28" stop-color="#23BE83"/>
<stop offset="0.31" stop-color="#3BC585"/>
<stop offset="0.34" stop-color="#5DCF89"/>
<stop offset="0.37" stop-color="#89DC8D"/>
<stop offset="0.4" stop-color="#BEEC93"/>
<stop offset="0.43" stop-color="#FDFF9A"/>
<stop offset="0.53" stop-color="#FCFB9B"/>
<stop offset="0.6" stop-color="#F9F1A1"/>
<stop offset="0.68" stop-color="#F5DFAB"/>
<stop offset="0.69" stop-color="#F4DBAE"/>
</linearGradient>
<linearGradient id="paint10_linear_84_6" x1="318.3" y1="522.51" x2="314.37" y2="148.9" gradientUnits="userSpaceOnUse">
<stop stop-color="#108381"/>
<stop offset="0.23" stop-color="#10B981"/>
<stop offset="0.26" stop-color="#15BA81"/>
<stop offset="0.28" stop-color="#23BE83"/>
<stop offset="0.31" stop-color="#3BC585"/>
<stop offset="0.34" stop-color="#5DCF89"/>
<stop offset="0.37" stop-color="#89DC8D"/>
<stop offset="0.4" stop-color="#BEEC93"/>
<stop offset="0.43" stop-color="#FDFF9A"/>
<stop offset="0.53" stop-color="#FCFB9B"/>
<stop offset="0.6" stop-color="#F9F1A1"/>
<stop offset="0.68" stop-color="#F5DFAB"/>
<stop offset="0.69" stop-color="#F4DBAE"/>
</linearGradient>
<linearGradient id="paint11_linear_84_6" x1="366.49" y1="521.99" x2="362.56" y2="148.38" gradientUnits="userSpaceOnUse">
<stop stop-color="#108381"/>
<stop offset="0.23" stop-color="#10B981"/>
<stop offset="0.26" stop-color="#15BA81"/>
<stop offset="0.28" stop-color="#23BE83"/>
<stop offset="0.31" stop-color="#3BC585"/>
<stop offset="0.34" stop-color="#5DCF89"/>
<stop offset="0.37" stop-color="#89DC8D"/>
<stop offset="0.4" stop-color="#BEEC93"/>
<stop offset="0.43" stop-color="#FDFF9A"/>
<stop offset="0.53" stop-color="#FCFB9B"/>
<stop offset="0.6" stop-color="#F9F1A1"/>
<stop offset="0.68" stop-color="#F5DFAB"/>
<stop offset="0.69" stop-color="#F4DBAE"/>
</linearGradient>
<linearGradient id="paint12_linear_84_6" x1="414.68" y1="521.47" x2="410.75" y2="147.86" gradientUnits="userSpaceOnUse">
<stop stop-color="#108381"/>
<stop offset="0.23" stop-color="#10B981"/>
<stop offset="0.26" stop-color="#15BA81"/>
<stop offset="0.28" stop-color="#23BE83"/>
<stop offset="0.31" stop-color="#3BC585"/>
<stop offset="0.34" stop-color="#5DCF89"/>
<stop offset="0.37" stop-color="#89DC8D"/>
<stop offset="0.4" stop-color="#BEEC93"/>
<stop offset="0.43" stop-color="#FDFF9A"/>
<stop offset="0.53" stop-color="#FCFB9B"/>
<stop offset="0.6" stop-color="#F9F1A1"/>
<stop offset="0.68" stop-color="#F5DFAB"/>
<stop offset="0.69" stop-color="#F4DBAE"/>
</linearGradient>
<linearGradient id="paint13_linear_84_6" x1="462.87" y1="522.38" x2="458.94" y2="148.76" gradientUnits="userSpaceOnUse">
<stop stop-color="#108381"/>
<stop offset="0.23" stop-color="#10B981"/>
<stop offset="0.26" stop-color="#15BA81"/>
<stop offset="0.28" stop-color="#23BE83"/>
<stop offset="0.31" stop-color="#3BC585"/>
<stop offset="0.34" stop-color="#5DCF89"/>
<stop offset="0.37" stop-color="#89DC8D"/>
<stop offset="0.4" stop-color="#BEEC93"/>
<stop offset="0.43" stop-color="#FDFF9A"/>
<stop offset="0.53" stop-color="#FCFB9B"/>
<stop offset="0.6" stop-color="#F9F1A1"/>
<stop offset="0.68" stop-color="#F5DFAB"/>
<stop offset="0.69" stop-color="#F4DBAE"/>
</linearGradient>
<linearGradient id="paint14_linear_84_6" x1="511.06" y1="523.28" x2="507.13" y2="149.67" gradientUnits="userSpaceOnUse">
<stop stop-color="#108381"/>
<stop offset="0.23" stop-color="#10B981"/>
<stop offset="0.26" stop-color="#15BA81"/>
<stop offset="0.28" stop-color="#23BE83"/>
<stop offset="0.31" stop-color="#3BC585"/>
<stop offset="0.34" stop-color="#5DCF89"/>
<stop offset="0.37" stop-color="#89DC8D"/>
<stop offset="0.4" stop-color="#BEEC93"/>
<stop offset="0.43" stop-color="#FDFF9A"/>
<stop offset="0.53" stop-color="#FCFB9B"/>
<stop offset="0.6" stop-color="#F9F1A1"/>
<stop offset="0.68" stop-color="#F5DFAB"/>
<stop offset="0.69" stop-color="#F4DBAE"/>
</linearGradient>
<linearGradient id="paint15_linear_84_6" x1="559.25" y1="525.61" x2="555.32" y2="151.99" gradientUnits="userSpaceOnUse">
<stop stop-color="#108381"/>
<stop offset="0.23" stop-color="#10B981"/>
<stop offset="0.26" stop-color="#15BA81"/>
<stop offset="0.28" stop-color="#23BE83"/>
<stop offset="0.31" stop-color="#3BC585"/>
<stop offset="0.34" stop-color="#5DCF89"/>
<stop offset="0.37" stop-color="#89DC8D"/>
<stop offset="0.4" stop-color="#BEEC93"/>
<stop offset="0.43" stop-color="#FDFF9A"/>
<stop offset="0.53" stop-color="#FCFB9B"/>
<stop offset="0.6" stop-color="#F9F1A1"/>
<stop offset="0.68" stop-color="#F5DFAB"/>
<stop offset="0.69" stop-color="#F4DBAE"/>
</linearGradient>
<linearGradient id="paint16_linear_84_6" x1="607.44" y1="530.78" x2="603.51" y2="157.16" gradientUnits="userSpaceOnUse">
<stop stop-color="#108381"/>
<stop offset="0.23" stop-color="#10B981"/>
<stop offset="0.26" stop-color="#15BA81"/>
<stop offset="0.28" stop-color="#23BE83"/>
<stop offset="0.31" stop-color="#3BC585"/>
<stop offset="0.34" stop-color="#5DCF89"/>
<stop offset="0.37" stop-color="#89DC8D"/>
<stop offset="0.4" stop-color="#BEEC93"/>
<stop offset="0.43" stop-color="#FDFF9A"/>
<stop offset="0.53" stop-color="#FCFB9B"/>
<stop offset="0.6" stop-color="#F9F1A1"/>
<stop offset="0.68" stop-color="#F5DFAB"/>
<stop offset="0.69" stop-color="#F4DBAE"/>
</linearGradient>
<linearGradient id="paint17_linear_84_6" x1="99.91" y1="465.83" x2="99.91" y2="238.25" gradientUnits="userSpaceOnUse">
<stop offset="0.23" stop-color="#10B981"/>
<stop offset="0.26" stop-color="#15BA81"/>
<stop offset="0.28" stop-color="#23BE83"/>
<stop offset="0.31" stop-color="#3BC585"/>
<stop offset="0.34" stop-color="#5DCF89"/>
<stop offset="0.37" stop-color="#89DC8D"/>
<stop offset="0.4" stop-color="#BEEC93"/>
<stop offset="0.43" stop-color="#FDFF9A"/>
<stop offset="0.53" stop-color="#FCFB9B"/>
<stop offset="0.6" stop-color="#F9F1A1"/>
<stop offset="0.68" stop-color="#F5DFAB"/>
<stop offset="0.69" stop-color="#F4DBAE"/>
</linearGradient>
<linearGradient id="paint18_linear_84_6" x1="148.21" y1="460.14" x2="148.21" y2="232.56" gradientUnits="userSpaceOnUse">
<stop offset="0.23" stop-color="#10B981"/>
<stop offset="0.26" stop-color="#15BA81"/>
<stop offset="0.28" stop-color="#23BE83"/>
<stop offset="0.31" stop-color="#3BC585"/>
<stop offset="0.34" stop-color="#5DCF89"/>
<stop offset="0.37" stop-color="#89DC8D"/>
<stop offset="0.4" stop-color="#BEEC93"/>
<stop offset="0.43" stop-color="#FDFF9A"/>
<stop offset="0.53" stop-color="#FCFB9B"/>
<stop offset="0.6" stop-color="#F9F1A1"/>
<stop offset="0.68" stop-color="#F5DFAB"/>
<stop offset="0.69" stop-color="#F4DBAE"/>
</linearGradient>
<linearGradient id="paint19_linear_84_6" x1="196.51" y1="457.3" x2="196.51" y2="229.71" gradientUnits="userSpaceOnUse">
<stop offset="0.23" stop-color="#10B981"/>
<stop offset="0.26" stop-color="#15BA81"/>
<stop offset="0.28" stop-color="#23BE83"/>
<stop offset="0.31" stop-color="#3BC585"/>
<stop offset="0.34" stop-color="#5DCF89"/>
<stop offset="0.37" stop-color="#89DC8D"/>
<stop offset="0.4" stop-color="#BEEC93"/>
<stop offset="0.43" stop-color="#FDFF9A"/>
<stop offset="0.53" stop-color="#FCFB9B"/>
<stop offset="0.6" stop-color="#F9F1A1"/>
<stop offset="0.68" stop-color="#F5DFAB"/>
<stop offset="0.69" stop-color="#F4DBAE"/>
</linearGradient>
<linearGradient id="paint20_linear_84_6" x1="244.81" y1="454.45" x2="244.81" y2="226.87" gradientUnits="userSpaceOnUse">
<stop offset="0.23" stop-color="#10B981"/>
<stop offset="0.26" stop-color="#15BA81"/>
<stop offset="0.28" stop-color="#23BE83"/>
<stop offset="0.31" stop-color="#3BC585"/>
<stop offset="0.34" stop-color="#5DCF89"/>
<stop offset="0.37" stop-color="#89DC8D"/>
<stop offset="0.4" stop-color="#BEEC93"/>
<stop offset="0.43" stop-color="#FDFF9A"/>
<stop offset="0.53" stop-color="#FCFB9B"/>
<stop offset="0.6" stop-color="#F9F1A1"/>
<stop offset="0.68" stop-color="#F5DFAB"/>
<stop offset="0.69" stop-color="#F4DBAE"/>
</linearGradient>
<linearGradient id="paint21_linear_84_6" x1="293.11" y1="454.45" x2="293.11" y2="226.87" gradientUnits="userSpaceOnUse">
<stop offset="0.23" stop-color="#10B981"/>
<stop offset="0.26" stop-color="#15BA81"/>
<stop offset="0.28" stop-color="#23BE83"/>
<stop offset="0.31" stop-color="#3BC585"/>
<stop offset="0.34" stop-color="#5DCF89"/>
<stop offset="0.37" stop-color="#89DC8D"/>
<stop offset="0.4" stop-color="#BEEC93"/>
<stop offset="0.43" stop-color="#FDFF9A"/>
<stop offset="0.53" stop-color="#FCFB9B"/>
<stop offset="0.6" stop-color="#F9F1A1"/>
<stop offset="0.68" stop-color="#F5DFAB"/>
<stop offset="0.69" stop-color="#F4DBAE"/>
</linearGradient>
<linearGradient id="paint22_linear_84_6" x1="341.41" y1="454.45" x2="341.41" y2="226.87" gradientUnits="userSpaceOnUse">
<stop offset="0.23" stop-color="#10B981"/>
<stop offset="0.26" stop-color="#15BA81"/>
<stop offset="0.28" stop-color="#23BE83"/>
<stop offset="0.31" stop-color="#3BC585"/>
<stop offset="0.34" stop-color="#5DCF89"/>
<stop offset="0.37" stop-color="#89DC8D"/>
<stop offset="0.4" stop-color="#BEEC93"/>
<stop offset="0.43" stop-color="#FDFF9A"/>
<stop offset="0.53" stop-color="#FCFB9B"/>
<stop offset="0.6" stop-color="#F9F1A1"/>
<stop offset="0.68" stop-color="#F5DFAB"/>
<stop offset="0.69" stop-color="#F4DBAE"/>
</linearGradient>
<linearGradient id="paint23_linear_84_6" x1="389.71" y1="454.45" x2="389.71" y2="226.87" gradientUnits="userSpaceOnUse">
<stop offset="0.23" stop-color="#10B981"/>
<stop offset="0.26" stop-color="#15BA81"/>
<stop offset="0.28" stop-color="#23BE83"/>
<stop offset="0.31" stop-color="#3BC585"/>
<stop offset="0.34" stop-color="#5DCF89"/>
<stop offset="0.37" stop-color="#89DC8D"/>
<stop offset="0.4" stop-color="#BEEC93"/>
<stop offset="0.43" stop-color="#FDFF9A"/>
<stop offset="0.53" stop-color="#FCFB9B"/>
<stop offset="0.6" stop-color="#F9F1A1"/>
<stop offset="0.68" stop-color="#F5DFAB"/>
<stop offset="0.69" stop-color="#F4DBAE"/>
</linearGradient>
<linearGradient id="paint24_linear_84_6" x1="438.01" y1="454.45" x2="438.01" y2="226.87" gradientUnits="userSpaceOnUse">
<stop offset="0.23" stop-color="#10B981"/>
<stop offset="0.26" stop-color="#15BA81"/>
<stop offset="0.28" stop-color="#23BE83"/>
<stop offset="0.31" stop-color="#3BC585"/>
<stop offset="0.34" stop-color="#5DCF89"/>
<stop offset="0.37" stop-color="#89DC8D"/>
<stop offset="0.4" stop-color="#BEEC93"/>
<stop offset="0.43" stop-color="#FDFF9A"/>
<stop offset="0.53" stop-color="#FCFB9B"/>
<stop offset="0.6" stop-color="#F9F1A1"/>
<stop offset="0.68" stop-color="#F5DFAB"/>
<stop offset="0.69" stop-color="#F4DBAE"/>
</linearGradient>
<linearGradient id="paint25_linear_84_6" x1="486.31" y1="454.45" x2="486.31" y2="226.87" gradientUnits="userSpaceOnUse">
<stop offset="0.23" stop-color="#10B981"/>
<stop offset="0.26" stop-color="#15BA81"/>
<stop offset="0.28" stop-color="#23BE83"/>
<stop offset="0.31" stop-color="#3BC585"/>
<stop offset="0.34" stop-color="#5DCF89"/>
<stop offset="0.37" stop-color="#89DC8D"/>
<stop offset="0.4" stop-color="#BEEC93"/>
<stop offset="0.43" stop-color="#FDFF9A"/>
<stop offset="0.53" stop-color="#FCFB9B"/>
<stop offset="0.6" stop-color="#F9F1A1"/>
<stop offset="0.68" stop-color="#F5DFAB"/>
<stop offset="0.69" stop-color="#F4DBAE"/>
</linearGradient>
<linearGradient id="paint26_linear_84_6" x1="534.61" y1="457.3" x2="534.61" y2="229.71" gradientUnits="userSpaceOnUse">
<stop offset="0.23" stop-color="#10B981"/>
<stop offset="0.26" stop-color="#15BA81"/>
<stop offset="0.28" stop-color="#23BE83"/>
<stop offset="0.31" stop-color="#3BC585"/>
<stop offset="0.34" stop-color="#5DCF89"/>
<stop offset="0.37" stop-color="#89DC8D"/>
<stop offset="0.4" stop-color="#BEEC93"/>
<stop offset="0.43" stop-color="#FDFF9A"/>
<stop offset="0.53" stop-color="#FCFB9B"/>
<stop offset="0.6" stop-color="#F9F1A1"/>
<stop offset="0.68" stop-color="#F5DFAB"/>
<stop offset="0.69" stop-color="#F4DBAE"/>
</linearGradient>
<linearGradient id="paint27_linear_84_6" x1="582.91" y1="460.14" x2="582.91" y2="232.56" gradientUnits="userSpaceOnUse">
<stop offset="0.23" stop-color="#10B981"/>
<stop offset="0.26" stop-color="#15BA81"/>
<stop offset="0.28" stop-color="#23BE83"/>
<stop offset="0.31" stop-color="#3BC585"/>
<stop offset="0.34" stop-color="#5DCF89"/>
<stop offset="0.37" stop-color="#89DC8D"/>
<stop offset="0.4" stop-color="#BEEC93"/>
<stop offset="0.43" stop-color="#FDFF9A"/>
<stop offset="0.53" stop-color="#FCFB9B"/>
<stop offset="0.6" stop-color="#F9F1A1"/>
<stop offset="0.68" stop-color="#F5DFAB"/>
<stop offset="0.69" stop-color="#F4DBAE"/>
</linearGradient>
<linearGradient id="paint28_linear_84_6" x1="641.65" y1="469.25" x2="641.65" y2="241.67" gradientUnits="userSpaceOnUse">
<stop offset="0.23" stop-color="#10B981"/>
<stop offset="0.26" stop-color="#15BA81"/>
<stop offset="0.28" stop-color="#23BE83"/>
<stop offset="0.31" stop-color="#3BC585"/>
<stop offset="0.34" stop-color="#5DCF89"/>
<stop offset="0.37" stop-color="#89DC8D"/>
<stop offset="0.4" stop-color="#BEEC93"/>
<stop offset="0.43" stop-color="#FDFF9A"/>
<stop offset="0.53" stop-color="#FCFB9B"/>
<stop offset="0.6" stop-color="#F9F1A1"/>
<stop offset="0.68" stop-color="#F5DFAB"/>
<stop offset="0.69" stop-color="#F4DBAE"/>
</linearGradient>
<linearGradient id="paint29_linear_84_6" x1="111.65" y1="477.63" x2="111.65" y2="250.05" gradientUnits="userSpaceOnUse">
<stop offset="0.23" stop-color="#10B981"/>
<stop offset="0.26" stop-color="#15BA81"/>
<stop offset="0.28" stop-color="#23BE83"/>
<stop offset="0.31" stop-color="#3BC585"/>
<stop offset="0.34" stop-color="#5DCF89"/>
<stop offset="0.37" stop-color="#89DC8D"/>
<stop offset="0.4" stop-color="#BEEC93"/>
<stop offset="0.43" stop-color="#FDFF9A"/>
<stop offset="0.53" stop-color="#FCFB9B"/>
<stop offset="0.6" stop-color="#F9F1A1"/>
<stop offset="0.68" stop-color="#F5DFAB"/>
<stop offset="0.69" stop-color="#F4DBAE"/>
</linearGradient>
<linearGradient id="paint30_linear_84_6" x1="159.95" y1="471.94" x2="159.95" y2="244.36" gradientUnits="userSpaceOnUse">
<stop offset="0.23" stop-color="#10B981"/>
<stop offset="0.26" stop-color="#15BA81"/>
<stop offset="0.28" stop-color="#23BE83"/>
<stop offset="0.31" stop-color="#3BC585"/>
<stop offset="0.34" stop-color="#5DCF89"/>
<stop offset="0.37" stop-color="#89DC8D"/>
<stop offset="0.4" stop-color="#BEEC93"/>
<stop offset="0.43" stop-color="#FDFF9A"/>
<stop offset="0.53" stop-color="#FCFB9B"/>
<stop offset="0.6" stop-color="#F9F1A1"/>
<stop offset="0.68" stop-color="#F5DFAB"/>
<stop offset="0.69" stop-color="#F4DBAE"/>
</linearGradient>
<linearGradient id="paint31_linear_84_6" x1="208.25" y1="469.1" x2="208.25" y2="241.51" gradientUnits="userSpaceOnUse">
<stop offset="0.23" stop-color="#10B981"/>
<stop offset="0.26" stop-color="#15BA81"/>
<stop offset="0.28" stop-color="#23BE83"/>
<stop offset="0.31" stop-color="#3BC585"/>
<stop offset="0.34" stop-color="#5DCF89"/>
<stop offset="0.37" stop-color="#89DC8D"/>
<stop offset="0.4" stop-color="#BEEC93"/>
<stop offset="0.43" stop-color="#FDFF9A"/>
<stop offset="0.53" stop-color="#FCFB9B"/>
<stop offset="0.6" stop-color="#F9F1A1"/>
<stop offset="0.68" stop-color="#F5DFAB"/>
<stop offset="0.69" stop-color="#F4DBAE"/>
</linearGradient>
<linearGradient id="paint32_linear_84_6" x1="256.55" y1="466.25" x2="256.55" y2="238.67" gradientUnits="userSpaceOnUse">
<stop offset="0.23" stop-color="#10B981"/>
<stop offset="0.26" stop-color="#15BA81"/>
<stop offset="0.28" stop-color="#23BE83"/>
<stop offset="0.31" stop-color="#3BC585"/>
<stop offset="0.34" stop-color="#5DCF89"/>
<stop offset="0.37" stop-color="#89DC8D"/>
<stop offset="0.4" stop-color="#BEEC93"/>
<stop offset="0.43" stop-color="#FDFF9A"/>
<stop offset="0.53" stop-color="#FCFB9B"/>
<stop offset="0.6" stop-color="#F9F1A1"/>
<stop offset="0.68" stop-color="#F5DFAB"/>
<stop offset="0.69" stop-color="#F4DBAE"/>
</linearGradient>
<linearGradient id="paint33_linear_84_6" x1="304.85" y1="466.25" x2="304.85" y2="238.67" gradientUnits="userSpaceOnUse">
<stop offset="0.23" stop-color="#10B981"/>
<stop offset="0.26" stop-color="#15BA81"/>
<stop offset="0.28" stop-color="#23BE83"/>
<stop offset="0.31" stop-color="#3BC585"/>
<stop offset="0.34" stop-color="#5DCF89"/>
<stop offset="0.37" stop-color="#89DC8D"/>
<stop offset="0.4" stop-color="#BEEC93"/>
<stop offset="0.43" stop-color="#FDFF9A"/>
<stop offset="0.53" stop-color="#FCFB9B"/>
<stop offset="0.6" stop-color="#F9F1A1"/>
<stop offset="0.68" stop-color="#F5DFAB"/>
<stop offset="0.69" stop-color="#F4DBAE"/>
</linearGradient>
<linearGradient id="paint34_linear_84_6" x1="353.15" y1="466.25" x2="353.15" y2="238.67" gradientUnits="userSpaceOnUse">
<stop offset="0.23" stop-color="#10B981"/>
<stop offset="0.26" stop-color="#15BA81"/>
<stop offset="0.28" stop-color="#23BE83"/>
<stop offset="0.31" stop-color="#3BC585"/>
<stop offset="0.34" stop-color="#5DCF89"/>
<stop offset="0.37" stop-color="#89DC8D"/>
<stop offset="0.4" stop-color="#BEEC93"/>
<stop offset="0.43" stop-color="#FDFF9A"/>
<stop offset="0.53" stop-color="#FCFB9B"/>
<stop offset="0.6" stop-color="#F9F1A1"/>
<stop offset="0.68" stop-color="#F5DFAB"/>
<stop offset="0.69" stop-color="#F4DBAE"/>
</linearGradient>
<linearGradient id="paint35_linear_84_6" x1="401.45" y1="466.25" x2="401.45" y2="238.67" gradientUnits="userSpaceOnUse">
<stop offset="0.23" stop-color="#10B981"/>
<stop offset="0.26" stop-color="#15BA81"/>
<stop offset="0.28" stop-color="#23BE83"/>
<stop offset="0.31" stop-color="#3BC585"/>
<stop offset="0.34" stop-color="#5DCF89"/>
<stop offset="0.37" stop-color="#89DC8D"/>
<stop offset="0.4" stop-color="#BEEC93"/>
<stop offset="0.43" stop-color="#FDFF9A"/>
<stop offset="0.53" stop-color="#FCFB9B"/>
<stop offset="0.6" stop-color="#F9F1A1"/>
<stop offset="0.68" stop-color="#F5DFAB"/>
<stop offset="0.69" stop-color="#F4DBAE"/>
</linearGradient>
<linearGradient id="paint36_linear_84_6" x1="449.75" y1="466.25" x2="449.75" y2="238.67" gradientUnits="userSpaceOnUse">
<stop offset="0.23" stop-color="#10B981"/>
<stop offset="0.26" stop-color="#15BA81"/>
<stop offset="0.28" stop-color="#23BE83"/>
<stop offset="0.31" stop-color="#3BC585"/>
<stop offset="0.34" stop-color="#5DCF89"/>
<stop offset="0.37" stop-color="#89DC8D"/>
<stop offset="0.4" stop-color="#BEEC93"/>
<stop offset="0.43" stop-color="#FDFF9A"/>
<stop offset="0.53" stop-color="#FCFB9B"/>
<stop offset="0.6" stop-color="#F9F1A1"/>
<stop offset="0.68" stop-color="#F5DFAB"/>
<stop offset="0.69" stop-color="#F4DBAE"/>
</linearGradient>
<linearGradient id="paint37_linear_84_6" x1="498.05" y1="466.25" x2="498.05" y2="238.67" gradientUnits="userSpaceOnUse">
<stop offset="0.23" stop-color="#10B981"/>
<stop offset="0.26" stop-color="#15BA81"/>
<stop offset="0.28" stop-color="#23BE83"/>
<stop offset="0.31" stop-color="#3BC585"/>
<stop offset="0.34" stop-color="#5DCF89"/>
<stop offset="0.37" stop-color="#89DC8D"/>
<stop offset="0.4" stop-color="#BEEC93"/>
<stop offset="0.43" stop-color="#FDFF9A"/>
<stop offset="0.53" stop-color="#FCFB9B"/>
<stop offset="0.6" stop-color="#F9F1A1"/>
<stop offset="0.68" stop-color="#F5DFAB"/>
<stop offset="0.69" stop-color="#F4DBAE"/>
</linearGradient>
<linearGradient id="paint38_linear_84_6" x1="546.35" y1="469.1" x2="546.35" y2="241.51" gradientUnits="userSpaceOnUse">
<stop offset="0.23" stop-color="#10B981"/>
<stop offset="0.26" stop-color="#15BA81"/>
<stop offset="0.28" stop-color="#23BE83"/>
<stop offset="0.31" stop-color="#3BC585"/>
<stop offset="0.34" stop-color="#5DCF89"/>
<stop offset="0.37" stop-color="#89DC8D"/>
<stop offset="0.4" stop-color="#BEEC93"/>
<stop offset="0.43" stop-color="#FDFF9A"/>
<stop offset="0.53" stop-color="#FCFB9B"/>
<stop offset="0.6" stop-color="#F9F1A1"/>
<stop offset="0.68" stop-color="#F5DFAB"/>
<stop offset="0.69" stop-color="#F4DBAE"/>
</linearGradient>
<linearGradient id="paint39_linear_84_6" x1="594.65" y1="471.94" x2="594.65" y2="244.36" gradientUnits="userSpaceOnUse">
<stop offset="0.23" stop-color="#10B981"/>
<stop offset="0.26" stop-color="#15BA81"/>
<stop offset="0.28" stop-color="#23BE83"/>
<stop offset="0.31" stop-color="#3BC585"/>
<stop offset="0.34" stop-color="#5DCF89"/>
<stop offset="0.37" stop-color="#89DC8D"/>
<stop offset="0.4" stop-color="#BEEC93"/>
<stop offset="0.43" stop-color="#FDFF9A"/>
<stop offset="0.53" stop-color="#FCFB9B"/>
<stop offset="0.6" stop-color="#F9F1A1"/>
<stop offset="0.68" stop-color="#F5DFAB"/>
<stop offset="0.69" stop-color="#F4DBAE"/>
</linearGradient>
<linearGradient id="paint40_linear_84_6" x1="626.65" y1="473.25" x2="626.65" y2="245.67" gradientUnits="userSpaceOnUse">
<stop offset="0.23" stop-color="#10B981"/>
<stop offset="0.26" stop-color="#15BA81"/>
<stop offset="0.28" stop-color="#23BE83"/>
<stop offset="0.31" stop-color="#3BC585"/>
<stop offset="0.34" stop-color="#5DCF89"/>
<stop offset="0.37" stop-color="#89DC8D"/>
<stop offset="0.4" stop-color="#BEEC93"/>
<stop offset="0.43" stop-color="#FDFF9A"/>
<stop offset="0.53" stop-color="#FCFB9B"/>
<stop offset="0.6" stop-color="#F9F1A1"/>
<stop offset="0.68" stop-color="#F5DFAB"/>
<stop offset="0.69" stop-color="#F4DBAE"/>
</linearGradient>
<linearGradient id="paint41_linear_84_6" x1="126.65" y1="484.63" x2="126.65" y2="257.05" gradientUnits="userSpaceOnUse">
<stop offset="0.23" stop-color="#10B981"/>
<stop offset="0.26" stop-color="#15BA81"/>
<stop offset="0.28" stop-color="#23BE83"/>
<stop offset="0.31" stop-color="#3BC585"/>
<stop offset="0.34" stop-color="#5DCF89"/>
<stop offset="0.37" stop-color="#89DC8D"/>
<stop offset="0.4" stop-color="#BEEC93"/>
<stop offset="0.43" stop-color="#FDFF9A"/>
<stop offset="0.53" stop-color="#FCFB9B"/>
<stop offset="0.6" stop-color="#F9F1A1"/>
<stop offset="0.68" stop-color="#F5DFAB"/>
<stop offset="0.69" stop-color="#F4DBAE"/>
</linearGradient>
<linearGradient id="paint42_linear_84_6" x1="78.65" y1="478.25" x2="78.65" y2="250.67" gradientUnits="userSpaceOnUse">
<stop offset="0.23" stop-color="#10B981"/>
<stop offset="0.26" stop-color="#15BA81"/>
<stop offset="0.28" stop-color="#23BE83"/>
<stop offset="0.31" stop-color="#3BC585"/>
<stop offset="0.34" stop-color="#5DCF89"/>
<stop offset="0.37" stop-color="#89DC8D"/>
<stop offset="0.4" stop-color="#BEEC93"/>
<stop offset="0.43" stop-color="#FDFF9A"/>
<stop offset="0.53" stop-color="#FCFB9B"/>
<stop offset="0.6" stop-color="#F9F1A1"/>
<stop offset="0.68" stop-color="#F5DFAB"/>
<stop offset="0.69" stop-color="#F4DBAE"/>
</linearGradient>
<linearGradient id="paint43_linear_84_6" x1="98.65" y1="487.25" x2="98.65" y2="259.67" gradientUnits="userSpaceOnUse">
<stop offset="0.23" stop-color="#10B981"/>
<stop offset="0.26" stop-color="#15BA81"/>
<stop offset="0.28" stop-color="#23BE83"/>
<stop offset="0.31" stop-color="#3BC585"/>
<stop offset="0.34" stop-color="#5DCF89"/>
<stop offset="0.37" stop-color="#89DC8D"/>
<stop offset="0.4" stop-color="#BEEC93"/>
<stop offset="0.43" stop-color="#FDFF9A"/>
<stop offset="0.53" stop-color="#FCFB9B"/>
<stop offset="0.6" stop-color="#F9F1A1"/>
<stop offset="0.68" stop-color="#F5DFAB"/>
<stop offset="0.69" stop-color="#F4DBAE"/>
</linearGradient>
<linearGradient id="paint44_linear_84_6" x1="174.95" y1="478.94" x2="174.95" y2="251.36" gradientUnits="userSpaceOnUse">
<stop offset="0.23" stop-color="#10B981"/>
<stop offset="0.26" stop-color="#15BA81"/>
<stop offset="0.28" stop-color="#23BE83"/>
<stop offset="0.31" stop-color="#3BC585"/>
<stop offset="0.34" stop-color="#5DCF89"/>
<stop offset="0.37" stop-color="#89DC8D"/>
<stop offset="0.4" stop-color="#BEEC93"/>
<stop offset="0.43" stop-color="#FDFF9A"/>
<stop offset="0.53" stop-color="#FCFB9B"/>
<stop offset="0.6" stop-color="#F9F1A1"/>
<stop offset="0.68" stop-color="#F5DFAB"/>
<stop offset="0.69" stop-color="#F4DBAE"/>
</linearGradient>
<linearGradient id="paint45_linear_84_6" x1="223.25" y1="476.1" x2="223.25" y2="248.51" gradientUnits="userSpaceOnUse">
<stop offset="0.23" stop-color="#10B981"/>
<stop offset="0.26" stop-color="#15BA81"/>
<stop offset="0.28" stop-color="#23BE83"/>
<stop offset="0.31" stop-color="#3BC585"/>
<stop offset="0.34" stop-color="#5DCF89"/>
<stop offset="0.37" stop-color="#89DC8D"/>
<stop offset="0.4" stop-color="#BEEC93"/>
<stop offset="0.43" stop-color="#FDFF9A"/>
<stop offset="0.53" stop-color="#FCFB9B"/>
<stop offset="0.6" stop-color="#F9F1A1"/>
<stop offset="0.68" stop-color="#F5DFAB"/>
<stop offset="0.69" stop-color="#F4DBAE"/>
</linearGradient>
<linearGradient id="paint46_linear_84_6" x1="271.55" y1="473.25" x2="271.55" y2="245.67" gradientUnits="userSpaceOnUse">
<stop offset="0.23" stop-color="#10B981"/>
<stop offset="0.26" stop-color="#15BA81"/>
<stop offset="0.28" stop-color="#23BE83"/>
<stop offset="0.31" stop-color="#3BC585"/>
<stop offset="0.34" stop-color="#5DCF89"/>
<stop offset="0.37" stop-color="#89DC8D"/>
<stop offset="0.4" stop-color="#BEEC93"/>
<stop offset="0.43" stop-color="#FDFF9A"/>
<stop offset="0.53" stop-color="#FCFB9B"/>
<stop offset="0.6" stop-color="#F9F1A1"/>
<stop offset="0.68" stop-color="#F5DFAB"/>
<stop offset="0.69" stop-color="#F4DBAE"/>
</linearGradient>
<linearGradient id="paint47_linear_84_6" x1="319.85" y1="473.25" x2="319.85" y2="245.67" gradientUnits="userSpaceOnUse">
<stop offset="0.23" stop-color="#10B981"/>
<stop offset="0.26" stop-color="#15BA81"/>
<stop offset="0.28" stop-color="#23BE83"/>
<stop offset="0.31" stop-color="#3BC585"/>
<stop offset="0.34" stop-color="#5DCF89"/>
<stop offset="0.37" stop-color="#89DC8D"/>
<stop offset="0.4" stop-color="#BEEC93"/>
<stop offset="0.43" stop-color="#FDFF9A"/>
<stop offset="0.53" stop-color="#FCFB9B"/>
<stop offset="0.6" stop-color="#F9F1A1"/>
<stop offset="0.68" stop-color="#F5DFAB"/>
<stop offset="0.69" stop-color="#F4DBAE"/>
</linearGradient>
<linearGradient id="paint48_linear_84_6" x1="368.15" y1="473.25" x2="368.15" y2="245.67" gradientUnits="userSpaceOnUse">
<stop offset="0.23" stop-color="#10B981"/>
<stop offset="0.26" stop-color="#15BA81"/>
<stop offset="0.28" stop-color="#23BE83"/>
<stop offset="0.31" stop-color="#3BC585"/>
<stop offset="0.34" stop-color="#5DCF89"/>
<stop offset="0.37" stop-color="#89DC8D"/>
<stop offset="0.4" stop-color="#BEEC93"/>
<stop offset="0.43" stop-color="#FDFF9A"/>
<stop offset="0.53" stop-color="#FCFB9B"/>
<stop offset="0.6" stop-color="#F9F1A1"/>
<stop offset="0.68" stop-color="#F5DFAB"/>
<stop offset="0.69" stop-color="#F4DBAE"/>
</linearGradient>
<linearGradient id="paint49_linear_84_6" x1="416.45" y1="473.25" x2="416.45" y2="245.67" gradientUnits="userSpaceOnUse">
<stop offset="0.23" stop-color="#10B981"/>
<stop offset="0.26" stop-color="#15BA81"/>
<stop offset="0.28" stop-color="#23BE83"/>
<stop offset="0.31" stop-color="#3BC585"/>
<stop offset="0.34" stop-color="#5DCF89"/>
<stop offset="0.37" stop-color="#89DC8D"/>
<stop offset="0.4" stop-color="#BEEC93"/>
<stop offset="0.43" stop-color="#FDFF9A"/>
<stop offset="0.53" stop-color="#FCFB9B"/>
<stop offset="0.6" stop-color="#F9F1A1"/>
<stop offset="0.68" stop-color="#F5DFAB"/>
<stop offset="0.69" stop-color="#F4DBAE"/>
</linearGradient>
<linearGradient id="paint50_linear_84_6" x1="464.75" y1="473.25" x2="464.75" y2="245.67" gradientUnits="userSpaceOnUse">
<stop offset="0.23" stop-color="#10B981"/>
<stop offset="0.26" stop-color="#15BA81"/>
<stop offset="0.28" stop-color="#23BE83"/>
<stop offset="0.31" stop-color="#3BC585"/>
<stop offset="0.34" stop-color="#5DCF89"/>
<stop offset="0.37" stop-color="#89DC8D"/>
<stop offset="0.4" stop-color="#BEEC93"/>
<stop offset="0.43" stop-color="#FDFF9A"/>
<stop offset="0.53" stop-color="#FCFB9B"/>
<stop offset="0.6" stop-color="#F9F1A1"/>
<stop offset="0.68" stop-color="#F5DFAB"/>
<stop offset="0.69" stop-color="#F4DBAE"/>
</linearGradient>
<linearGradient id="paint51_linear_84_6" x1="513.05" y1="473.25" x2="513.05" y2="245.67" gradientUnits="userSpaceOnUse">
<stop offset="0.23" stop-color="#10B981"/>
<stop offset="0.26" stop-color="#15BA81"/>
<stop offset="0.28" stop-color="#23BE83"/>
<stop offset="0.31" stop-color="#3BC585"/>
<stop offset="0.34" stop-color="#5DCF89"/>
<stop offset="0.37" stop-color="#89DC8D"/>
<stop offset="0.4" stop-color="#BEEC93"/>
<stop offset="0.43" stop-color="#FDFF9A"/>
<stop offset="0.53" stop-color="#FCFB9B"/>
<stop offset="0.6" stop-color="#F9F1A1"/>
<stop offset="0.68" stop-color="#F5DFAB"/>
<stop offset="0.69" stop-color="#F4DBAE"/>
</linearGradient>
<linearGradient id="paint52_linear_84_6" x1="561.35" y1="476.1" x2="561.35" y2="248.51" gradientUnits="userSpaceOnUse">
<stop offset="0.23" stop-color="#10B981"/>
<stop offset="0.26" stop-color="#15BA81"/>
<stop offset="0.28" stop-color="#23BE83"/>
<stop offset="0.31" stop-color="#3BC585"/>
<stop offset="0.34" stop-color="#5DCF89"/>
<stop offset="0.37" stop-color="#89DC8D"/>
<stop offset="0.4" stop-color="#BEEC93"/>
<stop offset="0.43" stop-color="#FDFF9A"/>
<stop offset="0.53" stop-color="#FCFB9B"/>
<stop offset="0.6" stop-color="#F9F1A1"/>
<stop offset="0.68" stop-color="#F5DFAB"/>
<stop offset="0.69" stop-color="#F4DBAE"/>
</linearGradient>
<linearGradient id="paint53_linear_84_6" x1="609.65" y1="478.94" x2="609.65" y2="251.36" gradientUnits="userSpaceOnUse">
<stop offset="0.23" stop-color="#10B981"/>
<stop offset="0.26" stop-color="#15BA81"/>
<stop offset="0.28" stop-color="#23BE83"/>
<stop offset="0.31" stop-color="#3BC585"/>
<stop offset="0.34" stop-color="#5DCF89"/>
<stop offset="0.37" stop-color="#89DC8D"/>
<stop offset="0.4" stop-color="#BEEC93"/>
<stop offset="0.43" stop-color="#FDFF9A"/>
<stop offset="0.53" stop-color="#FCFB9B"/>
<stop offset="0.6" stop-color="#F9F1A1"/>
<stop offset="0.68" stop-color="#F5DFAB"/>
<stop offset="0.69" stop-color="#F4DBAE"/>
</linearGradient>
<linearGradient id="paint54_linear_84_6" x1="652.65" y1="476.25" x2="652.65" y2="248.67" gradientUnits="userSpaceOnUse">
<stop offset="0.23" stop-color="#10B981"/>
<stop offset="0.26" stop-color="#15BA81"/>
<stop offset="0.28" stop-color="#23BE83"/>
<stop offset="0.31" stop-color="#3BC585"/>
<stop offset="0.34" stop-color="#5DCF89"/>
<stop offset="0.37" stop-color="#89DC8D"/>
<stop offset="0.4" stop-color="#BEEC93"/>
<stop offset="0.43" stop-color="#FDFF9A"/>
<stop offset="0.53" stop-color="#FCFB9B"/>
<stop offset="0.6" stop-color="#F9F1A1"/>
<stop offset="0.68" stop-color="#F5DFAB"/>
<stop offset="0.69" stop-color="#F4DBAE"/>
</linearGradient>
<linearGradient id="paint55_linear_84_6" x1="145.65" y1="495.63" x2="145.65" y2="268.05" gradientUnits="userSpaceOnUse">
<stop offset="0.23" stop-color="#10B981"/>
<stop offset="0.26" stop-color="#15BA81"/>
<stop offset="0.28" stop-color="#23BE83"/>
<stop offset="0.31" stop-color="#3BC585"/>
<stop offset="0.34" stop-color="#5DCF89"/>
<stop offset="0.37" stop-color="#89DC8D"/>
<stop offset="0.4" stop-color="#BEEC93"/>
<stop offset="0.43" stop-color="#FDFF9A"/>
<stop offset="0.53" stop-color="#FCFB9B"/>
<stop offset="0.6" stop-color="#F9F1A1"/>
<stop offset="0.68" stop-color="#F5DFAB"/>
<stop offset="0.69" stop-color="#F4DBAE"/>
</linearGradient>
<linearGradient id="paint56_linear_84_6" x1="84.65" y1="503.25" x2="84.65" y2="275.67" gradientUnits="userSpaceOnUse">
<stop offset="0.23" stop-color="#10B981"/>
<stop offset="0.26" stop-color="#15BA81"/>
<stop offset="0.28" stop-color="#23BE83"/>
<stop offset="0.31" stop-color="#3BC585"/>
<stop offset="0.34" stop-color="#5DCF89"/>
<stop offset="0.37" stop-color="#89DC8D"/>
<stop offset="0.4" stop-color="#BEEC93"/>
<stop offset="0.43" stop-color="#FDFF9A"/>
<stop offset="0.53" stop-color="#FCFB9B"/>
<stop offset="0.6" stop-color="#F9F1A1"/>
<stop offset="0.68" stop-color="#F5DFAB"/>
<stop offset="0.69" stop-color="#F4DBAE"/>
</linearGradient>
<linearGradient id="paint57_linear_84_6" x1="121.65" y1="506.63" x2="121.65" y2="279.05" gradientUnits="userSpaceOnUse">
<stop offset="0.23" stop-color="#10B981"/>
<stop offset="0.26" stop-color="#15BA81"/>
<stop offset="0.28" stop-color="#23BE83"/>
<stop offset="0.31" stop-color="#3BC585"/>
<stop offset="0.34" stop-color="#5DCF89"/>
<stop offset="0.37" stop-color="#89DC8D"/>
<stop offset="0.4" stop-color="#BEEC93"/>
<stop offset="0.43" stop-color="#FDFF9A"/>
<stop offset="0.53" stop-color="#FCFB9B"/>
<stop offset="0.6" stop-color="#F9F1A1"/>
<stop offset="0.68" stop-color="#F5DFAB"/>
<stop offset="0.69" stop-color="#F4DBAE"/>
</linearGradient>
<linearGradient id="paint58_linear_84_6" x1="193.95" y1="489.94" x2="193.95" y2="262.36" gradientUnits="userSpaceOnUse">
<stop offset="0.23" stop-color="#10B981"/>
<stop offset="0.26" stop-color="#15BA81"/>
<stop offset="0.28" stop-color="#23BE83"/>
<stop offset="0.31" stop-color="#3BC585"/>
<stop offset="0.34" stop-color="#5DCF89"/>
<stop offset="0.37" stop-color="#89DC8D"/>
<stop offset="0.4" stop-color="#BEEC93"/>
<stop offset="0.43" stop-color="#FDFF9A"/>
<stop offset="0.53" stop-color="#FCFB9B"/>
<stop offset="0.6" stop-color="#F9F1A1"/>
<stop offset="0.68" stop-color="#F5DFAB"/>
<stop offset="0.69" stop-color="#F4DBAE"/>
</linearGradient>
<linearGradient id="paint59_linear_84_6" x1="169.95" y1="500.94" x2="169.95" y2="273.36" gradientUnits="userSpaceOnUse">
<stop offset="0.23" stop-color="#10B981"/>
<stop offset="0.26" stop-color="#15BA81"/>
<stop offset="0.28" stop-color="#23BE83"/>
<stop offset="0.31" stop-color="#3BC585"/>
<stop offset="0.34" stop-color="#5DCF89"/>
<stop offset="0.37" stop-color="#89DC8D"/>
<stop offset="0.4" stop-color="#BEEC93"/>
<stop offset="0.43" stop-color="#FDFF9A"/>
<stop offset="0.53" stop-color="#FCFB9B"/>
<stop offset="0.6" stop-color="#F9F1A1"/>
<stop offset="0.68" stop-color="#F5DFAB"/>
<stop offset="0.69" stop-color="#F4DBAE"/>
</linearGradient>
<linearGradient id="paint60_linear_84_6" x1="242.25" y1="487.1" x2="242.25" y2="259.51" gradientUnits="userSpaceOnUse">
<stop offset="0.23" stop-color="#10B981"/>
<stop offset="0.26" stop-color="#15BA81"/>
<stop offset="0.28" stop-color="#23BE83"/>
<stop offset="0.31" stop-color="#3BC585"/>
<stop offset="0.34" stop-color="#5DCF89"/>
<stop offset="0.37" stop-color="#89DC8D"/>
<stop offset="0.4" stop-color="#BEEC93"/>
<stop offset="0.43" stop-color="#FDFF9A"/>
<stop offset="0.53" stop-color="#FCFB9B"/>
<stop offset="0.6" stop-color="#F9F1A1"/>
<stop offset="0.68" stop-color="#F5DFAB"/>
<stop offset="0.69" stop-color="#F4DBAE"/>
</linearGradient>
<linearGradient id="paint61_linear_84_6" x1="218.25" y1="498.1" x2="218.25" y2="270.51" gradientUnits="userSpaceOnUse">
<stop offset="0.23" stop-color="#10B981"/>
<stop offset="0.26" stop-color="#15BA81"/>
<stop offset="0.28" stop-color="#23BE83"/>
<stop offset="0.31" stop-color="#3BC585"/>
<stop offset="0.34" stop-color="#5DCF89"/>
<stop offset="0.37" stop-color="#89DC8D"/>
<stop offset="0.4" stop-color="#BEEC93"/>
<stop offset="0.43" stop-color="#FDFF9A"/>
<stop offset="0.53" stop-color="#FCFB9B"/>
<stop offset="0.6" stop-color="#F9F1A1"/>
<stop offset="0.68" stop-color="#F5DFAB"/>
<stop offset="0.69" stop-color="#F4DBAE"/>
</linearGradient>
<linearGradient id="paint62_linear_84_6" x1="290.55" y1="484.25" x2="290.55" y2="256.67" gradientUnits="userSpaceOnUse">
<stop offset="0.23" stop-color="#10B981"/>
<stop offset="0.26" stop-color="#15BA81"/>
<stop offset="0.28" stop-color="#23BE83"/>
<stop offset="0.31" stop-color="#3BC585"/>
<stop offset="0.34" stop-color="#5DCF89"/>
<stop offset="0.37" stop-color="#89DC8D"/>
<stop offset="0.4" stop-color="#BEEC93"/>
<stop offset="0.43" stop-color="#FDFF9A"/>
<stop offset="0.53" stop-color="#FCFB9B"/>
<stop offset="0.6" stop-color="#F9F1A1"/>
<stop offset="0.68" stop-color="#F5DFAB"/>
<stop offset="0.69" stop-color="#F4DBAE"/>
</linearGradient>
<linearGradient id="paint63_linear_84_6" x1="266.55" y1="495.25" x2="266.55" y2="267.67" gradientUnits="userSpaceOnUse">
<stop offset="0.23" stop-color="#10B981"/>
<stop offset="0.26" stop-color="#15BA81"/>
<stop offset="0.28" stop-color="#23BE83"/>
<stop offset="0.31" stop-color="#3BC585"/>
<stop offset="0.34" stop-color="#5DCF89"/>
<stop offset="0.37" stop-color="#89DC8D"/>
<stop offset="0.4" stop-color="#BEEC93"/>
<stop offset="0.43" stop-color="#FDFF9A"/>
<stop offset="0.53" stop-color="#FCFB9B"/>
<stop offset="0.6" stop-color="#F9F1A1"/>
<stop offset="0.68" stop-color="#F5DFAB"/>
<stop offset="0.69" stop-color="#F4DBAE"/>
</linearGradient>
<linearGradient id="paint64_linear_84_6" x1="338.85" y1="484.25" x2="338.85" y2="256.67" gradientUnits="userSpaceOnUse">
<stop offset="0.23" stop-color="#10B981"/>
<stop offset="0.26" stop-color="#15BA81"/>
<stop offset="0.28" stop-color="#23BE83"/>
<stop offset="0.31" stop-color="#3BC585"/>
<stop offset="0.34" stop-color="#5DCF89"/>
<stop offset="0.37" stop-color="#89DC8D"/>
<stop offset="0.4" stop-color="#BEEC93"/>
<stop offset="0.43" stop-color="#FDFF9A"/>
<stop offset="0.53" stop-color="#FCFB9B"/>
<stop offset="0.6" stop-color="#F9F1A1"/>
<stop offset="0.68" stop-color="#F5DFAB"/>
<stop offset="0.69" stop-color="#F4DBAE"/>
</linearGradient>
<linearGradient id="paint65_linear_84_6" x1="314.85" y1="495.25" x2="314.85" y2="267.67" gradientUnits="userSpaceOnUse">
<stop offset="0.23" stop-color="#10B981"/>
<stop offset="0.26" stop-color="#15BA81"/>
<stop offset="0.28" stop-color="#23BE83"/>
<stop offset="0.31" stop-color="#3BC585"/>
<stop offset="0.34" stop-color="#5DCF89"/>
<stop offset="0.37" stop-color="#89DC8D"/>
<stop offset="0.4" stop-color="#BEEC93"/>
<stop offset="0.43" stop-color="#FDFF9A"/>
<stop offset="0.53" stop-color="#FCFB9B"/>
<stop offset="0.6" stop-color="#F9F1A1"/>
<stop offset="0.68" stop-color="#F5DFAB"/>
<stop offset="0.69" stop-color="#F4DBAE"/>
</linearGradient>
<linearGradient id="paint66_linear_84_6" x1="387.15" y1="484.25" x2="387.15" y2="256.67" gradientUnits="userSpaceOnUse">
<stop offset="0.23" stop-color="#10B981"/>
<stop offset="0.26" stop-color="#15BA81"/>
<stop offset="0.28" stop-color="#23BE83"/>
<stop offset="0.31" stop-color="#3BC585"/>
<stop offset="0.34" stop-color="#5DCF89"/>
<stop offset="0.37" stop-color="#89DC8D"/>
<stop offset="0.4" stop-color="#BEEC93"/>
<stop offset="0.43" stop-color="#FDFF9A"/>
<stop offset="0.53" stop-color="#FCFB9B"/>
<stop offset="0.6" stop-color="#F9F1A1"/>
<stop offset="0.68" stop-color="#F5DFAB"/>
<stop offset="0.69" stop-color="#F4DBAE"/>
</linearGradient>
<linearGradient id="paint67_linear_84_6" x1="363.15" y1="495.25" x2="363.15" y2="267.67" gradientUnits="userSpaceOnUse">
<stop offset="0.23" stop-color="#10B981"/>
<stop offset="0.26" stop-color="#15BA81"/>
<stop offset="0.28" stop-color="#23BE83"/>
<stop offset="0.31" stop-color="#3BC585"/>
<stop offset="0.34" stop-color="#5DCF89"/>
<stop offset="0.37" stop-color="#89DC8D"/>
<stop offset="0.4" stop-color="#BEEC93"/>
<stop offset="0.43" stop-color="#FDFF9A"/>
<stop offset="0.53" stop-color="#FCFB9B"/>
<stop offset="0.6" stop-color="#F9F1A1"/>
<stop offset="0.68" stop-color="#F5DFAB"/>
<stop offset="0.69" stop-color="#F4DBAE"/>
</linearGradient>
<linearGradient id="paint68_linear_84_6" x1="435.45" y1="484.25" x2="435.45" y2="256.67" gradientUnits="userSpaceOnUse">
<stop offset="0.23" stop-color="#10B981"/>
<stop offset="0.26" stop-color="#15BA81"/>
<stop offset="0.28" stop-color="#23BE83"/>
<stop offset="0.31" stop-color="#3BC585"/>
<stop offset="0.34" stop-color="#5DCF89"/>
<stop offset="0.37" stop-color="#89DC8D"/>
<stop offset="0.4" stop-color="#BEEC93"/>
<stop offset="0.43" stop-color="#FDFF9A"/>
<stop offset="0.53" stop-color="#FCFB9B"/>
<stop offset="0.6" stop-color="#F9F1A1"/>
<stop offset="0.68" stop-color="#F5DFAB"/>
<stop offset="0.69" stop-color="#F4DBAE"/>
</linearGradient>
<linearGradient id="paint69_linear_84_6" x1="411.45" y1="495.25" x2="411.45" y2="267.67" gradientUnits="userSpaceOnUse">
<stop offset="0.23" stop-color="#10B981"/>
<stop offset="0.26" stop-color="#15BA81"/>
<stop offset="0.28" stop-color="#23BE83"/>
<stop offset="0.31" stop-color="#3BC585"/>
<stop offset="0.34" stop-color="#5DCF89"/>
<stop offset="0.37" stop-color="#89DC8D"/>
<stop offset="0.4" stop-color="#BEEC93"/>
<stop offset="0.43" stop-color="#FDFF9A"/>
<stop offset="0.53" stop-color="#FCFB9B"/>
<stop offset="0.6" stop-color="#F9F1A1"/>
<stop offset="0.68" stop-color="#F5DFAB"/>
<stop offset="0.69" stop-color="#F4DBAE"/>
</linearGradient>
<linearGradient id="paint70_linear_84_6" x1="483.75" y1="484.25" x2="483.75" y2="256.67" gradientUnits="userSpaceOnUse">
<stop offset="0.23" stop-color="#10B981"/>
<stop offset="0.26" stop-color="#15BA81"/>
<stop offset="0.28" stop-color="#23BE83"/>
<stop offset="0.31" stop-color="#3BC585"/>
<stop offset="0.34" stop-color="#5DCF89"/>
<stop offset="0.37" stop-color="#89DC8D"/>
<stop offset="0.4" stop-color="#BEEC93"/>
<stop offset="0.43" stop-color="#FDFF9A"/>
<stop offset="0.53" stop-color="#FCFB9B"/>
<stop offset="0.6" stop-color="#F9F1A1"/>
<stop offset="0.68" stop-color="#F5DFAB"/>
<stop offset="0.69" stop-color="#F4DBAE"/>
</linearGradient>
<linearGradient id="paint71_linear_84_6" x1="459.75" y1="495.25" x2="459.75" y2="267.67" gradientUnits="userSpaceOnUse">
<stop offset="0.23" stop-color="#10B981"/>
<stop offset="0.26" stop-color="#15BA81"/>
<stop offset="0.28" stop-color="#23BE83"/>
<stop offset="0.31" stop-color="#3BC585"/>
<stop offset="0.34" stop-color="#5DCF89"/>
<stop offset="0.37" stop-color="#89DC8D"/>
<stop offset="0.4" stop-color="#BEEC93"/>
<stop offset="0.43" stop-color="#FDFF9A"/>
<stop offset="0.53" stop-color="#FCFB9B"/>
<stop offset="0.6" stop-color="#F9F1A1"/>
<stop offset="0.68" stop-color="#F5DFAB"/>
<stop offset="0.69" stop-color="#F4DBAE"/>
</linearGradient>
<linearGradient id="paint72_linear_84_6" x1="532.05" y1="484.25" x2="532.05" y2="256.67" gradientUnits="userSpaceOnUse">
<stop offset="0.23" stop-color="#10B981"/>
<stop offset="0.26" stop-color="#15BA81"/>
<stop offset="0.28" stop-color="#23BE83"/>
<stop offset="0.31" stop-color="#3BC585"/>
<stop offset="0.34" stop-color="#5DCF89"/>
<stop offset="0.37" stop-color="#89DC8D"/>
<stop offset="0.4" stop-color="#BEEC93"/>
<stop offset="0.43" stop-color="#FDFF9A"/>
<stop offset="0.53" stop-color="#FCFB9B"/>
<stop offset="0.6" stop-color="#F9F1A1"/>
<stop offset="0.68" stop-color="#F5DFAB"/>
<stop offset="0.69" stop-color="#F4DBAE"/>
</linearGradient>
<linearGradient id="paint73_linear_84_6" x1="508.05" y1="495.25" x2="508.05" y2="267.67" gradientUnits="userSpaceOnUse">
<stop offset="0.23" stop-color="#10B981"/>
<stop offset="0.26" stop-color="#15BA81"/>
<stop offset="0.28" stop-color="#23BE83"/>
<stop offset="0.31" stop-color="#3BC585"/>
<stop offset="0.34" stop-color="#5DCF89"/>
<stop offset="0.37" stop-color="#89DC8D"/>
<stop offset="0.4" stop-color="#BEEC93"/>
<stop offset="0.43" stop-color="#FDFF9A"/>
<stop offset="0.53" stop-color="#FCFB9B"/>
<stop offset="0.6" stop-color="#F9F1A1"/>
<stop offset="0.68" stop-color="#F5DFAB"/>
<stop offset="0.69" stop-color="#F4DBAE"/>
</linearGradient>
<linearGradient id="paint74_linear_84_6" x1="580.35" y1="487.1" x2="580.35" y2="259.51" gradientUnits="userSpaceOnUse">
<stop offset="0.23" stop-color="#10B981"/>
<stop offset="0.26" stop-color="#15BA81"/>
<stop offset="0.28" stop-color="#23BE83"/>
<stop offset="0.31" stop-color="#3BC585"/>
<stop offset="0.34" stop-color="#5DCF89"/>
<stop offset="0.37" stop-color="#89DC8D"/>
<stop offset="0.4" stop-color="#BEEC93"/>
<stop offset="0.43" stop-color="#FDFF9A"/>
<stop offset="0.53" stop-color="#FCFB9B"/>
<stop offset="0.6" stop-color="#F9F1A1"/>
<stop offset="0.68" stop-color="#F5DFAB"/>
<stop offset="0.69" stop-color="#F4DBAE"/>
</linearGradient>
<linearGradient id="paint75_linear_84_6" x1="556.35" y1="498.1" x2="556.35" y2="270.51" gradientUnits="userSpaceOnUse">
<stop offset="0.23" stop-color="#10B981"/>
<stop offset="0.26" stop-color="#15BA81"/>
<stop offset="0.28" stop-color="#23BE83"/>
<stop offset="0.31" stop-color="#3BC585"/>
<stop offset="0.34" stop-color="#5DCF89"/>
<stop offset="0.37" stop-color="#89DC8D"/>
<stop offset="0.4" stop-color="#BEEC93"/>
<stop offset="0.43" stop-color="#FDFF9A"/>
<stop offset="0.53" stop-color="#FCFB9B"/>
<stop offset="0.6" stop-color="#F9F1A1"/>
<stop offset="0.68" stop-color="#F5DFAB"/>
<stop offset="0.69" stop-color="#F4DBAE"/>
</linearGradient>
<linearGradient id="paint76_linear_84_6" x1="628.65" y1="489.94" x2="628.65" y2="262.36" gradientUnits="userSpaceOnUse">
<stop offset="0.23" stop-color="#10B981"/>
<stop offset="0.26" stop-color="#15BA81"/>
<stop offset="0.28" stop-color="#23BE83"/>
<stop offset="0.31" stop-color="#3BC585"/>
<stop offset="0.34" stop-color="#5DCF89"/>
<stop offset="0.37" stop-color="#89DC8D"/>
<stop offset="0.4" stop-color="#BEEC93"/>
<stop offset="0.43" stop-color="#FDFF9A"/>
<stop offset="0.53" stop-color="#FCFB9B"/>
<stop offset="0.6" stop-color="#F9F1A1"/>
<stop offset="0.68" stop-color="#F5DFAB"/>
<stop offset="0.69" stop-color="#F4DBAE"/>
</linearGradient>
<linearGradient id="paint77_linear_84_6" x1="604.65" y1="500.94" x2="604.65" y2="273.36" gradientUnits="userSpaceOnUse">
<stop offset="0.23" stop-color="#10B981"/>
<stop offset="0.26" stop-color="#15BA81"/>
<stop offset="0.28" stop-color="#23BE83"/>
<stop offset="0.31" stop-color="#3BC585"/>
<stop offset="0.34" stop-color="#5DCF89"/>
<stop offset="0.37" stop-color="#89DC8D"/>
<stop offset="0.4" stop-color="#BEEC93"/>
<stop offset="0.43" stop-color="#FDFF9A"/>
<stop offset="0.53" stop-color="#FCFB9B"/>
<stop offset="0.6" stop-color="#F9F1A1"/>
<stop offset="0.68" stop-color="#F5DFAB"/>
<stop offset="0.69" stop-color="#F4DBAE"/>
</linearGradient>
<linearGradient id="paint78_linear_84_6" x1="652.65" y1="502.25" x2="652.65" y2="274.67" gradientUnits="userSpaceOnUse">
<stop offset="0.23" stop-color="#10B981"/>
<stop offset="0.26" stop-color="#15BA81"/>
<stop offset="0.28" stop-color="#23BE83"/>
<stop offset="0.31" stop-color="#3BC585"/>
<stop offset="0.34" stop-color="#5DCF89"/>
<stop offset="0.37" stop-color="#89DC8D"/>
<stop offset="0.4" stop-color="#BEEC93"/>
<stop offset="0.43" stop-color="#FDFF9A"/>
<stop offset="0.53" stop-color="#FCFB9B"/>
<stop offset="0.6" stop-color="#F9F1A1"/>
<stop offset="0.68" stop-color="#F5DFAB"/>
<stop offset="0.69" stop-color="#F4DBAE"/>
</linearGradient>
<linearGradient id="paint79_linear_84_6" x1="263.76" y1="231.56" x2="2.81361e-06" y2="231.56" gradientUnits="userSpaceOnUse">
<stop stop-color="white" stop-opacity="0"/>
<stop offset="0.05" stop-color="white" stop-opacity="0.18"/>
<stop offset="0.1" stop-color="white" stop-opacity="0.35"/>
<stop offset="0.16" stop-color="white" stop-opacity="0.51"/>
<stop offset="0.22" stop-color="white" stop-opacity="0.64"/>
<stop offset="0.28" stop-color="white" stop-opacity="0.75"/>
<stop offset="0.36" stop-color="white" stop-opacity="0.84"/>
<stop offset="0.44" stop-color="white" stop-opacity="0.91"/>
<stop offset="0.55" stop-color="white" stop-opacity="0.96"/>
<stop offset="0.68" stop-color="white" stop-opacity="0.99"/>
<stop offset="1" stop-color="white"/>
</linearGradient>
<clipPath id="clip0_84_6">
<rect width="698" height="446.24" fill="white"/>
</clipPath>
</defs>
</svg>
