<svg width="533" height="539" viewBox="0 0 533 539" fill="none" xmlns="http://www.w3.org/2000/svg">
  <!-- <path fill-rule="evenodd" clip-rule="evenodd"
    d="M479.115 415.496C523.639 318.567 569.499 218.73 487.233 99.9025C441.378 33.6672 393.952 30.62 337.166 26.9713C306.604 25.0077 273.332 22.8698 236.134 10.6142C97.6002 -35.0288 13.599 87.9811 1.33954 220.833C-7.05772 311.831 29.4064 343.292 72.4003 380.388C94.4252 399.391 118.164 419.872 138.463 450.594C218.668 571.981 404.634 566.856 466.616 442.96C470.697 433.822 474.9 424.672 479.115 415.496Z"
    fill="black" /> -->
  <path
    d="M164.61 414.957C164.61 400.587 179.64 387.127 191.8 376.687C206.17 364.347 222.49 360.677 245.39 359.947C252.72 359.717 259.9 358.427 266.49 356.237C280.81 351.467 297.47 351.227 312.08 355.557L322.14 358.547C329.82 360.827 338.17 361.867 346.54 361.577C358.96 361.157 366.07 361.047 377.95 367.727C397.91 378.957 410.64 395.947 410.64 414.967C410.64 426.007 399.31 434.587 391.8 443.527C379.64 458.017 366.07 470.587 341.59 474.537C330.39 476.347 318.61 475.537 308.04 472.437L304.3 471.337C292.99 468.017 280.36 467.417 268.48 469.617L261.15 470.977C242.37 474.467 222.3 470.827 208.49 461.477C205.59 459.507 202.52 457.477 199.03 455.517C179.07 444.287 164.6 433.987 164.6 414.967L164.61 414.957Z"
    fill="white" />
  <path
    d="M169.82 414.907C169.82 401.147 184.21 388.257 195.86 378.257C209.62 366.447 225.25 362.927 247.18 362.227C254.2 362.007 261.07 360.777 267.39 358.667C281.1 354.107 297.05 353.867 311.04 358.017L320.68 360.877C328.04 363.057 336.03 364.057 344.05 363.787C355.94 363.387 362.75 363.277 374.13 369.677C393.25 380.427 405.43 396.697 405.43 414.917C405.43 425.497 394.58 433.697 387.39 442.267C375.74 456.147 362.75 468.177 339.31 471.967C328.58 473.697 317.31 472.927 307.18 469.947L303.6 468.897C292.77 465.717 280.68 465.137 269.3 467.247L262.28 468.547C244.29 471.887 225.07 468.407 211.85 459.447C209.07 457.567 206.13 455.617 202.79 453.737C183.67 442.987 169.82 433.117 169.82 414.907V414.907Z"
    fill="black" stroke="black" stroke-miterlimit="10" stroke-linecap="round" />
  <path
    d="M191.73 414.738C191.73 403.538 203.44 393.048 212.93 384.898C224.13 375.278 236.85 372.418 254.7 371.848C260.42 371.668 266.01 370.668 271.15 368.958C282.31 365.248 295.3 365.048 306.69 368.428L314.54 370.758C320.53 372.538 327.04 373.348 333.56 373.128C343.24 372.798 348.78 372.708 358.05 377.918C373.61 386.668 383.53 399.918 383.53 414.738C383.53 423.348 374.7 430.028 368.84 436.998C359.36 448.298 348.78 458.088 329.7 461.168C320.97 462.578 311.79 461.948 303.54 459.528L300.63 458.678C291.81 456.088 281.97 455.618 272.71 457.338L267 458.398C252.36 461.118 236.71 458.288 225.95 450.988C223.69 449.458 221.3 447.868 218.57 446.338C203.01 437.588 191.73 429.558 191.73 414.728V414.738Z"
    fill="white" />
  <path
    d="M195.79 414.708C195.79 403.978 207.01 393.928 216.09 386.138C226.82 376.928 239 374.188 256.09 373.638C261.56 373.458 266.92 372.508 271.84 370.868C282.53 367.308 294.96 367.128 305.87 370.358L313.38 372.588C319.11 374.288 325.35 375.068 331.6 374.858C340.87 374.548 346.18 374.458 355.05 379.448C369.95 387.828 379.45 400.518 379.45 414.708C379.45 422.948 370.99 429.348 365.39 436.028C356.31 446.848 346.18 456.228 327.91 459.178C319.55 460.528 310.76 459.928 302.86 457.608L300.07 456.788C291.63 454.308 282.2 453.858 273.33 455.508L267.86 456.528C253.84 459.128 238.85 456.418 228.55 449.438C226.38 447.968 224.09 446.458 221.48 444.988C206.58 436.608 195.78 428.918 195.78 414.718L195.79 414.708Z"
    fill="black" stroke="black" stroke-miterlimit="10" stroke-linecap="round" />
  <path
    d="M216.93 414.537C216.93 406.277 225.56 398.547 232.56 392.537C240.82 385.447 250.2 383.337 263.36 382.917C267.57 382.787 271.7 382.047 275.49 380.787C283.72 378.047 293.29 377.907 301.69 380.397L307.47 382.117C311.88 383.427 316.68 384.027 321.49 383.857C328.62 383.617 332.71 383.547 339.54 387.387C351.01 393.837 358.33 403.607 358.33 414.537C358.33 420.887 351.82 425.807 347.5 430.947C340.51 439.277 332.71 446.497 318.64 448.767C312.2 449.807 305.44 449.337 299.36 447.557L297.21 446.927C290.71 445.017 283.45 444.667 276.63 445.937L272.42 446.717C261.63 448.717 250.09 446.637 242.16 441.257C240.49 440.127 238.73 438.957 236.72 437.827C225.25 431.377 216.93 425.457 216.93 414.527V414.537Z"
    fill="white" />
  <path
    d="M219.93 414.508C219.93 406.598 228.2 399.188 234.89 393.448C242.8 386.658 251.78 384.637 264.38 384.237C268.41 384.107 272.37 383.398 275.99 382.198C283.87 379.578 293.04 379.438 301.08 381.828L306.62 383.468C310.85 384.718 315.44 385.298 320.05 385.138C326.88 384.908 330.8 384.848 337.34 388.518C348.33 394.698 355.33 404.048 355.33 414.518C355.33 420.598 349.09 425.307 344.96 430.237C338.27 438.217 330.8 445.128 317.33 447.308C311.16 448.308 304.69 447.857 298.87 446.147L296.81 445.548C290.59 443.718 283.64 443.388 277.1 444.598L273.07 445.348C262.73 447.268 251.69 445.268 244.09 440.118C242.49 439.038 240.8 437.918 238.88 436.838C227.89 430.658 219.93 424.988 219.93 414.528V414.508Z"
    fill="black" stroke="black" stroke-miterlimit="10" stroke-linecap="round" />
  <path
    d="M303.19 323.077C304.47 334.257 304.47 358.497 304.29 369.327C304.13 378.937 303.9 422.797 303.85 432.557C303.85 433.577 304.8 434.327 305.78 434.087C309.53 433.177 312.42 431.607 312.36 429.887C311.83 415.717 313.22 392.207 313.03 382.507C312.84 372.807 311.99 367.047 311.8 363.127C311.61 359.217 311.8 342.937 312.16 322.477C312.45 305.937 312.27 291.287 312.19 286.287C312.18 285.337 311.33 284.617 310.39 284.767C307.2 285.287 304.11 285.537 301.14 285.577C300.23 285.587 299.53 286.377 299.62 287.277C300.19 293.277 302.11 313.607 303.2 323.077H303.19Z"
    fill="black" stroke="black" stroke-miterlimit="10" stroke-linecap="round" />
  <path
    d="M264.38 417.607C264.38 417.607 264.13 420.127 267.27 421.837C269.21 422.887 272.28 423.217 274.41 423.147C275.25 423.117 275.9 422.427 275.91 421.587C275.98 409.147 277.98 382.597 278.9 374.187C279.85 365.437 279.51 362.787 278.09 360.077C276.18 356.437 275.16 354.427 275.75 347.327C276.2 341.897 277.08 316.817 277.47 305.357C277.52 303.767 279.65 303.267 280.41 304.667L282.36 308.247C282.44 308.387 282.49 308.547 282.52 308.707L287.01 332.847C287.01 332.847 289.41 347.157 290.84 357.387C292.27 367.617 293.26 382.607 293.26 392.677C293.26 402.747 292.71 426.837 292.71 428.897C292.71 430.957 295.04 433.497 299.47 434.307C300.39 434.477 301.36 434.587 302.3 434.587C303.16 434.587 303.86 433.887 303.86 433.027C303.9 424.357 304.14 379.087 304.31 369.307C304.49 358.477 304.49 334.237 303.21 323.057C302.1 313.417 300.12 292.487 299.6 286.937C299.53 286.147 298.87 285.557 298.08 285.527C280.87 284.917 268.2 277.357 263.06 273.737C262.01 272.997 260.56 273.767 260.6 275.057C261.08 293.627 264.95 346.307 265.51 357.157C266.12 368.727 264.4 417.607 264.4 417.607H264.38Z"
    fill="white" stroke="black" stroke-linecap="round" stroke-linejoin="round" />
  <path
    d="M278.89 374.197C277.85 382.467 276.02 408.377 275.91 421.037C275.91 422.107 276.94 422.867 277.96 422.537C282.64 421.007 282.48 417.337 282.48 417.337C283.04 409.877 283.9 398.587 284.82 383.987C285.73 369.397 284.89 361.987 284.87 358.027C284.85 352.947 286.74 335.277 286.98 333.067C287 332.917 286.99 332.767 286.96 332.617L282.52 308.697C282.49 308.537 282.43 308.377 282.36 308.237L280.41 304.657C279.65 303.257 277.53 303.757 277.47 305.347C277.08 316.817 276.2 341.887 275.75 347.317C275.16 354.407 276.89 357.207 278.09 360.067C279.29 362.927 279.69 367.937 278.9 374.177L278.89 374.197Z"
    fill="black" stroke="black" stroke-miterlimit="10" stroke-linecap="round" />
  <path
    d="M343.14 81.1674C346.741 81.1674 349.66 78.2483 349.66 74.6474C349.66 71.0465 346.741 68.1274 343.14 68.1274C339.539 68.1274 336.62 71.0465 336.62 74.6474C336.62 78.2483 339.539 81.1674 343.14 81.1674Z"
    stroke="white" stroke-miterlimit="10" stroke-linecap="round" />
  <path
    d="M454.774 278.07L458.841 278.232C460.066 278.28 461.099 277.327 461.147 276.102L461.309 272.035C461.358 270.81 460.404 269.777 459.179 269.728L455.113 269.566C453.888 269.518 452.855 270.471 452.806 271.696L452.644 275.763C452.595 276.988 453.549 278.021 454.774 278.07Z"
    stroke="white" stroke-miterlimit="10" stroke-linecap="round" />
  <path
    d="M434.98 154.387C436.77 154.457 438.66 152.717 438.73 150.927C438.66 152.717 440.4 154.607 442.19 154.677C440.4 154.607 438.51 156.347 438.44 158.137C438.51 156.347 436.77 154.457 434.98 154.387Z"
    stroke="white" stroke-linecap="round" stroke-linejoin="round" />
  <path
    d="M202.802 70.2593L199.981 73.0806C199.114 73.9476 199.114 75.3532 199.981 76.2202L202.802 79.0415C203.669 79.9085 205.075 79.9085 205.942 79.0415L208.763 76.2202C209.63 75.3532 209.63 73.9476 208.763 73.0806L205.942 70.2593C205.075 69.3923 203.669 69.3923 202.802 70.2593Z"
    stroke="white" stroke-miterlimit="10" stroke-linecap="round" />
  <path
    d="M137.61 296.417C135.83 296.417 134.03 298.217 134.03 299.997C134.03 298.217 132.23 296.417 130.45 296.417C132.23 296.417 134.03 294.617 134.03 292.837C134.03 294.617 135.83 296.417 137.61 296.417Z"
    stroke="white" stroke-linecap="round" stroke-linejoin="round" />
  <path
    d="M81.5199 134.347L73.5099 136.497C72.4599 136.777 72.1099 138.087 72.8799 138.847L78.7399 144.707C79.5099 145.477 80.8099 145.127 81.0899 144.077L83.2399 136.067C83.5199 135.017 82.5599 134.067 81.5199 134.347Z"
    stroke="white" stroke-linecap="round" stroke-linejoin="round" />
  <path
    d="M365.69 164.827C367.319 164.827 368.64 163.506 368.64 161.877C368.64 160.248 367.319 158.927 365.69 158.927C364.061 158.927 362.74 160.248 362.74 161.877C362.74 163.506 364.061 164.827 365.69 164.827Z"
    fill="white" />
  <path
    d="M150.98 183.577C152.609 183.577 153.93 182.256 153.93 180.627C153.93 178.998 152.609 177.677 150.98 177.677C149.351 177.677 148.03 178.998 148.03 180.627C148.03 182.256 149.351 183.577 150.98 183.577Z"
    fill="white" />
  <path
    d="M376.51 333.978C378.139 333.978 379.46 332.657 379.46 331.028C379.46 329.398 378.139 328.078 376.51 328.078C374.881 328.078 373.56 329.398 373.56 331.028C373.56 332.657 374.881 333.978 376.51 333.978Z"
    fill="white" />
  <path
    d="M266.25 279.157C270.41 282.837 279.29 286.437 287.32 287.377C295.35 288.317 281.77 204.757 296.51 188.207C301.67 183.117 285.39 166.037 277.4 172.467C269.41 178.897 260.12 253.317 266.25 279.147V279.157Z"
    fill="#636F93" stroke="black" stroke-linecap="round" stroke-linejoin="round" />
  <path
    d="M280.2 185.938C275.76 183.947 279.99 179.918 279.77 175.608V171.288C279.26 171.198 278.69 171.028 278.05 170.788C274.53 169.478 274.98 168.568 274.98 166.178C274.98 163.218 271.3 154.298 271.01 151.278C270.72 148.258 271.1 147.678 271.1 145.388C271.1 143.098 270.58 143.548 270.58 141.258C268.41 140.698 266.37 139.218 266.37 139.218C266.37 139.218 267.95 139.428 267.8 135.698C267.8 135.698 266.96 135.658 266.5 136.218C266.04 136.778 264.74 129.868 266.5 127.208C267.14 126.228 268.18 125.458 269.22 124.858C271.63 119.918 275.11 119.168 277.36 119.298C279.85 115.488 282.85 115.338 284.58 115.678C288.54 112.378 292.21 116.028 292.21 116.028C300.41 111.938 304.82 118.588 305.03 118.908C305.89 119.228 307.02 119.748 307.79 120.518C309.96 122.698 310.93 128.338 310.93 128.338L310.2 129.498C310.2 129.498 311.51 129.578 311.54 133.518C311.57 137.458 311.33 140.508 311.33 140.508L310.07 141.818L309.83 144.078L309.47 143.648L307.23 148.968L307.04 148.478L305.36 153.608L305.09 153.198L304.28 155.708L303.68 155.148L301.21 160.798"
    fill="white" />
  <path
    d="M280.2 185.938C275.76 183.947 279.99 179.918 279.77 175.608V171.288C279.26 171.198 278.69 171.028 278.05 170.788C274.53 169.478 274.98 168.568 274.98 166.178C274.98 163.218 271.3 154.298 271.01 151.278C270.72 148.258 271.1 147.678 271.1 145.388C271.1 143.098 270.58 143.548 270.58 141.258C268.41 140.698 266.37 139.218 266.37 139.218C266.37 139.218 267.95 139.428 267.8 135.698C267.8 135.698 266.96 135.658 266.5 136.218C266.04 136.778 264.74 129.868 266.5 127.208C267.14 126.228 268.18 125.458 269.22 124.858C271.63 119.918 275.11 119.168 277.36 119.298C279.85 115.488 282.85 115.338 284.58 115.678C288.54 112.378 292.21 116.028 292.21 116.028C300.41 111.938 304.82 118.588 305.03 118.908C305.89 119.228 307.02 119.748 307.79 120.518C309.96 122.698 310.93 128.338 310.93 128.338L310.2 129.498C310.2 129.498 311.51 129.578 311.54 133.518C311.57 137.458 311.33 140.508 311.33 140.508L310.07 141.818L309.83 144.078L309.47 143.648L307.23 148.968L307.04 148.478L305.36 153.608L305.09 153.198L304.28 155.708L303.68 155.148L301.21 160.798"
    stroke="black" stroke-linecap="round" stroke-linejoin="round" />
  <path
    d="M314.05 271.527L314.99 235.697L309.82 220.027L301.25 232.017L297.43 276.197L299.89 289.227L312.99 283.187L314.05 271.527Z"
    fill="black" stroke="black" stroke-miterlimit="10" stroke-linecap="round" />
  <path
    d="M302.74 175.657C302.74 175.657 306.54 180.387 311.34 184.767C313.82 187.857 317.59 190.767 320.79 196.827C324.01 202.907 337.09 239.377 332.86 258.607C328.63 277.837 305.66 297.327 305.66 297.327C301.83 295.057 302.48 292.927 302.28 291.667C302.23 291.347 302.31 291.017 302.51 290.747C303.51 289.437 306.59 285.247 309.82 279.647C313.67 272.977 317.76 264.297 318.95 256.067C320.21 247.287 315.66 237.447 314.21 233.767C312.76 230.087 308.86 223.157 308.86 223.157C308.86 223.157 296.6 236.937 300.74 288.917L305.43 286.657C305.43 286.657 300.13 290.567 291.35 290.567C286.78 290.567 279 288.467 279 287.467C279 285.237 278.14 269.847 278.06 259.487C277.97 249.137 277.78 237.737 278.9 224.087C280.04 210.197 285.44 188.607 287.68 187.307"
    fill="white" />
  <path
    d="M302.74 175.657C302.74 175.657 306.54 180.387 311.34 184.767C313.82 187.857 317.59 190.767 320.79 196.827C324.01 202.907 337.09 239.377 332.86 258.607C328.63 277.837 305.66 297.327 305.66 297.327C301.83 295.057 302.48 292.927 302.28 291.667C302.23 291.347 302.31 291.017 302.51 290.747C303.51 289.437 306.59 285.247 309.82 279.647C313.67 272.977 317.76 264.297 318.95 256.067C320.21 247.287 315.66 237.447 314.21 233.767C312.76 230.087 308.86 223.157 308.86 223.157C308.86 223.157 296.6 236.937 300.74 288.917L305.43 286.657C305.43 286.657 300.13 290.567 291.35 290.567C286.78 290.567 279 288.467 279 287.467C279 285.237 278.14 269.847 278.06 259.487C277.97 249.137 277.78 237.737 278.9 224.087C280.04 210.197 285.44 188.607 287.68 187.307"
    stroke="black" stroke-linecap="round" stroke-linejoin="round" />
  <path
    d="M268.92 276.568C268.92 279.098 268.91 281.167 268.86 282.637C268.86 282.637 265.57 280.508 263.2 277.698C260.84 274.888 260.64 272.518 260.59 271.228C260.54 269.728 260.52 267.648 260.54 265.188C260.59 266.477 260.86 268.838 263.2 271.628C265.49 274.348 268.72 276.438 268.92 276.568V276.568Z"
    fill="black" stroke="black" stroke-linecap="round" stroke-linejoin="round" />
  <path
    d="M280.23 171.417C276.39 175.057 274.83 181.687 276.46 185.857C276.45 186.057 276.41 186.227 276.35 186.367C275.24 189.097 274.16 195.687 273.41 199.237C268.54 221.967 268.94 259.617 268.91 277.317C268.7 277.177 265.27 274.807 262.84 271.727C260.35 268.567 260.08 265.897 260.02 264.437V264.397C260.08 256.887 260.36 246.327 260.58 237.367C260.58 237.367 260.08 240.277 258.94 242.237C256.74 246.047 248.29 255.797 241.14 259.967C238.09 261.737 231.66 253.897 233.6 251.727C239.43 245.207 248.85 231.737 251.01 226.307C255.48 215.087 253.96 191.907 259.4 181.147C261.37 177.237 264.23 170.257 271.94 168.907C275.34 168.307 279.53 168.307 282.88 168.457L280.22 171.397L280.23 171.417Z"
    fill="white" stroke="black" stroke-linecap="round" stroke-linejoin="round" />
  <path
    d="M289.83 169.997C289.83 169.997 279.66 172.587 276.9 179.037C275.85 181.477 276.12 184.577 276.46 185.857C274.34 181.107 273.79 173.277 280.15 168.607L282.88 167.797C286.24 167.947 289.83 169.997 289.83 169.997V169.997Z"
    fill="black" stroke="black" stroke-linecap="round" stroke-linejoin="round" />
  <path
    d="M330.99 274.877C324.69 285.157 313.31 297.517 311.15 299.437C310.83 299.717 310.39 299.817 309.99 299.687C308.92 299.317 305.69 297.317 304.89 296.847C304.89 296.847 325.2 280.557 331.29 258.627C334.55 246.897 324.13 204.557 318.95 194.657C315.9 188.837 304.1 179.307 302.74 175.677C307.18 179.737 318.83 187.737 322.47 194.427C326.11 201.117 327.36 208.027 330.73 222.037C333.36 232.967 334.74 238.637 335.61 247.097C336.48 255.557 338.81 262.137 330.99 274.887V274.877Z"
    fill="black" stroke="black" stroke-miterlimit="10" stroke-linecap="round" />
  <path
    d="M264.9 172.578C269.39 169.168 277.7 166.808 279.78 174.608L280.16 168.598C280.16 168.598 269.68 167.438 264.9 172.578Z"
    fill="black" stroke="black" stroke-linecap="round" stroke-linejoin="round" />
  <path d="M263.38 202.677C263.38 202.677 260.54 219.237 260.54 237.377" stroke="black" stroke-linecap="round"
    stroke-linejoin="round" />
  <path
    d="M278.76 281.317L278.97 287.487C278.97 288.447 286.74 290.577 291.31 290.577C299.83 290.577 305.06 286.917 305.38 286.687H305.39C306.67 284.787 308.2 282.387 309.78 279.657C309.92 279.417 310.05 279.187 310.19 278.947C291.3 290.587 278.75 281.317 278.75 281.317H278.76Z"
    fill="black" stroke="black" stroke-linecap="round" stroke-linejoin="round" />
  <path d="M277.57 283.848C277.57 283.848 292.84 291.808 305.83 283.848" stroke="white" stroke-miterlimit="10"
    stroke-linecap="round" />
  <path
    d="M301.88 154.947C301.88 154.947 300.11 166.087 301.39 173.617C302.11 177.877 288.74 189.757 280.2 185.937C275.76 183.947 279.99 179.917 279.77 175.607V171.277"
    fill="white" />
  <path
    d="M301.88 154.947C301.88 154.947 300.11 166.087 301.39 173.617C302.11 177.877 288.74 189.757 280.2 185.937C275.76 183.947 279.99 179.917 279.77 175.607V171.277"
    stroke="black" stroke-miterlimit="10" stroke-linecap="round" />
  <path
    d="M270.57 141.268C270.57 143.548 271.09 143.108 271.09 145.398C271.09 147.688 270.71 148.258 271 151.288C271.29 154.318 274.98 163.228 274.98 166.188C274.98 168.568 274.53 169.478 278.05 170.788C281.22 171.978 282.45 171.288 285.15 170.258C287.85 169.228 291.5 167.188 293.12 165.958C295.77 163.958 295.77 162.358 295.77 162.358"
    fill="white" />
  <path
    d="M270.57 141.268C270.57 143.548 271.09 143.108 271.09 145.398C271.09 147.688 270.71 148.258 271 151.288C271.29 154.318 274.98 163.228 274.98 166.188C274.98 168.568 274.53 169.478 278.05 170.788C281.22 171.978 282.45 171.288 285.15 170.258C287.85 169.228 291.5 167.188 293.12 165.958C295.77 163.958 295.77 162.358 295.77 162.358"
    stroke="black" stroke-miterlimit="10" stroke-linecap="round" />
  <path d="M305.03 118.938C305.03 118.938 300.61 111.858 292.21 116.048C292.21 116.048 288.55 112.398 284.58 115.698"
    stroke="black" stroke-linecap="round" stroke-linejoin="round" />
  <path
    d="M301.2 160.828L303.66 155.178L304.26 155.748L305.07 153.238L305.34 153.648L307.02 148.518L307.2 149.008L309.44 143.698L309.81 144.128L310.05 141.858L311.31 140.538C311.31 140.538 311.54 137.488 311.52 133.548C311.49 129.608 310.18 129.528 310.18 129.528L310.91 128.368C310.91 128.368 309.94 122.728 307.77 120.548C306.55 119.328 304.44 118.748 303.88 118.598"
    stroke="black" stroke-linecap="round" stroke-linejoin="round" />
  <path
    d="M272.85 123.368C272.85 123.368 268.25 124.578 266.49 127.228C264.73 129.878 266.03 136.798 266.49 136.238C266.95 135.678 267.79 135.718 267.79 135.718C267.94 139.448 266.36 139.238 266.36 139.238C266.36 139.238 271.25 142.788 273.95 140.978C280.03 136.938 279.78 138.368 279.78 138.368C277.4 139.038 276.67 140.358 276.67 140.358C279.07 140.118 283.94 144.458 286.71 144.018C289.48 143.568 293.59 139.608 293.59 139.608C293.59 139.608 291.41 143.138 295.2 142.948C298.99 142.758 297.11 150.498 297.11 150.498L298.56 148.948L298.91 147.478"
    stroke="black" stroke-linecap="round" stroke-linejoin="round" />
  <path d="M285.99 116.197C285.99 116.197 281.08 113.457 277.35 119.137" stroke="black" stroke-linecap="round"
    stroke-linejoin="round" />
  <path d="M279.59 119.777C279.59 119.777 273.03 116.647 269.21 124.507" stroke="black" stroke-linecap="round"
    stroke-linejoin="round" />
  <path
    d="M275.08 144.318C275.19 143.738 275.01 143.028 273.52 142.248C272.5 141.708 271.73 141.208 270.97 141.278C270.79 141.298 270.83 141.918 270.91 142.038C271.12 142.398 270.67 142.878 271.2 143.038C272.07 143.308 274.33 144.698 274.59 144.988C274.96 145.408 274.98 144.908 275.09 144.328L275.08 144.318Z"
    fill="black" />
  <path
    d="M274.94 151.958C274.69 154.458 271.67 156.608 271.72 159.708C271.74 160.788 272.76 161.388 274.09 161.548C275.35 161.698 276.72 161.308 277.21 160.848C278.18 159.938 277.28 158.848 277.28 158.848"
    fill="white" />
  <path
    d="M274.94 151.958C274.69 154.458 271.67 156.608 271.72 159.708C271.74 160.788 272.76 161.388 274.09 161.548C275.35 161.698 276.72 161.308 277.21 160.848C278.18 159.938 277.28 158.848 277.28 158.848"
    stroke="black" stroke-miterlimit="10" stroke-linecap="round" />
  <path d="M298.56 147.638C296.21 149.128 284.48 155.628 284.48 155.628" stroke="black" stroke-linecap="round"
    stroke-linejoin="round" />
  <path d="M270.78 141.268L264.99 144.558" stroke="black" stroke-linecap="round" stroke-linejoin="round" />
  <path d="M276.18 150.877C276.4 153.327 278.38 156.337 280.61 157.607C282.84 158.877 284.47 157.937 284.26 155.497"
    stroke="black" stroke-linecap="round" stroke-linejoin="round" />
  <path
    d="M264.9 144.428C265.12 146.878 267.1 149.888 269.33 151.158C271.56 152.428 273.19 151.488 272.98 149.048V149.028"
    stroke="black" stroke-linecap="round" stroke-linejoin="round" />
  <path
    d="M269.33 151.168C267.1 149.898 265.12 146.878 264.9 144.438C264.68 141.998 266.41 142.108 268.64 143.378C270.86 144.648 272.75 146.608 272.97 149.038V149.048C273.18 151.498 271.55 152.438 269.32 151.158L269.33 151.168Z"
    fill="white" stroke="black" stroke-miterlimit="10" stroke-linecap="round" />
  <path d="M272.98 149.037C272.76 146.607 270.87 144.657 268.65 143.377C266.43 142.097 264.69 141.987 264.91 144.427"
    stroke="#FF5039" stroke-linecap="round" stroke-linejoin="round" />
  <path d="M272.98 149.048L273.26 148.558L275.78 149.998L276.18 150.878" stroke="black" stroke-linecap="round"
    stroke-linejoin="round" />
  <path d="M276.18 150.878C275.96 148.438 277.69 148.548 279.92 149.828C282.15 151.108 284.04 153.058 284.26 155.498"
    stroke="#FF5039" stroke-linecap="round" stroke-linejoin="round" />
  <path
    d="M277.41 145.387C277.62 144.707 279.34 144.857 281.95 146.007C283.74 146.797 285.22 148.097 285.98 148.837C286.15 149.007 286 149.367 285.77 149.337C285.09 149.257 284.08 149.067 283.3 148.627C282.01 147.897 278.48 146.467 277.87 146.467C277.26 146.467 277.41 145.387 277.41 145.387V145.387Z"
    fill="black" />
  <path
    d="M301.15 170.387C301.15 170.387 302.74 173.997 302.74 175.657C302.74 177.737 300.08 182.287 287.66 187.327C287.34 183.387 290.85 180.677 293.79 178.857C296.56 177.147 301.3 174.497 301.14 170.387H301.15Z"
    fill="black" stroke="black" stroke-linecap="round" stroke-linejoin="round" />
  <path
    d="M306.99 301.367C306.32 302.047 304.29 301.117 302.44 299.287C300.61 297.457 299.67 295.417 300.34 294.747C300.77 294.317 301.74 294.537 302.87 295.227C303.52 295.617 304.22 296.157 304.89 296.827C305.56 297.507 306.12 298.197 306.51 298.847C307.2 299.957 307.42 300.937 306.99 301.357V301.367Z"
    fill="white" stroke="black" stroke-miterlimit="10" stroke-linecap="round" />
  <path
    d="M310.03 299.018L309.87 299.138L306.99 301.378C307.42 300.948 307.2 299.978 306.51 298.868C306.12 298.218 305.56 297.528 304.89 296.848C304.22 296.178 303.52 295.638 302.87 295.248C301.74 294.558 300.77 294.338 300.34 294.768L302.56 291.878L302.68 291.718C303.42 290.968 305.67 291.998 307.71 294.018C309.74 296.038 310.78 298.288 310.03 299.038V299.018Z"
    fill="black" stroke="black" stroke-miterlimit="10" stroke-linecap="round" />
  <path d="M300.83 292.427C300.83 292.427 303.34 292.467 306 295.177C308.24 297.447 309.12 299.467 309.78 301.367"
    stroke="white" stroke-miterlimit="10" stroke-linecap="round" />
  <path d="M310.96 185.097C307.6 181.117 300.71 179.747 296.5 182.917L302.74 175.667L310.96 185.097Z" fill="black"
    stroke="black" stroke-linecap="round" stroke-linejoin="round" />
  <path
    d="M263.38 202.677C262.69 207.257 260.48 222.597 260.49 237.377C260.49 237.377 259.99 240.287 258.85 242.247C256.65 246.057 248.2 255.807 241.05 259.977C240.56 260.267 239.97 260.297 239.34 260.137L240.05 259.587L240.19 259.477C240.73 258.957 240.25 257.567 239.13 256.117C239.13 256.117 259.19 244.777 259.99 229.627C260.59 218.267 261.74 211.717 262.15 208.797C262.56 205.877 263.36 202.677 263.36 202.677H263.38Z"
    fill="black" stroke="black" stroke-linecap="round" stroke-linejoin="round" />
  <path d="M266.82 278.367C266.82 278.367 260.29 273.947 258.39 267.817" stroke="white" stroke-miterlimit="10"
    stroke-linecap="round" />
  <path
    d="M237.55 261.608C236.95 262.218 235.11 261.378 233.45 259.728C231.8 258.068 230.95 256.228 231.57 255.618C231.96 255.228 232.83 255.428 233.85 256.058C234.44 256.408 235.07 256.908 235.67 257.508C236.27 258.118 236.77 258.748 237.13 259.338C237.75 260.348 237.94 261.218 237.56 261.608H237.55Z"
    fill="white" stroke="black" stroke-linecap="round" stroke-linejoin="round" />
  <path
    d="M240.3 259.487L240.15 259.587L237.54 261.597C237.93 261.207 237.73 260.337 237.11 259.327C236.76 258.737 236.26 258.107 235.65 257.497C235.05 256.897 234.42 256.397 233.83 256.047C232.82 255.417 231.94 255.217 231.55 255.607L233.56 253.007L233.66 252.867C234.33 252.187 236.36 253.127 238.19 254.957C240.02 256.787 240.95 258.827 240.28 259.487H240.3Z"
    fill="black" stroke="black" stroke-miterlimit="10" stroke-linecap="round" />
  <path d="M231.86 253.377C231.86 253.377 234.18 253.427 236.65 255.937C238.72 258.047 239.33 259.637 239.74 261.357"
    stroke="white" stroke-miterlimit="10" stroke-linecap="round" />
  <path
    d="M303.02 150.348C303.12 148.758 303.51 147.198 302.29 147.058C301.07 146.918 300.04 147.468 299.78 149.638C299.72 150.348 299.55 150.248 299.19 150.348C298.83 150.448 299.22 152.208 299.11 152.518C299 152.828 298.35 153.498 298.41 153.838C298.47 154.178 299.07 153.778 299.59 153.318C300.11 152.858 300.41 153.908 301.13 153.398C301.85 152.888 302.3 152.148 301.01 150.748"
    stroke="black" stroke-miterlimit="10" stroke-linecap="round" />
  <path d="M290.63 184.237C291.88 181.417 304.43 176.257 303.43 169.757" stroke="white" stroke-miterlimit="10"
    stroke-linecap="round" />
  <path
    d="M275.58 180.627C275.53 179.277 275.66 177.907 276.05 176.587C276.1 176.417 276.27 176.327 276.44 176.367C276.61 176.417 276.7 176.587 276.66 176.757V176.777C276.2 177.997 275.98 179.297 275.93 180.617C275.93 180.717 275.85 180.787 275.75 180.787C275.66 180.787 275.59 180.707 275.58 180.617V180.627Z"
    fill="white" />
  <path
    d="M276.83 174.657L277.38 173.757C277.5 173.557 277.76 173.497 277.96 173.617C278.16 173.737 278.22 173.997 278.1 174.197L278.08 174.217L278.05 174.257L277.49 175.037L277.46 175.077C277.34 175.247 277.09 175.287 276.92 175.167C276.75 175.047 276.71 174.827 276.81 174.647L276.83 174.657Z"
    fill="white" />
  <path
    d="M299.7 155.917C300.61 155.907 301.63 155.367 302.52 154.297C304.31 152.167 304.95 148.727 303.95 146.627C302.95 144.527 299.9 144.297 298.91 147.467"
    stroke="black" stroke-miterlimit="10" stroke-linecap="round" />
  <path
    d="M295.09 303.367L296.8 300.977L296.89 300.857C297.46 300.277 299.19 301.067 300.77 302.627C302.33 304.187 303.14 305.917 302.56 306.497L302.44 306.587L300.22 308.307"
    fill="white" />
  <path
    d="M295.09 303.367L296.8 300.977L296.89 300.857C297.46 300.277 299.19 301.067 300.77 302.627C302.33 304.187 303.14 305.917 302.56 306.497L302.44 306.587L300.22 308.307"
    stroke="black" stroke-linecap="round" stroke-linejoin="round" />
  <path d="M295.09 303.367L300.21 308.307L298.02 312.277L291.07 321.807L284.79 314.647L293.37 305.027L295.09 303.367Z"
    fill="white" />
  <path
    d="M283.67 318.527L278.85 319.917C278.18 320.137 277.45 319.777 277.23 319.097C277.01 318.427 277.37 317.697 278.05 317.477L281.59 316.307L284.44 313.347C289.96 305.747 290.85 308.297 295.09 303.377"
    fill="white" />
  <path
    d="M283.67 318.527L278.85 319.917C278.18 320.137 277.45 319.777 277.23 319.097C277.01 318.427 277.37 317.697 278.05 317.477L281.59 316.307L284.44 313.347C289.96 305.747 290.85 308.297 295.09 303.377"
    stroke="black" stroke-linecap="round" stroke-linejoin="round" />
  <path
    d="M286 315.367L283.61 317.927L278.19 319.937C277.52 320.157 277.15 320.887 277.37 321.557C277.59 322.227 278.32 322.597 278.99 322.377L286.51 319.787L288.28 318.177"
    fill="white" />
  <path
    d="M286 315.367L283.61 317.927L278.19 319.937C277.52 320.157 277.15 320.887 277.37 321.557C277.59 322.227 278.32 322.597 278.99 322.377L286.51 319.787L288.28 318.177"
    stroke="black" stroke-linecap="round" stroke-linejoin="round" />
  <path
    d="M291.54 319.087L290.09 320.637L280.42 324.257C279.75 324.477 279.02 324.107 278.8 323.437C278.58 322.757 278.95 322.037 279.62 321.817L286.31 319.257L288.8 316.697"
    fill="white" />
  <path
    d="M291.54 319.087L290.09 320.637L280.42 324.257C279.75 324.477 279.02 324.107 278.8 323.437C278.58 322.757 278.95 322.037 279.62 321.817L286.31 319.257L288.8 316.697"
    stroke="black" stroke-linecap="round" stroke-linejoin="round" />
  <path
    d="M290.75 317.958L287.67 321.248L282.24 323.058C281.57 323.288 281.21 324.008 281.42 324.678C281.64 325.348 282.36 325.718 283.04 325.498L290.38 323.128L294.19 318.948"
    fill="white" />
  <path
    d="M290.75 317.958L287.67 321.248L282.24 323.058C281.57 323.288 281.21 324.008 281.42 324.678C281.64 325.348 282.36 325.718 283.04 325.498L290.38 323.128L294.19 318.948"
    stroke="black" stroke-linecap="round" stroke-linejoin="round" />
  <path
    d="M300.21 308.307C297.17 314.217 299.69 314.817 297.61 317.387C295.66 319.797 294.59 320.747 294.04 322.007C293.1 324.157 290.76 323.207 291.4 321.097C291.74 319.967 293.18 318.007 294.06 316.817"
    fill="white" />
  <path
    d="M300.21 308.307C297.17 314.217 299.69 314.817 297.61 317.387C295.66 319.797 294.59 320.747 294.04 322.007C293.1 324.157 290.76 323.207 291.4 321.097C291.74 319.967 293.18 318.007 294.06 316.817"
    stroke="black" stroke-linecap="round" stroke-linejoin="round" />
  <path
    d="M226.38 262.627L228.19 260.247L228.28 260.127C228.82 259.577 230.48 260.337 231.99 261.817C233.49 263.307 234.25 264.967 233.7 265.517L233.58 265.607L231.27 267.397"
    fill="white" />
  <path
    d="M226.38 262.627L228.19 260.247L228.28 260.127C228.82 259.577 230.48 260.337 231.99 261.817C233.49 263.307 234.25 264.967 233.7 265.517L233.58 265.607L231.27 267.397"
    stroke="black" stroke-miterlimit="10" stroke-linecap="round" />
  <path d="M226.38 262.627L231.27 267.407L229.64 270.967L222.89 280.217L217.64 272.307L225.12 263.917L226.38 262.627Z"
    fill="white" />
  <path
    d="M219.76 270.157L217.13 272.767L214.69 275.187L210.53 276.627C209.88 276.847 209.53 277.547 209.74 278.197C209.95 278.847 210.66 279.207 211.31 278.987L217.88 277.027L220.15 274.977"
    fill="white" />
  <path
    d="M219.76 270.157L217.13 272.767L214.69 275.187L210.53 276.627C209.88 276.847 209.53 277.547 209.74 278.197C209.95 278.847 210.66 279.207 211.31 278.987L217.88 277.027L220.15 274.977"
    stroke="black" stroke-linecap="round" stroke-linejoin="round" />
  <path
    d="M222.3 276.058L220.36 278.128L211.79 281.288C211.14 281.498 210.44 281.148 210.22 280.498C210.01 279.838 210.36 279.148 211.01 278.928L217.12 276.348L219.41 273.998"
    fill="white" />
  <path
    d="M222.3 276.058L220.36 278.128L211.79 281.288C211.14 281.498 210.44 281.148 210.22 280.498C210.01 279.838 210.36 279.148 211.01 278.928L217.12 276.348L219.41 273.998"
    stroke="black" stroke-linecap="round" stroke-linejoin="round" />
  <path
    d="M221.53 275.447L219.21 277.937L213.76 279.927C213.11 280.137 212.75 280.847 212.97 281.497C213.18 282.147 213.89 282.507 214.54 282.287L222.02 279.747L225.63 276.457"
    fill="white" />
  <path
    d="M221.53 275.447L219.21 277.937L213.76 279.927C213.11 280.137 212.75 280.847 212.97 281.497C213.18 282.147 213.89 282.507 214.54 282.287L222.02 279.747L225.63 276.457"
    stroke="black" stroke-linecap="round" stroke-linejoin="round" />
  <path
    d="M223.93 276.167L221.16 279.037L217.15 280.437C216.5 280.647 216.14 281.357 216.36 282.007C216.57 282.657 217.28 283.017 217.93 282.797L223.18 281.197C226.44 278.497 228.84 275.347 229.9 272.347C230.96 269.347 231.26 267.407 231.26 267.407"
    fill="white" />
  <path
    d="M223.93 276.167L221.16 279.037L217.15 280.437C216.5 280.647 216.14 281.357 216.36 282.007C216.57 282.657 217.28 283.017 217.93 282.797L223.18 281.197C226.44 278.497 228.84 275.347 229.9 272.347C230.96 269.347 231.26 267.407 231.26 267.407"
    stroke="black" stroke-linecap="round" stroke-linejoin="round" />
  <path
    d="M226.38 262.627C221.34 266.657 220.44 264.017 218.4 266.497C216.48 268.817 215.42 269.547 214.23 270.157C212.2 271.197 213.27 273.407 215.28 272.657C216.36 272.257 218.66 271.077 219.75 270.157"
    fill="white" />
  <path
    d="M226.38 262.627C221.34 266.657 220.44 264.017 218.4 266.497C216.48 268.817 215.42 269.547 214.23 270.157C212.2 271.197 213.27 273.407 215.28 272.657C216.36 272.257 218.66 271.077 219.75 270.157"
    stroke="black" stroke-linecap="round" stroke-linejoin="round" />
  <path d="M231.86 253.377C231.86 253.377 234.18 253.427 236.65 255.937C238.72 258.047 239.33 259.637 239.74 261.357"
    stroke="white" stroke-miterlimit="10" stroke-linecap="round" />
  <path
    d="M207.59 252.928C224.197 252.928 237.66 239.465 237.66 222.858C237.66 206.25 224.197 192.788 207.59 192.788C190.983 192.788 177.52 206.25 177.52 222.858C177.52 239.465 190.983 252.928 207.59 252.928Z"
    fill="white" stroke="black" stroke-linecap="round" stroke-linejoin="round" />
  <path
    d="M207.59 251.488C223.402 251.488 236.22 238.669 236.22 222.858C236.22 207.046 223.402 194.228 207.59 194.228C191.778 194.228 178.96 207.046 178.96 222.858C178.96 238.669 191.778 251.488 207.59 251.488Z"
    fill="black" stroke="white" stroke-linecap="round" stroke-linejoin="round" />
  <path
    d="M207.59 246.078C220.414 246.078 230.81 235.682 230.81 222.858C230.81 210.034 220.414 199.638 207.59 199.638C194.766 199.638 184.37 210.034 184.37 222.858C184.37 235.682 194.766 246.078 207.59 246.078Z"
    fill="white" stroke="black" stroke-linecap="round" stroke-linejoin="round" />
</svg>