<svg width="17" height="18" viewBox="0 0 17 18" fill="none" xmlns="http://www.w3.org/2000/svg">
  <g clip-path="url(#clip0_1304_953)">
    <path d="M8.29773 3.6543V3.65741L7.3588 5.28613L7.34167 5.31104L8.01901 4.13388V4.13232L8.29617 3.6543H8.29773Z"
      fill="#000" />
    <path d="M8.29773 3.6543V3.65741L7.3588 5.28613L7.34167 5.31104L8.01901 4.13388V4.13232L8.29617 3.6543H8.29773Z"
      fill="#000" />
    <path d="M10.9168 8.19508L10.7471 7.90234H10.7486L10.9168 8.19508Z" fill="#000" />
    <path d="M12.1889 10.3856L12.1842 10.384L11.1643 8.62451L12.1889 10.3856Z" fill="#000" />
    <path d="M8.29773 3.6543V3.65741L7.3588 5.28613L7.34167 5.31104L8.01901 4.13388V4.13232L8.29617 3.6543H8.29773Z"
      fill="#000" />
    <path d="M8.29773 3.6543V3.65741L7.3588 5.28613L7.34167 5.31104L8.01901 4.13388V4.13232L8.29617 3.6543H8.29773Z"
      fill="#000" />
    <path
      d="M16.5908 18H13.2088L11.0507 14.2614L12.4941 14.5573L12.9597 14.6522L12.1936 13.3225L10.269 9.99031L12.1843 10.3843L12.1889 10.3858L11.1644 8.62474L11.0305 8.39273L10.9168 8.19498L10.7486 7.90225H10.7471L10.2114 6.97111V6.96799L8.5718 4.13408V4.13253L8.29775 3.65761V3.6545H8.29619L8.01903 4.13253V4.13408L7.3417 5.31125L6.38564 6.96799V6.97111L5.84689 7.90069L5.5635 8.39273L4.41125 10.3858L6.32959 9.99031L4.40657 13.3225L3.63581 14.6522L4.10138 14.5573L5.54948 14.2614L3.39135 18H0L2.75606 13.2275L0.372145 13.7149L3.72768 7.90225L1.34221 8.39273L3.80087 4.13408V4.13253L4.9936 2.06626L5.01073 2.03512L6.18789 0L7.24516 1.82958L8.29775 0.00311419L9.3519 1.82647L10.4061 0.00311419L11.5801 2.03512L11.6003 2.06626L12.7931 4.13253V4.13408L15.2502 8.39273L12.8631 7.90225L16.2202 13.7149L13.8363 13.2275L16.5908 18Z"
      fill="#000" />
  </g>
  <defs>
    <clipPath id="clip0_1304_953">
      <rect width="16.5908" height="18" fill="white" />
    </clipPath>
  </defs>
</svg>