<svg width="381" height="185" viewBox="0 0 381 185" fill="none" xmlns="http://www.w3.org/2000/svg">
<path opacity="0.9" d="M18.1188 169.059C3.64239 169.059 2.79523 184.466 18.1188 184.466H367.122C389.261 184.466 381.599 169.059 367.122 169.059H321.563C306.513 169.059 297.718 152.263 305.965 139.612C310.861 132.097 314.487 123.103 315.184 112.582C317.452 78.3496 279.367 40.059 235.601 53.6116C226.557 56.4174 216.877 52.2965 212.778 43.7039C204.207 25.7549 185.021 0.46582 144.931 0.46582C94.4377 0.46582 74.8658 31.5416 70.6674 59.7241C69.3219 68.7675 61.5854 75.5438 52.5034 75.7568C40.1947 76.0323 23.0273 80.5165 6.47039 98.6159C-6.58579 112.882 -1.05434 168.646 33.8535 168.646L18.1063 169.072L18.1188 169.059Z" fill="url(#paint0_linear_218_1923)"/>
<defs>
<linearGradient id="paint0_linear_218_1923" x1="0.0170537" y1="92.4658" x2="381.001" y2="92.4658" gradientUnits="userSpaceOnUse">
<stop stop-color="white" stop-opacity="0"/>
<stop offset="0.05" stop-color="white" stop-opacity="0.18"/>
<stop offset="0.1" stop-color="white" stop-opacity="0.35"/>
<stop offset="0.16" stop-color="white" stop-opacity="0.51"/>
<stop offset="0.22" stop-color="white" stop-opacity="0.64"/>
<stop offset="0.28" stop-color="white" stop-opacity="0.75"/>
<stop offset="0.36" stop-color="white" stop-opacity="0.84"/>
<stop offset="0.44" stop-color="white" stop-opacity="0.91"/>
<stop offset="0.55" stop-color="white" stop-opacity="0.96"/>
<stop offset="0.68" stop-color="white" stop-opacity="0.99"/>
<stop offset="1" stop-color="white"/>
</linearGradient>
</defs>
</svg>
