<svg width="104" height="25" viewBox="0 0 104 25" fill="none" xmlns="http://www.w3.org/2000/svg">
<path d="M16.5288 8.38548H52.7021H81.7478C86.7789 8.38548 86.3167 8.25283 94.3206 0.296044C94.5078 0.110016 94.7668 0 95.0306 0H102.185C102.973 0 103.452 0.863235 103.02 1.52221C98.6407 8.21125 90.5593 19.1489 86.7327 19.1489H1.87637C-1.77877 19.1489 1.14123 13.8516 4.93315 12.8911C8.57731 11.9681 9.72264 8.38548 16.5288 8.38548Z" fill="#EDEDED"/>
<path d="M12.0619 13.032C9.91757 13.6703 6.87977 13.1206 5.62891 12.766C7.5052 12.2341 9.38149 10.1064 10.1856 10.1064C13.1341 10.1064 14.7423 12.2341 12.0619 13.032Z" fill="#7E93A7" stroke="#7E93A7" stroke-linejoin="round"/>
<rect x="19.8354" y="11.7021" width="2.68041" height="2.65957" rx="1.32979" fill="#7E93A7"/>
<rect x="24.6602" y="11.7021" width="2.68041" height="2.65957" rx="1.32979" fill="#7E93A7"/>
<rect x="29.4849" y="11.7021" width="2.68041" height="2.65957" rx="1.32979" fill="#7E93A7"/>
<rect x="34.3096" y="11.7021" width="2.68041" height="2.65957" rx="1.32979" fill="#7E93A7"/>
<rect x="39.1343" y="11.7021" width="2.68041" height="2.65957" rx="1.32979" fill="#7E93A7"/>
<rect x="43.959" y="11.7021" width="2.68042" height="2.65957" rx="1.32979" fill="#7E93A7"/>
<rect x="48.7837" y="11.7021" width="2.68042" height="2.65957" rx="1.32979" fill="#7E93A7"/>
<rect x="53.6084" y="11.7021" width="2.68042" height="2.65957" rx="1.32979" fill="#7E93A7"/>
<rect x="58.4331" y="11.7021" width="2.68042" height="2.65957" rx="1.32979" fill="#7E93A7"/>
<rect x="63.2578" y="11.7021" width="2.68041" height="2.65957" rx="1.32979" fill="#7E93A7"/>
<rect x="68.0825" y="11.7021" width="2.68041" height="2.65957" rx="1.32979" fill="#7E93A7"/>
<rect x="72.9072" y="11.7021" width="2.68041" height="2.65957" rx="1.32979" fill="#7E93A7"/>
<rect x="77.7324" y="11.7021" width="2.68041" height="2.65957" rx="1.32979" fill="#7E93A7"/>
<path d="M4.03221 17.087C0.806442 16.5714 0 17.087 0 18.118C0 18.3757 0 19.149 1.8817 19.149H86.8269C88.5473 19.149 91.8447 16.056 93.2784 14.5094C93.0992 14.2517 91.9343 14.1486 88.7086 15.7982C84.6764 17.8602 45.9672 18.118 28.2255 18.118C10.4837 18.118 7.25797 17.6025 4.03221 17.087Z" fill="#878787"/>
<path d="M43.959 22.1003C43.959 20.4963 45.3045 19.2204 46.9062 19.3056L56.7318 19.8279C57.9863 19.8945 58.9693 20.9312 58.9693 22.1874V22.1874C58.9693 23.4599 57.9617 24.5038 56.6901 24.5488L46.8568 24.8973C45.2733 24.9534 43.959 23.6849 43.959 22.1003V22.1003Z" fill="#878787"/>
<path d="M60.0563 15.9575H35.3488C34.1344 15.9575 33.97 17.7149 35.1633 17.9402L72.4733 24.9827C72.5344 24.9943 72.5965 25.0001 72.6588 25.0001H81.2115C82.3461 25.0001 82.6039 23.4096 81.5273 23.0513L60.3722 16.0087C60.2703 15.9748 60.1637 15.9575 60.0563 15.9575Z" fill="#D9D9D9"/>
</svg>
