<svg width="269" height="74" viewBox="0 0 269 74" fill="none" xmlns="http://www.w3.org/2000/svg">
  <path
    d="M239.006 60.9945C240.498 58.5643 242.221 55.5813 243.472 53.56C244.806 51.8324 246.4 49.4714 247.515 47.5883L241.602 49.1144C243.635 45.2906 247.425 38.1613 249.227 34.7752C249.227 34.7752 244.823 35.9558 243.928 36.1976C247.504 29.8285 250.843 23.8741 254.144 18.0002C257.269 23.5574 261.223 30.5829 264.382 36.2034L259.071 34.7637C261.527 39.3995 264.207 44.4268 266.697 49.1201C265.322 48.7631 262.208 47.9568 260.766 47.5883C262.98 51.0665 266.849 57.4183 269 60.9772L239 61.0002L239.006 60.9945Z"
    fill="url(#paint0_linear_286_4390)" />
  <path
    d="M0.00282462 30.9973C0.749023 29.754 1.61067 28.2278 2.23579 27.1936C2.90314 26.3097 3.70002 25.1018 4.25756 24.1383L1.30092 24.9191C2.31744 22.9627 4.21251 19.3152 5.11358 17.5828C5.11358 17.5828 2.91159 18.1868 2.46387 18.3105C4.25193 15.0519 5.92172 12.0055 7.57181 9.00024C9.1346 11.8434 11.1113 15.4379 12.691 18.3135L10.0357 17.5769C11.2634 19.9487 12.6037 22.5208 13.8483 24.922C13.1613 24.7394 11.6041 24.3269 10.8832 24.1383C11.9899 25.9179 13.9244 29.1676 15 30.9885L6.02321e-06 31.0002L0.00282462 30.9973Z"
    fill="url(#paint1_linear_286_4390)" />
  <path
    d="M9.00338 34.997C9.89882 33.6407 10.9328 31.9757 11.6829 30.8476C12.4838 29.8833 13.44 28.5655 14.1091 27.5145L10.5611 28.3663C11.7809 26.2321 14.055 22.253 15.1363 20.363C15.1363 20.363 12.4939 21.0219 11.9566 21.1569C14.1023 17.6021 16.1061 14.2787 18.0862 11.0002C19.9615 14.1019 22.3336 18.0231 24.2292 21.1602L21.0428 20.3566C22.5161 22.944 24.1245 25.7499 25.618 28.3695C24.7935 28.1702 22.9249 27.7202 22.0599 27.5145C23.3878 29.4558 25.7092 33.001 27 34.9874L9 35.0002L9.00338 34.997Z"
    fill="url(#paint2_linear_286_4390)" />
  <path
    d="M66.0056 46.9945C67.498 44.5643 69.2213 41.5813 70.4716 39.56C71.8063 37.8324 73.4 35.4714 74.5151 33.5883L68.6018 35.1144C70.6349 31.2906 74.425 24.1613 76.2271 20.7752C76.2271 20.7752 71.8232 21.9558 70.9277 22.1976C74.5039 15.8285 77.8434 9.87409 81.1436 4.00024C84.2692 9.55736 88.2226 16.5829 91.382 22.2034L86.0713 20.7637C88.5268 25.3995 91.2074 30.4268 93.6966 35.1201C92.3225 34.7631 89.2082 33.9568 87.7665 33.5883C89.9797 37.0665 93.8487 43.4183 96 46.9772L66 47.0002L66.0056 46.9945Z"
    fill="url(#paint3_linear_286_4390)" />
  <path
    d="M89.0058 49.9946C90.548 47.621 92.3287 44.7073 93.6206 42.7331C94.9998 41.0456 96.6467 38.7395 97.7989 36.9002L91.6886 38.3908C93.7894 34.6559 97.7058 27.6925 99.568 24.3851C99.568 24.3851 95.0173 25.5382 94.092 25.7745C97.7873 19.5535 101.238 13.7375 104.648 8.00024C107.878 13.4281 111.963 20.2903 115.228 25.7801L109.74 24.3739C112.278 28.9018 115.048 33.8122 117.62 38.3964C116.2 38.0477 112.982 37.2602 111.492 36.9002C113.779 40.2975 117.777 46.5016 120 49.9777L89 50.0002L89.0058 49.9946Z"
    fill="url(#paint4_linear_286_4390)" />
  <path
    d="M194.006 63.9946C195.548 61.621 197.329 58.7074 198.621 56.7331C200 55.0457 201.647 52.7395 202.799 50.9002L196.689 52.3908C198.789 48.6559 202.706 41.6925 204.568 38.3851C204.568 38.3851 200.017 39.5382 199.092 39.7744C202.787 33.5535 206.238 27.7375 209.648 22.0002C212.878 27.4281 216.963 34.2903 220.228 39.7801L214.74 38.3739C217.278 42.9018 220.048 47.8122 222.62 52.3964C221.2 52.0476 217.982 51.2602 216.492 50.9002C218.779 54.2975 222.777 60.5016 225 63.9777L194 64.0002L194.006 63.9946Z"
    fill="url(#paint5_linear_286_4390)" />
  <path
    d="M116.006 51.9946C117.548 49.621 119.329 46.7073 120.621 44.7331C122 43.0456 123.647 40.7395 124.799 38.9002L118.689 40.3908C120.789 36.6559 124.706 29.6925 126.568 26.3851C126.568 26.3851 122.017 27.5382 121.092 27.7745C124.787 21.5535 128.238 15.7375 131.648 10.0002C134.878 15.4281 138.963 22.2903 142.228 27.7801L136.74 26.3739C139.278 30.9018 142.048 35.8122 144.62 40.3964C143.2 40.0477 139.982 39.2602 138.492 38.9002C140.779 42.2975 144.777 48.5016 147 51.9777L116 52.0002L116.006 51.9946Z"
    fill="url(#paint6_linear_286_4390)" />
  <path
    d="M181.006 69.9946C182.548 67.621 184.329 64.7074 185.621 62.7331C187 61.0457 188.647 58.7395 189.799 56.9002L183.689 58.3908C185.789 54.6559 189.706 47.6925 191.568 44.3851C191.568 44.3851 187.017 45.5382 186.092 45.7744C189.787 39.5535 193.238 33.7375 196.648 28.0002C199.878 33.4281 203.963 40.2903 207.228 45.7801L201.74 44.3739C204.278 48.9018 207.048 53.8122 209.62 58.3964C208.2 58.0476 204.982 57.2602 203.492 56.9002C205.779 60.2975 209.777 66.5016 212 69.9777L181 70.0002L181.006 69.9946Z"
    fill="url(#paint7_linear_286_4390)" />
  <path
    d="M145.006 54.9946C146.498 52.621 148.221 49.7074 149.472 47.7331C150.806 46.0457 152.4 43.7395 153.515 41.9002L147.602 43.3908C149.635 39.6559 153.425 32.6925 155.227 29.3851C155.227 29.3851 150.823 30.5382 149.928 30.7745C153.504 24.5535 156.843 18.7375 160.144 13.0002C163.269 18.4281 167.223 25.2903 170.382 30.7801L165.071 29.3739C167.527 33.9018 170.207 38.8122 172.697 43.3964C171.323 43.0477 168.208 42.2602 166.766 41.9002C168.98 45.2976 172.849 51.5017 175 54.9778L145 55.0002L145.006 54.9946Z"
    fill="url(#paint8_linear_286_4390)" />
  <path
    d="M221.006 65.9946C222.548 63.621 224.329 60.7074 225.621 58.7331C227 57.0457 228.647 54.7395 229.799 52.9002L223.689 54.3908C225.789 50.6559 229.706 43.6925 231.568 40.3851C231.568 40.3851 227.017 41.5382 226.092 41.7745C229.787 35.5535 233.238 29.7375 236.648 24.0002C239.878 29.4281 243.963 36.2903 247.228 41.7801L241.74 40.3739C244.278 44.9018 247.048 49.8122 249.62 54.3964C248.2 54.0476 244.982 53.2602 243.492 52.9002C245.779 56.2976 249.777 62.5017 252 65.9778L221 66.0002L221.006 65.9946Z"
    fill="url(#paint9_linear_286_4390)" />
  <path
    d="M8.00319 46.997C8.84889 45.6407 9.82542 43.9757 10.5339 42.8476C11.2902 41.8833 12.1934 40.5655 12.8252 39.5145L9.47437 40.3663C10.6264 38.2321 12.7742 34.253 13.7954 32.363C13.7954 32.363 11.2998 33.0219 10.7924 33.1569C12.8188 29.6021 14.7113 26.2787 16.5814 23.0002C18.3526 26.1019 20.5928 30.0231 22.3831 33.1601L19.3738 32.3566C20.7652 34.944 22.2842 37.7499 23.6948 40.3695C22.9161 40.1702 21.1513 39.7202 20.3343 39.5145C21.5885 41.4558 23.7809 45.001 25 46.9874L8 47.0002L8.00319 46.997Z"
    fill="url(#paint10_linear_286_4390)" />
  <path
    d="M39.0036 39.9965C39.9488 38.4141 41.0402 36.4717 41.832 35.1555C42.6773 34.0305 43.6867 32.4931 44.3929 31.2669L40.6478 32.2606C41.9354 29.7707 44.3358 25.1284 45.4772 22.9235C45.4772 22.9235 42.688 23.6922 42.1209 23.8497C44.3858 19.7024 46.5008 15.8251 48.591 12.0002C50.5705 15.6188 53.0743 20.1936 55.0753 23.8535L51.7118 22.916C53.2669 25.9346 54.9647 29.2082 56.5412 32.2643C55.6709 32.0318 53.6985 31.5069 52.7854 31.2669C54.1872 33.5318 56.6375 37.6678 58 39.9852L39 40.0002L39.0036 39.9965Z"
    fill="url(#paint11_linear_286_4390)" />
  <path
    d="M76.0058 48.9946C77.548 46.621 79.3287 43.7074 80.6206 41.7331C81.9998 40.0457 83.6467 37.7395 84.7989 35.9002L78.6886 37.3908C80.7894 33.6559 84.7058 26.6925 86.5681 23.3851C86.5681 23.3851 82.0173 24.5382 81.092 24.7744C84.7873 18.5535 88.2382 12.7375 91.6484 7.00024C94.8782 12.4281 98.9634 19.2903 102.228 24.7801L96.7404 23.3739C99.2776 27.9018 102.048 32.8122 104.62 37.3964C103.2 37.0476 99.9818 36.2602 98.492 35.9002C100.779 39.2975 104.777 45.5016 107 48.9777L76 49.0002L76.0058 48.9946Z"
    fill="url(#paint12_linear_286_4390)" />
  <path
    d="M105.006 41.9946C106.498 39.621 108.221 36.7074 109.472 34.7331C110.806 33.0457 112.4 30.7395 113.515 28.9002L107.602 30.3908C109.635 26.6559 113.425 19.6925 115.227 16.3851C115.227 16.3851 110.823 17.5382 109.928 17.7745C113.504 11.5535 116.843 5.73749 120.144 0.000244141C123.269 5.42813 127.223 12.2903 130.382 17.7801L125.071 16.3739C127.527 20.9018 130.207 25.8122 132.697 30.3964C131.323 30.0476 128.208 29.2602 126.766 28.9002C128.98 32.2976 132.849 38.5017 135 41.9778L105 42.0002L105.006 41.9946Z"
    fill="url(#paint13_linear_286_4390)" />
  <path
    d="M131.006 51.9946C132.498 49.621 134.221 46.7074 135.472 44.7331C136.806 43.0457 138.4 40.7395 139.515 38.9002L133.602 40.3908C135.635 36.6559 139.425 29.6925 141.227 26.3851C141.227 26.3851 136.823 27.5382 135.928 27.7744C139.504 21.5535 142.843 15.7375 146.144 10.0002C149.269 15.4281 153.223 22.2903 156.382 27.7801L151.071 26.3739C153.527 30.9018 156.207 35.8122 158.697 40.3964C157.322 40.0476 154.208 39.2602 152.766 38.9002C154.98 42.2975 158.849 48.5016 161 51.9777L131 52.0002L131.006 51.9946Z"
    fill="url(#paint14_linear_286_4390)" />
  <path
    d="M164.006 56.9946C165.498 54.621 167.221 51.7073 168.472 49.7331C169.806 48.0456 171.4 45.7395 172.515 43.9002L166.602 45.3908C168.635 41.6559 172.425 34.6925 174.227 31.3851C174.227 31.3851 169.823 32.5382 168.928 32.7745C172.504 26.5535 175.843 20.7375 179.144 15.0002C182.269 20.4281 186.223 27.2903 189.382 32.7801L184.071 31.3739C186.527 35.9018 189.207 40.8122 191.697 45.3964C190.322 45.0477 187.208 44.2602 185.766 43.9002C187.98 47.2975 191.849 53.5016 194 56.9777L164 57.0002L164.006 56.9946Z"
    fill="url(#paint15_linear_286_4390)" />
  <path
    d="M20.0039 41.9962C21.0486 40.3008 22.2549 38.2196 23.1301 36.8094C24.0644 35.6041 25.18 33.9568 25.9606 32.6431L21.8213 33.7078C23.2444 31.04 25.8975 26.0661 27.159 23.7037C27.159 23.7037 24.0762 24.5274 23.4494 24.6961C25.9527 20.2525 28.2904 16.0983 30.6005 12.0002C32.7884 15.8773 35.5559 20.7789 37.7674 24.7001L34.0499 23.6957C35.7687 26.9299 37.6452 30.4374 39.3876 33.7118C38.4258 33.4627 36.2457 32.9002 35.2365 32.6431C36.7858 35.0697 39.4941 39.5012 41 41.9842L20 42.0002L20.0039 41.9962Z"
    fill="url(#paint16_linear_286_4390)" />
  <path
    d="M56.0054 46.9945C57.4481 44.5643 59.1139 41.5813 60.3225 39.56C61.6127 37.8324 63.1534 35.4714 64.2313 33.5883L58.5151 35.1144C60.4804 31.2906 64.1442 24.1613 65.8862 20.7752C65.8862 20.7752 61.6291 21.9558 60.7635 22.1976C64.2204 15.8285 67.4487 9.87409 70.6388 4.00024C73.6602 9.55736 77.4819 16.5829 80.5359 22.2034L75.4023 20.7637C77.7759 25.3995 80.3672 30.4268 82.7734 35.1201C81.4451 34.7631 78.4346 33.9568 77.0409 33.5883C79.1804 37.0665 82.9204 43.4183 85 46.9772L56 47.0002L56.0054 46.9945Z"
    fill="url(#paint17_linear_286_4390)" />
  <path
    d="M83.0056 55.9946C84.498 53.621 86.2213 50.7074 87.4716 48.7331C88.8063 47.0457 90.4 44.7395 91.5151 42.9002L85.6018 44.3908C87.6349 40.6559 91.425 33.6925 93.2271 30.3851C93.2271 30.3851 88.8232 31.5382 87.9277 31.7744C91.5039 25.5535 94.8434 19.7375 98.1436 14.0002C101.269 19.4281 105.223 26.2903 108.382 31.7801L103.071 30.3739C105.527 34.9018 108.207 39.8122 110.697 44.3964C109.323 44.0476 106.208 43.2602 104.766 42.9002C106.98 46.2975 110.849 52.5016 113 55.9777L83 56.0002L83.0056 55.9946Z"
    fill="url(#paint18_linear_286_4390)" />
  <path
    d="M107.006 55.9946C108.498 53.621 110.221 50.7074 111.472 48.7331C112.806 47.0457 114.4 44.7395 115.515 42.9002L109.602 44.3908C111.635 40.6559 115.425 33.6925 117.227 30.3851C117.227 30.3851 112.823 31.5382 111.928 31.7745C115.504 25.5535 118.843 19.7375 122.144 14.0002C125.269 19.4281 129.223 26.2903 132.382 31.7801L127.071 30.3739C129.527 34.9018 132.207 39.8122 134.697 44.3964C133.323 44.0476 130.208 43.2602 128.766 42.9002C130.98 46.2976 134.849 52.5017 137 55.9778L107 56.0002L107.006 55.9946Z"
    fill="url(#paint19_linear_286_4390)" />
  <path
    d="M137.006 59.9943C138.498 57.5077 140.221 54.4553 141.472 52.387C142.806 50.6192 144.4 48.2033 145.515 46.2764L139.602 47.8379C141.635 43.9253 145.425 36.6302 147.227 33.1654C147.227 33.1654 142.823 34.3733 141.928 34.6208C145.504 28.1036 148.843 22.0107 152.144 16.0002C155.269 21.6866 159.223 28.8756 162.382 34.6267L157.071 33.1536C159.527 37.8971 162.207 43.0414 164.697 47.8438C163.322 47.4785 160.208 46.6535 158.766 46.2764C160.98 49.8355 164.849 56.335 167 59.9767L137 60.0002L137.006 59.9943Z"
    fill="url(#paint20_linear_286_4390)" />
  <path
    d="M155.006 51.9946C156.548 49.621 158.329 46.7073 159.621 44.7331C161 43.0456 162.647 40.7395 163.799 38.9002L157.689 40.3908C159.789 36.6559 163.706 29.6925 165.568 26.3851C165.568 26.3851 161.017 27.5382 160.092 27.7745C163.787 21.5535 167.238 15.7375 170.648 10.0002C173.878 15.4281 177.963 22.2903 181.228 27.7801L175.74 26.3739C178.278 30.9018 181.048 35.8122 183.62 40.3964C182.2 40.0477 178.982 39.2602 177.492 38.9002C179.779 42.2975 183.777 48.5016 186 51.9777L155 52.0002L155.006 51.9946Z"
    fill="url(#paint21_linear_286_4390)" />
  <path
    d="M28.0039 43.9962C29.0486 42.3008 30.2549 40.2196 31.1301 38.8094C32.0644 37.6041 33.18 35.9568 33.9606 34.6431L29.8213 35.7078C31.2444 33.04 33.8975 28.0661 35.159 25.7037C35.159 25.7037 32.0762 26.5274 31.4494 26.6961C33.9527 22.2525 36.2904 18.0983 38.6005 14.0002C40.7884 17.8773 43.5559 22.7789 45.7674 26.7001L42.0499 25.6957C43.7687 28.9299 45.6452 32.4374 47.3876 35.7118C46.4258 35.4627 44.2457 34.9002 43.2365 34.6431C44.7858 37.0697 47.4941 41.5012 49 43.9842L28 44.0002L28.0039 43.9962Z"
    fill="url(#paint22_linear_286_4390)" />
  <path
    d="M61.0058 51.9946C62.548 49.621 64.3287 46.7074 65.6206 44.7331C66.9998 43.0457 68.6467 40.7395 69.799 38.9002L63.6886 40.3908C65.7894 36.6559 69.7058 29.6925 71.568 26.3851C71.568 26.3851 67.0173 27.5382 66.092 27.7744C69.7873 21.5535 73.2382 15.7375 76.6484 10.0002C79.8782 15.4281 83.9634 22.2903 87.2281 27.7801L81.7404 26.3739C84.2776 30.9018 87.0477 35.8122 89.6199 40.3964C88.1999 40.0476 84.9818 39.2602 83.492 38.9002C85.7791 42.2975 89.777 48.5016 92 51.9777L61 52.0002L61.0058 51.9946Z"
    fill="url(#paint23_linear_286_4390)" />
  <path
    d="M39.0036 47.9966C39.9488 46.4707 41.0402 44.5977 41.832 43.3285C42.6773 42.2437 43.6867 40.7612 44.3929 39.5788L40.6478 40.537C41.9354 38.136 44.3358 33.6595 45.4772 31.5334C45.4772 31.5334 42.688 32.2746 42.1209 32.4265C44.3858 28.4273 46.5008 24.6885 48.5909 21.0002C50.5705 24.4896 53.0743 28.901 55.0753 32.4301L51.7118 31.5262C53.2669 34.437 54.9647 37.5937 56.5412 40.5406C55.6709 40.3164 53.6985 39.8102 52.7854 39.5788C54.1872 41.7628 56.6375 45.7511 58 47.9858L39 48.0002L39.0036 47.9966Z"
    fill="url(#paint24_linear_286_4390)" />
  <path
    d="M21.0038 44.9966C21.9987 43.4707 23.1476 41.5977 23.981 40.3285C24.8708 39.2437 25.9334 37.7612 26.6767 36.5788L22.7346 37.537C24.0899 35.136 26.6167 30.6595 27.8181 28.5334C27.8181 28.5334 24.8821 29.2746 24.2852 29.4265C26.6692 25.4273 28.8956 21.6885 31.0957 18.0002C33.1795 21.4896 35.8151 25.901 37.9214 29.4301L34.3809 28.5262C36.0178 31.437 37.805 34.5937 39.4644 37.5406C38.5483 37.3164 36.4721 36.8102 35.511 36.5788C36.9865 38.7628 39.5658 42.7511 41 44.9858L21 45.0002L21.0038 44.9966Z"
    fill="url(#paint25_linear_286_4390)" />
  <path
    d="M123.006 56.9946C124.498 54.621 126.221 51.7074 127.472 49.7331C128.806 48.0457 130.4 45.7395 131.515 43.9002L125.602 45.3908C127.635 41.6559 131.425 34.6925 133.227 31.3851C133.227 31.3851 128.823 32.5382 127.928 32.7745C131.504 26.5535 134.843 20.7375 138.144 15.0002C141.269 20.4281 145.223 27.2903 148.382 32.7801L143.071 31.3739C145.527 35.9018 148.207 40.8122 150.697 45.3964C149.323 45.0476 146.208 44.2602 144.766 43.9002C146.98 47.2976 150.849 53.5017 153 56.9778L123 57.0002L123.006 56.9946Z"
    fill="url(#paint26_linear_286_4390)" />
  <path
    d="M146.006 62.9946C147.498 60.621 149.221 57.7074 150.472 55.7331C151.806 54.0457 153.4 51.7395 154.515 49.9002L148.602 51.3908C150.635 47.6559 154.425 40.6925 156.227 37.3851C156.227 37.3851 151.823 38.5382 150.928 38.7744C154.504 32.5535 157.843 26.7375 161.144 21.0002C164.269 26.4281 168.223 33.2903 171.382 38.7801L166.071 37.3739C168.527 41.9018 171.207 46.8122 173.697 51.3964C172.322 51.0476 169.208 50.2602 167.766 49.9002C169.98 53.2975 173.849 59.5016 176 62.9777L146 63.0002L146.006 62.9946Z"
    fill="url(#paint27_linear_286_4390)" />
  <path
    d="M171.006 61.9946C172.498 59.621 174.221 56.7073 175.472 54.7331C176.806 53.0456 178.4 50.7395 179.515 48.9002L173.602 50.3908C175.635 46.6559 179.425 39.6925 181.227 36.3851C181.227 36.3851 176.823 37.5382 175.928 37.7745C179.504 31.5535 182.843 25.7375 186.144 20.0002C189.269 25.4281 193.223 32.2903 196.382 37.7801L191.071 36.3739C193.527 40.9018 196.207 45.8122 198.697 50.3964C197.322 50.0477 194.208 49.2602 192.766 48.9002C194.98 52.2975 198.849 58.5016 201 61.9777L171 62.0002L171.006 61.9946Z"
    fill="url(#paint28_linear_286_4390)" />
  <path
    d="M21.0039 52.9964C22.0486 51.3574 23.2549 49.3456 24.1301 47.9824C25.0644 46.8173 26.18 45.225 26.9606 43.955L22.8213 44.9842C24.2444 42.4054 26.8975 37.5973 28.159 35.3136C28.159 35.3136 25.0762 36.1098 24.4494 36.2729C26.9527 31.9775 29.2904 27.9617 31.6005 24.0002C33.7884 27.7481 36.5558 32.4862 38.7674 36.2768L35.0499 35.3059C36.7687 38.4323 38.6452 41.8228 40.3876 44.9881C39.4258 44.7473 37.2457 44.2035 36.2365 43.955C37.7858 46.3008 40.4941 50.5845 42 52.9847L21 53.0002L21.0039 52.9964Z"
    fill="url(#paint29_linear_286_4390)" />
  <path
    d="M75.0058 61.9946C76.548 59.621 78.3287 56.7074 79.6206 54.7331C80.9998 53.0457 82.6467 50.7395 83.799 48.9002L77.6886 50.3908C79.7894 46.6559 83.7058 39.6925 85.568 36.3851C85.568 36.3851 81.0173 37.5382 80.092 37.7744C83.7873 31.5535 87.2382 25.7375 90.6484 20.0002C93.8782 25.4281 97.9634 32.2903 101.228 37.7801L95.7404 36.3739C98.2776 40.9018 101.048 45.8122 103.62 50.3964C102.2 50.0476 98.9818 49.2602 97.492 48.9002C99.7791 52.2975 103.777 58.5016 106 61.9777L75 62.0002L75.0058 61.9946Z"
    fill="url(#paint30_linear_286_4390)" />
  <path
    d="M102.006 65.9946C103.548 63.621 105.329 60.7074 106.621 58.7331C108 57.0457 109.647 54.7395 110.799 52.9002L104.689 54.3908C106.789 50.6559 110.706 43.6925 112.568 40.3851C112.568 40.3851 108.017 41.5382 107.092 41.7744C110.787 35.5535 114.238 29.7375 117.648 24.0002C120.878 29.4281 124.963 36.2903 128.228 41.7801L122.74 40.3739C125.278 44.9018 128.048 49.8122 130.62 54.3964C129.2 54.0476 125.982 53.2602 124.492 52.9002C126.779 56.2975 130.777 62.5016 133 65.9777L102 66.0002L102.006 65.9946Z"
    fill="url(#paint31_linear_286_4390)" />
  <path
    d="M88.0058 72.9945C89.548 70.5643 91.3287 67.5813 92.6206 65.56C93.9998 63.8324 95.6467 61.4714 96.7989 59.5883L90.6886 61.1144C92.7894 57.2906 96.7058 50.1613 98.5681 46.7752C98.5681 46.7752 94.0173 47.9558 93.092 48.1976C96.7873 41.8285 100.238 35.8741 103.648 30.0002C106.878 35.5574 110.963 42.5829 114.228 48.2034L108.74 46.7637C111.278 51.3995 114.048 56.4268 116.62 61.1201C115.2 60.7631 111.982 59.9568 110.492 59.5883C112.779 63.0665 116.777 69.4183 119 72.9772L88 73.0002L88.0058 72.9945Z"
    fill="url(#paint32_linear_286_4390)" />
  <path
    d="M132.006 61.9946C133.498 59.621 135.221 56.7074 136.472 54.7331C137.806 53.0457 139.4 50.7395 140.515 48.9002L134.602 50.3908C136.635 46.6559 140.425 39.6925 142.227 36.3851C142.227 36.3851 137.823 37.5382 136.928 37.7745C140.504 31.5535 143.843 25.7375 147.144 20.0002C150.269 25.4281 154.223 32.2903 157.382 37.7801L152.071 36.3739C154.527 40.9018 157.207 45.8122 159.697 50.3964C158.323 50.0476 155.208 49.2602 153.766 48.9002C155.98 52.2976 159.849 58.5017 162 61.9778L132 62.0002L132.006 61.9946Z"
    fill="url(#paint33_linear_286_4390)" />
  <path
    d="M115.006 73.9945C116.548 71.5643 118.329 68.5813 119.621 66.56C121 64.8324 122.647 62.4714 123.799 60.5883L117.689 62.1144C119.789 58.2906 123.706 51.1614 125.568 47.7753C125.568 47.7753 121.017 48.9558 120.092 49.1977C123.787 42.8286 127.238 36.8741 130.648 31.0002C133.878 36.5574 137.963 43.5829 141.228 49.2034L135.74 47.7637C138.278 52.3995 141.048 57.4268 143.62 62.1201C142.2 61.7631 138.982 60.9569 137.492 60.5883C139.779 64.0665 143.777 70.4184 146 73.9772L115 74.0002L115.006 73.9945Z"
    fill="url(#paint34_linear_286_4390)" />
  <defs>
    <linearGradient id="paint0_linear_286_4390" x1="254.008" y1="72.2757" x2="254.008" y2="-58.7801"
      gradientUnits="userSpaceOnUse">
      <stop offset="0.23" stop-color="#10B981" />
      <stop offset="0.26" stop-color="#15BA81" />
      <stop offset="0.28" stop-color="#23BE83" />
      <stop offset="0.31" stop-color="#3BC585" />
      <stop offset="0.34" stop-color="#5DCF89" />
      <stop offset="0.37" stop-color="#89DC8D" />
      <stop offset="0.4" stop-color="#BEEC93" />
      <stop offset="0.43" stop-color="#FDFF9A" />
      <stop offset="0.53" stop-color="#FCFB9B" />
      <stop offset="0.6" stop-color="#F9F1A1" />
      <stop offset="0.68" stop-color="#F5DFAB" />
      <stop offset="0.69" stop-color="#F4DBAE" />
    </linearGradient>
    <linearGradient id="paint1_linear_286_4390" x1="8.91779" y1="59.7878" x2="7.70627" y2="-50.2876"
      gradientUnits="userSpaceOnUse">
      <stop stop-color="#108381" />
      <stop offset="0.23" stop-color="#10B981" />
      <stop offset="0.26" stop-color="#15BA81" />
      <stop offset="0.28" stop-color="#23BE83" />
      <stop offset="0.31" stop-color="#3BC585" />
      <stop offset="0.34" stop-color="#5DCF89" />
      <stop offset="0.37" stop-color="#89DC8D" />
      <stop offset="0.4" stop-color="#BEEC93" />
      <stop offset="0.43" stop-color="#FDFF9A" />
      <stop offset="0.53" stop-color="#FCFB9B" />
      <stop offset="0.6" stop-color="#F9F1A1" />
      <stop offset="0.68" stop-color="#F5DFAB" />
      <stop offset="0.69" stop-color="#F4DBAE" />
    </linearGradient>
    <linearGradient id="paint2_linear_286_4390" x1="18.3159" y1="63.2943" x2="17.1144" y2="-56.7905"
      gradientUnits="userSpaceOnUse">
      <stop stop-color="#108381" />
      <stop offset="0.23" stop-color="#10B981" />
      <stop offset="0.26" stop-color="#15BA81" />
      <stop offset="0.28" stop-color="#23BE83" />
      <stop offset="0.31" stop-color="#3BC585" />
      <stop offset="0.34" stop-color="#5DCF89" />
      <stop offset="0.37" stop-color="#89DC8D" />
      <stop offset="0.4" stop-color="#BEEC93" />
      <stop offset="0.43" stop-color="#FDFF9A" />
      <stop offset="0.53" stop-color="#FCFB9B" />
      <stop offset="0.6" stop-color="#F9F1A1" />
      <stop offset="0.68" stop-color="#F5DFAB" />
      <stop offset="0.69" stop-color="#F4DBAE" />
    </linearGradient>
    <linearGradient id="paint3_linear_286_4390" x1="81.5209" y1="97.3944" x2="79.2068" y2="-117.76"
      gradientUnits="userSpaceOnUse">
      <stop stop-color="#108381" />
      <stop offset="0.23" stop-color="#10B981" />
      <stop offset="0.26" stop-color="#15BA81" />
      <stop offset="0.28" stop-color="#23BE83" />
      <stop offset="0.31" stop-color="#3BC585" />
      <stop offset="0.34" stop-color="#5DCF89" />
      <stop offset="0.37" stop-color="#89DC8D" />
      <stop offset="0.4" stop-color="#BEEC93" />
      <stop offset="0.43" stop-color="#FDFF9A" />
      <stop offset="0.53" stop-color="#FCFB9B" />
      <stop offset="0.6" stop-color="#F9F1A1" />
      <stop offset="0.68" stop-color="#F5DFAB" />
      <stop offset="0.69" stop-color="#F4DBAE" />
    </linearGradient>
    <linearGradient id="paint4_linear_286_4390" x1="105.038" y1="98.9299" x2="102.902" y2="-111.218"
      gradientUnits="userSpaceOnUse">
      <stop stop-color="#108381" />
      <stop offset="0.23" stop-color="#10B981" />
      <stop offset="0.26" stop-color="#15BA81" />
      <stop offset="0.28" stop-color="#23BE83" />
      <stop offset="0.31" stop-color="#3BC585" />
      <stop offset="0.34" stop-color="#5DCF89" />
      <stop offset="0.37" stop-color="#89DC8D" />
      <stop offset="0.4" stop-color="#BEEC93" />
      <stop offset="0.43" stop-color="#FDFF9A" />
      <stop offset="0.53" stop-color="#FCFB9B" />
      <stop offset="0.6" stop-color="#F9F1A1" />
      <stop offset="0.68" stop-color="#F5DFAB" />
      <stop offset="0.69" stop-color="#F4DBAE" />
    </linearGradient>
    <linearGradient id="paint5_linear_286_4390" x1="209.509" y1="75.0135" x2="209.509" y2="-52.9945"
      gradientUnits="userSpaceOnUse">
      <stop offset="0.23" stop-color="#10B981" />
      <stop offset="0.26" stop-color="#15BA81" />
      <stop offset="0.28" stop-color="#23BE83" />
      <stop offset="0.31" stop-color="#3BC585" />
      <stop offset="0.34" stop-color="#5DCF89" />
      <stop offset="0.37" stop-color="#89DC8D" />
      <stop offset="0.4" stop-color="#BEEC93" />
      <stop offset="0.43" stop-color="#FDFF9A" />
      <stop offset="0.53" stop-color="#FCFB9B" />
      <stop offset="0.6" stop-color="#F9F1A1" />
      <stop offset="0.68" stop-color="#F5DFAB" />
      <stop offset="0.69" stop-color="#F4DBAE" />
    </linearGradient>
    <linearGradient id="paint6_linear_286_4390" x1="132.032" y1="100.637" x2="129.896" y2="-109.516"
      gradientUnits="userSpaceOnUse">
      <stop stop-color="#108381" />
      <stop offset="0.23" stop-color="#10B981" />
      <stop offset="0.26" stop-color="#15BA81" />
      <stop offset="0.28" stop-color="#23BE83" />
      <stop offset="0.31" stop-color="#3BC585" />
      <stop offset="0.34" stop-color="#5DCF89" />
      <stop offset="0.37" stop-color="#89DC8D" />
      <stop offset="0.4" stop-color="#BEEC93" />
      <stop offset="0.43" stop-color="#FDFF9A" />
      <stop offset="0.53" stop-color="#FCFB9B" />
      <stop offset="0.6" stop-color="#F9F1A1" />
      <stop offset="0.68" stop-color="#F5DFAB" />
      <stop offset="0.69" stop-color="#F4DBAE" />
    </linearGradient>
    <linearGradient id="paint7_linear_286_4390" x1="196.509" y1="81.0135" x2="196.509" y2="-46.9945"
      gradientUnits="userSpaceOnUse">
      <stop offset="0.23" stop-color="#10B981" />
      <stop offset="0.26" stop-color="#15BA81" />
      <stop offset="0.28" stop-color="#23BE83" />
      <stop offset="0.31" stop-color="#3BC585" />
      <stop offset="0.34" stop-color="#5DCF89" />
      <stop offset="0.37" stop-color="#89DC8D" />
      <stop offset="0.4" stop-color="#BEEC93" />
      <stop offset="0.43" stop-color="#FDFF9A" />
      <stop offset="0.53" stop-color="#FCFB9B" />
      <stop offset="0.6" stop-color="#F9F1A1" />
      <stop offset="0.68" stop-color="#F5DFAB" />
      <stop offset="0.69" stop-color="#F4DBAE" />
    </linearGradient>
    <linearGradient id="paint8_linear_286_4390" x1="160.515" y1="103.345" x2="158.307" y2="-106.807"
      gradientUnits="userSpaceOnUse">
      <stop stop-color="#108381" />
      <stop offset="0.23" stop-color="#10B981" />
      <stop offset="0.26" stop-color="#15BA81" />
      <stop offset="0.28" stop-color="#23BE83" />
      <stop offset="0.31" stop-color="#3BC585" />
      <stop offset="0.34" stop-color="#5DCF89" />
      <stop offset="0.37" stop-color="#89DC8D" />
      <stop offset="0.4" stop-color="#BEEC93" />
      <stop offset="0.43" stop-color="#FDFF9A" />
      <stop offset="0.53" stop-color="#FCFB9B" />
      <stop offset="0.6" stop-color="#F9F1A1" />
      <stop offset="0.68" stop-color="#F5DFAB" />
      <stop offset="0.69" stop-color="#F4DBAE" />
    </linearGradient>
    <linearGradient id="paint9_linear_286_4390" x1="236.509" y1="77.0191" x2="236.509" y2="-50.9945"
      gradientUnits="userSpaceOnUse">
      <stop offset="0.23" stop-color="#10B981" />
      <stop offset="0.26" stop-color="#15BA81" />
      <stop offset="0.28" stop-color="#23BE83" />
      <stop offset="0.31" stop-color="#3BC585" />
      <stop offset="0.34" stop-color="#5DCF89" />
      <stop offset="0.37" stop-color="#89DC8D" />
      <stop offset="0.4" stop-color="#BEEC93" />
      <stop offset="0.43" stop-color="#FDFF9A" />
      <stop offset="0.53" stop-color="#FCFB9B" />
      <stop offset="0.6" stop-color="#F9F1A1" />
      <stop offset="0.68" stop-color="#F5DFAB" />
      <stop offset="0.69" stop-color="#F4DBAE" />
    </linearGradient>
    <linearGradient id="paint10_linear_286_4390" x1="16.5048" y1="53.2935" x2="16.5048" y2="-19.8539"
      gradientUnits="userSpaceOnUse">
      <stop offset="0.108774" stop-color="#10B981" />
      <stop offset="0.152345" stop-color="#15BA81" />
      <stop offset="0.202452" stop-color="#23BE83" />
      <stop offset="0.259094" stop-color="#3BC585" />
      <stop offset="0.299397" stop-color="#5DCF89" />
      <stop offset="0.337521" stop-color="#89DC8D" />
      <stop offset="0.372378" stop-color="#BEEC93" />
      <stop offset="0.405056" stop-color="#FDFF9A" />
      <stop offset="0.53" stop-color="#FCFB9B" />
      <stop offset="0.6" stop-color="#F9F1A1" />
      <stop offset="0.68" stop-color="#F5DFAB" />
      <stop offset="0.69" stop-color="#F4DBAE" />
    </linearGradient>
    <linearGradient id="paint11_linear_286_4390" x1="48.5053" y1="47.3424" x2="48.5053" y2="-37.9963"
      gradientUnits="userSpaceOnUse">
      <stop offset="0.23" stop-color="#10B981" />
      <stop offset="0.26" stop-color="#15BA81" />
      <stop offset="0.28" stop-color="#23BE83" />
      <stop offset="0.31" stop-color="#3BC585" />
      <stop offset="0.34" stop-color="#5DCF89" />
      <stop offset="0.37" stop-color="#89DC8D" />
      <stop offset="0.4" stop-color="#BEEC93" />
      <stop offset="0.43" stop-color="#FDFF9A" />
      <stop offset="0.53" stop-color="#FCFB9B" />
      <stop offset="0.6" stop-color="#F9F1A1" />
      <stop offset="0.68" stop-color="#F5DFAB" />
      <stop offset="0.69" stop-color="#F4DBAE" />
    </linearGradient>
    <linearGradient id="paint12_linear_286_4390" x1="91.5087" y1="60.0135" x2="91.5087" y2="-67.9945"
      gradientUnits="userSpaceOnUse">
      <stop offset="0.23" stop-color="#10B981" />
      <stop offset="0.26" stop-color="#15BA81" />
      <stop offset="0.28" stop-color="#23BE83" />
      <stop offset="0.31" stop-color="#3BC585" />
      <stop offset="0.34" stop-color="#5DCF89" />
      <stop offset="0.37" stop-color="#89DC8D" />
      <stop offset="0.4" stop-color="#BEEC93" />
      <stop offset="0.43" stop-color="#FDFF9A" />
      <stop offset="0.53" stop-color="#FCFB9B" />
      <stop offset="0.6" stop-color="#F9F1A1" />
      <stop offset="0.68" stop-color="#F5DFAB" />
      <stop offset="0.69" stop-color="#F4DBAE" />
    </linearGradient>
    <linearGradient id="paint13_linear_286_4390" x1="120.008" y1="53.0191" x2="120.008" y2="-74.9945"
      gradientUnits="userSpaceOnUse">
      <stop offset="0.23" stop-color="#10B981" />
      <stop offset="0.26" stop-color="#15BA81" />
      <stop offset="0.28" stop-color="#23BE83" />
      <stop offset="0.31" stop-color="#3BC585" />
      <stop offset="0.34" stop-color="#5DCF89" />
      <stop offset="0.37" stop-color="#89DC8D" />
      <stop offset="0.4" stop-color="#BEEC93" />
      <stop offset="0.43" stop-color="#FDFF9A" />
      <stop offset="0.53" stop-color="#FCFB9B" />
      <stop offset="0.6" stop-color="#F9F1A1" />
      <stop offset="0.68" stop-color="#F5DFAB" />
      <stop offset="0.69" stop-color="#F4DBAE" />
    </linearGradient>
    <linearGradient id="paint14_linear_286_4390" x1="146.008" y1="63.0135" x2="146.008" y2="-64.9945"
      gradientUnits="userSpaceOnUse">
      <stop offset="0.23" stop-color="#10B981" />
      <stop offset="0.26" stop-color="#15BA81" />
      <stop offset="0.28" stop-color="#23BE83" />
      <stop offset="0.31" stop-color="#3BC585" />
      <stop offset="0.34" stop-color="#5DCF89" />
      <stop offset="0.37" stop-color="#89DC8D" />
      <stop offset="0.4" stop-color="#BEEC93" />
      <stop offset="0.43" stop-color="#FDFF9A" />
      <stop offset="0.53" stop-color="#FCFB9B" />
      <stop offset="0.6" stop-color="#F9F1A1" />
      <stop offset="0.68" stop-color="#F5DFAB" />
      <stop offset="0.69" stop-color="#F4DBAE" />
    </linearGradient>
    <linearGradient id="paint15_linear_286_4390" x1="179.008" y1="68.0135" x2="179.008" y2="-59.9945"
      gradientUnits="userSpaceOnUse">
      <stop offset="0.23" stop-color="#10B981" />
      <stop offset="0.26" stop-color="#15BA81" />
      <stop offset="0.28" stop-color="#23BE83" />
      <stop offset="0.31" stop-color="#3BC585" />
      <stop offset="0.34" stop-color="#5DCF89" />
      <stop offset="0.37" stop-color="#89DC8D" />
      <stop offset="0.4" stop-color="#BEEC93" />
      <stop offset="0.43" stop-color="#FDFF9A" />
      <stop offset="0.53" stop-color="#FCFB9B" />
      <stop offset="0.6" stop-color="#F9F1A1" />
      <stop offset="0.68" stop-color="#F5DFAB" />
      <stop offset="0.69" stop-color="#F4DBAE" />
    </linearGradient>
    <linearGradient id="paint16_linear_286_4390" x1="30.5059" y1="49.8669" x2="30.5059" y2="-41.5675"
      gradientUnits="userSpaceOnUse">
      <stop offset="0.23" stop-color="#10B981" />
      <stop offset="0.26" stop-color="#15BA81" />
      <stop offset="0.28" stop-color="#23BE83" />
      <stop offset="0.31" stop-color="#3BC585" />
      <stop offset="0.34" stop-color="#5DCF89" />
      <stop offset="0.37" stop-color="#89DC8D" />
      <stop offset="0.4" stop-color="#BEEC93" />
      <stop offset="0.43" stop-color="#FDFF9A" />
      <stop offset="0.53" stop-color="#FCFB9B" />
      <stop offset="0.6" stop-color="#F9F1A1" />
      <stop offset="0.68" stop-color="#F5DFAB" />
      <stop offset="0.69" stop-color="#F4DBAE" />
    </linearGradient>
    <linearGradient id="paint17_linear_286_4390" x1="70.5082" y1="58.2757" x2="70.5082" y2="-72.7801"
      gradientUnits="userSpaceOnUse">
      <stop offset="0.23" stop-color="#10B981" />
      <stop offset="0.26" stop-color="#15BA81" />
      <stop offset="0.28" stop-color="#23BE83" />
      <stop offset="0.31" stop-color="#3BC585" />
      <stop offset="0.34" stop-color="#5DCF89" />
      <stop offset="0.37" stop-color="#89DC8D" />
      <stop offset="0.4" stop-color="#BEEC93" />
      <stop offset="0.43" stop-color="#FDFF9A" />
      <stop offset="0.53" stop-color="#FCFB9B" />
      <stop offset="0.6" stop-color="#F9F1A1" />
      <stop offset="0.68" stop-color="#F5DFAB" />
      <stop offset="0.69" stop-color="#F4DBAE" />
    </linearGradient>
    <linearGradient id="paint18_linear_286_4390" x1="98.0084" y1="67.0135" x2="98.0084" y2="-60.9945"
      gradientUnits="userSpaceOnUse">
      <stop offset="0.23" stop-color="#10B981" />
      <stop offset="0.26" stop-color="#15BA81" />
      <stop offset="0.28" stop-color="#23BE83" />
      <stop offset="0.31" stop-color="#3BC585" />
      <stop offset="0.34" stop-color="#5DCF89" />
      <stop offset="0.37" stop-color="#89DC8D" />
      <stop offset="0.4" stop-color="#BEEC93" />
      <stop offset="0.43" stop-color="#FDFF9A" />
      <stop offset="0.53" stop-color="#FCFB9B" />
      <stop offset="0.6" stop-color="#F9F1A1" />
      <stop offset="0.68" stop-color="#F5DFAB" />
      <stop offset="0.69" stop-color="#F4DBAE" />
    </linearGradient>
    <linearGradient id="paint19_linear_286_4390" x1="122.008" y1="67.0191" x2="122.008" y2="-60.9945"
      gradientUnits="userSpaceOnUse">
      <stop offset="0.23" stop-color="#10B981" />
      <stop offset="0.26" stop-color="#15BA81" />
      <stop offset="0.28" stop-color="#23BE83" />
      <stop offset="0.31" stop-color="#3BC585" />
      <stop offset="0.34" stop-color="#5DCF89" />
      <stop offset="0.37" stop-color="#89DC8D" />
      <stop offset="0.4" stop-color="#BEEC93" />
      <stop offset="0.43" stop-color="#FDFF9A" />
      <stop offset="0.53" stop-color="#FCFB9B" />
      <stop offset="0.6" stop-color="#F9F1A1" />
      <stop offset="0.68" stop-color="#F5DFAB" />
      <stop offset="0.69" stop-color="#F4DBAE" />
    </linearGradient>
    <linearGradient id="paint20_linear_286_4390" x1="152.008" y1="71.5379" x2="152.008" y2="-62.5657"
      gradientUnits="userSpaceOnUse">
      <stop offset="0.23" stop-color="#10B981" />
      <stop offset="0.26" stop-color="#15BA81" />
      <stop offset="0.28" stop-color="#23BE83" />
      <stop offset="0.31" stop-color="#3BC585" />
      <stop offset="0.34" stop-color="#5DCF89" />
      <stop offset="0.37" stop-color="#89DC8D" />
      <stop offset="0.4" stop-color="#BEEC93" />
      <stop offset="0.43" stop-color="#FDFF9A" />
      <stop offset="0.53" stop-color="#FCFB9B" />
      <stop offset="0.6" stop-color="#F9F1A1" />
      <stop offset="0.68" stop-color="#F5DFAB" />
      <stop offset="0.69" stop-color="#F4DBAE" />
    </linearGradient>
    <linearGradient id="paint21_linear_286_4390" x1="170.509" y1="63.0135" x2="170.509" y2="-64.9945"
      gradientUnits="userSpaceOnUse">
      <stop offset="0.23" stop-color="#10B981" />
      <stop offset="0.26" stop-color="#15BA81" />
      <stop offset="0.28" stop-color="#23BE83" />
      <stop offset="0.31" stop-color="#3BC585" />
      <stop offset="0.34" stop-color="#5DCF89" />
      <stop offset="0.37" stop-color="#89DC8D" />
      <stop offset="0.4" stop-color="#BEEC93" />
      <stop offset="0.43" stop-color="#FDFF9A" />
      <stop offset="0.53" stop-color="#FCFB9B" />
      <stop offset="0.6" stop-color="#F9F1A1" />
      <stop offset="0.68" stop-color="#F5DFAB" />
      <stop offset="0.69" stop-color="#F4DBAE" />
    </linearGradient>
    <linearGradient id="paint22_linear_286_4390" x1="38.5059" y1="51.8669" x2="38.5059" y2="-39.5675"
      gradientUnits="userSpaceOnUse">
      <stop offset="0.23" stop-color="#10B981" />
      <stop offset="0.26" stop-color="#15BA81" />
      <stop offset="0.28" stop-color="#23BE83" />
      <stop offset="0.31" stop-color="#3BC585" />
      <stop offset="0.34" stop-color="#5DCF89" />
      <stop offset="0.37" stop-color="#89DC8D" />
      <stop offset="0.4" stop-color="#BEEC93" />
      <stop offset="0.43" stop-color="#FDFF9A" />
      <stop offset="0.53" stop-color="#FCFB9B" />
      <stop offset="0.6" stop-color="#F9F1A1" />
      <stop offset="0.68" stop-color="#F5DFAB" />
      <stop offset="0.69" stop-color="#F4DBAE" />
    </linearGradient>
    <linearGradient id="paint23_linear_286_4390" x1="76.5087" y1="63.0135" x2="76.5087" y2="-64.9945"
      gradientUnits="userSpaceOnUse">
      <stop offset="0.23" stop-color="#10B981" />
      <stop offset="0.26" stop-color="#15BA81" />
      <stop offset="0.28" stop-color="#23BE83" />
      <stop offset="0.31" stop-color="#3BC585" />
      <stop offset="0.34" stop-color="#5DCF89" />
      <stop offset="0.37" stop-color="#89DC8D" />
      <stop offset="0.4" stop-color="#BEEC93" />
      <stop offset="0.43" stop-color="#FDFF9A" />
      <stop offset="0.53" stop-color="#FCFB9B" />
      <stop offset="0.6" stop-color="#F9F1A1" />
      <stop offset="0.68" stop-color="#F5DFAB" />
      <stop offset="0.69" stop-color="#F4DBAE" />
    </linearGradient>
    <linearGradient id="paint24_linear_286_4390" x1="48.5053" y1="55.0802" x2="48.5053" y2="-27.2107"
      gradientUnits="userSpaceOnUse">
      <stop offset="0.23" stop-color="#10B981" />
      <stop offset="0.26" stop-color="#15BA81" />
      <stop offset="0.28" stop-color="#23BE83" />
      <stop offset="0.31" stop-color="#3BC585" />
      <stop offset="0.34" stop-color="#5DCF89" />
      <stop offset="0.37" stop-color="#89DC8D" />
      <stop offset="0.4" stop-color="#BEEC93" />
      <stop offset="0.43" stop-color="#FDFF9A" />
      <stop offset="0.53" stop-color="#FCFB9B" />
      <stop offset="0.6" stop-color="#F9F1A1" />
      <stop offset="0.68" stop-color="#F5DFAB" />
      <stop offset="0.69" stop-color="#F4DBAE" />
    </linearGradient>
    <linearGradient id="paint25_linear_286_4390" x1="31.0056" y1="52.0802" x2="31.0056" y2="-30.2107"
      gradientUnits="userSpaceOnUse">
      <stop offset="0.23" stop-color="#10B981" />
      <stop offset="0.26" stop-color="#15BA81" />
      <stop offset="0.28" stop-color="#23BE83" />
      <stop offset="0.31" stop-color="#3BC585" />
      <stop offset="0.34" stop-color="#5DCF89" />
      <stop offset="0.37" stop-color="#89DC8D" />
      <stop offset="0.4" stop-color="#BEEC93" />
      <stop offset="0.43" stop-color="#FDFF9A" />
      <stop offset="0.53" stop-color="#FCFB9B" />
      <stop offset="0.6" stop-color="#F9F1A1" />
      <stop offset="0.68" stop-color="#F5DFAB" />
      <stop offset="0.69" stop-color="#F4DBAE" />
    </linearGradient>
    <linearGradient id="paint26_linear_286_4390" x1="138.008" y1="68.0191" x2="138.008" y2="-59.9945"
      gradientUnits="userSpaceOnUse">
      <stop offset="0.23" stop-color="#10B981" />
      <stop offset="0.26" stop-color="#15BA81" />
      <stop offset="0.28" stop-color="#23BE83" />
      <stop offset="0.31" stop-color="#3BC585" />
      <stop offset="0.34" stop-color="#5DCF89" />
      <stop offset="0.37" stop-color="#89DC8D" />
      <stop offset="0.4" stop-color="#BEEC93" />
      <stop offset="0.43" stop-color="#FDFF9A" />
      <stop offset="0.53" stop-color="#FCFB9B" />
      <stop offset="0.6" stop-color="#F9F1A1" />
      <stop offset="0.68" stop-color="#F5DFAB" />
      <stop offset="0.69" stop-color="#F4DBAE" />
    </linearGradient>
    <linearGradient id="paint27_linear_286_4390" x1="161.008" y1="74.0135" x2="161.008" y2="-53.9945"
      gradientUnits="userSpaceOnUse">
      <stop offset="0.23" stop-color="#10B981" />
      <stop offset="0.26" stop-color="#15BA81" />
      <stop offset="0.28" stop-color="#23BE83" />
      <stop offset="0.31" stop-color="#3BC585" />
      <stop offset="0.34" stop-color="#5DCF89" />
      <stop offset="0.37" stop-color="#89DC8D" />
      <stop offset="0.4" stop-color="#BEEC93" />
      <stop offset="0.43" stop-color="#FDFF9A" />
      <stop offset="0.53" stop-color="#FCFB9B" />
      <stop offset="0.6" stop-color="#F9F1A1" />
      <stop offset="0.68" stop-color="#F5DFAB" />
      <stop offset="0.69" stop-color="#F4DBAE" />
    </linearGradient>
    <linearGradient id="paint28_linear_286_4390" x1="186.008" y1="73.0135" x2="186.008" y2="-54.9945"
      gradientUnits="userSpaceOnUse">
      <stop offset="0.23" stop-color="#10B981" />
      <stop offset="0.26" stop-color="#15BA81" />
      <stop offset="0.28" stop-color="#23BE83" />
      <stop offset="0.31" stop-color="#3BC585" />
      <stop offset="0.34" stop-color="#5DCF89" />
      <stop offset="0.37" stop-color="#89DC8D" />
      <stop offset="0.4" stop-color="#BEEC93" />
      <stop offset="0.43" stop-color="#FDFF9A" />
      <stop offset="0.53" stop-color="#FCFB9B" />
      <stop offset="0.6" stop-color="#F9F1A1" />
      <stop offset="0.68" stop-color="#F5DFAB" />
      <stop offset="0.69" stop-color="#F4DBAE" />
    </linearGradient>
    <linearGradient id="paint29_linear_286_4390" x1="31.5059" y1="60.6046" x2="31.5059" y2="-27.7819"
      gradientUnits="userSpaceOnUse">
      <stop offset="0.23" stop-color="#10B981" />
      <stop offset="0.26" stop-color="#15BA81" />
      <stop offset="0.28" stop-color="#23BE83" />
      <stop offset="0.31" stop-color="#3BC585" />
      <stop offset="0.34" stop-color="#5DCF89" />
      <stop offset="0.37" stop-color="#89DC8D" />
      <stop offset="0.4" stop-color="#BEEC93" />
      <stop offset="0.43" stop-color="#FDFF9A" />
      <stop offset="0.53" stop-color="#FCFB9B" />
      <stop offset="0.6" stop-color="#F9F1A1" />
      <stop offset="0.68" stop-color="#F5DFAB" />
      <stop offset="0.69" stop-color="#F4DBAE" />
    </linearGradient>
    <linearGradient id="paint30_linear_286_4390" x1="90.5087" y1="73.0135" x2="90.5087" y2="-54.9945"
      gradientUnits="userSpaceOnUse">
      <stop offset="0.23" stop-color="#10B981" />
      <stop offset="0.26" stop-color="#15BA81" />
      <stop offset="0.28" stop-color="#23BE83" />
      <stop offset="0.31" stop-color="#3BC585" />
      <stop offset="0.34" stop-color="#5DCF89" />
      <stop offset="0.37" stop-color="#89DC8D" />
      <stop offset="0.4" stop-color="#BEEC93" />
      <stop offset="0.43" stop-color="#FDFF9A" />
      <stop offset="0.53" stop-color="#FCFB9B" />
      <stop offset="0.6" stop-color="#F9F1A1" />
      <stop offset="0.68" stop-color="#F5DFAB" />
      <stop offset="0.69" stop-color="#F4DBAE" />
    </linearGradient>
    <linearGradient id="paint31_linear_286_4390" x1="117.509" y1="77.0135" x2="117.509" y2="-50.9945"
      gradientUnits="userSpaceOnUse">
      <stop offset="0.23" stop-color="#10B981" />
      <stop offset="0.26" stop-color="#15BA81" />
      <stop offset="0.28" stop-color="#23BE83" />
      <stop offset="0.31" stop-color="#3BC585" />
      <stop offset="0.34" stop-color="#5DCF89" />
      <stop offset="0.37" stop-color="#89DC8D" />
      <stop offset="0.4" stop-color="#BEEC93" />
      <stop offset="0.43" stop-color="#FDFF9A" />
      <stop offset="0.53" stop-color="#FCFB9B" />
      <stop offset="0.6" stop-color="#F9F1A1" />
      <stop offset="0.68" stop-color="#F5DFAB" />
      <stop offset="0.69" stop-color="#F4DBAE" />
    </linearGradient>
    <linearGradient id="paint32_linear_286_4390" x1="103.509" y1="84.2757" x2="103.509" y2="-46.7801"
      gradientUnits="userSpaceOnUse">
      <stop offset="0.23" stop-color="#10B981" />
      <stop offset="0.26" stop-color="#15BA81" />
      <stop offset="0.28" stop-color="#23BE83" />
      <stop offset="0.31" stop-color="#3BC585" />
      <stop offset="0.34" stop-color="#5DCF89" />
      <stop offset="0.37" stop-color="#89DC8D" />
      <stop offset="0.4" stop-color="#BEEC93" />
      <stop offset="0.43" stop-color="#FDFF9A" />
      <stop offset="0.53" stop-color="#FCFB9B" />
      <stop offset="0.6" stop-color="#F9F1A1" />
      <stop offset="0.68" stop-color="#F5DFAB" />
      <stop offset="0.69" stop-color="#F4DBAE" />
    </linearGradient>
    <linearGradient id="paint33_linear_286_4390" x1="147.008" y1="73.0191" x2="147.008" y2="-54.9945"
      gradientUnits="userSpaceOnUse">
      <stop offset="0.23" stop-color="#10B981" />
      <stop offset="0.26" stop-color="#15BA81" />
      <stop offset="0.28" stop-color="#23BE83" />
      <stop offset="0.31" stop-color="#3BC585" />
      <stop offset="0.34" stop-color="#5DCF89" />
      <stop offset="0.37" stop-color="#89DC8D" />
      <stop offset="0.4" stop-color="#BEEC93" />
      <stop offset="0.43" stop-color="#FDFF9A" />
      <stop offset="0.53" stop-color="#FCFB9B" />
      <stop offset="0.6" stop-color="#F9F1A1" />
      <stop offset="0.68" stop-color="#F5DFAB" />
      <stop offset="0.69" stop-color="#F4DBAE" />
    </linearGradient>
    <linearGradient id="paint34_linear_286_4390" x1="130.509" y1="85.2815" x2="130.509" y2="-45.7801"
      gradientUnits="userSpaceOnUse">
      <stop offset="0.23" stop-color="#10B981" />
      <stop offset="0.26" stop-color="#15BA81" />
      <stop offset="0.28" stop-color="#23BE83" />
      <stop offset="0.31" stop-color="#3BC585" />
      <stop offset="0.34" stop-color="#5DCF89" />
      <stop offset="0.37" stop-color="#89DC8D" />
      <stop offset="0.4" stop-color="#BEEC93" />
      <stop offset="0.43" stop-color="#FDFF9A" />
      <stop offset="0.53" stop-color="#FCFB9B" />
      <stop offset="0.6" stop-color="#F9F1A1" />
      <stop offset="0.68" stop-color="#F5DFAB" />
      <stop offset="0.69" stop-color="#F4DBAE" />
    </linearGradient>
  </defs>
</svg>