<svg width="447" height="100" viewBox="0 0 447 100" fill="none" xmlns="http://www.w3.org/2000/svg">
<path fill-rule="evenodd" clip-rule="evenodd" d="M98.7798 49.3759C98.7798 76.6456 76.6671 98.7522 49.3897 98.7522C22.1126 98.7522 0 76.6456 0 49.3759C0 22.1064 22.1126 0 49.3897 0C76.6671 0 98.7798 22.1064 98.7798 49.3759ZM72.1189 62.3525C72.1727 61.3294 71.5803 60.3603 70.7185 59.8756L63.2858 55.5681C62.424 55.0834 61.2928 55.0297 60.485 55.6219L56.7687 57.7756L53.4831 59.6603L42.2803 53.1987V45.6066L53.4831 39.1453L60.431 35.1069L56.4992 40.8681L56.7146 40.9759L60.431 43.1297C61.3468 43.6681 62.424 43.6681 63.2858 43.1297L70.7185 38.8222C71.5803 38.2838 72.1189 37.3684 72.1189 36.3453V27.7839C72.1727 26.7608 71.5803 25.7916 70.7185 25.307L63.2858 20.9994C62.3699 20.4609 61.2928 20.4609 60.431 20.9994L52.9983 25.307C52.1368 25.8455 51.5982 26.7608 51.5982 27.7839V35.8069L40.395 42.2681L37.1098 40.3838L33.3934 38.23C32.4775 37.6912 31.4003 37.6912 30.5387 38.23L23.106 42.5375C22.2442 43.0759 21.7056 43.9912 21.7056 45.0144V53.6297C21.7056 54.6525 22.2442 55.5681 23.106 56.0525L30.5387 60.3603C31.4544 60.8988 32.5316 60.8988 33.3934 60.3603L37.6483 57.8834L34.2549 52.8219L51.5982 62.8372V70.9138C51.5441 71.9369 52.1368 72.9062 52.9983 73.3906L60.431 77.6984C61.3468 78.2369 62.424 78.2369 63.2858 77.6984L70.7185 73.3906C71.5803 72.8522 72.1189 71.9369 72.1189 70.9138V62.3525Z" fill="white"/>
<path d="M170.576 57.8834C170.576 69.4062 162.119 78.7753 151.509 78.7753C145.046 78.7753 140.144 75.8138 137.236 70.7525V77.9678H128.187V20.6764H137.29V45.1759C140.144 40.1147 145.046 37.1531 151.563 37.1531C162.173 37.0991 170.576 46.3606 170.576 57.8834ZM161.635 57.8834C161.635 51.1528 156.302 45.7681 149.516 45.7681C142.46 45.7681 137.236 50.9912 137.236 57.8834C137.236 64.8294 142.46 70.1063 149.516 70.1063C156.356 70.1063 161.635 64.6678 161.635 57.8834Z" fill="white"/>
<path d="M216.949 57.9913C216.949 69.8372 207.847 78.7756 196.159 78.7756C184.471 78.7756 175.423 69.8372 175.423 57.9913C175.423 46.1453 184.418 37.0994 196.159 37.0994C207.9 37.0994 216.949 46.0916 216.949 57.9913ZM184.418 57.9913C184.418 64.7759 189.48 69.9988 196.105 69.9988C202.73 69.9988 207.9 64.7759 207.9 57.9913C207.9 51.0991 202.73 45.8763 196.105 45.8763C189.48 45.8763 184.418 51.0991 184.418 57.9913Z" fill="white"/>
<path d="M236.339 46.5763V62.6759C236.339 67.7375 239.463 69.7834 243.879 69.7834C244.849 69.7834 245.926 69.6756 246.842 69.4603V77.9141C245.441 78.2372 243.395 78.3988 241.94 78.3988C233.107 78.3988 227.183 73.0141 227.183 62.8375V46.5763H219.588V37.9072H227.183V27.1919H236.339V37.9072H246.842V46.5763H236.339Z" fill="white"/>
<path d="M296.447 57.9913C296.447 69.5144 287.991 78.7756 277.38 78.7756C270.917 78.7756 266.016 75.8141 263.107 70.7528V91.9678H254.005V37.9072H263.107V45.1225C265.962 40.0609 270.863 37.0994 277.38 37.0994C287.991 37.0994 296.447 46.4147 296.447 57.9913ZM287.506 57.9913C287.506 51.2069 282.174 45.7684 275.387 45.7684C268.332 45.7684 263.107 50.9916 263.107 57.9913C263.107 64.8834 268.332 70.1066 275.387 70.1066C282.174 70.1066 287.506 64.6681 287.506 57.9913Z" fill="white"/>
<path d="M327.795 37.5841V45.93C326.501 45.6069 325.1 45.3378 323.809 45.3378C317.992 45.3378 313.25 49.3222 313.25 56.5375V77.9141H304.149V37.9072H313.25V43.2378C315.619 39.4147 319.283 37.0994 324.078 37.0994C325.263 37.0994 326.554 37.3688 327.795 37.5841Z" fill="white"/>
<path d="M369.159 60.9525H338.457C339.589 66.8216 343.68 70.5369 350.145 70.5369C355.046 70.5369 358.925 68.2215 359.732 64.8294H368.888C367.434 73.2831 359.785 78.8291 349.982 78.8291C338.295 78.8291 329.192 69.729 329.192 57.7756C329.192 46.145 338.295 37.1528 349.823 37.1528C360.648 37.1528 369.372 45.445 369.372 57.1294C369.372 58.1525 369.319 60.1987 369.159 60.9525ZM359.463 53.145C358.657 48.5681 354.777 45.3912 349.282 45.3912C343.896 45.3912 339.967 48.245 338.62 53.145H359.463Z" fill="white"/>
<path d="M374.33 65.0991H383.107C383.432 68.5988 386.877 70.9144 391.403 70.9144C395.82 70.9144 398.458 69.0297 398.458 66.2297C398.458 57.6144 375.299 64.6144 375.299 49.3763C375.299 42.43 381.116 37.0994 390.434 37.0994C398.727 37.0994 405.892 41.5147 406.807 49.6453H397.649C397.22 46.9531 394.473 44.7456 390.272 44.7456C386.661 44.7456 384.132 46.3069 384.132 48.8378C384.132 56.9144 407.398 49.4838 407.398 66.1759C407.398 73.3913 400.775 78.7756 391.941 78.7756C381.976 78.7756 375.136 73.7141 374.33 65.0991Z" fill="white"/>
<path d="M411.709 65.0991H420.486C420.811 68.5988 424.256 70.9144 428.782 70.9144C433.199 70.9144 435.837 69.0297 435.837 66.2297C435.837 57.6144 412.678 64.6144 412.678 49.3763C412.678 42.43 418.495 37.0994 427.81 37.0994C436.106 37.0994 443.271 41.5147 444.187 49.6453H435.028C434.6 46.9531 431.852 44.7456 427.651 44.7456C424.04 44.7456 421.512 46.3069 421.512 48.8378C421.512 56.9144 444.778 49.4838 444.778 66.1759C444.778 73.3913 438.154 78.7756 429.32 78.7756C419.411 78.7756 412.569 73.7141 411.709 65.0991Z" fill="white"/>
</svg>
