<svg width="185" height="207" viewBox="0 0 185 207" fill="none" xmlns="http://www.w3.org/2000/svg">
  <g opacity="100">
    <path fill-rule="evenodd" clip-rule="evenodd"
      d="M152.575 125.887L179.849 141.392C183.01 143.136 185.185 146.625 184.988 150.307V181.124C184.988 184.807 183.01 188.102 179.849 190.04L152.575 205.546C149.413 207.485 145.46 207.485 142.1 205.546L114.826 190.04C111.665 188.297 109.49 184.807 109.688 181.124V152.052L46.0486 116.001L58.5006 134.221L42.8874 143.136C39.7251 145.075 35.7725 145.075 32.4122 143.136L5.13851 127.63C1.9763 125.887 0 122.591 0 118.909V87.8975C0 84.2147 1.9763 80.9199 5.13851 78.9818L32.4122 63.4766C35.5741 61.5373 39.5267 61.5373 42.8874 63.4766L56.5243 71.2292L68.5794 78.0122L109.688 54.7544V25.875C109.688 22.1924 111.665 18.8975 114.826 16.9592L142.1 1.45361C145.262 -0.484537 149.215 -0.484537 152.575 1.45361L179.849 16.9592C183.01 18.7037 185.185 22.1924 184.988 25.875V56.6925C184.988 60.3753 183.01 63.6701 179.849 65.6082L152.575 81.1134C149.413 83.0516 145.46 83.0516 142.1 81.1134L128.463 73.3608L127.672 72.9727L142.1 52.2347L116.605 66.7713L75.4971 90.0291V117.358L116.605 140.617L128.661 133.833L142.298 126.08C145.262 123.948 149.413 124.142 152.575 125.887Z"
      fill="#F7F7F9" />
  </g>
</svg>