<svg width="74" height="74" viewBox="0 0 74 74" fill="none" xmlns="http://www.w3.org/2000/svg">
<g clip-path="url(#clip0_315_4358)">
<rect width="74" height="74" rx="8" fill="#282929"/>
<path d="M36.9999 74C57.4344 74 74 57.4344 74 36.9999C74 16.5654 57.4344 0 36.9999 0C16.5654 0 0 16.5654 0 36.9999C0 57.4344 16.5654 74 36.9999 74Z" fill="#282929"/>
<path fill-rule="evenodd" clip-rule="evenodd" d="M47.41 41.64L52.9781 44.8678C53.6235 45.231 54.0675 45.9572 54.0272 46.7239V53.1393C54.0272 53.9059 53.6235 54.5918 52.9781 54.9953L47.41 58.2234C46.7644 58.6268 45.9574 58.6268 45.2713 58.2234L39.7032 54.9953C39.0578 54.6323 38.6138 53.9059 38.6543 53.1393V47.0871L25.6617 39.5821L28.2039 43.375L25.0164 45.231C24.3708 45.6345 23.5638 45.6345 22.8778 45.231L17.3096 42.003C16.664 41.64 16.2606 40.9539 16.2606 40.1874V33.7315C16.2606 32.9649 16.664 32.279 17.3096 31.8755L22.8778 28.6477C23.5233 28.244 24.3302 28.244 25.0164 28.6477L27.8004 30.2616L30.2616 31.6736L38.6543 26.8319V20.8199C38.6543 20.0532 39.0578 19.3673 39.7032 18.9638L45.2713 15.7359C45.9169 15.3324 46.7239 15.3324 47.41 15.7359L52.9781 18.9638C53.6235 19.327 54.0675 20.0532 54.0272 20.8199V27.2354C54.0272 28.0021 53.6235 28.6879 52.9781 29.0914L47.41 32.3193C46.7644 32.7227 45.9574 32.7227 45.2713 32.3193L42.4872 30.7053L42.3259 30.6245L45.2713 26.3074L40.0664 29.3336L31.6739 34.1753V39.8645L40.0664 44.7065L42.5277 43.2942L45.3118 41.6803C45.9169 41.2365 46.7644 41.2768 47.41 41.64Z" fill="#F7F7F9"/>
</g>
<defs>
<clipPath id="clip0_315_4358">
<rect width="74" height="74" rx="8" fill="white"/>
</clipPath>
</defs>
</svg>
