<svg width="372" height="86" viewBox="0 0 372 86" fill="none" xmlns="http://www.w3.org/2000/svg">
  <path
    d="M47.7333 68.3339C42.7864 64.4015 37.7965 60.5251 32.7645 56.7052L40.6385 46.6962C41.1728 45.919 41.5401 45.0369 41.7167 44.1069C41.8933 43.1769 41.8753 42.2197 41.6637 41.2972C41.427 40.3329 40.9997 39.4272 40.4076 38.6349C39.8155 37.8426 39.0709 37.18 38.2189 36.6873C36.4937 35.7692 34.502 35.5032 32.6008 35.937C30.6996 36.3708 29.013 37.476 27.8432 39.0545L21.3636 47.6514C20.0512 39.013 18.6842 30.4023 17.2625 21.8192C16.7486 19.8272 15.4901 18.1156 13.7529 17.0461C12.0157 15.9766 9.93591 15.633 7.95313 16.0879C5.95214 16.2979 4.10639 17.2755 2.79468 18.8201C1.48298 20.3647 0.804798 22.3591 0.899331 24.3941C4.01613 42.7508 7.16026 61.0244 10.3317 79.215C10.8186 81.1426 12.0174 82.8075 13.6809 83.8662C15.3445 84.9248 17.3458 85.2966 19.272 84.9047C21.2319 84.6746 23.0248 83.6763 24.2666 82.1237C25.5084 80.5711 26.1004 78.5878 25.9157 76.5985L24.8084 68.8738C29.3606 72.4039 33.8717 75.9756 38.3009 79.5472C39.848 80.6729 41.7337 81.2181 43.6344 81.0892C45.5352 80.9604 47.3324 80.1656 48.7175 78.8412C49.3814 78.1949 49.9007 77.4118 50.2403 76.5449C50.5799 75.678 50.7319 74.7474 50.686 73.8159C50.6132 72.7406 50.3116 71.694 49.802 70.7477C49.2923 69.8015 48.5866 68.978 47.7333 68.3339Z"
    fill="white" fill-opacity="100" />
  <path
    d="M86.7751 28.2981C85.2317 28.4078 83.7504 28.9574 82.5022 29.8833C81.2541 30.8093 80.29 32.0739 79.7213 33.531C76.032 30.7967 71.4751 29.5395 66.9261 30.0009C63.8605 30.262 60.883 31.1706 58.1853 32.6682C55.4877 34.1658 53.1298 36.2191 51.2637 38.6959C49.3975 41.1726 48.0645 44.0179 47.3504 47.0482C46.6364 50.0786 46.5572 53.2268 47.118 56.29C47.3616 59.3412 48.2105 62.3114 49.6139 65.0226C51.0174 67.7339 52.9465 70.1306 55.2859 72.0693C57.6253 74.008 60.3268 75.4488 63.2288 76.3055C66.1309 77.1623 69.1738 77.4174 72.1754 77.0555C76.5625 76.5103 80.5875 74.3167 83.4533 70.9089C84.2683 72.1761 85.4094 73.194 86.7537 73.8527C88.0979 74.5113 89.5942 74.7859 91.0812 74.6467C93.0684 74.5602 94.9415 73.6827 96.2932 72.205C97.6449 70.7273 98.3658 68.7689 98.2991 66.7558C97.3695 56.0408 96.4536 45.3258 95.5514 34.6108C95.2002 32.6023 94.0829 30.8143 92.4407 29.6331C90.7986 28.4519 88.7635 27.9724 86.7751 28.2981ZM71.0271 44.0799C73.4526 43.81 75.8846 44.527 77.7881 46.073C79.6916 47.6191 80.9107 49.8675 81.1772 52.3238C81.4437 54.7801 80.7357 57.243 79.2091 59.1706C77.6824 61.0983 75.4621 62.3329 73.0366 62.6027C71.8564 62.747 70.6595 62.6423 69.5212 62.2952C68.3829 61.9481 67.3279 61.3661 66.4226 60.5859C65.5173 59.8056 64.7813 58.844 64.261 57.7616C63.7406 56.6792 63.4472 55.4994 63.3992 54.2965C63.1768 53.111 63.2022 51.8915 63.4737 50.7166C63.7452 49.5416 64.2567 48.4373 64.9754 47.4748C65.694 46.5122 66.6038 45.7129 67.6461 45.1281C68.6885 44.5434 69.8402 44.1863 71.0271 44.0799ZM126.473 24.9341C122.21 25.26 118.18 27.0302 115.031 29.9594C114.58 23.3144 114.129 16.6279 113.719 9.98299C113.357 7.95755 112.24 6.15071 110.598 4.93684C108.957 3.72298 106.917 3.19512 104.902 3.46263C102.849 3.46252 100.88 4.28246 99.4208 5.74438C97.9618 7.20629 97.1314 9.19209 97.1098 11.2705C98.6682 29.7102 100.186 48.2053 101.662 66.7558C101.937 68.7427 102.973 70.5402 104.546 71.7602C106.119 72.9801 108.103 73.5246 110.069 73.2762C111.556 73.1586 112.984 72.6324 114.198 71.7542C115.412 70.876 116.367 69.6792 116.959 68.2924C120.38 71.2279 124.786 72.7153 129.262 72.4455C132.28 72.3006 135.237 71.5398 137.957 70.209C140.677 68.8782 143.104 67.0047 145.092 64.7009C147.079 62.3971 148.587 59.7105 149.524 56.8022C150.462 53.8939 150.809 50.8238 150.546 47.7762C150.629 44.6209 150.051 41.4838 148.849 38.5714C147.648 35.659 145.851 33.0374 143.576 30.8793C141.302 28.7213 138.602 27.0756 135.654 26.0509C132.706 25.0262 129.577 24.6456 126.473 24.9341ZM133.937 48.2745C134.086 49.4708 133.987 50.6854 133.647 51.8408C133.306 52.9962 132.732 54.0672 131.961 54.9854C131.189 55.9036 130.237 56.6489 129.165 57.1739C128.093 57.6988 126.925 57.9918 125.735 58.0343C123.345 58.0849 121.027 57.2109 119.251 55.5904C117.476 53.97 116.377 51.7249 116.18 49.3128C116.054 46.8767 116.87 44.4867 118.455 42.6494C120.039 40.8121 122.268 39.6717 124.669 39.47C125.862 39.3712 127.062 39.5266 128.193 39.9263C129.323 40.3259 130.358 40.961 131.231 41.7905C132.105 42.6199 132.796 43.6255 133.262 44.7422C133.729 45.859 133.958 47.0623 133.937 48.2745ZM160.143 0.970777C158.097 0.889428 156.1 1.61408 154.57 2.99254C153.041 4.37101 152.098 6.29602 151.941 8.36329C152.515 26.8584 153.103 45.3535 153.704 63.8486C153.922 65.8505 154.899 67.6884 156.429 68.9747C157.959 70.2609 159.923 70.8949 161.906 70.7428C163.88 70.7881 165.793 70.0481 167.234 68.6816C168.676 67.3151 169.531 65.431 169.616 63.4333L168.345 7.94798C168.127 5.93946 167.153 4.09328 165.626 2.79367C164.098 1.49405 162.134 0.841128 160.143 0.970777ZM195.945 23.3975C181.55 23.3975 171.339 33.3649 171.339 46.9871C171.637 53.2672 174.296 59.1941 178.77 63.5529C183.244 67.9118 189.196 70.3726 195.404 70.4311C201.612 70.4895 207.608 68.141 212.161 63.8671C216.715 59.5932 219.482 53.7174 219.895 47.4439C220.551 33.8218 210.422 23.5221 195.945 23.3975ZM195.658 55.3763C193.483 55.3763 191.396 54.5012 189.858 52.9435C188.32 51.3858 187.456 49.2731 187.456 47.0701C187.456 44.8672 188.32 42.7545 189.858 41.1968C191.396 39.6391 193.483 38.7639 195.658 38.7639C197.833 38.7639 199.919 39.6391 201.458 41.1968C202.996 42.7545 203.86 44.8672 203.86 47.0701C203.86 49.2731 202.996 51.3858 201.458 52.9435C199.919 54.5012 197.833 55.3763 195.658 55.3763ZM248.397 25.2248C245.238 24.8357 242.034 25.1203 238.99 26.0606C235.947 27.0009 233.131 28.5759 230.725 30.6843C228.318 32.7928 226.374 35.388 225.017 38.303C223.661 41.2181 222.922 44.3884 222.848 47.61C222.833 53.9325 225.219 60.0188 229.513 64.6085C233.807 69.1981 239.68 71.9396 245.915 72.2652C252.15 72.5908 258.27 70.4755 263.007 66.3574C267.744 62.2394 270.736 56.434 271.363 50.1434C272.512 36.6874 262.874 25.8893 248.397 25.2248ZM246.593 57.1622C245.508 57.0989 244.446 56.8179 243.469 56.3355C242.492 55.853 241.619 55.1787 240.902 54.3517C240.185 53.5248 239.637 52.5616 239.29 51.5184C238.943 50.4751 238.805 49.3724 238.883 48.2745C239.008 46.0716 239.992 44.0092 241.619 42.5411C243.245 41.0729 245.381 40.3193 247.557 40.4459C249.732 40.5726 251.769 41.5692 253.218 43.2165C254.668 44.8638 255.412 47.0268 255.287 49.2297C255.15 51.4267 254.157 53.4787 252.527 54.935C250.897 56.3912 248.763 57.1325 246.593 56.996V57.1622ZM329.598 32.5758C327.091 32.2724 324.549 32.5773 322.181 33.4656C319.814 34.3538 317.689 35.7998 315.983 37.6841C314.605 35.1994 312.607 33.1245 310.189 31.6669C307.77 30.2093 305.017 29.42 302.203 29.3779C300.216 29.1437 298.202 29.329 296.29 29.9223C294.377 30.5156 292.606 31.504 291.089 32.825C290.473 31.43 289.488 30.2344 288.243 29.3697C286.999 28.5051 285.543 28.0049 284.035 27.9244C282.04 27.646 280.016 28.1609 278.387 29.3611C276.759 30.5612 275.652 32.3534 275.3 34.3617L272.717 66.5481C272.703 68.5341 273.446 70.4489 274.79 71.8951C276.134 73.3413 277.976 74.2077 279.934 74.3144C281.895 74.5888 283.883 74.0721 285.471 72.8757C287.059 71.6794 288.12 69.8992 288.424 67.9187C288.957 62.1874 289.531 56.4146 290.064 50.6418C290.597 44.869 294.165 43.8307 296.79 44.1214C297.607 44.2314 298.392 44.5146 299.094 44.9525C299.795 45.3904 300.398 45.9733 300.863 46.663C301.327 47.3527 301.642 48.1338 301.789 48.9553C301.935 49.7769 301.908 50.6204 301.711 51.4309L299.783 69.1646C299.735 71.1537 300.437 73.0866 301.748 74.5686C303.059 76.0506 304.88 76.9698 306.837 77.1385C308.804 77.4646 310.818 76.994 312.445 75.8283C314.072 74.6626 315.181 72.8955 315.531 70.9089C316.229 65.1776 316.926 59.4048 317.664 53.6736C318.074 50.4341 319.551 46.6548 324.349 47.3193C325.187 47.4557 325.987 47.7711 326.695 48.2445C327.404 48.7178 328.005 49.3384 328.459 50.065C328.913 50.7916 329.209 51.6076 329.327 52.4588C329.446 53.3101 329.384 54.1772 329.147 55.0025C328.368 60.8169 327.589 66.6312 326.768 72.4455C326.629 74.4579 327.265 76.4466 328.541 77.995C329.818 79.5434 331.637 80.5313 333.617 80.7517C335.557 81.1334 337.567 80.7295 339.215 79.6268C340.864 78.5241 342.02 76.8106 342.434 74.8543L345.264 56.0408C347.192 42.834 341.491 34.1955 329.598 32.5758ZM369.952 21.5701C368.421 19.4979 366.159 18.1039 363.638 17.6784C361.117 17.2529 358.531 17.8287 356.419 19.2859C355.651 19.7929 355.003 20.4652 354.521 21.2548C354.039 22.0445 353.735 22.932 353.63 23.8543L349.939 57.6605C349.822 59.4019 350.369 61.1226 351.468 62.4673C352.567 63.812 354.134 64.6781 355.845 64.8869C357.534 65.2661 359.302 64.9673 360.778 64.0534C362.254 63.1395 363.323 61.6816 363.76 59.9863C366.138 48.9113 368.544 37.8364 370.978 26.7615C371.188 25.8726 371.205 24.948 371.028 24.0517C370.851 23.1554 370.484 22.3087 369.952 21.5701ZM355.599 66.0082C354.395 65.7177 353.145 65.6809 351.927 65.9003C350.709 66.1197 349.548 66.5905 348.517 67.2836C347.486 67.9766 346.607 68.877 345.934 69.9287C345.261 70.9805 344.809 72.1611 344.606 73.3973C344.403 74.6334 344.454 75.8987 344.754 77.1143C345.055 78.3299 345.599 79.47 346.353 80.4636C347.107 81.4572 348.055 82.2831 349.137 82.8899C350.22 83.4968 351.414 83.8716 352.646 83.9911C353.84 84.2317 355.068 84.2297 356.261 83.9853C357.454 83.7408 358.587 83.2587 359.595 82.5671C360.602 81.8754 361.463 80.9879 362.129 79.9562C362.795 78.9245 363.252 77.7691 363.473 76.5571C363.663 75.3377 363.609 74.0919 363.313 72.8943C363.018 71.6966 362.486 70.5717 361.751 69.5868C361.016 68.602 360.092 67.7774 359.035 67.1625C357.978 66.5476 356.809 66.1551 355.599 66.0082Z"
    fill="white" fill-opacity="100" />
</svg>