<svg width="388" height="102" viewBox="0 0 388 102" fill="none" xmlns="http://www.w3.org/2000/svg">
<path d="M55.7333 76.3339C50.7864 72.4015 45.7965 68.5251 40.7645 64.7052L48.6385 54.6962C49.1728 53.919 49.5401 53.0369 49.7167 52.1069C49.8933 51.1769 49.8753 50.2197 49.6637 49.2972C49.427 48.3329 48.9997 47.4272 48.4076 46.6349C47.8155 45.8426 47.0709 45.18 46.2189 44.6873C44.4937 43.7692 42.502 43.5032 40.6008 43.937C38.6996 44.3708 37.013 45.476 35.8432 47.0545L29.3636 55.6514C28.0512 47.013 26.6842 38.4023 25.2625 29.8192C24.7486 27.8272 23.4901 26.1156 21.7529 25.0461C20.0157 23.9766 17.9359 23.633 15.9531 24.0879C13.9521 24.2979 12.1064 25.2755 10.7947 26.8201C9.48298 28.3647 8.8048 30.3591 8.89933 32.3941C12.0161 50.7508 15.1603 69.0244 18.3317 87.215C18.8186 89.1426 20.0174 90.8075 21.6809 91.8662C23.3445 92.9249 25.3458 93.2966 27.272 92.9047C29.2319 92.6746 31.0248 91.6763 32.2666 90.1237C33.5084 88.5711 34.1004 86.5878 33.9157 84.5985L32.8084 76.8738C37.3606 80.4039 41.8717 83.9756 46.3009 87.5472C47.848 88.6729 49.7337 89.2181 51.6344 89.0892C53.5352 88.9604 55.3324 88.1656 56.7175 86.8412C57.3814 86.1949 57.9007 85.4118 58.2403 84.5449C58.5799 83.678 58.7319 82.7474 58.686 81.8159C58.6132 80.7406 58.3116 79.694 57.802 78.7477C57.2923 77.8015 56.5866 76.978 55.7333 76.3339V76.3339Z" fill="white"/>
<path d="M94.7751 36.2981C93.2317 36.4078 91.7504 36.9574 90.5022 37.8833C89.2541 38.8093 88.29 40.0739 87.7213 41.531C84.032 38.7967 79.4751 37.5395 74.9261 38.0009C71.8605 38.262 68.883 39.1706 66.1853 40.6682C63.4877 42.1658 61.1298 44.2191 59.2637 46.6959C57.3975 49.1726 56.0645 52.0179 55.3504 55.0482C54.6364 58.0785 54.5572 61.2268 55.118 64.29C55.3616 67.3412 56.2105 70.3114 57.6139 73.0226C59.0174 75.7339 60.9465 78.1306 63.2859 80.0693C65.6253 82.008 68.3268 83.4488 71.2288 84.3055C74.1309 85.1623 77.1738 85.4174 80.1754 85.0555C84.5625 84.5103 88.5875 82.3167 91.4533 78.9089C92.2683 80.1761 93.4094 81.194 94.7537 81.8526C96.0979 82.5113 97.5942 82.7859 99.0812 82.6467C101.068 82.5602 102.942 81.6827 104.293 80.205C105.645 78.7273 106.366 76.7689 106.299 74.7558C105.369 64.0408 104.454 53.3258 103.551 42.6108C103.2 40.6023 102.083 38.8143 100.441 37.6331C98.7986 36.4519 96.7635 35.9724 94.7751 36.2981ZM79.0271 52.0799C81.4526 51.81 83.8846 52.527 85.7881 54.073C87.6916 55.619 88.9107 57.8675 89.1772 60.3238C89.4437 62.7801 88.7357 65.2429 87.2091 67.1706C85.6824 69.0983 83.4621 70.3328 81.0366 70.6027C79.8564 70.747 78.6595 70.6423 77.5212 70.2952C76.3829 69.9481 75.3279 69.3661 74.4226 68.5859C73.5173 67.8056 72.7813 66.844 72.261 65.7616C71.7406 64.6792 71.4472 63.4994 71.3992 62.2965C71.1768 61.111 71.2022 59.8915 71.4737 58.7166C71.7452 57.5416 72.2567 56.4373 72.9754 55.4748C73.694 54.5122 74.6038 53.7129 75.6461 53.1281C76.6885 52.5434 77.8402 52.1863 79.0271 52.0799ZM134.473 32.9341C130.21 33.26 126.18 35.0302 123.031 37.9594C122.58 31.3144 122.129 24.6279 121.719 17.983C121.357 15.9575 120.24 14.1507 118.598 12.9368C116.957 11.723 114.917 11.1951 112.902 11.4626C110.849 11.4625 108.88 12.2825 107.421 13.7444C105.962 15.2063 105.131 17.1921 105.11 19.2705C106.668 37.7102 108.186 56.2053 109.662 74.7558C109.937 76.7427 110.973 78.5402 112.546 79.7602C114.119 80.9801 116.103 81.5246 118.069 81.2762C119.556 81.1586 120.984 80.6324 122.198 79.7542C123.412 78.876 124.367 77.6792 124.959 76.2924C128.38 79.2279 132.786 80.7153 137.262 80.4455C140.28 80.3006 143.237 79.5398 145.957 78.209C148.677 76.8782 151.104 75.0047 153.092 72.7009C155.079 70.3971 156.587 67.7105 157.524 64.8022C158.462 61.8939 158.809 58.8238 158.546 55.7762C158.629 52.6209 158.051 49.4838 156.849 46.5714C155.648 43.659 153.851 41.0374 151.576 38.8793C149.302 36.7213 146.602 35.0756 143.654 34.0509C140.706 33.0262 137.577 32.6456 134.473 32.9341ZM141.937 56.2745C142.086 57.4708 141.987 58.6854 141.647 59.8408C141.306 60.9962 140.732 62.0672 139.961 62.9854C139.189 63.9036 138.237 64.6489 137.165 65.1739C136.093 65.6988 134.925 65.9918 133.735 66.0343C131.345 66.0849 129.027 65.2109 127.251 63.5904C125.476 61.97 124.377 59.7249 124.18 57.3128C124.054 54.8767 124.87 52.4867 126.455 50.6494C128.039 48.8121 130.268 47.6717 132.669 47.47C133.862 47.3712 135.062 47.5266 136.193 47.9263C137.323 48.3259 138.358 48.961 139.231 49.7905C140.105 50.6199 140.796 51.6255 141.262 52.7422C141.728 53.859 141.958 55.0623 141.937 56.2745ZM168.143 8.97078C166.097 8.88943 164.1 9.61408 162.57 10.9925C161.041 12.371 160.098 14.296 159.941 16.3633C160.515 34.8584 161.103 53.3535 161.704 71.8486C161.922 73.8505 162.899 75.6884 164.429 76.9747C165.959 78.2609 167.923 78.8949 169.906 78.7428C171.88 78.7881 173.793 78.0481 175.234 76.6816C176.676 75.3151 177.531 73.431 177.616 71.4333L176.345 15.948C176.127 13.9395 175.153 12.0933 173.626 10.7937C172.098 9.49405 170.134 8.84113 168.143 8.97078ZM203.945 31.3975C189.55 31.3975 179.339 41.3649 179.339 54.9871C179.637 61.2672 182.296 67.1941 186.77 71.5529C191.244 75.9118 197.196 78.3726 203.404 78.4311C209.612 78.4895 215.608 76.141 220.161 71.8671C224.715 67.5932 227.482 61.7174 227.895 55.4439C228.551 41.8218 218.422 31.5221 203.945 31.3975ZM203.658 63.3763C201.483 63.3763 199.396 62.5012 197.858 60.9435C196.32 59.3858 195.456 57.2731 195.456 55.0701C195.456 52.8672 196.32 50.7545 197.858 49.1968C199.396 47.6391 201.483 46.7639 203.658 46.7639C205.833 46.7639 207.919 47.6391 209.458 49.1968C210.996 50.7545 211.86 52.8672 211.86 55.0701C211.86 57.2731 210.996 59.3858 209.458 60.9435C207.919 62.5012 205.833 63.3763 203.658 63.3763ZM256.397 33.2249C253.238 32.8357 250.034 33.1203 246.99 34.0606C243.947 35.0009 241.131 36.5759 238.725 38.6843C236.318 40.7928 234.374 43.388 233.017 46.303C231.661 49.2181 230.922 52.3884 230.848 55.61C230.833 61.9325 233.219 68.0188 237.513 72.6085C241.807 77.1981 247.68 79.9396 253.915 80.2652C260.15 80.5908 266.269 78.4755 271.007 74.3574C275.744 70.2394 278.736 64.434 279.363 58.1434C280.512 44.6874 270.874 33.8893 256.397 33.2249ZM254.593 65.1622C253.508 65.0989 252.446 64.8179 251.469 64.3355C250.492 63.853 249.619 63.1787 248.902 62.3517C248.185 61.5248 247.637 60.5616 247.29 59.5184C246.943 58.4751 246.805 57.3724 246.883 56.2745C247.008 54.0716 247.992 52.0092 249.619 50.5411C251.245 49.0729 253.381 48.3193 255.557 48.4459C257.732 48.5726 259.769 49.5692 261.218 51.2165C262.668 52.8638 263.412 55.0268 263.287 57.2297C263.15 59.4267 262.157 61.4787 260.527 62.935C258.897 64.3912 256.763 65.1325 254.593 64.996V65.1622ZM337.598 40.5758C335.091 40.2724 332.549 40.5773 330.181 41.4656C327.814 42.3538 325.689 43.7998 323.983 45.6841C322.605 43.1994 320.607 41.1245 318.189 39.6669C315.77 38.2093 313.017 37.42 310.203 37.3779C308.216 37.1437 306.202 37.329 304.29 37.9223C302.377 38.5156 300.606 39.504 299.089 40.825C298.473 39.43 297.488 38.2344 296.243 37.3697C294.999 36.5051 293.543 36.0049 292.035 35.9244C290.04 35.646 288.016 36.1609 286.387 37.3611C284.759 38.5612 283.652 40.3534 283.3 42.3617L280.717 74.5482C280.703 76.5341 281.446 78.4489 282.79 79.8951C284.134 81.3413 285.976 82.2077 287.934 82.3144C289.895 82.5888 291.883 82.0721 293.471 80.8757C295.059 79.6794 296.12 77.8992 296.424 75.9187C296.957 70.1874 297.531 64.4146 298.064 58.6418C298.597 52.869 302.165 51.8307 304.79 52.1214C305.607 52.2314 306.392 52.5146 307.094 52.9525C307.795 53.3904 308.398 53.9733 308.863 54.663C309.327 55.3527 309.642 56.1338 309.789 56.9553C309.935 57.7769 309.908 58.6204 309.711 59.4309L307.783 77.1646C307.735 79.1537 308.437 81.0866 309.748 82.5686C311.059 84.0506 312.88 84.9698 314.837 85.1385C316.804 85.4646 318.818 84.994 320.445 83.8283C322.072 82.6626 323.181 80.8955 323.531 78.9089C324.229 73.1776 324.926 67.4048 325.664 61.6736C326.074 58.4341 327.551 54.6548 332.349 55.3193C333.187 55.4557 333.987 55.7711 334.695 56.2445C335.404 56.7178 336.005 57.3384 336.459 58.065C336.913 58.7916 337.209 59.6076 337.327 60.4588C337.446 61.3101 337.384 62.1772 337.147 63.0025C336.368 68.8169 335.589 74.6312 334.768 80.4455C334.629 82.4579 335.265 84.4466 336.541 85.995C337.818 87.5434 339.637 88.5313 341.617 88.7517C343.557 89.1334 345.567 88.7295 347.215 87.6268C348.864 86.5241 350.02 84.8106 350.434 82.8543L353.264 64.0408C355.192 50.834 349.491 42.1955 337.598 40.5758ZM377.952 29.5701C376.421 27.4979 374.159 26.1039 371.638 25.6784C369.117 25.2529 366.531 25.8287 364.419 27.2859C363.651 27.7929 363.003 28.4652 362.521 29.2548C362.039 30.0445 361.735 30.932 361.63 31.8543L357.939 65.6605C357.822 67.4019 358.369 69.1226 359.468 70.4673C360.567 71.812 362.134 72.6781 363.845 72.8869C365.534 73.2661 367.302 72.9673 368.778 72.0534C370.254 71.1395 371.323 69.6816 371.76 67.9863C374.138 56.9113 376.544 45.8364 378.978 34.7615C379.188 33.8726 379.205 32.948 379.028 32.0517C378.851 31.1554 378.484 30.3087 377.952 29.5701ZM363.599 74.0082C362.395 73.7177 361.145 73.6809 359.927 73.9003C358.709 74.1197 357.548 74.5905 356.517 75.2836C355.486 75.9766 354.607 76.8769 353.934 77.9287C353.261 78.9805 352.809 80.1611 352.606 81.3973C352.403 82.6334 352.454 83.8987 352.754 85.1143C353.055 86.3299 353.599 87.47 354.353 88.4636C355.107 89.4572 356.055 90.2831 357.137 90.8899C358.22 91.4968 359.414 91.8716 360.646 91.9911C361.84 92.2317 363.068 92.2297 364.261 91.9853C365.454 91.7408 366.587 91.2587 367.595 90.5671C368.602 89.8754 369.463 88.9879 370.129 87.9562C370.795 86.9245 371.252 85.7691 371.473 84.5571C371.663 83.3377 371.609 82.0919 371.313 80.8943C371.018 79.6966 370.486 78.5717 369.751 77.5868C369.016 76.602 368.092 75.7774 367.035 75.1625C365.978 74.5476 364.809 74.1551 363.599 74.0082Z" fill="white"/>
</svg>
