<svg width="357" height="174" viewBox="0 0 357 174" fill="none" xmlns="http://www.w3.org/2000/svg">
<path d="M116.482 73.6905C123.553 71.6599 124.676 69.925 122.856 65.25C122.194 63.5476 121.077 61.9426 119.895 60.2454C117.636 57.002 115.144 53.4217 115.144 48.1804C115.144 40.1962 118.725 39.0949 123.407 37.9937C124.362 37.7692 125.523 37.5561 126.736 37.3335C131.472 36.4641 137.001 35.4491 134.15 33.038C132.632 31.7539 130.222 30.7173 127.656 29.6134C124.17 28.1137 120.395 26.4898 118.174 23.9525C114.317 19.5475 114.593 15.693 118.174 12.1139C119.299 10.9891 120.37 10.1362 121.25 9.43555C123.169 7.90688 124.179 7.10318 122.856 5.78165C121.314 4.23987 116.521 3.85443 114.317 3.85443L115.144 0C118.816 0.0917722 126.823 0.770886 129.468 2.75316C132.773 5.23101 133.875 8.53481 130.569 14.3165C127.794 19.1701 132.396 20.5312 137.856 22.1462C138.9 22.455 139.976 22.773 141.037 23.1266C147.648 25.3291 159.493 29.4589 162.799 36.6171C165.755 43.019 159.898 43.6954 155.869 44.1608C155.393 44.2157 154.942 44.2678 154.535 44.3259C150.678 44.8766 144.343 47.0791 144.618 49.557C145.878 60.8935 187.805 69.4182 197.639 70.7751C287.222 73.5441 357 95.5294 357 122.241C357 150.826 277.083 174 178.5 174C79.9172 174 0 150.826 0 122.241C0 99.9779 48.4715 80.9981 116.482 73.6905Z" fill="url(#paint0_linear_288_4391)" style="mix-blend-mode:screen"/>
<g filter="url(#filter0_b_288_4391)">
<ellipse cx="178.686" cy="120.793" rx="164.865" ry="47.8109" fill="url(#paint1_radial_288_4391)" fill-opacity="0.8" style="mix-blend-mode:screen"/>
</g>
<path d="M139.393 53.7478C143.239 61.1667 182.532 72.1577 197.37 73.2568C165.073 72.8164 146.63 73.5123 118.475 76.4088C116.038 77.0318 113.587 77.1797 111.915 77.1037C114.164 76.8592 116.347 76.6277 118.475 76.4088C121.912 75.5303 125.321 73.7069 126.478 70.2343C128.951 62.8153 110.384 47.9445 124.005 44.1306C151.483 36.4369 134.172 32.0405 124.555 27.3693C114.938 22.6981 117.136 17.4774 124.005 10.8828C129.501 5.6071 121.899 4.10499 118.51 4.0134V2.36475C121.349 2.36475 130.545 3.13412 131.424 8.40981C132.523 15.0044 117.685 18.8513 139.942 25.7207C162.199 32.59 164.672 41.1081 156.429 42.7567C148.185 44.4054 135.546 46.3288 139.393 53.7478Z" fill="url(#paint2_radial_288_4391)" fill-opacity="0.8" style="mix-blend-mode:screen"/>
<defs>
<filter id="filter0_b_288_4391" x="1.82031" y="60.9821" width="353.73" height="119.622" filterUnits="userSpaceOnUse" color-interpolation-filters="sRGB">
<feFlood flood-opacity="0" result="BackgroundImageFix"/>
<feGaussianBlur in="BackgroundImage" stdDeviation="6"/>
<feComposite in2="SourceAlpha" operator="in" result="effect1_backgroundBlur_288_4391"/>
<feBlend mode="normal" in="SourceGraphic" in2="effect1_backgroundBlur_288_4391" result="shape"/>
</filter>
<linearGradient id="paint0_linear_288_4391" x1="158.942" y1="-2.47785" x2="167.472" y2="182.535" gradientUnits="userSpaceOnUse">
<stop offset="0.0375064" stop-color="#FEF3D8" stop-opacity="0"/>
<stop offset="1" stop-color="#FBEFD0"/>
</linearGradient>
<radialGradient id="paint1_radial_288_4391" cx="0" cy="0" r="1" gradientUnits="userSpaceOnUse" gradientTransform="translate(178.686 120.793) rotate(90) scale(47.8109 164.865)">
<stop stop-color="#5498FF"/>
<stop offset="1" stop-color="#70FFFF"/>
</radialGradient>
<radialGradient id="paint2_radial_288_4391" cx="0" cy="0" r="1" gradientUnits="userSpaceOnUse" gradientTransform="translate(154.643 39.7433) rotate(90) scale(37.3786 42.7276)">
<stop stop-color="#5498FF"/>
<stop offset="1" stop-color="#70FFFF"/>
</radialGradient>
</defs>
</svg>
