<svg width="321" height="134" viewBox="0 0 321 134" fill="none" xmlns="http://www.w3.org/2000/svg">
  <path
    d="M207.012 97.9885C210.146 93.0151 213.765 86.9104 216.39 82.7738C219.193 79.2382 222.54 74.4063 224.882 70.5526L212.464 73.6756C216.733 65.8503 224.693 51.2602 228.477 44.3305C228.477 44.3305 219.229 46.7465 217.348 47.2415C224.858 34.207 231.871 22.0211 238.802 10.0002C245.365 21.373 253.668 35.7509 260.302 47.2532L249.15 44.3069C254.306 53.794 259.936 64.0825 265.163 73.6874C262.277 72.9567 255.737 71.3068 252.71 70.5526C257.357 77.6708 265.482 90.6699 270 97.9531L207 98.0002L207.012 97.9885Z"
    fill="url(#paint0_linear_284_4386)" />
  <path
    d="M227.018 133.982C231.694 126.409 237.094 117.113 241.011 110.815C245.193 105.431 250.187 98.0731 253.681 92.2049L235.152 96.9605C241.523 85.0446 253.398 62.8279 259.045 52.2759C259.045 52.2759 245.246 55.9547 242.44 56.7085C253.645 36.8606 264.109 18.3048 274.45 0.000244141C284.243 17.3178 296.631 39.2114 306.53 56.7264L289.89 52.24C297.584 66.6862 305.983 82.3527 313.783 96.9784C309.477 95.8658 299.719 93.3534 295.202 92.2049C302.136 103.044 314.259 122.838 321 133.928L227 134L227.018 133.982Z"
    fill="url(#paint1_linear_284_4386)" />
  <path
    d="M173.006 61.9946C174.498 59.621 176.221 56.7074 177.472 54.7331C178.806 53.0457 180.4 50.7395 181.515 48.9002L175.602 50.3908C177.635 46.6559 181.425 39.6925 183.227 36.3851C183.227 36.3851 178.823 37.5382 177.928 37.7745C181.504 31.5535 184.843 25.7375 188.144 20.0002C191.269 25.4281 195.223 32.2903 198.382 37.7801L193.071 36.3739C195.527 40.9018 198.207 45.8122 200.697 50.3964C199.323 50.0476 196.208 49.2602 194.766 48.9002C196.98 52.2976 200.849 58.5017 203 61.9778L173 62.0002L173.006 61.9946Z"
    fill="url(#paint2_linear_284_4386)" />
  <path
    d="M195.006 63.9946C196.548 61.621 198.329 58.7074 199.621 56.7331C201 55.0457 202.647 52.7395 203.799 50.9002L197.689 52.3908C199.789 48.6559 203.706 41.6925 205.568 38.3851C205.568 38.3851 201.017 39.5382 200.092 39.7744C203.787 33.5535 207.238 27.7375 210.648 22.0002C213.878 27.4281 217.963 34.2903 221.228 39.7801L215.74 38.3739C218.278 42.9018 221.048 47.8122 223.62 52.3964C222.2 52.0476 218.982 51.2602 217.492 50.9002C219.779 54.2975 223.777 60.5016 226 63.9777L195 64.0002L195.006 63.9946Z"
    fill="url(#paint3_linear_284_4386)" />
  <path
    d="M174.01 95.9898C176.746 91.5816 179.906 86.1706 182.198 82.5041C184.645 79.3703 187.567 75.0874 189.611 71.6716L178.77 74.4398C182.497 67.5037 189.446 54.5716 192.75 48.4293C192.75 48.4293 184.676 50.5708 183.034 51.0095C189.59 39.4563 195.713 28.6551 201.763 18.0002C207.494 28.0806 214.742 40.8247 220.534 51.0199L210.797 48.4084C215.299 56.8174 220.214 65.9368 224.777 74.4502C222.258 73.8026 216.548 72.3402 213.905 71.6716C217.963 77.981 225.056 89.5029 229 95.9585L174 96.0002L174.01 95.9898Z"
    fill="url(#paint4_linear_284_4386)" />
  <path
    d="M118.006 55.9946C119.498 53.621 121.221 50.7074 122.472 48.7331C123.806 47.0457 125.4 44.7395 126.515 42.9002L120.602 44.3908C122.635 40.6559 126.425 33.6925 128.227 30.3851C128.227 30.3851 123.823 31.5382 122.928 31.7744C126.504 25.5535 129.843 19.7375 133.144 14.0002C136.269 19.4281 140.223 26.2903 143.382 31.7801L138.071 30.3739C140.527 34.9018 143.207 39.8122 145.697 44.3964C144.322 44.0476 141.208 43.2602 139.766 42.9002C141.98 46.2975 145.849 52.5016 148 55.9777L118 56.0002L118.006 55.9946Z"
    fill="url(#paint5_linear_284_4386)" />
  <path
    d="M145.006 55.9946C146.498 53.621 148.221 50.7073 149.472 48.7331C150.806 47.0456 152.4 44.7395 153.515 42.9002L147.602 44.3908C149.635 40.6559 153.425 33.6925 155.227 30.3851C155.227 30.3851 150.823 31.5382 149.928 31.7745C153.504 25.5535 156.843 19.7375 160.144 14.0002C163.269 19.4281 167.223 26.2903 170.382 31.7801L165.071 30.3739C167.527 34.9018 170.207 39.8122 172.697 44.3964C171.322 44.0477 168.208 43.2602 166.766 42.9002C168.98 46.2976 172.849 52.5016 175 55.9777L145 56.0002L145.006 55.9946Z"
    fill="url(#paint6_linear_284_4386)" />
  <path
    d="M10.0034 34.9969C10.8988 33.584 11.9328 31.8497 12.6829 30.6745C13.4838 29.6701 14.44 28.2974 15.1091 27.2026L11.5611 28.0898C12.7809 25.8667 15.055 21.7218 16.1363 19.7532C16.1363 19.7532 13.4939 20.4395 12.9566 20.5801C15.1023 16.8772 17.1061 13.4153 19.0862 10.0002C20.9615 13.2311 23.3336 17.3158 25.2292 20.5835L22.0428 19.7465C23.516 22.4417 25.1245 25.3645 26.618 28.0932C25.7935 27.8856 23.9249 27.4169 23.0599 27.2026C24.3878 29.2248 26.7092 32.9177 28 34.9868L10 35.0002L10.0034 34.9969Z"
    fill="url(#paint7_linear_284_4386)" />
  <path
    d="M0.00432184 61.996C1.14849 60.1875 2.46968 57.9676 3.4282 56.4633C4.45147 55.1777 5.67337 53.4206 6.52826 52.0193L1.99475 53.1549C3.55342 50.3093 6.45917 45.0039 7.84081 42.484C7.84081 42.484 4.46442 43.3625 3.77792 43.5425C6.51961 38.8027 9.07997 34.3715 11.6101 30.0002C14.0064 34.1358 17.0374 39.3641 19.4595 43.5468L15.388 42.4754C17.2705 45.9253 19.3257 49.6665 21.2341 53.1592C20.1806 52.8935 17.7929 52.2935 16.6876 52.0193C18.3845 54.6077 21.3507 59.3346 23 61.9831L0 62.0002L0.00432184 61.996Z"
    fill="url(#paint8_linear_284_4386)" />
  <path
    d="M37.0058 60.9945C38.548 58.5643 40.3287 55.5813 41.6206 53.5601C42.9998 51.8324 44.6467 49.4714 45.7989 47.5883L39.6886 49.1144C41.7894 45.2906 45.7058 38.1613 47.5681 34.7752C47.5681 34.7752 43.0173 35.9558 42.092 36.1976C45.7873 29.8285 49.2382 23.8741 52.6484 18.0002C55.8782 23.5574 59.9634 30.5829 63.2281 36.2034L57.7404 34.7637C60.2777 39.3995 63.0477 44.4268 65.6199 49.1201C64.1999 48.7631 60.9818 47.9568 59.492 47.5883C61.7791 51.0665 65.777 57.4183 68 60.9772L37 61.0002L37.0058 60.9945Z"
    fill="url(#paint9_linear_284_4386)" />
  <path
    d="M61.0058 62.9946C62.548 60.621 64.3287 57.7073 65.6206 55.7331C66.9998 54.0456 68.6467 51.7395 69.7989 49.9002L63.6886 51.3908C65.7894 47.6559 69.7058 40.6925 71.568 37.3851C71.568 37.3851 67.0173 38.5382 66.092 38.7745C69.7873 32.5535 73.2382 26.7375 76.6484 21.0002C79.8782 26.4281 83.9634 33.2903 87.2281 38.7801L81.7404 37.3739C84.2776 41.9018 87.0477 46.8122 89.6198 51.3964C88.1999 51.0477 84.9818 50.2602 83.492 49.9002C85.7791 53.2976 89.777 59.5016 92 62.9777L61 63.0002L61.0058 62.9946Z"
    fill="url(#paint10_linear_284_4386)" />
  <path
    d="M88.0058 65.9945C89.548 63.5643 91.3287 60.5813 92.6206 58.56C93.9998 56.8324 95.6467 54.4714 96.799 52.5883L90.6886 54.1143C92.7894 50.2906 96.7058 43.1614 98.568 39.7753C98.568 39.7753 94.0173 40.9558 93.092 41.1976C96.7873 34.8286 100.238 28.8741 103.648 23.0002C106.878 28.5574 110.963 35.5829 114.228 41.2034L108.74 39.7637C111.278 44.3995 114.048 49.4268 116.62 54.1201C115.2 53.7631 111.982 52.9569 110.492 52.5883C112.779 56.0665 116.777 62.4183 119 65.9772L88 66.0002L88.0058 65.9945Z"
    fill="url(#paint11_linear_284_4386)" />
  <path
    d="M18.0047 48.9957C19.2484 47.0742 20.6844 44.7155 21.7263 43.1173C22.8386 41.7513 24.1667 39.8844 25.0959 38.3954L20.1682 39.6021C21.8624 36.5787 25.0208 30.9416 26.5226 28.2642C26.5226 28.2642 22.8526 29.1976 22.1064 29.3889C25.0865 24.3529 27.8695 19.6447 30.6197 15.0002C33.2243 19.3942 36.5189 24.9493 39.1517 29.3934L34.7261 28.2551C36.7723 31.9206 39.0062 35.8956 41.0805 39.6066C39.9354 39.3243 37.3402 38.6869 36.1387 38.3954C37.9831 41.1457 41.2072 46.168 43 48.982L18 49.0002L18.0047 48.9957Z"
    fill="url(#paint12_linear_284_4386)" />
  <path
    d="M48.0058 62.9946C49.548 60.621 51.3287 57.7074 52.6206 55.7331C53.9998 54.0457 55.6467 51.7395 56.7989 49.9002L50.6886 51.3908C52.7894 47.6559 56.7058 40.6925 58.5681 37.3851C58.5681 37.3851 54.0173 38.5382 53.092 38.7744C56.7873 32.5535 60.2382 26.7375 63.6484 21.0002C66.8782 26.4281 70.9634 33.2903 74.2281 38.7801L68.7404 37.3739C71.2776 41.9018 74.0477 46.8122 76.6199 51.3964C75.1999 51.0476 71.9818 50.2602 70.492 49.9002C72.7791 53.2975 76.777 59.5016 79 62.9777L48 63.0002L48.0058 62.9946Z"
    fill="url(#paint13_linear_284_4386)" />
  <path
    d="M76.0058 55.9946C77.548 53.621 79.3287 50.7074 80.6206 48.7331C81.9998 47.0457 83.6467 44.7395 84.799 42.9002L78.6886 44.3908C80.7894 40.6559 84.7058 33.6925 86.5681 30.3851C86.5681 30.3851 82.0173 31.5382 81.092 31.7745C84.7873 25.5535 88.2382 19.7375 91.6484 14.0002C94.8782 19.4281 98.9634 26.2903 102.228 31.7801L96.7404 30.3739C99.2776 34.9018 102.048 39.8122 104.62 44.3964C103.2 44.0476 99.9818 43.2602 98.492 42.9002C100.779 46.2976 104.777 52.5017 107 55.9778L76 56.0002L76.0058 55.9946Z"
    fill="url(#paint14_linear_284_4386)" />
  <path
    d="M102.006 66.9945C103.548 64.5643 105.329 61.5813 106.621 59.5601C108 57.8324 109.647 55.4714 110.799 53.5883L104.689 55.1144C106.789 51.2906 110.706 44.1613 112.568 40.7752C112.568 40.7752 108.017 41.9558 107.092 42.1976C110.787 35.8285 114.238 29.8741 117.648 24.0002C120.878 29.5574 124.963 36.5829 128.228 42.2034L122.74 40.7637C125.278 45.3995 128.048 50.4268 130.62 55.1201C129.2 54.7631 125.982 53.9568 124.492 53.5883C126.779 57.0665 130.777 63.4183 133 66.9772L102 67.0002L102.006 66.9945Z"
    fill="url(#paint15_linear_284_4386)" />
  <path
    d="M27.0056 59.9946C28.498 57.621 30.2213 54.7074 31.4716 52.7331C32.8063 51.0457 34.4 48.7395 35.5151 46.9002L29.6019 48.3908C31.6349 44.6559 35.425 37.6925 37.2271 34.3851C37.2271 34.3851 32.8232 35.5382 31.9277 35.7744C35.5038 29.5535 38.8434 23.7375 42.1436 18.0002C45.2692 23.4281 49.2226 30.2903 52.382 35.7801L47.0713 34.3739C49.5268 38.9018 52.2074 43.8122 54.6966 48.3964C53.3225 48.0476 50.2082 47.2602 48.7665 46.9002C50.9797 50.2975 54.8487 56.5016 57 59.9777L27 60.0002L27.0056 59.9946Z"
    fill="url(#paint16_linear_284_4386)" />
  <path
    d="M55.0056 69.9946C56.498 67.621 58.2213 64.7074 59.4716 62.7331C60.8063 61.0457 62.4 58.7395 63.5151 56.9002L57.6018 58.3908C59.6349 54.6559 63.425 47.6925 65.2271 44.3851C65.2271 44.3851 60.8232 45.5382 59.9277 45.7744C63.5038 39.5535 66.8434 33.7375 70.1436 28.0002C73.2692 33.4281 77.2226 40.2903 80.382 45.7801L75.0713 44.3739C77.5267 48.9018 80.2074 53.8122 82.6966 58.3964C81.3225 58.0476 78.2082 57.2602 76.7665 56.9002C78.9797 60.2975 82.8487 66.5016 85 69.9777L55 70.0002L55.0056 69.9946Z"
    fill="url(#paint17_linear_284_4386)" />
  <path
    d="M79.0054 69.9946C80.4481 67.621 82.114 64.7074 83.3225 62.7331C84.6127 61.0457 86.1534 58.7395 87.2313 56.9002L81.5151 58.3908C83.4804 54.6559 87.1442 47.6925 88.8862 44.3851C88.8862 44.3851 84.6291 45.5382 83.7635 45.7745C87.2204 39.5535 90.4487 33.7375 93.6388 28.0002C96.6602 33.4281 100.482 40.2903 103.536 45.7801L98.4023 44.3739C100.776 48.9018 103.367 53.8122 105.773 58.3964C104.445 58.0476 101.435 57.2602 100.041 56.9002C102.18 60.2976 105.92 66.5017 108 69.9778L79 70.0002L79.0054 69.9946Z"
    fill="url(#paint18_linear_284_4386)" />
  <path
    d="M109.006 72.9946C110.498 70.621 112.221 67.7074 113.472 65.7331C114.806 64.0457 116.4 61.7395 117.515 59.9002L111.602 61.3908C113.635 57.6559 117.425 50.6925 119.227 47.3851C119.227 47.3851 114.823 48.5382 113.928 48.7744C117.504 42.5535 120.843 36.7375 124.144 31.0002C127.269 36.4281 131.223 43.2903 134.382 48.7801L129.071 47.3739C131.527 51.9018 134.207 56.8122 136.697 61.3964C135.322 61.0476 132.208 60.2602 130.766 59.9002C132.98 63.2975 136.849 69.5016 139 72.9777L109 73.0002L109.006 72.9946Z"
    fill="url(#paint19_linear_284_4386)" />
  <path
    d="M15.0056 72.9946C16.498 70.621 18.2213 67.7074 19.4716 65.7331C20.8063 64.0457 22.4 61.7395 23.5151 59.9002L17.6018 61.3908C19.6349 57.6559 23.425 50.6925 25.2271 47.3851C25.2271 47.3851 20.8232 48.5382 19.9277 48.7744C23.5038 42.5535 26.8434 36.7375 30.1436 31.0002C33.2692 36.4281 37.2226 43.2903 40.382 48.7801L35.0713 47.3739C37.5268 51.9018 40.2074 56.8122 42.6966 61.3964C41.3225 61.0476 38.2082 60.2602 36.7665 59.9002C38.9797 63.2975 42.8487 69.5016 45 72.9777L15 73.0002L15.0056 72.9946Z"
    fill="url(#paint20_linear_284_4386)" />
  <path
    d="M33.0056 66.9945C34.498 64.5643 36.2213 61.5813 37.4716 59.5601C38.8063 57.8324 40.4 55.4714 41.5151 53.5883L35.6019 55.1144C37.6349 51.2906 41.425 44.1613 43.2271 40.7752C43.2271 40.7752 38.8232 41.9558 37.9277 42.1976C41.5038 35.8285 44.8434 29.8741 48.1436 24.0002C51.2692 29.5574 55.2226 36.5829 58.382 42.2034L53.0713 40.7637C55.5268 45.3995 58.2074 50.4268 60.6966 55.1201C59.3225 54.7631 56.2082 53.9568 54.7665 53.5883C56.9797 57.0665 60.8487 63.4183 63 66.9772L33 67.0002L33.0056 66.9945Z"
    fill="url(#paint21_linear_284_4386)" />
  <path
    d="M63.0058 73.9945C64.548 71.5643 66.3287 68.5813 67.6206 66.5601C68.9998 64.8324 70.6467 62.4714 71.7989 60.5883L65.6886 62.1144C67.7894 58.2906 71.7058 51.1613 73.5681 47.7752C73.5681 47.7752 69.0173 48.9558 68.092 49.1976C71.7873 42.8285 75.2382 36.8741 78.6484 31.0002C81.8782 36.5574 85.9634 43.5829 89.2281 49.2034L83.7404 47.7637C86.2776 52.3995 89.0477 57.4268 91.6199 62.1201C90.1999 61.7631 86.9818 60.9568 85.492 60.5883C87.7791 64.0665 91.777 70.4183 94 73.9772L63 74.0002L63.0058 73.9945Z"
    fill="url(#paint22_linear_284_4386)" />
  <path
    d="M95.0056 71.9945C96.498 69.5643 98.2213 66.5813 99.4716 64.5601C100.806 62.8324 102.4 60.4714 103.515 58.5883L97.6019 60.1144C99.6349 56.2906 103.425 49.1614 105.227 45.7753C105.227 45.7753 100.823 46.9558 99.9277 47.1977C103.504 40.8286 106.843 34.8741 110.144 29.0002C113.269 34.5574 117.223 41.5829 120.382 47.2034L115.071 45.7637C117.527 50.3995 120.207 55.4268 122.697 60.1201C121.323 59.7631 118.208 58.9569 116.766 58.5883C118.98 62.0665 122.849 68.4184 125 71.9772L95 72.0002L95.0056 71.9945Z"
    fill="url(#paint23_linear_284_4386)" />
  <path
    d="M22.0058 74.9946C23.548 72.621 25.3287 69.7074 26.6206 67.7331C27.9998 66.0457 29.6467 63.7395 30.7989 61.9002L24.6886 63.3908C26.7894 59.6559 30.7058 52.6925 32.5681 49.3851C32.5681 49.3851 28.0173 50.5382 27.092 50.7744C30.7873 44.5535 34.2382 38.7375 37.6484 33.0002C40.8782 38.4281 44.9634 45.2903 48.2281 50.7801L42.7404 49.3739C45.2777 53.9018 48.0477 58.8122 50.6199 63.3964C49.1999 63.0476 45.9818 62.2602 44.492 61.9002C46.7791 65.2975 50.777 71.5016 53 74.9777L22 75.0002L22.0058 74.9946Z"
    fill="url(#paint24_linear_284_4386)" />
  <path
    d="M47.0056 75.9946C48.498 73.621 50.2213 70.7074 51.4716 68.7331C52.8063 67.0457 54.4 64.7395 55.5151 62.9002L49.6019 64.3908C51.6349 60.6559 55.425 53.6925 57.2271 50.3851C57.2271 50.3851 52.8232 51.5382 51.9277 51.7744C55.5038 45.5535 58.8434 39.7375 62.1436 34.0002C65.2692 39.4281 69.2226 46.2903 72.382 51.7801L67.0713 50.3739C69.5268 54.9018 72.2074 59.8122 74.6966 64.3964C73.3225 64.0476 70.2082 63.2602 68.7665 62.9002C70.9797 66.2975 74.8487 72.5016 77 75.9777L47 76.0002L47.0056 75.9946Z"
    fill="url(#paint25_linear_284_4386)" />
  <path
    d="M85.0068 83.9935C86.7976 81.1678 88.8656 77.6992 90.3659 75.3489C91.9675 73.34 93.8801 70.5946 95.2181 68.4049L88.1222 70.1794C90.5619 65.7332 95.11 57.4434 97.2726 53.5061C97.2726 53.5061 91.9878 54.8788 90.9133 55.16C95.2046 47.7541 99.2121 40.8303 103.172 34.0002C106.923 40.462 111.667 48.6313 115.458 55.1667L109.086 53.4927C112.032 58.8831 115.249 64.7288 118.236 70.1861C116.587 69.771 112.85 68.8335 111.12 68.4049C113.776 72.4494 118.418 79.8352 121 83.9735L85 84.0002L85.0068 83.9935Z"
    fill="url(#paint26_linear_284_4386)" />
  <path
    d="M74.0054 79.9945C75.4481 77.5643 77.1139 74.5813 78.3225 72.5601C79.6127 70.8324 81.1534 68.4714 82.2313 66.5883L76.5151 68.1144C78.4804 64.2906 82.1442 57.1613 83.8862 53.7752C83.8862 53.7752 79.6291 54.9558 78.7635 55.1976C82.2204 48.8285 85.4487 42.8741 88.6388 37.0002C91.6602 42.5574 95.4819 49.5829 98.536 55.2034L93.4023 53.7637C95.7759 58.3995 98.3672 63.4268 100.773 68.1201C99.4451 67.7631 96.4346 66.9568 95.0409 66.5883C97.1804 70.0665 100.92 76.4183 103 79.9772L74 80.0002L74.0054 79.9945Z"
    fill="url(#paint27_linear_284_4386)" />
  <path
    d="M147.008 80.9923C149.097 77.6579 151.51 73.565 153.26 70.7916C155.129 68.4212 157.36 65.1816 158.921 62.5978L150.643 64.6917C153.489 59.4451 158.795 49.6631 161.318 45.0171C161.318 45.0171 155.152 46.6369 153.899 46.9688C158.905 38.2298 163.581 30.0597 168.201 22.0002C172.577 29.6251 178.112 39.2649 182.535 46.9767L175.1 45.0013C178.537 51.362 182.29 58.2599 185.775 64.6996C183.852 64.2097 179.491 63.1035 177.473 62.5978C180.572 67.3703 185.988 76.0855 189 80.9686L147 81.0002L147.008 80.9923Z"
    fill="url(#paint28_linear_284_4386)" />
  <path
    d="M123.007 79.9938C124.748 77.2811 126.758 73.9512 128.217 71.6949C129.774 69.7664 131.633 67.1308 132.934 65.0288L126.035 66.7323C128.407 62.4639 132.829 54.5057 134.932 50.7258C134.932 50.7258 129.794 52.0436 128.749 52.3136C132.921 45.2039 136.817 38.5571 140.668 32.0002C144.314 38.2035 148.926 46.046 152.612 52.32L146.417 50.713C149.281 55.8877 152.409 61.4996 155.313 66.7387C153.71 66.3401 150.076 65.4402 148.394 65.0288C150.976 68.9115 155.49 76.0019 158 79.9745L123 80.0002L123.007 79.9938Z"
    fill="url(#paint29_linear_284_4386)" />
  <defs>
    <linearGradient id="paint0_linear_284_4386" x1="238.518" y1="99.0894" x2="238.518" y2="1.61411"
      gradientUnits="userSpaceOnUse">
      <stop offset="0.0520646" stop-color="#14B580" />
      <stop offset="0.293295" stop-color="#15BA81" />
      <stop offset="0.519019" stop-color="#3BC585" />
      <stop offset="0.733731" stop-color="#89DC8D" />
      <stop offset="0.912658" stop-color="#FDFF9A" />
    </linearGradient>
    <linearGradient id="paint1_linear_284_4386" x1="274.026" y1="135.659" x2="274.026" y2="-12.7696"
      gradientUnits="userSpaceOnUse">
      <stop offset="0.0520646" stop-color="#14B37E" />
      <stop offset="0.249569" stop-color="#15BA81" />
      <stop offset="0.470908" stop-color="#3BC585" />
      <stop offset="0.716226" stop-color="#89DC8D" />
      <stop offset="0.876751" stop-color="#FDFF9A" />
    </linearGradient>
    <linearGradient id="paint2_linear_284_4386" x1="188.008" y1="73.0191" x2="188.008" y2="-54.9945"
      gradientUnits="userSpaceOnUse">
      <stop offset="0.23" stop-color="#10B981" />
      <stop offset="0.26" stop-color="#15BA81" />
      <stop offset="0.28" stop-color="#23BE83" />
      <stop offset="0.31" stop-color="#3BC585" />
      <stop offset="0.34" stop-color="#5DCF89" />
      <stop offset="0.37" stop-color="#89DC8D" />
      <stop offset="0.4" stop-color="#BEEC93" />
      <stop offset="0.43" stop-color="#FDFF9A" />
      <stop offset="0.53" stop-color="#FCFB9B" />
      <stop offset="0.6" stop-color="#F9F1A1" />
      <stop offset="0.68" stop-color="#F5DFAB" />
      <stop offset="0.69" stop-color="#F4DBAE" />
    </linearGradient>
    <linearGradient id="paint3_linear_284_4386" x1="210.509" y1="75.0135" x2="210.509" y2="-52.9945"
      gradientUnits="userSpaceOnUse">
      <stop offset="0.23" stop-color="#10B981" />
      <stop offset="0.26" stop-color="#15BA81" />
      <stop offset="0.28" stop-color="#23BE83" />
      <stop offset="0.31" stop-color="#3BC585" />
      <stop offset="0.34" stop-color="#5DCF89" />
      <stop offset="0.37" stop-color="#89DC8D" />
      <stop offset="0.4" stop-color="#BEEC93" />
      <stop offset="0.43" stop-color="#FDFF9A" />
      <stop offset="0.53" stop-color="#FCFB9B" />
      <stop offset="0.6" stop-color="#F9F1A1" />
      <stop offset="0.68" stop-color="#F5DFAB" />
      <stop offset="0.69" stop-color="#F4DBAE" />
    </linearGradient>
    <linearGradient id="paint4_linear_284_4386" x1="201.515" y1="116.464" x2="201.515" y2="-121.276"
      gradientUnits="userSpaceOnUse">
      <stop offset="0.23" stop-color="#10B981" />
      <stop offset="0.26" stop-color="#15BA81" />
      <stop offset="0.28" stop-color="#23BE83" />
      <stop offset="0.31" stop-color="#3BC585" />
      <stop offset="0.34" stop-color="#5DCF89" />
      <stop offset="0.37" stop-color="#89DC8D" />
      <stop offset="0.4" stop-color="#BEEC93" />
      <stop offset="0.43" stop-color="#FDFF9A" />
      <stop offset="0.53" stop-color="#FCFB9B" />
      <stop offset="0.6" stop-color="#F9F1A1" />
      <stop offset="0.68" stop-color="#F5DFAB" />
      <stop offset="0.69" stop-color="#F4DBAE" />
    </linearGradient>
    <linearGradient id="paint5_linear_284_4386" x1="133.008" y1="67.0135" x2="133.008" y2="-60.9945"
      gradientUnits="userSpaceOnUse">
      <stop offset="0.23" stop-color="#10B981" />
      <stop offset="0.26" stop-color="#15BA81" />
      <stop offset="0.28" stop-color="#23BE83" />
      <stop offset="0.31" stop-color="#3BC585" />
      <stop offset="0.34" stop-color="#5DCF89" />
      <stop offset="0.37" stop-color="#89DC8D" />
      <stop offset="0.4" stop-color="#BEEC93" />
      <stop offset="0.43" stop-color="#FDFF9A" />
      <stop offset="0.53" stop-color="#FCFB9B" />
      <stop offset="0.6" stop-color="#F9F1A1" />
      <stop offset="0.68" stop-color="#F5DFAB" />
      <stop offset="0.69" stop-color="#F4DBAE" />
    </linearGradient>
    <linearGradient id="paint6_linear_284_4386" x1="160.008" y1="67.0135" x2="160.008" y2="-60.9945"
      gradientUnits="userSpaceOnUse">
      <stop offset="0.23" stop-color="#10B981" />
      <stop offset="0.26" stop-color="#15BA81" />
      <stop offset="0.28" stop-color="#23BE83" />
      <stop offset="0.31" stop-color="#3BC585" />
      <stop offset="0.34" stop-color="#5DCF89" />
      <stop offset="0.37" stop-color="#89DC8D" />
      <stop offset="0.4" stop-color="#BEEC93" />
      <stop offset="0.43" stop-color="#FDFF9A" />
      <stop offset="0.53" stop-color="#FCFB9B" />
      <stop offset="0.6" stop-color="#F9F1A1" />
      <stop offset="0.68" stop-color="#F5DFAB" />
      <stop offset="0.69" stop-color="#F4DBAE" />
    </linearGradient>
    <linearGradient id="paint7_linear_284_4386" x1="19.0051" y1="41.5558" x2="19.0051" y2="-34.6395"
      gradientUnits="userSpaceOnUse">
      <stop offset="0.23" stop-color="#10B981" />
      <stop offset="0.26" stop-color="#15BA81" />
      <stop offset="0.28" stop-color="#23BE83" />
      <stop offset="0.31" stop-color="#3BC585" />
      <stop offset="0.34" stop-color="#5DCF89" />
      <stop offset="0.37" stop-color="#89DC8D" />
      <stop offset="0.4" stop-color="#BEEC93" />
      <stop offset="0.43" stop-color="#FDFF9A" />
      <stop offset="0.53" stop-color="#FCFB9B" />
      <stop offset="0.6" stop-color="#F9F1A1" />
      <stop offset="0.68" stop-color="#F5DFAB" />
      <stop offset="0.69" stop-color="#F4DBAE" />
    </linearGradient>
    <linearGradient id="paint8_linear_284_4386" x1="11.9037" y1="99.7257" x2="10.232" y2="-60.386"
      gradientUnits="userSpaceOnUse">
      <stop stop-color="#108381" />
      <stop offset="0.23" stop-color="#10B981" />
      <stop offset="0.26" stop-color="#15BA81" />
      <stop offset="0.28" stop-color="#23BE83" />
      <stop offset="0.31" stop-color="#3BC585" />
      <stop offset="0.34" stop-color="#5DCF89" />
      <stop offset="0.37" stop-color="#89DC8D" />
      <stop offset="0.4" stop-color="#BEEC93" />
      <stop offset="0.43" stop-color="#FDFF9A" />
      <stop offset="0.53" stop-color="#FCFB9B" />
      <stop offset="0.6" stop-color="#F9F1A1" />
      <stop offset="0.68" stop-color="#F5DFAB" />
      <stop offset="0.69" stop-color="#F4DBAE" />
    </linearGradient>
    <linearGradient id="paint9_linear_284_4386" x1="53.0383" y1="111.394" x2="50.7988" y2="-103.762"
      gradientUnits="userSpaceOnUse">
      <stop stop-color="#108381" />
      <stop offset="0.23" stop-color="#10B981" />
      <stop offset="0.26" stop-color="#15BA81" />
      <stop offset="0.28" stop-color="#23BE83" />
      <stop offset="0.31" stop-color="#3BC585" />
      <stop offset="0.34" stop-color="#5DCF89" />
      <stop offset="0.37" stop-color="#89DC8D" />
      <stop offset="0.4" stop-color="#BEEC93" />
      <stop offset="0.43" stop-color="#FDFF9A" />
      <stop offset="0.53" stop-color="#FCFB9B" />
      <stop offset="0.6" stop-color="#F9F1A1" />
      <stop offset="0.68" stop-color="#F5DFAB" />
      <stop offset="0.69" stop-color="#F4DBAE" />
    </linearGradient>
    <linearGradient id="paint10_linear_284_4386" x1="77.0383" y1="111.93" x2="74.9017" y2="-98.2178"
      gradientUnits="userSpaceOnUse">
      <stop stop-color="#108381" />
      <stop offset="0.23" stop-color="#10B981" />
      <stop offset="0.26" stop-color="#15BA81" />
      <stop offset="0.28" stop-color="#23BE83" />
      <stop offset="0.31" stop-color="#3BC585" />
      <stop offset="0.34" stop-color="#5DCF89" />
      <stop offset="0.37" stop-color="#89DC8D" />
      <stop offset="0.4" stop-color="#BEEC93" />
      <stop offset="0.43" stop-color="#FDFF9A" />
      <stop offset="0.53" stop-color="#FCFB9B" />
      <stop offset="0.6" stop-color="#F9F1A1" />
      <stop offset="0.68" stop-color="#F5DFAB" />
      <stop offset="0.69" stop-color="#F4DBAE" />
    </linearGradient>
    <linearGradient id="paint11_linear_284_4386" x1="104.032" y1="115.795" x2="101.793" y2="-99.3605"
      gradientUnits="userSpaceOnUse">
      <stop stop-color="#108381" />
      <stop offset="0.23" stop-color="#10B981" />
      <stop offset="0.26" stop-color="#15BA81" />
      <stop offset="0.28" stop-color="#23BE83" />
      <stop offset="0.31" stop-color="#3BC585" />
      <stop offset="0.34" stop-color="#5DCF89" />
      <stop offset="0.37" stop-color="#89DC8D" />
      <stop offset="0.4" stop-color="#BEEC93" />
      <stop offset="0.43" stop-color="#FDFF9A" />
      <stop offset="0.53" stop-color="#FCFB9B" />
      <stop offset="0.6" stop-color="#F9F1A1" />
      <stop offset="0.68" stop-color="#F5DFAB" />
      <stop offset="0.69" stop-color="#F4DBAE" />
    </linearGradient>
    <linearGradient id="paint12_linear_284_4386" x1="30.507" y1="57.9157" x2="30.507" y2="-45.7098"
      gradientUnits="userSpaceOnUse">
      <stop offset="0.23" stop-color="#10B981" />
      <stop offset="0.26" stop-color="#15BA81" />
      <stop offset="0.28" stop-color="#23BE83" />
      <stop offset="0.31" stop-color="#3BC585" />
      <stop offset="0.34" stop-color="#5DCF89" />
      <stop offset="0.37" stop-color="#89DC8D" />
      <stop offset="0.4" stop-color="#BEEC93" />
      <stop offset="0.43" stop-color="#FDFF9A" />
      <stop offset="0.53" stop-color="#FCFB9B" />
      <stop offset="0.6" stop-color="#F9F1A1" />
      <stop offset="0.68" stop-color="#F5DFAB" />
      <stop offset="0.69" stop-color="#F4DBAE" />
    </linearGradient>
    <linearGradient id="paint13_linear_284_4386" x1="63.5087" y1="74.0135" x2="63.5087" y2="-53.9945"
      gradientUnits="userSpaceOnUse">
      <stop offset="0.23" stop-color="#10B981" />
      <stop offset="0.26" stop-color="#15BA81" />
      <stop offset="0.28" stop-color="#23BE83" />
      <stop offset="0.31" stop-color="#3BC585" />
      <stop offset="0.34" stop-color="#5DCF89" />
      <stop offset="0.37" stop-color="#89DC8D" />
      <stop offset="0.4" stop-color="#BEEC93" />
      <stop offset="0.43" stop-color="#FDFF9A" />
      <stop offset="0.53" stop-color="#FCFB9B" />
      <stop offset="0.6" stop-color="#F9F1A1" />
      <stop offset="0.68" stop-color="#F5DFAB" />
      <stop offset="0.69" stop-color="#F4DBAE" />
    </linearGradient>
    <linearGradient id="paint14_linear_284_4386" x1="91.5087" y1="67.0191" x2="91.5087" y2="-60.9945"
      gradientUnits="userSpaceOnUse">
      <stop offset="0.23" stop-color="#10B981" />
      <stop offset="0.26" stop-color="#15BA81" />
      <stop offset="0.28" stop-color="#23BE83" />
      <stop offset="0.31" stop-color="#3BC585" />
      <stop offset="0.34" stop-color="#5DCF89" />
      <stop offset="0.37" stop-color="#89DC8D" />
      <stop offset="0.4" stop-color="#BEEC93" />
      <stop offset="0.43" stop-color="#FDFF9A" />
      <stop offset="0.53" stop-color="#FCFB9B" />
      <stop offset="0.6" stop-color="#F9F1A1" />
      <stop offset="0.68" stop-color="#F5DFAB" />
      <stop offset="0.69" stop-color="#F4DBAE" />
    </linearGradient>
    <linearGradient id="paint15_linear_284_4386" x1="117.509" y1="78.2757" x2="117.509" y2="-52.7801"
      gradientUnits="userSpaceOnUse">
      <stop offset="0.23" stop-color="#10B981" />
      <stop offset="0.26" stop-color="#15BA81" />
      <stop offset="0.28" stop-color="#23BE83" />
      <stop offset="0.31" stop-color="#3BC585" />
      <stop offset="0.34" stop-color="#5DCF89" />
      <stop offset="0.37" stop-color="#89DC8D" />
      <stop offset="0.4" stop-color="#BEEC93" />
      <stop offset="0.43" stop-color="#FDFF9A" />
      <stop offset="0.53" stop-color="#FCFB9B" />
      <stop offset="0.6" stop-color="#F9F1A1" />
      <stop offset="0.68" stop-color="#F5DFAB" />
      <stop offset="0.69" stop-color="#F4DBAE" />
    </linearGradient>
    <linearGradient id="paint16_linear_284_4386" x1="42.0084" y1="71.0135" x2="42.0084" y2="-56.9945"
      gradientUnits="userSpaceOnUse">
      <stop offset="0.23" stop-color="#10B981" />
      <stop offset="0.26" stop-color="#15BA81" />
      <stop offset="0.28" stop-color="#23BE83" />
      <stop offset="0.31" stop-color="#3BC585" />
      <stop offset="0.34" stop-color="#5DCF89" />
      <stop offset="0.37" stop-color="#89DC8D" />
      <stop offset="0.4" stop-color="#BEEC93" />
      <stop offset="0.43" stop-color="#FDFF9A" />
      <stop offset="0.53" stop-color="#FCFB9B" />
      <stop offset="0.6" stop-color="#F9F1A1" />
      <stop offset="0.68" stop-color="#F5DFAB" />
      <stop offset="0.69" stop-color="#F4DBAE" />
    </linearGradient>
    <linearGradient id="paint17_linear_284_4386" x1="70.0084" y1="81.0135" x2="70.0084" y2="-46.9945"
      gradientUnits="userSpaceOnUse">
      <stop offset="0.23" stop-color="#10B981" />
      <stop offset="0.26" stop-color="#15BA81" />
      <stop offset="0.28" stop-color="#23BE83" />
      <stop offset="0.31" stop-color="#3BC585" />
      <stop offset="0.34" stop-color="#5DCF89" />
      <stop offset="0.37" stop-color="#89DC8D" />
      <stop offset="0.4" stop-color="#BEEC93" />
      <stop offset="0.43" stop-color="#FDFF9A" />
      <stop offset="0.53" stop-color="#FCFB9B" />
      <stop offset="0.6" stop-color="#F9F1A1" />
      <stop offset="0.68" stop-color="#F5DFAB" />
      <stop offset="0.69" stop-color="#F4DBAE" />
    </linearGradient>
    <linearGradient id="paint18_linear_284_4386" x1="93.5082" y1="81.0191" x2="93.5082" y2="-46.9945"
      gradientUnits="userSpaceOnUse">
      <stop offset="0.23" stop-color="#10B981" />
      <stop offset="0.26" stop-color="#15BA81" />
      <stop offset="0.28" stop-color="#23BE83" />
      <stop offset="0.31" stop-color="#3BC585" />
      <stop offset="0.34" stop-color="#5DCF89" />
      <stop offset="0.37" stop-color="#89DC8D" />
      <stop offset="0.4" stop-color="#BEEC93" />
      <stop offset="0.43" stop-color="#FDFF9A" />
      <stop offset="0.53" stop-color="#FCFB9B" />
      <stop offset="0.6" stop-color="#F9F1A1" />
      <stop offset="0.68" stop-color="#F5DFAB" />
      <stop offset="0.69" stop-color="#F4DBAE" />
    </linearGradient>
    <linearGradient id="paint19_linear_284_4386" x1="124.008" y1="84.0135" x2="124.008" y2="-43.9945"
      gradientUnits="userSpaceOnUse">
      <stop offset="0.23" stop-color="#10B981" />
      <stop offset="0.26" stop-color="#15BA81" />
      <stop offset="0.28" stop-color="#23BE83" />
      <stop offset="0.31" stop-color="#3BC585" />
      <stop offset="0.34" stop-color="#5DCF89" />
      <stop offset="0.37" stop-color="#89DC8D" />
      <stop offset="0.4" stop-color="#BEEC93" />
      <stop offset="0.43" stop-color="#FDFF9A" />
      <stop offset="0.53" stop-color="#FCFB9B" />
      <stop offset="0.6" stop-color="#F9F1A1" />
      <stop offset="0.68" stop-color="#F5DFAB" />
      <stop offset="0.69" stop-color="#F4DBAE" />
    </linearGradient>
    <linearGradient id="paint20_linear_284_4386" x1="30.0084" y1="84.0135" x2="30.0084" y2="-43.9945"
      gradientUnits="userSpaceOnUse">
      <stop offset="0.23" stop-color="#10B981" />
      <stop offset="0.26" stop-color="#15BA81" />
      <stop offset="0.28" stop-color="#23BE83" />
      <stop offset="0.31" stop-color="#3BC585" />
      <stop offset="0.34" stop-color="#5DCF89" />
      <stop offset="0.37" stop-color="#89DC8D" />
      <stop offset="0.4" stop-color="#BEEC93" />
      <stop offset="0.43" stop-color="#FDFF9A" />
      <stop offset="0.53" stop-color="#FCFB9B" />
      <stop offset="0.6" stop-color="#F9F1A1" />
      <stop offset="0.68" stop-color="#F5DFAB" />
      <stop offset="0.69" stop-color="#F4DBAE" />
    </linearGradient>
    <linearGradient id="paint21_linear_284_4386" x1="48.0084" y1="78.2757" x2="48.0084" y2="-52.7801"
      gradientUnits="userSpaceOnUse">
      <stop offset="0.23" stop-color="#10B981" />
      <stop offset="0.26" stop-color="#15BA81" />
      <stop offset="0.28" stop-color="#23BE83" />
      <stop offset="0.31" stop-color="#3BC585" />
      <stop offset="0.34" stop-color="#5DCF89" />
      <stop offset="0.37" stop-color="#89DC8D" />
      <stop offset="0.4" stop-color="#BEEC93" />
      <stop offset="0.43" stop-color="#FDFF9A" />
      <stop offset="0.53" stop-color="#FCFB9B" />
      <stop offset="0.6" stop-color="#F9F1A1" />
      <stop offset="0.68" stop-color="#F5DFAB" />
      <stop offset="0.69" stop-color="#F4DBAE" />
    </linearGradient>
    <linearGradient id="paint22_linear_284_4386" x1="78.5087" y1="85.2757" x2="78.5087" y2="-45.7801"
      gradientUnits="userSpaceOnUse">
      <stop offset="0.23" stop-color="#10B981" />
      <stop offset="0.26" stop-color="#15BA81" />
      <stop offset="0.28" stop-color="#23BE83" />
      <stop offset="0.31" stop-color="#3BC585" />
      <stop offset="0.34" stop-color="#5DCF89" />
      <stop offset="0.37" stop-color="#89DC8D" />
      <stop offset="0.4" stop-color="#BEEC93" />
      <stop offset="0.43" stop-color="#FDFF9A" />
      <stop offset="0.53" stop-color="#FCFB9B" />
      <stop offset="0.6" stop-color="#F9F1A1" />
      <stop offset="0.68" stop-color="#F5DFAB" />
      <stop offset="0.69" stop-color="#F4DBAE" />
    </linearGradient>
    <linearGradient id="paint23_linear_284_4386" x1="110.008" y1="83.2815" x2="110.008" y2="-47.7801"
      gradientUnits="userSpaceOnUse">
      <stop offset="0.23" stop-color="#10B981" />
      <stop offset="0.26" stop-color="#15BA81" />
      <stop offset="0.28" stop-color="#23BE83" />
      <stop offset="0.31" stop-color="#3BC585" />
      <stop offset="0.34" stop-color="#5DCF89" />
      <stop offset="0.37" stop-color="#89DC8D" />
      <stop offset="0.4" stop-color="#BEEC93" />
      <stop offset="0.43" stop-color="#FDFF9A" />
      <stop offset="0.53" stop-color="#FCFB9B" />
      <stop offset="0.6" stop-color="#F9F1A1" />
      <stop offset="0.68" stop-color="#F5DFAB" />
      <stop offset="0.69" stop-color="#F4DBAE" />
    </linearGradient>
    <linearGradient id="paint24_linear_284_4386" x1="37.5087" y1="86.0135" x2="37.5087" y2="-41.9945"
      gradientUnits="userSpaceOnUse">
      <stop offset="0.23" stop-color="#10B981" />
      <stop offset="0.26" stop-color="#15BA81" />
      <stop offset="0.28" stop-color="#23BE83" />
      <stop offset="0.31" stop-color="#3BC585" />
      <stop offset="0.34" stop-color="#5DCF89" />
      <stop offset="0.37" stop-color="#89DC8D" />
      <stop offset="0.4" stop-color="#BEEC93" />
      <stop offset="0.43" stop-color="#FDFF9A" />
      <stop offset="0.53" stop-color="#FCFB9B" />
      <stop offset="0.6" stop-color="#F9F1A1" />
      <stop offset="0.68" stop-color="#F5DFAB" />
      <stop offset="0.69" stop-color="#F4DBAE" />
    </linearGradient>
    <linearGradient id="paint25_linear_284_4386" x1="62.0084" y1="87.0135" x2="62.0084" y2="-40.9945"
      gradientUnits="userSpaceOnUse">
      <stop offset="0.23" stop-color="#10B981" />
      <stop offset="0.26" stop-color="#15BA81" />
      <stop offset="0.28" stop-color="#23BE83" />
      <stop offset="0.31" stop-color="#3BC585" />
      <stop offset="0.34" stop-color="#5DCF89" />
      <stop offset="0.37" stop-color="#89DC8D" />
      <stop offset="0.4" stop-color="#BEEC93" />
      <stop offset="0.43" stop-color="#FDFF9A" />
      <stop offset="0.53" stop-color="#FCFB9B" />
      <stop offset="0.6" stop-color="#F9F1A1" />
      <stop offset="0.68" stop-color="#F5DFAB" />
      <stop offset="0.69" stop-color="#F4DBAE" />
    </linearGradient>
    <linearGradient id="paint26_linear_284_4386" x1="103.01" y1="97.1113" x2="103.01" y2="-55.2793"
      gradientUnits="userSpaceOnUse">
      <stop offset="0.23" stop-color="#10B981" />
      <stop offset="0.26" stop-color="#15BA81" />
      <stop offset="0.28" stop-color="#23BE83" />
      <stop offset="0.31" stop-color="#3BC585" />
      <stop offset="0.34" stop-color="#5DCF89" />
      <stop offset="0.37" stop-color="#89DC8D" />
      <stop offset="0.4" stop-color="#BEEC93" />
      <stop offset="0.43" stop-color="#FDFF9A" />
      <stop offset="0.53" stop-color="#FCFB9B" />
      <stop offset="0.6" stop-color="#F9F1A1" />
      <stop offset="0.68" stop-color="#F5DFAB" />
      <stop offset="0.69" stop-color="#F4DBAE" />
    </linearGradient>
    <linearGradient id="paint27_linear_284_4386" x1="88.5082" y1="91.2757" x2="88.5082" y2="-39.7801"
      gradientUnits="userSpaceOnUse">
      <stop offset="0.23" stop-color="#10B981" />
      <stop offset="0.26" stop-color="#15BA81" />
      <stop offset="0.28" stop-color="#23BE83" />
      <stop offset="0.31" stop-color="#3BC585" />
      <stop offset="0.34" stop-color="#5DCF89" />
      <stop offset="0.37" stop-color="#89DC8D" />
      <stop offset="0.4" stop-color="#BEEC93" />
      <stop offset="0.43" stop-color="#FDFF9A" />
      <stop offset="0.53" stop-color="#FCFB9B" />
      <stop offset="0.6" stop-color="#F9F1A1" />
      <stop offset="0.68" stop-color="#F5DFAB" />
      <stop offset="0.69" stop-color="#F4DBAE" />
    </linearGradient>
    <linearGradient id="paint28_linear_284_4386" x1="168.012" y1="96.4712" x2="168.012" y2="-83.3496"
      gradientUnits="userSpaceOnUse">
      <stop offset="0.23" stop-color="#10B981" />
      <stop offset="0.26" stop-color="#15BA81" />
      <stop offset="0.28" stop-color="#23BE83" />
      <stop offset="0.31" stop-color="#3BC585" />
      <stop offset="0.34" stop-color="#5DCF89" />
      <stop offset="0.37" stop-color="#89DC8D" />
      <stop offset="0.4" stop-color="#BEEC93" />
      <stop offset="0.43" stop-color="#FDFF9A" />
      <stop offset="0.53" stop-color="#FCFB9B" />
      <stop offset="0.6" stop-color="#F9F1A1" />
      <stop offset="0.68" stop-color="#F5DFAB" />
      <stop offset="0.69" stop-color="#F4DBAE" />
    </linearGradient>
    <linearGradient id="paint29_linear_284_4386" x1="140.51" y1="92.5933" x2="140.51" y2="-53.7081"
      gradientUnits="userSpaceOnUse">
      <stop offset="0.23" stop-color="#10B981" />
      <stop offset="0.26" stop-color="#15BA81" />
      <stop offset="0.28" stop-color="#23BE83" />
      <stop offset="0.31" stop-color="#3BC585" />
      <stop offset="0.34" stop-color="#5DCF89" />
      <stop offset="0.37" stop-color="#89DC8D" />
      <stop offset="0.4" stop-color="#BEEC93" />
      <stop offset="0.43" stop-color="#FDFF9A" />
      <stop offset="0.53" stop-color="#FCFB9B" />
      <stop offset="0.6" stop-color="#F9F1A1" />
      <stop offset="0.68" stop-color="#F5DFAB" />
      <stop offset="0.69" stop-color="#F4DBAE" />
    </linearGradient>
  </defs>
</svg>